<?xml version="1.0" encoding="UTF-8"?>
<svg viewBox="0 0 800 600" xmlns="http://www.w3.org/2000/svg">
 <defs>
  <radialGradient id="a" cx="250.5" cy="330.5" r="231.32" gradientUnits="userSpaceOnUse">
   <stop stop-color="#fff" offset="0"/>
   <stop stop-color="#fcee8c" offset="1"/>
  </radialGradient>
 </defs>
 <g transform="matrix(1.6867 0 0 1.6867 -161.93 -174.09)">
  <path d="m537.5 475.5c0 6.627-5.373 12-12 12h-387c-6.627 0-12-5.373-12-12v-387c0-6.627 5.373-12 12-12h387c6.627 0 12 5.373 12 12v387z" fill="url(#a)" stroke="#fbb03b"/>
 </g>
 <g transform="matrix(1.6867 0 0 1.6867 -161.93 -174.09)">
  <polygon points="537.5 321.42 537.5 254.18 235.5 350.5" fill="none"/>
  <polygon points="537.5 380.18 537.5 321.42 235.5 350.5" fill="#f9d520"/>
  <polygon points="537.5 451.97 537.5 380.18 235.5 350.5" fill="none"/>
  <path d="m421.97 487.5h103.53c6.627 0 12-5.373 12-12v-23.534l-302-101.47 186.47 137z" fill="#f9d520"/>
  <polygon points="309.16 487.5 421.97 487.5 235.5 350.5" fill="none"/>
  <polygon points="242.16 487.5 309.16 487.5 235.5 350.5" fill="#f9d520"/>
  <polygon points="182 487.5 242.16 487.5 235.5 350.5" fill="none"/>
  <g fill="#f9d520">
   <path d="m126.5 475.5c0 6.627 5.373 12 12 12h43.5l53.5-137-109 118.34v6.657z"/>
   <polygon points="126.5 398.33 235.5 350.5 126.5 357.19"/>
  </g>
  <polygon points="126.5 357.19 235.5 350.5 126.5 317.62" fill="none"/>
  <polygon points="126.5 317.62 235.5 350.5 126.5 253.03" fill="#f9d520"/>
  <polygon points="169.34 76.5 235.5 350.5 238.64 76.5" fill="none"/>
  <polygon points="238.64 76.5 235.5 350.5 327.07 76.5" fill="#f9d520"/>
  <path d="m537.5 88.5c0-1.347-0.232-2.638-0.64203-3.847l-301.36 265.85 302-183.03v-78.97z" fill="none"/>
  <g fill="#f9d520">
   <polygon points="235.5 350.5 537.5 254.18 537.5 167.47"/>
   <path d="m525.5 76.5h-109.54l-180.46 274 301.36-265.85c-1.6039-4.738-6.0779-8.153-11.358-8.153z"/>
  </g>
  <polygon points="327.07 76.5 235.5 350.5 415.96 76.5" fill="none"/>
  <path d="m138.5 76.5c-6.627 0-12 5.373-12 12v25.711l109 236.29-66.163-274h-30.837z" fill="#f9d520"/>
  <g fill="none">
   <polygon points="126.5 253.03 235.5 350.5 126.5 114.21"/>
   <polygon points="126.5 468.84 235.5 350.5 126.5 398.33"/>
  </g>
 </g>
</svg>
