<?xml version="1.0" encoding="UTF-8"?>
<svg viewBox="0 0 1052.362179 744.09447" xmlns="http://www.w3.org/2000/svg" xmlns:xlink="http://www.w3.org/1999/xlink">
 <defs>
  <filter id="r" x="-.12963" y="-.43207" width="1.2593" height="1.8641">
   <feGaussianBlur stdDeviation="7.2188"/>
  </filter>
  <filter id="q" x="-.11969" y="-.58039" width="1.2394" height="2.1608">
   <feGaussianBlur stdDeviation="7.2188"/>
  </filter>
  <filter id="p" x="-.11193" y="-.45981" width="1.2239" height="1.9196">
   <feGaussianBlur stdDeviation="7.2188"/>
  </filter>
  <filter id="o" x="-.13722" y="-.43728" width="1.2744" height="1.8746">
   <feGaussianBlur stdDeviation="7.2188"/>
  </filter>
  <filter id="n" x="-.03364" y="-.27738" width="1.0673" height="1.5548">
   <feGaussianBlur stdDeviation="3.6262"/>
  </filter>
  <linearGradient id="a">
   <stop stop-color="#fff" offset="0"/>
   <stop stop-color="#fff" stop-opacity="0" offset="1"/>
  </linearGradient>
  <linearGradient id="m" x1="454.32" x2="485.53" y1="44.285" y2="44.429" gradientTransform="matrix(.77142 .96498 -.96498 .77142 405.75 -368.1)" gradientUnits="userSpaceOnUse">
   <stop stop-color="#803300" offset="0"/>
   <stop stop-color="#f3ab7b" offset=".5867"/>
   <stop stop-color="#ff7f2a" offset="1"/>
  </linearGradient>
  <linearGradient id="l" x1="414.32" x2="446.55" y1="53.207" y2="53.064" gradientTransform="matrix(.77142 .96498 -.96498 .77142 436.61 -329.5)" gradientUnits="userSpaceOnUse">
   <stop stop-color="#000080" offset="0"/>
   <stop stop-color="#1ac1c1" offset=".5187"/>
   <stop stop-color="#00f" offset="1"/>
  </linearGradient>
  <linearGradient id="k" x1="535.99" x2="548.09" gradientUnits="userSpaceOnUse">
   <stop stop-color="#999" offset="0"/>
   <stop stop-color="#e6e6e6" offset=".5588"/>
   <stop stop-color="#ccc" offset="1"/>
  </linearGradient>
  <linearGradient id="j" x1="344.42" x2="503.94" y1="364.83" y2="366.45" gradientTransform="matrix(.77142 .96498 -.96498 .77142 436.61 -329.5)" gradientUnits="userSpaceOnUse">
   <stop stop-color="#d45500" offset="0"/>
   <stop stop-color="#f95" offset=".5304"/>
   <stop stop-color="#f60" offset="1"/>
  </linearGradient>
  <linearGradient id="i" x1="344.43" x2="508.01" gradientTransform="matrix(.77142 .96498 -.96498 .77142 436.61 -329.5)" gradientUnits="userSpaceOnUse">
   <stop stop-color="#782121" offset="0"/>
   <stop stop-color="#e9afaf" offset=".518"/>
   <stop stop-color="#d35f5f" offset="1"/>
  </linearGradient>
  <linearGradient id="h" x1="368.05" x2="487.64" y1="496.78" y2="497.59" gradientTransform="matrix(.77142 .96498 -.96498 .77142 436.61 -329.5)" gradientUnits="userSpaceOnUse">
   <stop stop-color="#500" offset="0"/>
   <stop stop-color="#f55" offset=".523"/>
   <stop stop-color="#f00" offset="1"/>
  </linearGradient>
  <linearGradient id="g" x1="371.22" x2="485.53" gradientTransform="matrix(.77142 .96498 -.96498 .77142 436.61 -329.5)" gradientUnits="userSpaceOnUse">
   <stop stop-color="#000080" offset="0"/>
   <stop stop-color="#0ff" offset=".5282"/>
   <stop stop-color="#00f" offset="1"/>
  </linearGradient>
  <linearGradient id="d" x1="519.46" x2="516.47" y1="614.56" y2="227.57" gradientUnits="userSpaceOnUse">
   <stop stop-color="#0ff" offset="0"/>
   <stop stop-color="#0ff" stop-opacity="0" offset="1"/>
  </linearGradient>
  <linearGradient id="f" x1="414.41" x2="465.13" y1="258.73" y2="365.56" gradientUnits="userSpaceOnUse" xlink:href="#a"/>
  <linearGradient id="e" x1="144.44" x2="513.71" y1="507.12" y2="504.68" gradientUnits="userSpaceOnUse" xlink:href="#a"/>
  <radialGradient id="c" cx="428.27" cy="32.948" r="21.162" gradientTransform="matrix(1.2887 -.0068 .00073248 .13605 -123.65 31.377)" gradientUnits="userSpaceOnUse">
   <stop stop-color="#a80" offset="0"/>
   <stop stop-color="#2b2200" offset="1"/>
  </radialGradient>
  <radialGradient id="b" cx="378.13" cy="395.21" r="138.06" gradientTransform="matrix(1.2282 .05276 -.01801 .14433 -79.156 318.22)" gradientUnits="userSpaceOnUse" xlink:href="#a"/>
 </defs>
 <path d="m202.85 740.92-1.2357-200.5 284.92-227.95c56.582-45.269 109.39-24.826 155.84 4.7871 0 0 96.944 85.705 157.42 100.37 82.146 19.92 252.51-23.244 252.51-23.244" fill="none" opacity=".5697" stroke="#fc0" stroke-width="3.5433"/>
 <path transform="rotate(51.361)" d="m535.99-465.52h12.094v751.23h-12.094z" fill="url(#k)"/>
 <path d="m386.95 271.77c79.402-15.804 143.32 72.604 110.41 133.28-35.689 74.689-173.06 145.81-246.73 145.72-53.525 6.7246-65.422-19.829-51.983-66.637 33.33-98.174 108.24-186.11 188.3-212.36z" fill="url(#j)"/>
 <path d="m314.27 313.08c-50.28 41.101-92.742 103.68-115.62 171.07-13.439 46.808-1.5637 73.332 51.962 66.607 50.911 0.0663 132.24-33.874 189.41-79.502l-125.75-158.17z" fill="url(#h)"/>
 <path d="m718.31 89.235-34.649 27.699-0.0603 0.0482 0.0241 0.0301c-0.5922 1.0737 5.7914 10.521 14.529 21.452 8.9238 11.163 16.899 19.607 17.81 18.878 0.0671-0.0536 0.0716-0.14807 0.0604-0.29543l34.468-27.554-32.183-40.258z" fill="url(#l)"/>
 <path d="m718.31 89.235-18.817 15.043-0.21109 0.16875 0.12058 0.15077c0.14543 1.8723 6.2752 10.818 14.487 21.09s15.612 18.252 17.406 18.806l0.16874 0.2111 19.028-15.211-32.183-40.258z" fill="url(#m)"/>
 <path transform="matrix(.76355 .95513 -.96498 .77142 439.46 -325.21)" d="m449.43 32.948a21.162 1.7275 0 1 1 -42.323 0 21.162 1.7275 0 1 1 42.323 0z" fill="url(#c)"/>
 <path d="m333.12 298.95c-14.986 10.25-29.421 22.456-43.069 36.209 29.854 65.063 70.243 117.35 121.12 156.89 16.962-11.05 32.797-23.191 46.505-35.991-54.668-35.117-94.642-89.519-124.55-157.1z" fill="url(#i)"/>
 <path d="m222.27 428.99c-8.731 16.803-16.341 34.266-22.562 52.092 14.804 29.057 33.742 52.086 56.44 69.551 15.593-0.67888 33.63-4.241 52.767-10.105-35.988-30.558-64.861-67.717-86.645-111.54z" fill="url(#g)"/>
 <path transform="matrix(.87942 1.1001 -1.0224 .81734 391.53 -427.6)" d="m489.42 333.67a40.717 34.202 0 1 1 -81.434 0 40.717 34.202 0 1 1 81.434 0z" fill="url(#f)" opacity=".5697"/>
 <path transform="matrix(.46442 .58096 -.96498 .77142 567.09 -169.49)" d="m473.13 478.21a39.903 104.64 0 1 1 -79.806 0 39.903 104.64 0 1 1 79.806 0z" fill="url(#e)" opacity=".5697"/>
 <path d="m0.98186 377.28s43.767 20 65.65 20 43.767-20 65.65-20 43.767-20 65.65-20 43.767 20 65.65 20 43.767 20 65.65 20 43.767-20 65.65-20 43.767-20 65.65-20 43.767 20 65.65 20 43.767 20 65.65 20 43.767-20 65.65-20 43.767-20 65.65-20 43.767 20 65.65 20 43.767 20 65.65 20 43.767-20 65.65-20 43.767-20 65.65-20 65.65 20 65.65 20v369.06h-1050.4z" fill="url(#d)" fill-opacity=".4323" opacity=".5697"/>
 <path d="m85.051 403.89c3.4407-1.05 6.9854-1.759 10.565-2.1131 2.3106-0.22855 4.667-0.31584 6.8675-1.0565 2.3668-0.79666 4.4159-2.3023 6.4819-3.7052s4.2615-2.7521 6.7248-3.1622c0.88847-0.14792 1.8131-0.17442 2.6413-0.52827 0.63592-0.27168 1.1785-0.72237 1.676-1.2026s0.96133-0.99721 1.4936-1.4387c1.3458-1.1164 3.0695-1.6956 4.8002-1.9453s3.4886-0.19192 5.2369-0.1678c5.8331 0.0805 11.739-0.2124 17.433 1.0565 0.70438 0.15697 1.4076 0.33817 2.1274 0.38905s1.4687-0.0371 2.0987-0.38905c0.49513-0.2766 0.88949-0.69868 1.2888-1.1014s0.82569-0.8016 1.3525-1.0117c0.5839-0.23284 1.233-0.2117 1.8616-0.20682 0.62859 5e-3 1.2861-0.0173 1.8363-0.32145 0.32858-0.18166 0.59781-0.45356 0.84308-0.73783s0.47229-0.58548 0.74172-0.84697c0.86158-0.8362 2.0829-1.1954 3.2754-1.3349s2.4023-0.0888 3.5921-0.24994c2.5268-0.34219 4.8394-1.624 6.8675-3.1696 1.9912-1.5175 3.7691-3.3059 5.8109-4.7544 3.029-2.1488 6.5463-3.4868 10.037-4.7544 6.805-2.471 13.676-4.7613 20.602-6.8675" fill="none" filter="url(#o)" opacity=".6066" stroke="#fff" stroke-width="10.63"/>
 <path d="m339.68 404.42c3.1932-1.1615 6.2248-2.7665 8.9805-4.7544 1.9825-1.4301 3.8229-3.0569 5.871-4.3914s4.3646-2.3836 6.8074-2.4761c0.92543-0.035 1.8543 0.0676 2.7771-0.011 0.46138-0.0393 0.92142-0.12467 1.3536-0.29087s0.83664-0.41562 1.152-0.7547c0.43307-0.46568 0.67822-1.0736 1.0565-1.5848 0.36941-0.49912 0.86322-0.8996 1.4086-1.1965s1.1419-0.49264 1.7497-0.61966c1.2156-0.25405 2.4688-0.23626 3.7092-0.29692 3.8887-0.19016 7.7299-1.1599 11.622-1.0565 3.0235 0.0803 5.9869 0.80607 8.974 1.2809s6.1042 0.6904 8.9871-0.22436c2.1519-0.68281 4.0599-1.9598 5.8982-3.2705s3.6594-2.6828 5.7237-3.597c2.908-1.2878 6.2018-1.6224 8.9806-3.1696 2.5271-1.4071 4.4378-3.7133 6.8675-5.2827 2.539-1.64 5.5278-2.4053 8.4523-3.1696 4.1816-1.0928 8.3752-2.2389 12.678-2.6413 2.6332-0.24625 5.2878-0.21134 7.924 0 6.5373 0.52409 12.988 2.1295 19.546 2.1131 0.52829-1e-3 1.0567-0.0132 1.5848 0 4.8784 0.12197 9.6538 2.5096 12.678 6.3392" fill="none" filter="url(#p)" opacity=".6066" stroke="#fff" stroke-width="10.63"/>
 <path d="m608.56 403.36c6.0245 1.4927 12.621 0.52256 17.961-2.6413 1.6389-0.9711 3.1556-2.1338 4.7544-3.1696 2.2661-1.468 4.738-2.6933 7.3957-3.1696 3.1473-0.5641 6.4686-0.0663 9.5088-1.0565 1.2791-0.41662 2.4593-1.0829 3.6511-1.7068s2.4224-1.2153 3.7446-1.4628c1.3334-0.24961 2.717-0.13809 4.0348 0.18379s2.5766 0.84948 3.8007 1.4342c2.4481 1.1694 4.8264 2.5916 7.4842 3.1364 3.2936 0.67511 6.7606-0.0772 9.7853-1.5452s5.6642-3.6155 8.1758-5.8505c3.7825-3.3659 7.467-7.0557 12.15-8.9806 4.8336-1.9867 10.253-1.8911 15.32-3.1696 1.5995-0.40357 3.1748-0.9465 4.8158-1.1151 0.8205-0.0843 1.6555-0.073 2.4626 0.0969s1.5868 0.50242 2.2305 1.0182c0.58346 0.4675 1.0414 1.0713 1.5848 1.5848 1.4141 1.3363 3.3464 2.0007 5.2704 2.2899s3.8808 0.2398 5.8232 0.35141c5.1612 0.29655 10.253 1.7512 14.791 4.2261" fill="none" filter="url(#q)" opacity=".6066" stroke="#fff" stroke-width="10.63"/>
 <path d="m873.23 404.95c3.7311-1.1297 7.4309-2.363 11.094-3.6979 2.5223-0.91925 5.0354-1.8905 7.3957-3.1696 2.3404-1.2683 4.5104-2.8284 6.8154-4.16s4.7985-2.4478 7.4478-2.7075c1.4182-0.13901 2.8889-0.036 4.2261-0.52827 1.3348-0.4914 2.4008-1.5293 3.6979-2.1131 1.4715-0.66224 3.1498-0.69908 4.7544-0.52826 4.3826 0.46656 8.472 2.368 12.757 3.4004 2.1424 0.51621 4.3598 0.81526 6.5525 0.59559s4.3676-0.98518 6.0477-2.4112c0.56993-0.48377 1.0767-1.0365 1.5848-1.5848 5.382-5.8076 11.424-11.492 19.018-13.735 3.6123-1.0672 7.4156-1.3008 11.094-2.1131 2.0206-0.44625 4.0206-1.0753 5.8109-2.1131 1.9761-1.1454 3.6484-2.7591 5.6199-3.9123 0.98576-0.57658 2.0524-1.0373 3.1784-1.2276s2.3172-0.0979 3.3519 0.38543c1.3757 0.64269 2.3683 1.9079 3.6979 2.6413 0.97789 0.53943 2.0911 0.76642 3.1696 1.0565 2.217 0.59638 4.3547 1.4871 6.3392 2.6413" fill="none" filter="url(#r)" opacity=".6066" stroke="#fff" stroke-width="10.63"/>
 <path transform="matrix(1 0 0 1.7043 1.4942 -274.76)" d="m378.15 410.9c-71.444 0-129.38-12.021-129.38-26.875 0-1.5267 0.637-3.0427 1.8125-4.5 10.261 12.721 63.461 22.406 127.56 22.406s117.3-9.6854 127.56-22.406c1.1755 1.4573 1.7812 2.9733 1.7812 4.5 0 14.854-57.899 26.875-129.34 26.875z" fill="url(#b)" filter="url(#n)" opacity=".5779"/>
</svg>
