<?xml version="1.0" encoding="utf-8"?>
<!-- Generator: Adobe Illustrator 16.0.0, SVG Export Plug-In . SVG Version: 6.00 Build 0)  -->
<!DOCTYPE svg PUBLIC "-//W3C//DTD SVG 1.1//EN" "http://www.w3.org/Graphics/SVG/1.1/DTD/svg11.dtd">
<svg version="1.1" id="Layer_1" xmlns="http://www.w3.org/2000/svg" xmlns:xlink="http://www.w3.org/1999/xlink" x="0px" y="0px"
	 width="1400px" height="980px" viewBox="0 0 1400 980" enable-background="new 0 0 1400 980" xml:space="preserve">
<g>
	<g>
		<g>
			<path d="M1078.467,410.451h-14.721v-13.019h14.721V410.451z M1067.143,407.055h7.928v-6.226h-7.928V407.055z"/>
			<path d="M1086.113,400.829H961.699l-15.32-86.046h155.059L1086.113,400.829z M964.545,397.432h118.723l14.116-79.252H950.432
				L964.545,397.432z"/>
			<path d="M984.069,410.451h-14.718v-13.019h14.718V410.451z M972.748,407.055h7.925v-6.226h-7.925V407.055z"/>
		</g>
		<g>
			<path d="M982.371,318.18c-0.558,0-1.104-0.275-1.427-0.778c-0.122-0.189-11.94-18.965,3.493-32.304
				c8.942-7.729,40.637-30.924,57.208-38.633c15.938-7.414,27.396-22.563,25.023-33.076c-1.927-8.533-26.128-11.445-35.29-11.846
				c-0.938-0.042-1.664-0.834-1.625-1.771c0.043-0.936,0.807-1.745,1.771-1.622c3.639,0.159,35.617,1.922,38.454,14.49
				c2.749,12.17-9.317,28.725-26.901,36.905c-16.31,7.586-47.585,30.486-56.418,38.124c-13.188,11.396-3.287,27.228-2.859,27.896
				c0.504,0.788,0.275,1.839-0.511,2.345C983.004,318.092,982.686,318.18,982.371,318.18z"/>
			<path d="M1039.612,318.18c-0.458,0-0.915-0.185-1.251-0.549c-0.64-0.698-15.656-17.237-11.344-30.347
				c2.17-6.599,8.744-11.009,19.533-13.105c14.168-2.749,27.724,3.236,39.695,8.516c10.203,4.503,19.016,8.396,24.917,5.203
				c4.677-2.529,8.123-8.375,11.771-14.566c6.607-11.215,14.114-23.916,31.491-20.599c4.184,0.799,7.961,1.592,11.411,2.317
				c17.729,3.715,25.826,5.417,34.947-2.436c0.717-0.612,1.788-0.529,2.396,0.179c0.613,0.711,0.53,1.783-0.18,2.395
				c-10.396,8.946-20.15,6.899-37.859,3.186c-3.434-0.72-7.191-1.509-11.352-2.304c-15.059-2.873-21.594,8.238-27.929,18.987
				c-3.894,6.609-7.572,12.852-13.085,15.83c-7.364,3.979-16.877-0.221-27.899-5.083c-11.517-5.08-24.565-10.838-37.675-8.291
				c-9.496,1.846-15.198,5.489-16.956,10.833c-3.695,11.238,10.475,26.831,10.618,26.987c0.633,0.69,0.59,1.765-0.104,2.399
				C1040.435,318.032,1040.023,318.18,1039.612,318.18z"/>
			<path d="M1100.99,282.127c-5.46,0-10.107-4.42-15.541-9.589c-2.753-2.617-5.867-5.583-9.52-8.431
				c-13.265-10.351-25.176-7.077-25.292-7.04c-0.892,0.255-1.844-0.259-2.103-1.161c-0.259-0.9,0.259-1.842,1.16-2.103
				c0.555-0.161,13.706-3.776,28.324,7.627c3.781,2.949,6.963,5.976,9.769,8.646c8.362,7.958,12.359,11.264,19.229,6.274
				c2.866-2.075,6.047-5.425,9.42-8.973c9.885-10.403,22.168-23.341,39.134-18.95c32.825,8.53,42.617,7.069,45.055,4.338
				c0.634-0.7,1.712-0.754,2.398-0.132c0.7,0.625,0.76,1.698,0.136,2.398c-2.889,3.229-11.062,6.397-48.444-3.317
				c-14.996-3.891-26.546,8.246-35.816,18.003c-3.483,3.664-6.771,7.124-9.889,9.382
				C1106.074,281.23,1103.451,282.127,1100.99,282.127z"/>
			<path d="M1055.152,256.55c-0.385,0-0.773-0.129-1.092-0.396c-0.716-0.602-0.813-1.673-0.212-2.392
				c10.333-12.341,25.289-34.5,21.454-41.431c-5.111-9.238-29.855-15.55-42.709-10.888c-0.873,0.312-1.854-0.138-2.173-1.019
				c-0.321-0.882,0.136-1.856,1.019-2.176c13.44-4.866,40.42,0.848,46.836,12.437c6.216,11.233-18.934,41.807-21.819,45.255
				C1056.117,256.343,1055.637,256.55,1055.152,256.55z"/>
			<path d="M1073.322,229.986c-0.321,0-0.646-0.093-0.932-0.284c-0.773-0.516-0.995-1.542-0.491-2.32
				c0.199-0.309,5.105-7.571,24.935-8.541c18.156-0.887,30.157-3.771,32.098-7.712c0.295-0.599,0.544-1.597-0.676-3.355
				c-2.545-3.668-6.564-6.926-10.005-9.196c4.286,5.802,3.864,9.8,3.035,11.893c-0.962,2.425-3.194,4.053-5.556,4.053
				c-3.679,0-37.701,1.677-38.046,1.693c-0.933,0.06-1.731-0.678-1.778-1.613c-0.046-0.936,0.674-1.733,1.612-1.78
				c1.403-0.07,34.45-1.697,38.212-1.697c0.789,0,1.877-0.597,2.398-1.907c0.464-1.176,1.34-5.619-6.949-13.407
				c-0.438-0.413-1.473-1.383-1.085-2.632l0.312-1.015l1.215-0.27c2.746-0.418,14.249,6.479,19.427,13.941
				c2.067,2.98,1.649,5.339,0.933,6.793c-2.644,5.367-14.412,8.598-34.981,9.604c-17.802,0.871-22.22,6.951-22.26,7.012
				C1074.407,229.726,1073.87,229.986,1073.322,229.986z"/>
			<path d="M1029.564,219.254c-0.314,0-0.626-0.088-0.898-0.259c-3.596-2.247-5.277-4.939-5.957-7.463
				c-3.493,4.223-7.403,5.664-7.623,5.742c-0.782,0.289-1.675-0.056-2.069-0.799c-1.479-2.773-1.254-5.694-0.481-8.168
				c-7.254,3.481-11.467,1.133-11.762,0.987c-0.76-0.38-1.121-1.261-0.849-2.065c2.534-7.46,10.664-11.158,16.173-12.853
				c-9.32-5.259-7.211-14.907-7.188-15.018c0.199-0.854,0.998-1.433,1.891-1.297c4.779,0.668,8.7,2.964,11.5,5.186
				c-0.352-6.066,1.565-13.064,1.871-14.13c0.152-0.542,0.566-0.972,1.104-1.147c0.537-0.176,1.124-0.073,1.569,0.272
				c3.761,2.914,5.599,8.241,6.484,13.198c1.937-2.524,4.475-3.466,6.086-3.579c0.85-0.086,1.738,0.627,1.812,1.561
				c0.597,7.623-2.143,12.426-4.584,15.136c3.586,0.781,4.375,2.667,4.515,3.123c0.248,0.802-0.13,1.665-0.886,2.03
				c-1.95,0.937-4.206,1.411-6.707,1.411l0,0c-0.368,0-0.72-0.01-1.059-0.028c2.276,6.73-1.167,16.548-1.343,17.036
				c-0.173,0.484-0.558,0.864-1.042,1.031C1029.939,219.222,1029.754,219.254,1029.564,219.254z M1025.24,201.561
				c0.219,0,0.438,0.042,0.649,0.129c0.803,0.332,1.224,1.216,0.979,2.048c-0.275,0.94-0.597,1.819-0.955,2.642
				c-0.518,2.223-0.438,5.531,2.739,8.382c1.168-4.302,2.326-11.503-0.54-14.698c-0.505-0.561-0.574-1.383-0.179-2.025
				c0.391-0.64,1.16-0.942,1.891-0.748c0.02,0.005,2.471,0.559,4.879,0.392c-0.475-0.047-1.012-0.073-1.625-0.073l-0.641,0.01
				c-0.85-0.008-1.489-0.5-1.691-1.26c-0.203-0.763,0.146-1.564,0.842-1.936c0.023-0.013,0.09-0.051,0.196-0.116
				c-0.601-0.229-1.038-0.786-1.091-1.461c-0.106-1.458-0.106-2.839,0.006-4.108c-0.129-3.352-0.775-11.127-3.986-15.723
				c-0.989,4.659-1.895,11.845,0.262,14.87l0.205,0.269c0.534,0.747,0.382,1.783-0.345,2.34c-0.723,0.559-1.765,0.443-2.349-0.274
				l-0.06-0.078c-0.017-0.02-0.202-0.264-0.216-0.284c-0.849-1.078-5.356-6.44-12.156-8.105c-0.053,2.914,1.002,8.919,10.061,11.397
				c0.776,0.212,1.293,0.938,1.247,1.74s-0.65,1.459-1.446,1.579c-0.146,0.021-13.726,2.141-18.048,10.178
				c2.183,0.295,6.519,0.055,12.19-4.692c0.68-0.568,1.665-0.517,2.288,0.1c0.62,0.619,0.671,1.612,0.11,2.287
				c-0.044,0.053-3.865,4.738-2.999,8.979c1.947-1.125,5.32-3.632,7.341-8.293c0.312-1.381,0.885-2.464,0.948-2.582
				C1024.053,201.886,1024.636,201.561,1025.24,201.561z M1037.91,181.847c-1.485,0.817-3.436,2.733-3.827,7.189
				c0.06,1.448,0.04,2.635,0.02,3.272C1035.827,190.395,1037.821,187.065,1037.91,181.847z"/>
			<path d="M1093.327,207.724c-0.242,0-0.487-0.051-0.713-0.157c-0.468-0.216-0.81-0.63-0.936-1.129
				c-1.019-4.091-0.375-7.183,0.876-9.467c-0.75,0.083-1.5,0.123-2.252,0.123c-4.213,0-7.075-1.273-7.195-1.328
				c-0.766-0.347-1.164-1.204-0.932-2.014c0.859-3.019,3.049-4.962,5.32-6.206c-7.268-2.411-9.049-7.211-9.139-7.465
				c-0.281-0.799,0.07-1.685,0.826-2.073c2.14-1.103,4.581-1.662,7.248-1.662c4.965,0,9.875,1.914,13.311,3.657
				c-3.055-10.261,5.165-15.737,5.261-15.8c0.733-0.478,1.715-0.317,2.259,0.38c2.976,3.801,4.203,8.176,4.674,11.721
				c3.961-4.609,10.196-8.311,11.158-8.867c0.484-0.285,1.082-0.31,1.589-0.058c0.508,0.245,0.859,0.726,0.942,1.283
				c0.677,4.694-1.679,9.782-4.475,13.957c0.451-0.063,0.905-0.093,1.356-0.093c3.247,0,5.261,1.61,5.479,1.794
				c0.713,0.599,0.813,1.662,0.219,2.381c-4.932,5.978-10.405,7.437-13.821,7.687c2.043,3.054,1.31,4.958,1.091,5.396
				c-0.381,0.75-1.26,1.104-2.05,0.846c-2.846-0.944-5.058-2.8-6.548-4.4c-3.038,6.418-12.332,11.088-12.797,11.319
				C1093.845,207.664,1093.586,207.724,1093.327,207.724z M1100.144,191.036c0.66,0,1.28,0.387,1.556,1.02
				c0.349,0.796,0.04,1.725-0.716,2.154c-0.853,0.484-1.692,0.894-2.521,1.237c-1.917,1.239-4.159,3.677-3.854,7.934
				c3.832-2.284,9.663-6.662,9.822-10.946c0.029-0.751,0.551-1.395,1.276-1.581c0.72-0.179,1.496,0.127,1.881,0.776
				c0.017,0.029,1.185,1.953,3.221,3.653c-0.414-0.484-0.929-1.021-1.568-1.604c-0.581-0.531-0.724-1.394-0.339-2.082
				c0.385-0.69,1.208-1.02,1.947-0.808l0,0c0,0,0.076,0.02,0.219,0.05c-0.269-0.581-0.199-1.284,0.232-1.805
				c0.936-1.121,1.895-2.113,2.853-2.947c2.239-2.501,7.178-8.545,8.061-14.083c-3.947,2.664-9.59,7.205-10.137,10.878l-0.04,0.335
				c-0.136,0.911-0.979,1.544-1.877,1.443c-0.909-0.106-1.572-0.914-1.496-1.828l0.01-0.096c0.003-0.026,0.04-0.33,0.043-0.354
				c0.136-1.365,0.617-8.354-3.118-14.275c-2.06,2.058-5.47,7.11-0.68,15.185c0.411,0.691,0.282,1.574-0.312,2.118
				c-0.591,0.545-1.479,0.6-2.137,0.131c-0.079-0.058-8.226-5.803-16.037-5.803c-1.443,0-2.79,0.199-4.023,0.594
				c1.363,1.742,4.677,4.561,12.037,5.086c0.876,0.062,1.559,0.781,1.575,1.659c0.021,0.877-0.637,1.625-1.509,1.723
				c-0.066,0.007-6.073,0.727-8.396,4.38c1.019,0.257,2.465,0.512,4.187,0.512c2.342,0,4.65-0.466,6.855-1.383
				c1.182-0.778,2.349-1.158,2.475-1.199C1099.803,191.061,1099.975,191.036,1100.144,191.036z M1122.507,185.921
				c-1.977,0-4.036,0.919-6.126,2.733c-0.952,1.068-1.778,1.901-2.239,2.349c2.776-0.19,6.422-1.284,9.994-4.863
				C1123.675,186.013,1123.127,185.921,1122.507,185.921z"/>
			<path d="M1220.723,263.705c-6.703,0-10.979-2.601-13.45-4.913c-0.846,3.569-2.733,4.331-3.201,4.467
				c-0.825,0.242-1.665-0.158-2.017-0.922c-1.247-2.718-1.399-5.596-1.247-7.775c-1.416,0.456-3.055,0.687-4.902,0.687
				c-5.812,0-11.845-2.254-12.101-2.35c-0.48-0.183-0.853-0.572-1.015-1.06c-0.159-0.489-0.09-1.023,0.192-1.454
				c2.338-3.603,5.118-5.191,7.579-5.813c-4.169-3.571-5.543-7.515-5.616-7.735c-0.268-0.798,0.087-1.672,0.836-2.055
				c2.475-1.265,5.596-1.188,8.17-0.33c-3.193-6.962-0.896-11.54-0.772-11.779c0.397-0.753,1.29-1.095,2.079-0.811
				c7.421,2.667,10.973,10.875,12.568,16.413c3.798-6.42,9.619-7.226,12.293-7.226c1.629,0,2.727,0.265,2.846,0.295
				c0.853,0.215,1.4,1.044,1.264,1.912c-0.756,4.768-3.121,8.649-5.393,11.409c6.143-0.239,13.791,2.027,14.094,2.12
				c0.54,0.164,0.962,0.585,1.127,1.124c0.166,0.538,0.057,1.125-0.298,1.564c-2.982,3.708-8.339,5.451-13.314,6.247
				c2.491,1.984,3.387,4.54,3.47,6.153c0.05,0.932-0.664,1.727-1.592,1.783C1221.771,263.688,1221.24,263.705,1220.723,263.705z
				 M1209.568,256.299c1.884,1.76,5.174,3.81,10.389,3.994c-0.793-1.499-2.671-3.484-7.125-3.957l-0.813,0.019
				C1210.925,256.354,1210.072,256.324,1209.568,256.299z M1203.023,249.762c0.318,0,0.637,0.088,0.919,0.269
				c0.634,0.406,0.925,1.185,0.713,1.906c-0.01,0.033-0.62,2.198-0.478,4.846c0.073-0.635,0.116-1.38,0.106-2.246
				c-0.011-0.79,0.523-1.479,1.29-1.668c0.76-0.191,1.559,0.169,1.92,0.875c0.011,0.021,0.047,0.09,0.113,0.196
				c0.239-0.592,0.803-1.02,1.477-1.058c1.525-0.088,2.893-0.051,4.105,0.076c3.354-0.068,11.129-0.576,15.783-3.695
				c-2.429-0.561-5.978-1.219-9.209-1.219c-2.543,0-4.497,0.418-5.651,1.209l-0.272,0.201c-0.753,0.519-1.784,0.35-2.335-0.388
				c-0.544-0.74-0.404-1.775,0.318-2.342l0.076-0.059c0.023-0.017,0.269-0.197,0.289-0.212c1.095-0.828,6.531-5.238,8.319-12.002
				c-0.123-0.003-0.256-0.007-0.389-0.007c-3.785,0-8.797,1.71-11.185,9.853c-0.226,0.77-0.926,1.261-1.762,1.216
				c-0.8-0.063-1.446-0.678-1.552-1.475c-0.018-0.146-1.897-13.777-9.868-18.23c-0.342,2.184-0.146,6.533,4.487,12.278
				c0.555,0.684,0.491,1.673-0.139,2.284c-0.631,0.612-1.622,0.642-2.289,0.07c-0.04-0.033-3.854-3.266-7.762-3.266
				c-0.401,0-0.789,0.035-1.164,0.104c1.091,1.967,3.535,5.387,8.159,7.488c1.377,0.335,2.448,0.929,2.564,0.995
				c0.756,0.428,1.067,1.358,0.723,2.154c-0.345,0.797-1.237,1.201-2.066,0.943c-0.935-0.293-1.808-0.63-2.624-1
				c-0.58-0.128-1.426-0.24-2.245-0.24c-2.365,0-4.435,0.945-6.176,2.816c2.136,0.619,5.499,1.417,8.684,1.417
				c2.7,0,4.724-0.565,6.011-1.679C1202.234,249.901,1202.629,249.762,1203.023,249.762z"/>
			<path d="M1048.047,246.629c-0.122,0-0.248-0.013-0.378-0.043c-0.749-0.171-18.386-4.317-18.386-15.56
				c0-0.763,0.511-1.433,1.244-1.637c0.229-0.066,5.741-1.539,11.039,1.634c4.013,2.403,6.75,6.74,8.136,12.892
				c0.057,0.235,0.057,0.473,0.014,0.696c0.043,0.224,0.04,0.461-0.014,0.698C1049.523,246.097,1048.823,246.629,1048.047,246.629z
				 M1032.826,232.437c1.154,5.504,8.865,8.732,12.995,10.085c-1.257-4.068-3.271-6.951-6-8.584
				C1037.171,232.353,1034.435,232.291,1032.826,232.437z"/>
			<path d="M1044.465,222.504c-0.554,0-1.121-0.046-1.701-0.143c-0.754-0.125-1.33-0.736-1.41-1.496
				c-0.026-0.24-0.574-5.917,3.423-10.621c3.028-3.566,7.755-5.556,14.051-5.915c0.269-0.017,0.478,0.025,0.69,0.103
				c0.226,0.005,0.464,0.035,0.687,0.126c0.869,0.356,1.284,1.348,0.929,2.216C1060.854,207.45,1054.568,222.504,1044.465,222.504z
				 M1056.844,207.928c-4.213,0.569-7.387,2.072-9.45,4.481c-2,2.335-2.527,5.062-2.646,6.682
				C1050.021,218.821,1054.539,212.35,1056.844,207.928z"/>
			<path d="M1055.889,200.801c-0.491,0-0.982-0.214-1.316-0.627c-0.488-0.597-11.825-14.729-4.899-23.585
				c0.468-0.6,1.29-0.814,1.986-0.522c0.223,0.093,5.47,2.327,7.688,8.087c1.683,4.365,1.172,9.468-1.525,15.169
				c-0.105,0.219-0.248,0.406-0.421,0.557c-0.106,0.202-0.252,0.388-0.441,0.541
				C1056.645,200.677,1056.267,200.801,1055.889,200.801z M1051.6,179.888c-2.292,4.76,1.23,11.829,4.014,15.971
				c1.52-3.992,1.712-7.509,0.567-10.485C1055.069,182.495,1052.949,180.755,1051.6,179.888z"/>
			<path d="M1129.15,206.029c-0.112,0-0.229-0.011-0.338-0.035c-0.232,0.042-0.471,0.035-0.71-0.021
				c-0.909-0.223-1.466-1.141-1.243-2.052c0.179-0.745,4.561-18.15,15.682-18.15c0.054,0,0.106,0.001,0.163,0.001
				c0.763,0.012,1.427,0.533,1.615,1.271c0.063,0.234,1.45,5.765-1.805,11.012c-2.464,3.976-6.843,6.646-13.013,7.938
				C1129.387,206.018,1129.267,206.029,1129.15,206.029z M1141.238,189.293c-5.523,1.068-8.87,8.729-10.286,12.842
				c4.087-1.197,7.002-3.166,8.677-5.869C1141.258,193.638,1141.364,190.894,1141.238,189.293z"/>
			<path d="M1153.926,250.954c-0.116,0-0.232-0.012-0.346-0.036c-0.229,0.04-0.464,0.035-0.699-0.023
				c-0.909-0.222-1.467-1.141-1.244-2.052c0.18-0.745,4.558-18.15,15.68-18.15c0.053,0,0.105,0.001,0.162,0.001
				c0.763,0.012,1.427,0.533,1.615,1.271c0.063,0.234,1.449,5.767-1.805,11.016c-2.464,3.976-6.843,6.646-13.012,7.938
				C1154.161,250.942,1154.041,250.954,1153.926,250.954z M1166.003,234.217c-5.517,1.075-8.86,8.732-10.276,12.842
				c4.066-1.191,6.973-3.146,8.65-5.83C1166.013,238.617,1166.125,235.837,1166.003,234.217z"/>
			<path d="M1121.197,266.587c-0.588,0-1.158-0.305-1.474-0.853c-0.385-0.667-9.308-16.436-1.055-24.071
				c0.564-0.519,1.403-0.6,2.05-0.195c0.203,0.126,5.025,3.176,6.293,9.219c0.958,4.579-0.368,9.533-3.941,14.724
				c-0.136,0.197-0.308,0.358-0.5,0.478c-0.137,0.188-0.313,0.35-0.527,0.473C1121.777,266.514,1121.485,266.587,1121.197,266.587z
				 M1120.039,245.236c-3.016,4.333-0.677,11.87,1.403,16.404c2.133-3.677,2.893-7.103,2.255-10.211
				C1123.077,248.413,1121.246,246.327,1120.039,245.236z"/>
			<path d="M1151.853,270.236c-1.493,0-3.155-0.222-4.876-0.851c-4.396-1.602-7.901-5.343-10.422-11.12
				c-0.097-0.222-0.143-0.454-0.143-0.682c-0.087-0.212-0.13-0.446-0.123-0.691c0.033-0.937,0.865-1.684,1.758-1.637
				c0.77,0.026,18.87,0.772,20.996,11.81c0.144,0.751-0.229,1.504-0.915,1.844C1157.976,268.983,1155.392,270.236,1151.853,270.236z
				 M1140.628,258.896c1.993,3.74,4.501,6.185,7.47,7.283c2.893,1.07,5.632,0.614,7.194,0.161
				C1153.116,261.159,1144.939,259.447,1140.628,258.896z"/>
		</g>
	</g>
	<g>
		<g>
			<path d="M942.179,828.876h-76.546c-8.896,0-16.134-7.238-16.134-16.134v-77.008c0-0.938,0.76-1.698,1.698-1.698h105.417
				c0.938,0,1.698,0.76,1.698,1.698v77.008C958.313,821.638,951.075,828.876,942.179,828.876z M852.896,737.434v75.309
				c0,7.021,5.716,12.737,12.737,12.737h76.546c7.022,0,12.737-5.716,12.737-12.737v-75.309H852.896z"/>
			<path d="M943.755,842.728h-78.122c-0.938,0-1.698-0.76-1.698-1.698v-13.852c0-0.939,0.76-1.698,1.698-1.698h78.122
				c0.938,0,1.698,0.759,1.698,1.698v13.852C945.453,841.968,944.693,842.728,943.755,842.728z M867.331,839.331h74.726v-10.455
				h-74.726V839.331z"/>
		</g>
		<g>
			<path d="M939.848,737.434c-0.84,0-1.569-0.624-1.682-1.477c-1.234-9.394-10.482-20.979-13.936-25.023l-9.974,12.167
				c-0.358,0.431-0.879,0.637-1.466,0.613c-0.561-0.05-1.059-0.375-1.33-0.865l-6.393-11.49l-9.268,11.719
				c-0.292,0.368-0.723,0.597-1.19,0.637c-0.465,0.037-0.929-0.112-1.277-0.428l-13.839-12.432
				c-8.315,12.325-9.834,24.94-9.848,25.073c-0.105,0.932-0.959,1.582-1.881,1.495c-0.932-0.105-1.602-0.948-1.496-1.88
				c0.07-0.594,1.769-14.718,11.557-28.229c0.285-0.391,0.72-0.643,1.197-0.692s0.959,0.103,1.313,0.424l13.922,12.505l9.722-12.296
				c0.355-0.444,0.902-0.673,1.47-0.637c0.567,0.043,1.071,0.372,1.347,0.866l6.415,11.529l9.662-11.781
				c0.312-0.379,0.772-0.604,1.264-0.621c0.518-0.006,0.966,0.189,1.297,0.548c0.591,0.637,14.442,15.763,16.101,28.354
				c0.123,0.932-0.533,1.784-1.463,1.907C939.996,737.43,939.924,737.434,939.848,737.434z"/>
			<path d="M879.242,710.104c-0.829,0-1.572-0.67-1.715-1.509c-0.295-1.742,1.885-7.766,5.98-16.525
				c0.256-0.544,0.783-0.916,1.381-0.973c0.59-0.039,1.184,0.213,1.539,0.7l8.232,11.45l5.731-11.231
				c0.309-0.604,0.999-0.995,1.618-0.922c0.678,0.043,1.265,0.484,1.493,1.121l3.629,10.094l5.463-10.315
				c0.249-0.472,0.706-0.8,1.234-0.883c0.544-0.083,1.067,0.09,1.449,0.461c0.339,0.328,8.336,8.177,10.548,16.29
				c0.246,0.905-0.288,1.841-1.19,2.086c-0.912,0.242-1.841-0.292-2.087-1.19c-1.409-5.171-5.708-10.469-8.061-13.082l-6.156,11.623
				c-0.314,0.594-0.941,0.951-1.618,0.898c-0.673-0.05-1.251-0.487-1.479-1.121l-3.602-10.021l-5.215,10.22
				c-0.269,0.527-0.793,0.875-1.383,0.922c-0.578,0.036-1.161-0.223-1.51-0.703l-8.153-11.344
				c-4.372,9.672-4.475,11.974-4.475,12.073c0.156,0.926-0.474,1.702-1.399,1.861C879.412,710.098,879.325,710.104,879.242,710.104z
				"/>
			<path d="M895.045,706.15c-0.733,0-1.387-0.471-1.615-1.174c-0.61-1.874-14.787-46.209-3.035-71.435
				c0.262-0.564,0.809-0.938,1.43-0.979c0.617-0.04,1.211,0.259,1.542,0.786c0.617,0.972,14.97,24.359,3.327,71.511
				c-0.183,0.736-0.829,1.261-1.589,1.29C895.084,706.15,895.064,706.15,895.045,706.15z M892.096,638.381
				c-6.518,18.745-0.514,46.786,2.76,59.222C901.473,665.392,895.264,645.679,892.096,638.381z"/>
			<path d="M885.047,694.488c-0.62,0-1.217-0.342-1.516-0.933c-0.689-1.369-16.86-33.866-11.341-61.059
				c0.123-0.607,0.571-1.102,1.165-1.284c0.58-0.172,1.236-0.029,1.682,0.401c0.334,0.325,8.275,8.163,14.061,26.251
				c0.285,0.893-0.209,1.851-1.102,2.137c-0.898,0.271-1.851-0.209-2.137-1.102c-3.651-11.424-8.238-18.602-10.929-22.157
				c-3.268,25.352,11.477,54.972,11.633,55.28c0.421,0.84,0.086,1.861-0.75,2.282C885.568,694.429,885.307,694.488,885.047,694.488z
				"/>
			<path d="M896.498,702.141c-0.156,0-0.313-0.021-0.469-0.066c-0.729-0.209-1.23-0.876-1.23-1.636
				c0.004-1.97,0.282-48.518,19.282-68.851c0.425-0.454,1.062-0.644,1.661-0.484c0.601,0.153,1.072,0.624,1.225,1.225
				c0.285,1.117,6.674,27.803-19.029,69.013C897.622,701.849,897.071,702.141,896.498,702.141z M914.188,636.732
				c-12.008,15.806-15.003,44.306-15.746,57.139C914.672,665.395,914.917,644.681,914.188,636.732z"/>
			<path d="M911.922,698.591c-0.306,0-0.614-0.083-0.893-0.252c-0.796-0.49-1.045-1.539-0.554-2.338
				c16.585-26.907,16.694-47.961,15.915-56.018c-5.291,7.357-10.953,22.028-15.623,34.122c-2.436,6.309-4.733,12.266-6.75,16.651
				c-0.392,0.849-1.396,1.221-2.253,0.832c-0.853-0.392-1.224-1.399-0.832-2.252c1.97-4.289,4.252-10.2,6.667-16.456
				c5.762-14.923,12.289-31.836,18.737-38.082c0.438-0.425,1.068-0.574,1.648-0.411c0.587,0.169,1.035,0.634,1.181,1.224
				c0.263,1.068,6.184,26.5-15.799,62.174C913.046,698.306,912.488,698.591,911.922,698.591z"/>
		</g>
	</g>
	<g>
		<g>
			<path d="M479.979,348.645h-81.644l-15.187-109.822h112.021L479.979,348.645z M401.293,345.248h75.727l14.251-103.029H387.045
				L401.293,345.248z"/>
			<path d="M513.882,242.219h-149.45v-18.041h149.45V242.219z M367.828,238.822h142.657v-11.248H367.828V238.822z"/>
		</g>
		<path d="M465.243,227.574c-0.169,0-0.342-0.024-0.511-0.08c-0.896-0.282-1.392-1.235-1.108-2.129
			c12.961-41.046,22.67-75.617,10.105-82.919c-7.821-4.548-14.953-5.969-21.181-4.213c-8.068,2.269-11.86,9.127-11.896,9.195
			l-1.408,2.601l-1.538-2.526c-3.907-6.42-17.593-12.769-28.717-10.994c-5.324,0.842-12.165,3.937-14.53,13.9
			c-5.725,24.133,21.058,74.159,21.329,74.662c0.446,0.824,0.137,1.854-0.688,2.3c-0.824,0.448-1.856,0.138-2.3-0.688
			c-1.133-2.096-27.668-51.67-21.644-77.057c2.183-9.203,8.329-15.052,17.303-16.472c11.406-1.805,24.843,3.886,30.625,10.524
			c1.979-2.608,6.061-6.891,12.545-8.715c7.157-2.003,15.162-0.478,23.808,4.548c14.763,8.579,5.313,42.902-8.576,86.876
			C466.635,227.112,465.965,227.574,465.243,227.574z"/>
		<path d="M460.432,226.019c-0.164,0-0.332-0.023-0.497-0.074c-0.897-0.275-1.402-1.226-1.126-2.122
			c0.163-0.532,16.173-53.459,3.825-76.3c-2.622-4.85-6.231-7.883-11.036-9.274c-0.9-0.262-1.419-1.204-1.159-2.104
			c0.262-0.899,1.204-1.412,2.104-1.159c5.645,1.635,10.046,5.31,13.079,10.924c13.022,24.089-2.882,76.684-3.565,78.909
			C461.832,225.549,461.158,226.019,460.432,226.019z"/>
		<path d="M420.807,227.574c-0.63,0-1.236-0.352-1.529-0.955c-32.71-67.273-8.08-92.287-7.015-93.318
			c0.675-0.652,1.75-0.635,2.401,0.036c0.652,0.674,0.637,1.747-0.033,2.398c-0.335,0.335-23.751,24.713,7.702,89.397
			c0.409,0.845,0.058,1.861-0.785,2.271C421.31,227.52,421.056,227.574,420.807,227.574z"/>
	</g>
	<g>
		<g>
			<path d="M915.179,551.148h-81.645l-15.188-109.822h112.025L915.179,551.148z M836.493,547.751h75.727l14.25-103.028H822.247
				L836.493,547.751z"/>
			<g>
				<path d="M856.667,564.682h-18.456v-16.931h18.456V564.682z M841.608,561.285h11.662v-10.137h-11.662V561.285z"/>
				<path d="M910.505,564.682h-18.452v-16.931h18.452V564.682z M895.449,561.285h11.659v-10.137h-11.659V561.285z"/>
			</g>
		</g>
		<g>
			<path d="M849.755,445.292l-1.904-0.904l-0.026-1.333c0-0.06,0-0.118,0.007-0.174c-0.033-1.381-0.242-5.79-1.032-9.533
				c-0.537-2.559,0-5.09,0.567-7.767c0.772-3.646,1.575-7.415,0.047-12.157c-1.622-5.025-0.352-9.782,0.879-14.382
				c1.055-3.938,2.046-7.656,1.078-11.162c-1.384-5.017,0.64-10.526,2.425-15.389c1.307-3.559,2.541-6.921,1.99-8.962
				c-0.647-2.395-0.342-5.254-0.018-8.281c0.505-4.657,1.022-9.474-1.977-12.472c-3.24-3.241-2.76-6.967-2.335-10.256
				c0.451-3.486,0.839-6.494-2.428-9.513c-4.014-3.702-4.153-5.485-3.928-7.276c0.073-0.594,0.143-1.154-2.75-3.378
				c-4.152-3.192-4.606-5.511-4.746-7.997c-0.08-1.446-0.13-2.319-2.282-3.856c-3.525-2.519-4.581-6.877-5.695-11.49
				c-0.972-4.032-1.98-8.2-4.733-11.077c-3.802-3.972-3.974-8.586-4.109-12.294c-0.116-3.12-0.259-5.09-1.679-6.242
				c-2.945-2.392-2.494-5.523-2.096-8.286c0.385-2.679,0.749-5.208-1.291-7.846c-3.074-3.977-3.433-8.054-3.811-12.369
				c-0.263-2.969-0.531-6.039-1.742-9.309c-1.691-4.571-0.995-7.16-0.255-9.901c0.683-2.536,1.459-5.41,0.388-11.03
				c-1.446-7.584,3.785-13.328,9.162-16.176c4.332-2.295,10.01-3.289,12.955-0.346c2.969,2.972,3.845,7.685,4.771,12.676
				c0.634,3.415,1.287,6.947,2.646,9.891c1.838,3.98,1.341,7.13,0.902,9.91c-0.44,2.781-0.756,4.793,1.171,7.322
				c2.81,3.692,3.012,7.621,3.188,11.087c0.14,2.678,0.27,5.209,1.496,7.551c1.778,3.395,1.895,7.44,2.004,11.352
				c0.103,3.496,0.195,6.798,1.42,9.371c1.363,2.864,1.393,5.69,1.419,8.185c0.036,3.339,0.146,5.138,2.18,6.38
				c5.675,3.469,6.385,7.321,7.805,14.995c1.188,6.393,7.565,15.44,9.907,16.722c0.79-2.184,1.659-4.325,2.76-7.035
				c1.357-3.333,3.068-7.538,5.357-13.639c2.216-5.916,2.335-9.744,2.432-12.822c0.083-2.687,0.152-5.005,1.708-7.339
				c1.572-2.361,1.47-7.657,1.356-13.263c-0.063-3.165-0.126-6.438,0.076-9.677c0.358-5.793,2.74-7.944,4.674-8.729
				c3.035-1.237,6.239,0.266,8.054,1.919c1.921,1.748,2.14,3.284,2.372,4.911c0.242,1.678,0.54,3.768,2.772,7.674
				c4.412,7.719,2.836,14.773,0.839,23.705l-0.656,2.972c-2.309,10.69-2.767,15.127-2.229,21.577
				c0.604,7.277-4.117,19.975-14.556,24.887c-9.258,4.354-9.609,4.745-12.588,13.983c-1.765,5.475-0.736,8.021,0.567,11.243
				c0.859,2.126,1.831,4.536,2.143,7.989c0.425,4.717-1.347,8.301-2.912,11.464c-1.486,3.003-2.77,5.599-2.313,8.884
				c0.372,2.673,1.457,4.563,2.604,6.563c1.877,3.271,3.817,6.65,1.728,12.627c-0.696,1.999-1.433,3.818-2.103,5.471
				c-2.372,5.86-3.021,8.036-1.024,9.44c1.844,1.299,2.941,3.423,3.178,6.143c0.312,3.604-0.989,7.967-2.956,9.936
				c-0.872,1.05-0.772,7.742,0.223,14.314c0.143,0.927-0.498,1.793-1.423,1.932c-0.899,0.146-1.795-0.493-1.935-1.425
				c-0.653-4.305-1.887-14.604,0.733-17.223c0.998-0.999,2.232-4.238,1.974-7.243c-0.103-1.178-0.487-2.77-1.751-3.659
				c-4.379-3.082-2.426-7.904-0.166-13.49c0.65-1.607,1.366-3.375,2.047-5.319c1.575-4.511,0.298-6.737-1.47-9.817
				c-1.201-2.089-2.562-4.459-3.022-7.785c-0.604-4.322,1.042-7.644,2.631-10.858c1.499-3.029,2.912-5.89,2.574-9.653
				c-0.266-2.952-1.102-5.02-1.911-7.022c-1.433-3.554-2.789-6.911-0.646-13.557c3.284-10.194,4.226-11.243,14.372-16.016
				c8.926-4.2,13.126-15.397,12.618-21.531c-0.567-6.77-0.073-11.623,2.296-22.577l0.659-2.994
				c1.978-8.853,3.284-14.702-0.474-21.28c-2.555-4.468-2.936-7.123-3.185-8.879c-0.202-1.419-0.278-1.952-1.297-2.877
				c-1.135-1.033-3.025-1.881-4.491-1.285c-1.456,0.592-2.365,2.648-2.561,5.793c-0.192,3.102-0.13,6.302-0.07,9.398
				c0.13,6.422,0.239,11.966-1.927,15.215c-1.015,1.524-1.065,3.129-1.142,5.559c-0.096,3.153-0.229,7.468-2.646,13.912
				c-2.302,6.14-4.023,10.371-5.387,13.724c-1.145,2.813-2.033,4.999-2.807,7.188c-0.5,1.422-1.592,2.223-2.991,2.1
				c-4.634-0.362-12.104-12.882-13.302-19.338c-1.406-7.601-1.91-10.332-6.292-13.011c-3.731-2.282-3.771-5.98-3.805-9.244
				c-0.023-2.248-0.046-4.571-1.088-6.76c-1.532-3.219-1.642-7.039-1.748-10.732c-0.106-3.69-0.206-7.175-1.622-9.875
				c-1.572-3-1.725-6.027-1.874-8.952c-0.169-3.264-0.325-6.347-2.497-9.203c-2.811-3.684-2.289-6.991-1.828-9.91
				c0.398-2.526,0.776-4.913-0.631-7.958c-1.535-3.328-2.229-7.073-2.902-10.695c-0.825-4.457-1.608-8.667-3.83-10.893
				c-1.221-1.219-4.913-1.203-8.963,0.945c-4.306,2.28-8.515,6.771-7.417,12.538c1.218,6.389,0.295,9.807-0.444,12.551
				c-0.67,2.488-1.154,4.284,0.159,7.84c1.37,3.697,1.672,7.146,1.94,10.19c0.348,3.97,0.65,7.398,3.114,10.589
				c2.919,3.775,2.392,7.452,1.968,10.407c-0.389,2.693-0.515,4.038,0.875,5.165c2.688,2.183,2.81,5.523,2.93,8.753
				c0.129,3.458,0.262,7.032,3.17,10.072c3.387,3.539,4.552,8.367,5.583,12.627c1.002,4.153,1.867,7.74,4.368,9.525
				c3.477,2.484,3.6,4.672,3.699,6.428c0.089,1.605,0.166,2.992,3.423,5.495c3.771,2.899,4.312,4.405,4.05,6.495
				c-0.093,0.721-0.195,1.539,2.859,4.358c4.561,4.206,3.971,8.773,3.496,12.442c-0.432,3.324-0.594,5.46,1.366,7.42
				c4.146,4.146,3.513,10.039,2.956,15.236c-0.292,2.702-0.567,5.252-0.086,7.032c0.832,3.084-0.581,6.938-2.08,11.019
				c-1.605,4.382-3.43,9.349-2.336,13.316c1.211,4.395,0.051,8.739-1.07,12.941c-1.154,4.313-2.246,8.39-0.933,12.463
				c1.808,5.604,0.829,10.205,0.046,13.903c-0.514,2.418-0.958,4.506-0.566,6.362c0.017,0.082,1.211,6.46,1.038,9.923
				c0.036,0.136,0.056,0.279,0.06,0.424l-0.093,0.015c-0.076,0.799-0.242,1.392-0.544,1.628L849.755,445.292z"/>
			<path d="M892.803,444.723c-0.853,0-1.586-0.641-1.686-1.506c-0.029-0.279-0.763-6.906,0.097-15.204
				c0.252-2.445,0.64-4.249,0.955-5.7c0.743-3.441,1.151-5.339-1.241-11.946c-2.089-5.768-1.521-8.816-1.064-11.266
				c0.358-1.931,0.594-3.206-0.49-5.592c-1.688-3.713-0.826-6.513-0.066-8.981c0.673-2.188,1.204-3.916,0.079-6.275
				c-1.632-3.43-1.085-6.329-0.554-9.134c0.494-2.62,0.962-5.096-0.305-8.226c-1.699-4.198-0.8-7.279-0.08-9.755
				c0.62-2.131,1.068-3.67,0.04-5.674c-1.858-3.624-0.796-6.284,0.056-8.42c0.66-1.66,1.012-2.66,0.518-3.897
				c-1.957-4.886,2.087-18.927,2.584-19.718c0.508-0.792,1.563-1.023,2.342-0.529c0.793,0.501,1.031,1.551,0.531,2.343
				c-0.494,1.337-3.612,13.373-2.306,16.643c1.025,2.557,0.206,4.607-0.515,6.417c-0.749,1.878-1.34,3.362-0.186,5.612
				c1.643,3.205,0.876,5.843,0.196,8.172c-0.663,2.277-1.287,4.426-0.03,7.533c1.639,4.053,1.028,7.282,0.491,10.13
				c-0.487,2.579-0.872,4.616,0.282,7.042c1.694,3.556,0.849,6.307,0.103,8.735c-0.667,2.166-1.244,4.037-0.09,6.576
				c1.529,3.362,1.128,5.526,0.736,7.619c-0.418,2.257-0.853,4.591,0.919,9.488c2.727,7.528,2.186,10.031,1.37,13.82
				c-0.312,1.441-0.663,3.073-0.899,5.332c-0.815,7.913-0.103,14.407-0.096,14.472c0.103,0.932-0.567,1.773-1.496,1.877
				C892.932,444.719,892.869,444.723,892.803,444.723z"/>
			<path d="M894.451,311.569c-0.488,0-0.973-0.21-1.311-0.615c-0.597-0.723-0.494-1.794,0.229-2.392
				c0.747-0.619,1.852-1.372,3.059-2.191c2.054-1.392,5.49-3.722,5.901-4.962c0.537-1.612,2.195-2.725,4.116-4.012
				c2.136-1.431,4.555-3.055,5.207-5.271c0.847-2.88,2.697-4.038,4.329-5.06c1.626-1.017,3.028-1.894,3.888-4.598
				c1.307-4.1,3.323-6.237,5.104-8.123c1.102-1.166,2.144-2.268,2.942-3.768c1.128-2.111,2.432-3.136,3.691-4.13
				c1.579-1.242,3.37-2.652,5.652-6.913c3.055-5.705,4.538-6.801,7.895-8.944c1.277-0.816,2.866-1.831,5.019-3.488
				c5.135-3.951,3.805-14.031,3.092-19.446c-0.199-1.518-0.358-2.715-0.358-3.551c0-0.925-0.767-1.711-1.486-2.14
				c-0.836-0.499-1.539-0.507-1.675-0.423c-0.415,2.441-2.743,4.027-4.995,5.558c-1.36,0.926-2.902,1.976-3.344,2.859
				c-0.408,0.817-1.138,2.048-1.98,3.471c-1.777,2.996-4.75,8.007-4.922,10.064c-0.186,2.242-2.697,4.145-7.115,7.314
				c-2.876,2.06-7.215,5.171-7.317,6.805c-0.152,2.471-1.433,4.133-2.561,5.597c-1.354,1.756-2.521,3.274-2.256,6.319
				c0.362,4.151-2.093,6.857-4.259,9.246c-1.771,1.955-3.446,3.803-3.665,6.332c-0.594,6.873-8.545,18.691-8.883,19.192
				c-0.524,0.778-1.583,0.983-2.358,0.455c-0.776-0.526-0.979-1.581-0.455-2.358c2.166-3.203,7.882-12.606,8.313-17.58
				c0.318-3.67,2.558-6.142,4.534-8.321c1.944-2.145,3.622-3.997,3.391-6.67c-0.382-4.363,1.466-6.76,2.948-8.688
				c0.988-1.285,1.771-2.3,1.861-3.736c0.202-3.241,4.342-6.209,8.727-9.354c2.176-1.559,5.463-3.917,5.715-4.873
				c0.213-2.584,2.564-6.727,5.381-11.477c0.793-1.337,1.479-2.491,1.864-3.257c0.839-1.677,2.687-2.932,4.471-4.148
				c1.517-1.032,3.403-2.315,3.586-3.319c0.349-1.916,1.917-3.017,4.023-2.846c2.77,0.249,5.854,2.765,5.854,5.977
				c0,0.677,0.152,1.76,0.328,3.106c0.807,6.093,2.303,17.438-4.389,22.583c-2.269,1.747-3.927,2.806-5.26,3.657
				c-2.89,1.844-3.971,2.536-6.73,7.687c-2.617,4.884-4.793,6.599-6.545,7.978c-1.164,0.915-2.003,1.577-2.793,3.058
				c-1.015,1.902-2.262,3.224-3.469,4.501c-1.682,1.78-3.268,3.459-4.339,6.822c-1.237,3.892-3.503,5.309-5.323,6.446
				c-1.437,0.9-2.389,1.496-2.873,3.14c-0.998,3.395-4.09,5.468-6.574,7.133c-1.041,0.698-2.613,1.753-2.783,2.266
				c-0.723,2.165-3.446,4.142-7.218,6.699c-1.104,0.748-2.116,1.431-2.803,1.997C895.217,311.441,894.832,311.569,894.451,311.569z"
				/>
			<path d="M900.106,276.438c-0.318,0-0.64-0.088-0.926-0.275c-0.786-0.511-1.008-1.562-0.497-2.348
				c0.079-0.123,7.931-12.242,9.261-18.099c0.893-3.919,3.297-5.888,5.056-7.326c1.436-1.176,2.192-1.839,2.266-2.891
				c0.195-2.753,2.312-3.967,4.179-5.037c1.854-1.063,3.456-1.982,3.957-4.264c0.85-3.876,3.42-6.297,5.688-8.434
				c1.37-1.292,2.664-2.511,3.334-3.851c2.242-4.489,14.008-5.566,17.561-5.788c1.015-0.045,1.741,0.655,1.801,1.589
				c0.06,0.936-0.653,1.741-1.589,1.801c-6.372,0.401-13.812,2.072-14.734,3.918c-0.938,1.879-2.518,3.366-4.043,4.804
				c-2.097,1.972-4.077,3.836-4.7,6.687c-0.822,3.753-3.576,5.332-5.583,6.483c-1.715,0.983-2.421,1.469-2.48,2.333
				c-0.183,2.561-1.947,4.003-3.507,5.277c-1.602,1.312-3.26,2.669-3.894,5.45c-1.463,6.446-9.388,18.68-9.726,19.197
				C901.204,276.167,900.66,276.438,900.106,276.438z"/>
			<path d="M869.411,302.795c-0.079,0-0.163-0.005-0.242-0.017c-0.929-0.133-1.575-0.992-1.442-1.92
				c0.046-0.69-0.909-3.485-1.543-5.332c-0.979-2.863-1.99-5.821-2.149-7.886c-0.109-1.445-0.454-2.043-0.936-2.875
				c-0.567-0.981-1.273-2.204-1.602-4.673c-0.216-1.645-0.541-2.173-0.952-2.841c-0.713-1.161-1.284-2.277-1.599-5.12
				c-0.232-2.109-0.724-3.324-1.344-4.861c-0.753-1.864-1.688-4.186-2.332-8.672c-0.438-3.073-0.919-5.402-1.383-7.654
				c-0.717-3.47-1.394-6.745-1.741-12.004c-0.313-4.707-1.035-6.126-1.735-7.5c-0.544-1.063-1.104-2.163-1.37-4.291
				c-0.255-2.048-1.532-4.78-2.77-7.42c-1.326-2.837-2.577-5.516-2.889-7.85c-0.223-1.651-0.833-2.565-1.676-3.829
				c-0.972-1.456-2.182-3.268-2.836-6.535c-0.822-4.116-6.083-8.777-8.043-10.226c-0.753-0.558-0.912-1.622-0.355-2.375
				c0.564-0.756,1.626-0.911,2.379-0.355c0.328,0.244,8.106,6.06,9.351,12.29c0.521,2.607,1.399,3.922,2.328,5.313
				c0.933,1.394,1.894,2.834,2.22,5.268c0.241,1.816,1.439,4.38,2.6,6.859c1.347,2.881,2.74,5.858,3.062,8.438
				c0.192,1.538,0.541,2.223,1.025,3.169c0.776,1.521,1.741,3.415,2.1,8.816c0.335,5.027,0.955,8.047,1.679,11.543
				c0.474,2.302,0.965,4.684,1.42,7.859c0.583,4.078,1.399,6.1,2.119,7.883c0.66,1.637,1.283,3.185,1.568,5.757
				c0.256,2.315,0.654,2.963,1.118,3.716c0.521,0.849,1.111,1.811,1.427,4.171c0.238,1.801,0.673,2.552,1.174,3.423
				c0.567,0.983,1.211,2.098,1.383,4.314c0.123,1.633,1.108,4.508,1.974,7.045c1.208,3.524,1.881,5.584,1.692,6.909
				C870.97,302.184,870.24,302.795,869.411,302.795z"/>
			<path d="M859.775,269.874c-0.06,0-0.123-0.003-0.183-0.01c-0.933-0.098-1.608-0.936-1.509-1.867
				c0.006-0.078,0.813-7.895-0.515-13.192c-0.803-3.217-0.382-6.36-0.007-9.135c0.325-2.43,0.607-4.527,0.05-6.146
				c-0.772-2.241-0.205-4.355,0.345-6.398c0.657-2.446,1.225-4.559-0.209-7.034c-1.939-3.352-1.539-5.606-1.184-7.596
				c0.292-1.624,0.563-3.158-0.358-5.697c-1.131-3.113-0.995-6.005-0.862-8.802c0.156-3.328,0.302-6.473-1.463-10.314
				c-2.591-5.637-2.149-9.167-1.824-11.744c0.139-1.116,0.249-1.999,0.109-2.841c-0.256-1.527,0.162-3.005,0.689-4.875
				c0.936-3.313,2.217-7.847,0.893-16.079c-1.851-11.483,9.145-17.746,15.215-19.453c0.879-0.221,1.778-0.5,2.703-0.785
				c4.276-1.323,10.137-3.133,11.809,1.884c0.545,1.635,1.626,2.652,2.77,3.728c1.394,1.313,2.976,2.803,2.976,5.299
				c0,0.702,0.275,1.65,0.594,2.75c0.946,3.247,2.372,8.156-0.729,15.46c-2.435,5.747-2.014,9.07-1.565,12.589
				c0.242,1.895,0.491,3.852,0.282,6.15c-0.252,2.75-0.027,5.091,0.169,7.158c0.239,2.514,0.464,4.889-0.229,7.309
				c-0.566,1.983-0.288,4.677,0.004,7.529c0.229,2.232,0.468,4.541,0.342,6.815c-0.1,1.831,0.255,2.771,0.67,3.859
				c0.627,1.654,1.34,3.526,0.424,7.729c-1.307,6.032,0.17,12.344,0.187,12.407c0.219,0.911-0.345,1.828-1.254,2.047
				c-0.922,0.232-1.827-0.34-2.05-1.252c-0.07-0.287-1.679-7.11-0.199-13.923c0.7-3.217,0.266-4.357-0.282-5.8
				c-0.48-1.267-1.028-2.703-0.886-5.255c0.109-2.004-0.112-4.176-0.328-6.278c-0.328-3.189-0.641-6.199,0.109-8.813
				c0.515-1.803,0.339-3.677,0.109-6.052c-0.209-2.214-0.447-4.724-0.169-7.789c0.176-1.929-0.04-3.621-0.269-5.413
				c-0.461-3.634-0.985-7.752,1.811-14.344c2.627-6.191,1.5-10.07,0.594-13.187c-0.391-1.349-0.729-2.513-0.729-3.697
				c0-0.983-0.653-1.645-1.907-2.824c-1.271-1.196-2.85-2.682-3.665-5.131c-0.518-1.572-2.962-1.133-7.583,0.289
				c-0.984,0.305-1.943,0.601-2.829,0.823c-0.551,0.157-14.568,4.274-12.74,15.629c1.446,8.974-0.011,14.13-0.972,17.542
				c-0.415,1.463-0.74,2.619-0.611,3.396c0.223,1.332,0.07,2.541-0.089,3.821c-0.306,2.411-0.647,5.145,1.539,9.901
				c2.112,4.594,1.931,8.471,1.768,11.893c-0.126,2.688-0.231,5.011,0.663,7.481c1.238,3.398,0.836,5.647,0.512,7.455
				c-0.325,1.819-0.541,3.021,0.779,5.297c2.14,3.695,1.257,6.977,0.547,9.616c-0.454,1.692-0.846,3.153-0.411,4.41
				c0.823,2.38,0.475,4.969,0.106,7.708c-0.352,2.591-0.71,5.271-0.063,7.858c1.473,5.886,0.631,14.029,0.594,14.373
				C861.367,269.228,860.631,269.874,859.775,269.874z"/>
			<path d="M875.465,300.407c-0.209,0-0.422-0.038-0.627-0.12c-0.73-0.29-1.148-1.028-1.062-1.773
				c-0.026-0.468-0.269-2.103-0.501-3.687c-1.081-7.342-3.334-22.62-1.559-30.369l0.749-3.222c1.652-7.039,2.149-9.162,1.323-16.85
				c-0.451-4.181-0.421-7.231-0.397-9.92c0.03-3.212,0.053-5.75-0.733-9.126c-0.822-3.551-0.345-7.11,0.076-10.25
				c0.379-2.821,0.736-5.484,0-7.342c-1.078-2.724-1.071-6.578-1.061-10.306c0.003-2.747,0.01-5.586-0.508-6.897
				c-0.746-1.906-0.043-4.706,0.849-8.248c1.075-4.276,2.411-9.596,0.776-12.917c-2.146-4.357-0.404-7.304,0.865-9.455
				c1.059-1.793,1.354-2.457,0.764-3.452c-1.997-3.38-0.906-5.979-0.183-7.698c0.325-0.775,0.604-1.445,0.518-1.896
				c-0.183-0.92,0.418-1.814,1.337-1.995c0.929-0.184,1.811,0.418,1.993,1.338c0.288,1.47-0.245,2.743-0.717,3.868
				c-0.646,1.533-1.154,2.745-0.022,4.655c1.658,2.806,0.314,5.08-0.764,6.908c-1.16,1.965-2.079,3.518-0.746,6.225
				c2.189,4.439,0.684,10.432-0.527,15.246c-0.594,2.355-1.33,5.286-0.979,6.18c0.75,1.912,0.743,4.801,0.74,8.145
				c-0.007,3.249-0.014,6.932,0.822,9.048c1.062,2.68,0.646,5.771,0.209,9.044c-0.401,2.992-0.816,6.085-0.133,9.03
				c0.876,3.771,0.85,6.623,0.819,9.925c-0.023,2.597-0.05,5.541,0.378,9.524c0.889,8.266,0.315,10.717-1.393,17.991l-0.747,3.206
				c-1.632,7.125,0.558,21.977,1.609,29.113c0.601,4.065,0.646,4.398,0.407,5.002C876.778,300.001,876.141,300.407,875.465,300.407z
				"/>
		</g>
	</g>
	<g>
		<path d="M274.84,399.15H165.867v-18.366H274.84V399.15z M169.264,395.754h102.18v-11.573h-102.18V395.754z"/>
		<path d="M246.271,479.352h-51.834l-0.502-0.525c-13.591-14.247-22.264-57.127-22.264-80.389l-0.017-2.684h97.4l-0.017,2.684
			c0,23.262-8.672,66.142-22.263,80.389L246.271,479.352z M195.905,475.955h48.896c11.475-12.84,20.663-51.888,20.835-76.805H175.07
			C175.242,424.067,184.431,463.115,195.905,475.955z"/>
		<g>
			<path d="M231.921,384.181c-0.761,0-1.455-0.516-1.647-1.289c-0.544-2.188-0.118-7.15,0.896-18.164
				c0.63-6.826,1.413-15.325,2.113-25.533c1.682-24.473,4.273-49.166,4.3-49.412l0.118-1.119l1.076-0.329
				c0.23-0.069,23.188-7.203,31.24-21.295c6.723-11.765,9.385-20.743,7.699-25.963c-0.648-2.005-1.942-3.425-3.956-4.341
				c-2.952-1.347-7.465-0.832-12.389,1.392c-7.196,3.249-16.875,11.229-20.476,23.033c-0.272,0.896-1.217,1.406-2.12,1.128
				c-0.897-0.272-1.401-1.223-1.127-2.12c3.929-12.888,14.481-21.597,22.325-25.136c5.901-2.668,11.297-3.163,15.193-1.388
				c2.891,1.314,4.836,3.463,5.78,6.387c2.017,6.242-0.668,15.896-7.98,28.693c-7.773,13.604-27.256,20.872-32.118,22.511
				c-0.52,5.048-2.7,26.707-4.175,48.191c-0.705,10.248-1.489,18.767-2.12,25.612c-0.819,8.888-1.411,15.312-0.982,17.033
				c0.226,0.911-0.328,1.831-1.239,2.058C232.195,384.164,232.058,384.181,231.921,384.181z"/>
			<path d="M207.001,384.181c-0.841,0-1.571-0.624-1.682-1.479c-0.149-1.148-14.895-115.284-11.946-160.358
				c2.937-44.897,9.563-68.992,20.852-75.828c4.191-2.542,8.978-2.66,14.222-0.338c23.325,10.316,23.839,76.483,22.179,98.85
				c-0.07,0.934-0.889,1.635-1.819,1.567c-0.936-0.069-1.637-0.884-1.567-1.819c1.947-26.259-0.426-86.761-20.166-95.492
				c-4.224-1.868-7.852-1.823-11.089,0.137c-10.115,6.126-16.402,30.052-19.222,73.146c-2.927,44.746,11.775,158.553,11.923,159.698
				c0.121,0.931-0.534,1.781-1.464,1.902C207.147,384.176,207.074,384.181,207.001,384.181z"/>
			<path d="M251.281,189.932c-0.434,0-0.869-0.166-1.201-0.498l-9.679-9.679c-0.664-0.663-0.664-1.738,0-2.401
				c0.663-0.663,1.738-0.663,2.401,0l9.679,9.679c0.664,0.663,0.664,1.738,0,2.401C252.15,189.766,251.715,189.932,251.281,189.932z
				"/>
			<path d="M241.602,189.932c-0.435,0-0.869-0.166-1.201-0.498c-0.664-0.664-0.664-1.738,0-2.401l9.679-9.679
				c0.664-0.663,1.738-0.663,2.401,0c0.664,0.664,0.664,1.738,0,2.401l-9.679,9.679
				C242.471,189.766,242.037,189.932,241.602,189.932z"/>
			<path d="M252.767,211.797c-0.435,0-0.869-0.166-1.201-0.497l-9.679-9.679c-0.664-0.664-0.664-1.738,0-2.401s1.738-0.664,2.401,0
				l9.679,9.679c0.663,0.664,0.663,1.738,0,2.402C253.636,211.631,253.201,211.797,252.767,211.797z"/>
			<path d="M243.088,211.797c-0.435,0-0.869-0.166-1.201-0.497c-0.664-0.664-0.664-1.738,0-2.402l9.679-9.679
				c0.663-0.664,1.738-0.664,2.401,0c0.663,0.664,0.663,1.738,0,2.401l-9.679,9.679
				C243.957,211.631,243.522,211.797,243.088,211.797z"/>
			<path d="M284.739,249.372c-0.435,0-0.869-0.166-1.201-0.498l-9.679-9.679c-0.663-0.663-0.663-1.738,0-2.401
				c0.664-0.663,1.738-0.663,2.402,0l9.679,9.679c0.664,0.664,0.664,1.738,0,2.402C285.608,249.206,285.174,249.372,284.739,249.372
				z"/>
			<path d="M275.061,249.372c-0.435,0-0.869-0.166-1.201-0.498c-0.663-0.664-0.663-1.738,0-2.402l9.679-9.679
				c0.664-0.663,1.738-0.663,2.401,0c0.664,0.664,0.664,1.738,0,2.401l-9.679,9.679C275.93,249.206,275.495,249.372,275.061,249.372
				z"/>
			<path d="M200.503,219.691c-0.435,0-0.869-0.166-1.201-0.497l-9.679-9.679c-0.663-0.664-0.663-1.738,0-2.402
				c0.664-0.663,1.738-0.663,2.401,0l9.679,9.679c0.664,0.664,0.664,1.738,0,2.402C201.372,219.526,200.938,219.691,200.503,219.691
				z"/>
			<path d="M190.824,219.691c-0.435,0-0.869-0.166-1.201-0.497c-0.663-0.664-0.663-1.738,0-2.402l9.679-9.679
				c0.664-0.663,1.738-0.663,2.401,0c0.664,0.664,0.664,1.738,0,2.402l-9.679,9.679
				C191.693,219.526,191.258,219.691,190.824,219.691z"/>
			<path d="M204.354,180.253c-0.435,0-0.869-0.166-1.201-0.498l-9.679-9.679c-0.664-0.664-0.664-1.738,0-2.401
				c0.664-0.664,1.738-0.664,2.402,0l9.679,9.679c0.663,0.664,0.663,1.738,0,2.401C205.223,180.087,204.789,180.253,204.354,180.253
				z"/>
			<path d="M194.675,180.253c-0.435,0-0.869-0.166-1.201-0.498c-0.664-0.663-0.664-1.738,0-2.401l9.679-9.679
				c0.663-0.664,1.738-0.664,2.401,0c0.663,0.663,0.663,1.738,0,2.401l-9.679,9.679
				C195.544,180.087,195.109,180.253,194.675,180.253z"/>
			<path d="M224.06,152.758c-0.435,0-0.869-0.166-1.201-0.498l-9.679-9.679c-0.664-0.664-0.664-1.738,0-2.401
				c0.663-0.664,1.738-0.664,2.401,0l9.679,9.679c0.664,0.663,0.664,1.738,0,2.401C224.929,152.592,224.495,152.758,224.06,152.758z
				"/>
			<path d="M214.381,152.758c-0.434,0-0.869-0.166-1.2-0.498c-0.664-0.664-0.664-1.738,0-2.401l9.679-9.679
				c0.663-0.664,1.738-0.664,2.401,0c0.664,0.664,0.664,1.738,0,2.401l-9.679,9.679C215.25,152.592,214.815,152.758,214.381,152.758
				z"/>
			<path d="M265.886,240.844c-0.435,0-0.869-0.166-1.201-0.497l-9.679-9.679c-0.663-0.664-0.663-1.738,0-2.401
				c0.664-0.664,1.738-0.664,2.401,0l9.679,9.679c0.664,0.664,0.664,1.738,0,2.402C266.755,240.678,266.32,240.844,265.886,240.844z
				"/>
			<path d="M256.207,240.844c-0.435,0-0.869-0.166-1.201-0.497c-0.663-0.664-0.663-1.738,0-2.402l9.679-9.679
				c0.663-0.664,1.738-0.664,2.401,0s0.664,1.738,0,2.401l-9.679,9.679C257.076,240.678,256.641,240.844,256.207,240.844z"/>
			<path d="M259.676,288.393c-0.435,0-0.869-0.166-1.201-0.498l-9.679-9.679c-0.663-0.663-0.663-1.738,0-2.401
				c0.664-0.664,1.738-0.664,2.402,0l9.679,9.679c0.664,0.663,0.664,1.738,0,2.401C260.545,288.227,260.111,288.393,259.676,288.393
				z"/>
			<path d="M249.997,288.393c-0.435,0-0.869-0.166-1.201-0.498c-0.663-0.664-0.663-1.738,0-2.401l9.679-9.679
				c0.663-0.664,1.738-0.664,2.401,0c0.664,0.664,0.664,1.738,0,2.401l-9.679,9.679
				C250.866,288.227,250.432,288.393,249.997,288.393z"/>
			<path d="M241.602,324.15c-0.435,0-0.869-0.166-1.201-0.498l-9.679-9.679c-0.664-0.664-0.664-1.738,0-2.401
				c0.664-0.664,1.738-0.664,2.402,0l9.679,9.679c0.664,0.664,0.664,1.738,0,2.401C242.471,323.984,242.037,324.15,241.602,324.15z"
				/>
			<path d="M231.923,324.15c-0.435,0-0.869-0.166-1.201-0.498c-0.664-0.663-0.664-1.738,0-2.401l9.679-9.679
				c0.663-0.664,1.738-0.664,2.401,0c0.664,0.663,0.664,1.738,0,2.401l-9.679,9.679C232.792,323.984,232.357,324.15,231.923,324.15z
				"/>
			<path d="M205.342,335.086c-0.435,0-0.869-0.166-1.201-0.497l-9.679-9.679c-0.664-0.664-0.664-1.738,0-2.401
				c0.663-0.664,1.738-0.664,2.401,0l9.679,9.679c0.664,0.664,0.664,1.738,0,2.402C206.211,334.92,205.777,335.086,205.342,335.086z
				"/>
			<path d="M195.664,335.086c-0.435,0-0.869-0.166-1.201-0.497c-0.664-0.664-0.664-1.738,0-2.402l9.679-9.679
				c0.664-0.664,1.738-0.664,2.401,0c0.664,0.663,0.664,1.738,0,2.401l-9.679,9.679C196.532,334.92,196.098,335.086,195.664,335.086
				z"/>
			<path d="M202.72,286.894c-0.435,0-0.869-0.166-1.201-0.498l-9.679-9.679c-0.664-0.664-0.664-1.738,0-2.402
				c0.663-0.663,1.738-0.663,2.401,0l9.679,9.679c0.664,0.664,0.664,1.738,0,2.401C203.589,286.728,203.155,286.894,202.72,286.894z
				"/>
			<path d="M193.041,286.894c-0.434,0-0.869-0.166-1.2-0.498c-0.664-0.663-0.664-1.738,0-2.401l9.679-9.679
				c0.664-0.663,1.738-0.663,2.401,0c0.664,0.664,0.664,1.738,0,2.402l-9.679,9.679C193.91,286.728,193.476,286.894,193.041,286.894
				z"/>
			<path d="M199.515,255.193c-0.435,0-0.869-0.166-1.201-0.498l-9.679-9.679c-0.664-0.663-0.664-1.738,0-2.401
				c0.663-0.663,1.738-0.663,2.401,0l9.679,9.679c0.663,0.664,0.663,1.738,0,2.402C200.383,255.027,199.949,255.193,199.515,255.193
				z"/>
			<path d="M189.835,255.193c-0.435,0-0.869-0.166-1.201-0.498c-0.664-0.664-0.664-1.738,0-2.402l9.679-9.679
				c0.664-0.663,1.738-0.663,2.402,0c0.663,0.664,0.663,1.738,0,2.401l-9.679,9.679C190.705,255.027,190.27,255.193,189.835,255.193
				z"/>
			<path d="M228.899,213.067c-0.435,0-0.869-0.166-1.201-0.497l-9.679-9.679c-0.664-0.664-0.664-1.738,0-2.402
				c0.663-0.663,1.738-0.663,2.401,0l9.679,9.679c0.663,0.664,0.663,1.738,0,2.402C229.769,212.902,229.334,213.067,228.899,213.067
				z"/>
			<path d="M219.221,213.067c-0.435,0-0.869-0.166-1.201-0.497c-0.664-0.664-0.664-1.738,0-2.402l9.679-9.679
				c0.664-0.663,1.738-0.663,2.402,0c0.663,0.664,0.663,1.738,0,2.402l-9.679,9.679C220.09,212.902,219.655,213.067,219.221,213.067
				z"/>
			<path d="M219.221,282.054c-0.435,0-0.869-0.166-1.201-0.498l-9.679-9.679c-0.663-0.664-0.663-1.738,0-2.402
				c0.664-0.663,1.738-0.663,2.401,0l9.679,9.679c0.664,0.663,0.664,1.738,0,2.401C220.09,281.889,219.655,282.054,219.221,282.054z
				"/>
			<path d="M209.542,282.054c-0.434,0-0.869-0.166-1.201-0.498c-0.663-0.663-0.663-1.738,0-2.401l9.679-9.679
				c0.663-0.663,1.738-0.663,2.401,0c0.664,0.664,0.664,1.738,0,2.402l-9.679,9.679
				C210.411,281.889,209.976,282.054,209.542,282.054z"/>
			<path d="M214.379,320.535c-0.831,0-1.556-0.609-1.678-1.455c-2.491-17.117-0.829-49.151-0.204-61.21
				c0.116-2.247,0.197-3.729,0.197-4.181c-0.06-0.524,0.125-1.068,0.544-1.45c0.693-0.632,1.767-0.58,2.398,0.113
				c0.519,0.568,0.519,0.568,0.252,5.693c-0.62,11.968-2.271,43.759,0.172,60.547c0.136,0.927-0.507,1.789-1.436,1.924
				C214.542,320.529,214.461,320.535,214.379,320.535z"/>
			<path d="M224.06,223.45c-0.398,0-0.796-0.138-1.118-0.419c-0.922-0.808-0.98-1.185-0.529-14.519
				c0.375-11.089,0.942-27.848-0.045-39.492c-0.079-0.936,0.614-1.758,1.548-1.836c0.975-0.08,1.758,0.614,1.836,1.547
				c1.005,11.847,0.435,28.725,0.056,39.895c-0.188,5.503-0.38,11.188-0.206,12.416c0.272,0.589,0.19,1.309-0.264,1.828
				C225.002,223.254,224.533,223.45,224.06,223.45z"/>
		</g>
	</g>
	<g>
		<g>
			<path d="M249.506,833.533h-47.423c-0.97-0.113-18.572-2.74-24.425-29.07c-5.544-24.943,15.37-73.929,17.51-78.845v-9.268h61.139
				v9.268c2.142,4.916,23.055,53.901,17.511,78.845c-5.853,26.33-23.455,28.957-24.203,29.057L249.506,833.533z M198.566,719.747
				l-0.145,6.912c-0.23,0.521-22.922,52.429-17.446,77.067c5.311,23.896,20.687,26.333,21.338,26.426l46.95-0.016
				c1.486-0.246,16.089-3.248,21.237-26.41c5.479-24.646-17.215-76.546-17.445-77.067l-0.145-0.687v-6.226H198.566z"/>
			<path d="M251.921,842.449h-51.536v-12.313h51.536V842.449z M203.782,839.053h44.743v-5.52h-44.743V839.053z"/>
		</g>
		<path d="M235.824,719.747c-0.144,0-0.29-0.017-0.435-0.057c-0.907-0.238-1.448-1.167-1.209-2.076
			c12.192-46.189,12.754-111.451,10.719-124.666c-1.33-8.637-4.083-20.691-12.614-25.66c-5.473-3.188-12.842-3.058-21.899,0.385
			c-22.139,8.412-9.187,111.188-2.329,150.081c0.165,0.925-0.453,1.804-1.376,1.967c-0.924,0.179-1.806-0.455-1.967-1.377
			c-1.028-5.821-24.816-142.72,4.465-153.849c10.063-3.821,18.411-3.87,24.816-0.143c9.787,5.702,12.827,18.755,14.261,28.079
			c2.458,15.968,0.879,81.836-10.792,126.052C237.263,719.243,236.575,719.747,235.824,719.747z"/>
		<path d="M215.441,719.747c-0.834,0-1.561-0.614-1.68-1.463c-0.637-4.554-15.499-111.995-5.629-152.602
			c0.222-0.908,1.141-1.449,2.052-1.25c0.91,0.222,1.471,1.141,1.249,2.053c-9.717,39.979,5.538,150.22,5.691,151.328
			c0.131,0.929-0.517,1.788-1.446,1.917C215.599,719.74,215.519,719.747,215.441,719.747z"/>
		<path d="M231.578,719.747c-0.053,0-0.106-0.003-0.159-0.007c-0.934-0.09-1.621-0.915-1.534-1.851
			c0.098-1.042,9.669-104.499,3.426-134.046c-0.194-0.919,0.393-1.818,1.31-2.014c0.922-0.186,1.82,0.392,2.014,1.311
			c6.349,30.052-2.967,130.792-3.367,135.067C233.185,719.087,232.445,719.747,231.578,719.747z"/>
		<path d="M223.933,719.747c-0.836,0-1.566-0.617-1.682-1.47c-5.056-37.104-2.088-153.865-2.059-155.039
			c0.025-0.936,0.756-1.698,1.743-1.655c0.937,0.026,1.677,0.806,1.653,1.741c-0.031,1.175-2.99,117.664,2.028,154.496
			c0.126,0.928-0.524,1.784-1.454,1.91C224.085,719.744,224.009,719.747,223.933,719.747z"/>
		<path d="M237.101,690.664c-0.222,0-0.447-0.044-0.665-0.137l-6.758-2.879c-0.864-0.368-1.265-1.366-0.897-2.229
			c0.368-0.859,1.363-1.264,2.228-0.896l6.758,2.88c0.864,0.368,1.266,1.366,0.897,2.229
			C238.388,690.275,237.761,690.664,237.101,690.664z"/>
		<path d="M250.904,596.969c-0.222,0-0.448-0.043-0.665-0.136l-6.758-2.88c-0.864-0.367-1.265-1.366-0.897-2.229
			s1.368-1.268,2.227-0.896l6.758,2.879c0.864,0.368,1.266,1.367,0.897,2.229C252.191,596.581,251.564,596.969,250.904,596.969z"/>
		<path d="M199.636,591.091c-0.223,0-0.448-0.043-0.665-0.136l-6.759-2.879c-0.864-0.368-1.265-1.367-0.897-2.229
			c0.368-0.858,1.363-1.264,2.227-0.896l6.759,2.879c0.864,0.368,1.265,1.367,0.897,2.229
			C200.922,590.703,200.295,591.091,199.636,591.091z"/>
		<path d="M199.636,622.377c-0.223,0-0.448-0.043-0.665-0.136l-6.759-2.88c-0.864-0.368-1.265-1.366-0.897-2.229
			c0.368-0.859,1.363-1.268,2.227-0.896l6.759,2.879c0.864,0.368,1.265,1.366,0.897,2.229
			C200.922,621.988,200.295,622.377,199.636,622.377z"/>
		<path d="M213.269,673.873c-0.223,0-0.448-0.043-0.665-0.136l-6.759-2.88c-0.864-0.367-1.265-1.366-0.897-2.229
			c0.368-0.859,1.368-1.264,2.227-0.896l6.759,2.879c0.864,0.368,1.265,1.367,0.897,2.229
			C214.555,673.485,213.928,673.873,213.269,673.873z"/>
		<path d="M248.43,655.348c-0.222,0-0.448-0.043-0.666-0.136l-6.758-2.88c-0.864-0.367-1.266-1.366-0.897-2.229
			c0.366-0.862,1.367-1.261,2.228-0.896l6.758,2.879c0.864,0.368,1.265,1.367,0.897,2.229
			C249.717,654.96,249.09,655.348,248.43,655.348z"/>
		<path d="M240.509,637.343c-0.222,0-0.447-0.043-0.665-0.136l-6.758-2.879c-0.864-0.368-1.265-1.367-0.897-2.229
			c0.368-0.858,1.366-1.267,2.228-0.896l6.758,2.879c0.864,0.369,1.266,1.367,0.897,2.229
			C241.796,636.955,241.169,637.343,240.509,637.343z"/>
		<path d="M224.364,608.681c-0.222,0-0.448-0.043-0.665-0.136l-6.758-2.879c-0.864-0.368-1.266-1.367-0.897-2.229
			c0.366-0.858,1.367-1.267,2.228-0.896l6.758,2.879c0.864,0.369,1.265,1.367,0.897,2.229
			C225.65,608.293,225.023,608.681,224.364,608.681z"/>
		<path d="M203.044,679.088c-0.223,0-0.448-0.044-0.665-0.137l-6.759-2.879c-0.864-0.368-1.265-1.366-0.897-2.229
			c0.37-0.859,1.367-1.265,2.227-0.896l6.759,2.88c0.864,0.368,1.265,1.366,0.897,2.229
			C204.331,678.699,203.704,679.088,203.044,679.088z"/>
		<path d="M245.05,625.966c-0.671,0-1.309-0.401-1.575-1.064c-0.35-0.869,0.071-1.857,0.942-2.209l6.813-2.743
			c0.862-0.346,1.857,0.069,2.209,0.941c0.35,0.869-0.071,1.857-0.942,2.209l-6.813,2.743
			C245.476,625.926,245.262,625.966,245.05,625.966z"/>
		<path d="M217.577,649.105c-0.672,0-1.309-0.401-1.576-1.065c-0.35-0.868,0.071-1.857,0.942-2.209l6.813-2.743
			c0.862-0.348,1.857,0.07,2.209,0.942c0.35,0.869-0.071,1.857-0.942,2.209l-6.813,2.743
			C218.003,649.065,217.789,649.105,217.577,649.105z"/>
		<path d="M203.077,615.653c-0.672,0-1.309-0.401-1.576-1.064c-0.35-0.869,0.071-1.857,0.942-2.209l6.813-2.743
			c0.861-0.342,1.859,0.069,2.209,0.941c0.35,0.869-0.071,1.857-0.942,2.209l-6.813,2.743
			C203.503,615.613,203.289,615.653,203.077,615.653z"/>
		<path d="M192.851,645.135c-0.672,0-1.309-0.401-1.576-1.064c-0.35-0.869,0.071-1.857,0.942-2.209l6.813-2.744
			c0.866-0.341,1.857,0.07,2.209,0.942c0.35,0.869-0.071,1.857-0.942,2.209l-6.813,2.743
			C193.277,645.095,193.063,645.135,192.851,645.135z"/>
		<path d="M231.576,672.367c-0.671,0-1.309-0.401-1.575-1.064c-0.35-0.869,0.071-1.857,0.942-2.209l6.813-2.744
			c0.862-0.345,1.857,0.07,2.209,0.942c0.35,0.869-0.071,1.857-0.942,2.209l-6.813,2.743
			C232.003,672.327,231.789,672.367,231.576,672.367z"/>
		<path d="M233.723,612.91c-0.672,0-1.309-0.401-1.576-1.064c-0.35-0.869,0.071-1.857,0.942-2.209l6.813-2.743
			c0.864-0.349,1.858,0.069,2.209,0.941c0.35,0.869-0.071,1.857-0.942,2.209l-6.813,2.743
			C234.148,612.87,233.935,612.91,233.723,612.91z"/>
		<path d="M238.265,699.792c-0.672,0-1.309-0.401-1.576-1.064c-0.35-0.869,0.071-1.857,0.942-2.209l6.813-2.743
			c0.866-0.346,1.859,0.069,2.209,0.941c0.35,0.869-0.071,1.857-0.942,2.209l-6.813,2.743
			C238.691,699.752,238.478,699.792,238.265,699.792z"/>
		<path d="M198.015,701.162c-0.671,0-1.309-0.401-1.576-1.064c-0.35-0.869,0.071-1.858,0.942-2.21l6.813-2.743
			c0.866-0.348,1.856,0.07,2.209,0.942c0.35,0.869-0.071,1.857-0.942,2.209l-6.813,2.743
			C198.441,701.122,198.228,701.162,198.015,701.162z"/>
		<path d="M233.723,570.525c-0.672,0-1.309-0.401-1.576-1.064c-0.35-0.869,0.071-1.857,0.942-2.209l6.813-2.743
			c0.864-0.345,1.858,0.069,2.209,0.942c0.35,0.869-0.071,1.857-0.942,2.209l-6.813,2.743
			C234.148,570.486,233.935,570.525,233.723,570.525z"/>
		<path d="M215.442,583.688c-0.671,0-1.309-0.401-1.575-1.064c-0.35-0.869,0.071-1.857,0.942-2.209l6.813-2.743
			c0.862-0.346,1.857,0.066,2.209,0.941c0.35,0.869-0.071,1.857-0.942,2.209l-6.813,2.743
			C215.869,583.647,215.655,583.688,215.442,583.688z"/>
	</g>
	<g>
		<g>
			<path d="M736.742,407.425c-0.12,0-0.239-0.012-0.359-0.038c-0.918-0.196-1.502-1.1-1.307-2.017l1.633-7.601h-16.575
				c-0.938,0-1.698-0.76-1.698-1.699c0-0.938,0.76-1.698,1.698-1.698h20.774l-2.508,11.711
				C738.228,406.879,737.524,407.425,736.742,407.425z"/>
			<path d="M725.461,466.543H644.03l-15.445-72.171h78.38c0.939,0,1.698,0.76,1.698,1.698c0,0.939-0.759,1.699-1.698,1.699h-74.181
				l13.992,65.377h75.938l5.351-24.993c0.199-0.919,1.124-1.506,2.017-1.306c0.919,0.196,1.503,1.098,1.307,2.016L725.461,466.543z"
				/>
			<path d="M685.804,397.769h-60.782v-5.483c0-0.939,0.759-1.698,1.698-1.698c0.938,0,1.698,0.759,1.698,1.698v2.086h57.385
				c0.939,0,1.699,0.76,1.699,1.698C687.503,397.009,686.743,397.769,685.804,397.769z"/>
			<path d="M706.965,397.769h-13.281c-0.938,0-1.698-0.76-1.698-1.699c0-0.938,0.76-1.698,1.698-1.698h13.281
				c0.939,0,1.698,0.76,1.698,1.698C708.663,397.009,707.904,397.769,706.965,397.769z"/>
			<path d="M742.769,397.769h-22.635c-0.938,0-1.698-0.76-1.698-1.699c0-0.938,0.76-1.698,1.698-1.698h22.635
				c0.938,0,1.698,0.76,1.698,1.698C744.467,397.009,743.707,397.769,742.769,397.769z"/>
			<path d="M742.769,383.572c-0.938,0-1.698-0.76-1.698-1.698v-4.77h-49.652c-0.938,0-1.698-0.759-1.698-1.698
				s0.76-1.698,1.698-1.698h53.049v8.167C744.467,382.813,743.707,383.572,742.769,383.572z"/>
			<path d="M680.15,377.104h-47.492c-0.939,0-1.698-0.759-1.698-1.698s0.759-1.698,1.698-1.698h47.492
				c0.938,0,1.698,0.759,1.698,1.698S681.089,377.104,680.15,377.104z"/>
		</g>
		<g>
			<path d="M659.15,376.006c-0.549,0-1.086-0.265-1.414-0.754c0.033,0.088-6.294-3.329-37.154-3.329
				c-4.664,0-9.883,0.078-15.726,0.262c-16.054,0.504-29.889-4.745-41.086-15.597c-10.649-10.321-15.436-22.733-15.436-24.738
				c0-0.939,0.76-1.698,1.698-1.698c0.907,0,1.649,0.711,1.697,1.607c0.227,0.902,12.861,38.377,53.02,37.029
				c35.515-1.102,53.821,1.595,55.812,4.577c0.521,0.781,0.31,1.834-0.471,2.355C659.801,375.913,659.474,376.006,659.15,376.006z"
				/>
			<path d="M549.257,333.55l-1.086-0.043l-0.464-0.819c-8.701-15.351,7.933-36.391,8.644-37.28l1.919-2.392l1.01,2.896
				c0.275,0.791,6.694,19.459,2.18,28.488C557.013,333.293,550.039,333.55,549.257,333.55z M557.07,300.216
				c-3.877,5.735-11.823,19.505-6.904,29.846c1.736-0.305,5.47-1.612,8.254-7.181C561.107,317.51,558.892,306.595,557.07,300.216z"
				/>
			<path d="M569.071,360.159l-1.086-0.043l-0.465-0.819c-8.7-15.351,7.933-36.391,8.645-37.28l1.918-2.391l1.01,2.896
				c0.275,0.791,6.693,19.459,2.179,28.488C576.826,359.902,569.853,360.159,569.071,360.159z M576.885,326.825
				c-3.878,5.735-11.824,19.506-6.904,29.846c1.736-0.305,5.47-1.612,8.254-7.181C580.921,344.118,578.706,333.204,576.885,326.825z
				"/>
			<path d="M645.128,373.187l-0.756-0.561c-14.164-10.523-7.453-36.493-7.162-37.593l0.79-2.965l2.093,2.242
				c0.572,0.612,13.988,15.096,13.509,25.179c-0.498,10.462-7.309,13.241-7.598,13.356L645.128,373.187z M639.811,339.141
				c-1.227,6.815-2.932,22.622,5.751,30.09c1.45-0.972,4.351-3.677,4.646-9.905C650.493,353.334,644.055,344.243,639.811,339.141z"
				/>
			<path d="M601.984,370.798l-0.753-0.565c-14.117-10.586-7.294-36.527-6.996-37.625l0.801-2.962l2.083,2.25
				c0.569,0.615,13.92,15.157,13.397,25.237c-0.545,10.458-7.366,13.213-7.656,13.324L601.984,370.798z M596.818,336.727
				c-1.257,6.808-3.03,22.608,5.618,30.116c1.454-0.965,4.365-3.66,4.688-9.884C607.436,350.959,601.039,341.843,596.818,336.727z"
				/>
			<path d="M613.894,407.408l-0.28-3.055c-0.076-0.834-1.798-20.502,4.76-28.173c4.598-5.376,9.374-6.179,11.813-6.179
				c1.387,0,2.279,0.252,2.375,0.28l0.904,0.265l0.252,0.907c4.74,16.998-16.478,33.404-17.383,34.094L613.894,407.408z
				 M630.187,373.397c-1.855,0-5.52,0.648-9.232,4.99c-3.901,4.563-4.385,15.691-4.156,22.322
				c5.145-4.63,16.175-16.073,13.901-27.295C630.545,373.404,630.373,373.397,630.187,373.397z"/>
			<path d="M549.146,385.731l1.608-2.612c0.439-0.713,10.86-17.479,20.706-19.686c1.564-0.35,3.088-0.527,4.535-0.527
				c7.052,0,10.225,4.143,10.357,4.32l0.563,0.753l-0.342,0.879c-6.401,16.444-33.221,16.842-34.359,16.851L549.146,385.731z
				 M575.996,366.302c-1.198,0-2.473,0.151-3.793,0.445c-5.858,1.313-12.919,9.926-16.714,15.367
				c6.895-0.619,22.589-3.158,27.496-13.505C581.973,367.738,579.739,366.302,575.996,366.302z"/>
			<path d="M548.693,357.27c-12.311,0-24.844-7.805-25.372-8.138l-2.595-1.635l2.765-1.332c0.527-0.254,13.061-6.238,22.651-6.238
				c2.062,0,3.881,0.28,5.403,0.836c9.837,3.594,10.469,10.919,10.49,11.229l0.068,0.94l-0.761,0.554
				C557.895,355.997,553.639,357.27,548.693,357.27z M528.03,347.881c4.287,2.237,12.676,5.992,20.663,5.992
				c3.786,0,7.065-0.853,9.762-2.534c-0.492-1.664-2.21-5.244-8.071-7.385c-1.149-0.418-2.576-0.63-4.241-0.63
				C540.018,343.324,532.25,346.14,528.03,347.881z"/>
		</g>
		<path d="M693.455,368.974c-0.677,0-1.315-0.406-1.579-1.075c-0.345-0.872,0.083-1.859,0.955-2.202
			c5.292-2.092,11.115-4.256,17.312-6.432c38.158-13.402,36.188-53.294,36.099-53.672c-0.341-0.874,0.109-1.808,0.985-2.148
			c0.859-0.336,1.874,0.145,2.213,1.019c0.723,1.862,0.746,15.13-5.45,28.594c-6.524,14.184-17.534,24.078-32.719,29.412
			c-6.156,2.163-11.939,4.311-17.192,6.385C693.875,368.936,693.662,368.974,693.455,368.974z"/>
		<path d="M745.472,306.998c-2.617,0-6.644-0.823-10.956-4.745c-7.467-6.793-8.213-26.521-8.242-27.358l-0.104-3.065l2.654,1.539
			c0.984,0.572,24.084,14.197,21.511,31.651l-0.14,0.93l-0.862,0.376C749.177,306.396,747.734,306.998,745.472,306.998z
			 M729.889,278.114c0.604,6.607,2.478,17.59,6.912,21.626c4.645,4.223,8.588,4.037,10.29,3.71
			C747.946,292.037,735.57,282.064,729.889,278.114z"/>
		<path d="M736.592,338.962c-2.616,0-6.644-0.822-10.959-4.747c-7.47-6.793-8.216-26.521-8.246-27.358l-0.103-3.065l2.653,1.539
			c0.985,0.572,24.085,14.2,21.511,31.654l-0.14,0.93l-0.861,0.376C740.291,338.362,738.852,338.962,736.592,338.962z
			 M721.002,310.073c0.604,6.607,2.479,17.592,6.916,21.63c4.641,4.221,8.582,4.043,10.286,3.713
			C739.063,323.984,726.685,314.019,721.002,310.073z"/>
		<path d="M712.511,360.141c-0.321,0-7.665-0.113-11.946-9.664c-4.125-9.213,3.086-27.594,3.395-28.372l1.134-2.851l1.814,2.473
			c0.674,0.919,16.39,22.65,7.043,37.615l-0.498,0.799H712.511L712.511,360.141z M705.986,326.499
			c-2.093,6.297-4.771,17.114-2.322,22.59c2.551,5.688,6.236,7.15,7.941,7.526C716.973,346.479,709.615,332.39,705.986,326.499z"/>
		<path d="M745.764,359.667c-8.189,0-14.459-2.32-18.638-6.895l-0.634-0.697l0.252-0.905c0.083-0.3,2.166-7.351,12.519-8.906
			c9.914-1.481,25.779,10.414,26.413,10.893l2.441,1.855l-2.869,1.085C764.863,356.244,755.685,359.667,745.764,359.667z
			 M730.383,351.247c3.513,3.333,8.681,5.023,15.381,5.023c5.924,0,11.695-1.352,15.122-2.337c-4.77-3.21-14.733-9.268-21.119-8.309
			C733.607,346.55,731.205,349.706,730.383,351.247z"/>
		<path d="M749.943,329.965c-1.646,0-3.268-0.211-4.83-0.627l-0.908-0.242l-0.275-0.899c-0.093-0.298-2.149-7.36,5.731-14.258
			c4.979-4.354,15.003-5.266,22.536-5.266c3.303,0,5.582,0.183,5.582,0.183l3.059,0.247l-1.831,2.459
			C778.446,312.313,765.135,329.965,749.943,329.965z M747.031,326.294c0.951,0.183,1.927,0.274,2.912,0.274
			c10.253,0,20.048-9.722,24.224-14.477c-0.597-0.013-1.261-0.022-1.97-0.022c-9.825,0-17.033,1.571-20.301,4.425
			C747.197,320.609,746.889,324.568,747.031,326.294z"/>
		<path d="M674.231,376.534c-0.232,0-0.471-0.048-0.697-0.151c-0.542-0.244-0.972-0.824-1.043-1.415
			c-0.148-1.24,0.539-1.774,3.836-4.34c6.157-4.788,20.572-16.003,21.405-27.755c0.859-12.154-2.641-22.37-10.402-30.369
			c-12.119-12.49-30.287-15.281-32.063-15.294c-0.921,0.149-1.751-0.476-1.906-1.403c-0.154-0.926,0.519-1.805,1.445-1.959
			c1.981-0.34,20.079,2.629,32.961,14.353c9.864,8.979,14.357,20.725,13.353,34.911c-0.938,13.265-15.64,24.702-22.705,30.198
			c-1.028,0.798-2.085,1.62-2.567,2.057c-0.02,0.056-0.042,0.112-0.066,0.167C675.497,376.162,674.88,376.534,674.231,376.534z"/>
		<path d="M633.708,311.554c-6.453,0-12.127-0.957-12.563-1.033l-3.023-0.522l2.048-2.285c0.065-0.073,1.647-1.83,4.279-4.163
			c0.698-0.622,1.774-0.562,2.396,0.145c0.622,0.701,0.559,1.774-0.144,2.396c-0.624,0.554-1.188,1.075-1.68,1.544
			c6.588,0.758,17.731,1.159,22.589-2.372c5.045-3.662,5.717-7.571,5.733-9.317c-2.048-0.587-4.256-0.748-6.579-0.471
			c-0.934,0.102-1.776-0.557-1.888-1.486c-0.111-0.932,0.556-1.776,1.486-1.887c3.247-0.387,6.333-0.055,9.168,0.988l0.882,0.323
			l0.194,0.921c0.064,0.303,1.475,7.526-7.002,13.679C645.765,310.801,639.43,311.554,633.708,311.554z"/>
		<path d="M665.259,326.512c-4.002,0-7.808-0.458-10.377-0.766c-0.932-0.113-1.596-0.958-1.484-1.889
			c0.113-0.932,0.963-1.59,1.889-1.484c4.928,0.594,16.458,1.979,21.811-1.911c5.045-3.662,5.718-7.571,5.737-9.317
			c-9.46-2.713-19.891,4.44-25.385,9.057c-0.722,0.601-1.791,0.509-2.394-0.207c-0.604-0.718-0.511-1.79,0.208-2.394
			c7.641-6.423,19.003-13.261,29.756-9.313l0.884,0.324l0.194,0.92c0.065,0.303,1.473,7.523-7.004,13.679
			C675.525,325.802,670.241,326.512,665.259,326.512z"/>
		<path d="M696.757,325.999l-0.836-0.431c-0.275-0.143-6.757-3.614-6.173-14.069c0.564-10.077,15.402-23.1,16.033-23.648
			l2.314-2.015l0.479,3.03c0.176,1.126,4.169,27.649-11.006,36.654L696.757,325.999z M705.565,292.682
			c-4.747,4.637-12.091,13.018-12.427,19.006c-0.347,6.223,2.255,9.215,3.597,10.331
			C706.159,315.478,706.086,299.583,705.565,292.682z"/>
		<path d="M676.46,304.087c-1.763,0-7.863-0.615-12.334-8.528c-4.959-8.79,0.504-27.758,0.738-28.561l0.862-2.946l2.037,2.294
			c0.756,0.851,18.431,21.026,10.517,36.793l-0.421,0.843L676.46,304.087z M667.291,271.186c-1.495,6.465-3.153,17.48-0.208,22.703
			c3.047,5.389,6.878,6.52,8.611,6.747C680.078,290.064,671.452,276.719,667.291,271.186z"/>
		<path d="M674.234,376.534c-0.111,0-0.222-0.01-0.335-0.033c-0.822-0.165-1.388-0.899-1.365-1.711
			c-0.25-0.722-3.188-7.051-35.202-37.121c-11.712-11.002-17.775-24.483-18.022-40.064c-0.235-14.832,5.158-27.004,6.577-28.425
			c0.66-0.663,1.738-0.663,2.402,0c0.642,0.64,0.664,1.668,0.063,2.335c-0.475,0.794-17.945,36.198,11.306,63.679
			c24.712,23.21,36.903,36.66,36.24,39.975C675.737,375.977,675.027,376.534,674.234,376.534z"/>
		<path d="M634.245,274.266c-5.879,0-8.883-3.203-9.009-3.339l-0.635-0.693l0.25-0.907c4.7-17.005,31.34-20.125,32.472-20.249
			l3.05-0.335l-1.335,2.762c-0.363,0.754-9.025,18.495-18.602,21.687C638.297,273.904,636.214,274.266,634.245,274.266z
			 M628.447,269.211c0.952,0.663,2.867,1.658,5.798,1.658c1.604,0,3.325-0.302,5.116-0.898c5.69-1.897,11.845-11.185,15.069-16.983
			C647.634,254.303,632.28,258.421,628.447,269.211z"/>
		<path d="M629.44,307.091c-5.879,0-8.883-3.203-9.009-3.338l-0.635-0.693l0.25-0.907c4.702-17.004,31.34-20.121,32.472-20.245
			l3.05-0.335l-1.335,2.761c-0.363,0.755-9.025,18.492-18.604,21.683C633.492,306.729,631.409,307.091,629.44,307.091z
			 M623.643,302.036c0.952,0.664,2.866,1.659,5.798,1.659c1.602,0,3.324-0.302,5.115-0.899c5.692-1.897,11.847-11.182,15.071-16.981
			C642.829,287.129,627.475,291.246,623.643,302.036z"/>
		<path d="M671.762,367.36L671.762,367.36c-2.776,0-4.395-1.313-4.57-1.463l-0.486-0.413l-0.093-0.632
			c-2.576-17.46,18.958-30.053,19.877-30.581l2.647-1.521l-0.104,3.052c-0.028,0.836-0.783,20.563-8.252,27.356
			C677.713,365.946,674.678,367.36,671.762,367.36z M669.878,363.584c0.396,0.178,1.033,0.38,1.884,0.38
			c2.015,0,4.344-1.147,6.732-3.318c4.441-4.039,6.317-15.008,6.922-21.615C680.031,342.831,668.758,352.222,669.878,363.584z"/>
		<path d="M641.053,335.723L641.053,335.723c-2.291,0-3.751-0.617-3.909-0.688l-0.861-0.379l-0.134-0.933
			c-2.496-17.467,20.671-30.982,21.658-31.549l2.66-1.527l-0.118,3.065c-0.031,0.837-0.872,20.56-8.372,27.315
			C647.669,334.909,643.659,335.723,641.053,335.723z M639.398,332.169c1.692,0.34,5.627,0.547,10.308-3.667
			c4.461-4.019,6.383-14.988,7.015-21.59C651.019,310.834,638.597,320.749,639.398,332.169z"/>
		<path d="M618.929,323.984c-0.001,0-0.001,0-0.001,0c-14.021-0.002-27.799-13.406-28.378-13.977l-2.188-2.152l2.985-0.71
			c0.333-0.08,8.244-1.94,16.167-1.94c5.439,0,9.609,0.894,12.394,2.659c8.842,5.614,7.893,12.905,7.848,13.211l-0.134,0.932
			l-0.862,0.378C624.347,323.447,621.714,323.984,618.929,323.984z M595.415,309.791c4.439,3.71,14.146,10.795,23.512,10.797h0.001
			c1.929,0,3.765-0.309,5.47-0.916c-0.127-1.731-1.041-5.594-6.311-8.94c-2.23-1.413-5.788-2.13-10.574-2.13
			C603.006,308.602,598.396,309.26,595.415,309.791z"/>
		<path d="M620.717,293.825l-0.931-0.146c-17.431-2.742-23.554-28.854-23.806-29.964l-0.679-2.992l2.896,1.012
			c0.79,0.277,19.396,6.873,23.659,16.018c4.413,9.498-0.318,15.125-0.522,15.361L620.717,293.825z M600.191,266.145
			c2.08,6.602,7.914,21.391,19.071,23.973c0.833-1.534,2.141-5.279-0.486-10.931C616.242,273.745,606.317,268.688,600.191,266.145z"
			/>
		<path d="M738.085,407.093c-0.909,0-1.648-0.711-1.695-1.607c-0.229-0.902-13.009-38.318-53.023-37.033
			c-8.021,0.252-14.299,3.168-19.837,5.74c-1.301,0.604-2.538,1.178-3.717,1.679c-0.856,0.359-1.857-0.037-2.228-0.901
			c-0.366-0.862,0.037-1.861,0.9-2.227c1.146-0.486,2.349-1.045,3.612-1.632c5.546-2.576,12.447-5.78,21.163-6.053
			c16.067-0.536,29.894,4.747,41.089,15.598c10.647,10.322,15.434,22.733,15.434,24.738
			C739.783,406.333,739.023,407.093,738.085,407.093z"/>
		<path d="M729.849,444.229l-1.008-2.896c-0.278-0.79-6.697-19.459-2.183-28.488c4.447-8.893,11.42-9.15,12.203-9.15h0.988
			l0.561,0.862c8.7,15.351-7.931,36.391-8.645,37.28L729.849,444.229z M737.952,407.183c-1.738,0.305-5.473,1.612-8.256,7.181
			c-2.684,5.365-0.468,16.283,1.354,22.664C734.928,431.292,742.871,417.523,737.952,407.183z"/>
		<path d="M710.033,417.621l-1.008-2.897c-0.279-0.791-6.694-19.459-2.18-28.488c4.448-8.893,11.42-9.15,12.199-9.15h0.989
			l0.561,0.862c8.7,15.351-7.931,36.391-8.645,37.28L710.033,417.621z M718.137,380.574c-1.734,0.305-5.47,1.612-8.253,7.181
			c-2.687,5.372-0.471,16.286,1.351,22.665C715.108,404.685,723.056,390.914,718.137,380.574z"/>
		<path d="M693.08,407.599l-2.083-2.25c-0.569-0.615-13.921-15.157-13.397-25.237c0.546-10.458,7.365-13.213,7.656-13.324
			l0.877-0.34l0.753,0.565c14.117,10.586,7.294,36.527,6.995,37.625L693.08,407.599z M685.682,370.4
			c-1.446,0.96-4.363,3.654-4.688,9.886c-0.313,5.999,6.085,15.116,10.306,20.232C692.556,393.71,694.331,377.908,685.682,370.4z"/>
		<path d="M715.924,376.008c-0.003,0-0.003,0-0.003,0c-7.052-0.002-10.227-4.143-10.355-4.32l-0.563-0.755l0.341-0.875
			c6.402-16.446,33.224-16.844,34.36-16.852l3.068-0.023l-1.608,2.612c-0.438,0.713-10.856,17.479-20.704,19.687
			C718.893,375.83,717.367,376.008,715.924,376.008z M708.932,370.304c1.012,0.871,3.244,2.305,6.989,2.307h0.003
			c1.194,0,2.472-0.151,3.792-0.444c5.851-1.312,12.916-9.926,16.714-15.368C729.533,357.418,713.838,359.957,708.932,370.304z"/>
		<path d="M741.976,397.318c-0.003,0-0.003,0-0.003,0c-2.063,0-3.881-0.28-5.403-0.836c-9.835-3.594-10.466-10.921-10.488-11.231
			l-0.066-0.938l0.763-0.554c3.446-2.509,7.702-3.783,12.647-3.783c12.31,0,24.845,7.805,25.372,8.138l2.597,1.635l-2.767,1.332
			C764.1,391.334,751.565,397.318,741.976,397.318z M729.663,385.906c0.491,1.664,2.209,5.244,8.07,7.385
			c1.147,0.418,2.574,0.63,4.239,0.63h0.003c6.123,0,13.892-2.816,18.114-4.557c-4.289-2.237-12.681-5.992-20.665-5.992
			C735.637,383.372,732.359,384.224,729.663,385.906z"/>
	</g>
	<g>
		<g>
			<path d="M1162.185,836.717h-51.433l-0.438-0.298c-13.752-9.48-22.528-38.007-22.528-53.483c0-15.846-3.351-42.825-3.384-43.094
				l-0.239-1.911h104.611l-0.238,1.911c-0.033,0.269-3.384,27.252-3.384,43.094c0,15.477-8.776,44.003-22.528,53.483
				L1162.185,836.717z M1111.819,833.32h49.298c11.47-8.372,20.638-34.198,20.638-50.385c0-13.576,2.415-35.12,3.181-41.608H1088
				c0.767,6.488,3.182,28.032,3.182,41.608C1091.182,799.122,1100.35,824.948,1111.819,833.32z"/>
			<path d="M1174.057,847.186h-75.177l1.632-2.601c3.102-4.936,6.398-8.624,9.806-10.966l0.435-0.299h51.433l0.435,0.299
				c3.406,2.342,6.703,6.03,9.805,10.966L1174.057,847.186z M1105.129,843.789h62.678c-2.179-3.052-4.421-5.42-6.689-7.072h-49.298
				C1109.551,838.369,1107.309,840.737,1105.129,843.789z"/>
		</g>
		<path d="M1122.278,741.327c-0.432,0-0.859-0.162-1.191-0.487c-0.179-0.176-17.911-17.775-33.415-45.967
			c-15.702-28.553-8.137-61.523-7.805-62.913l1.817-7.652l1.503,7.719c0.08,0.418,8.239,41.97,16.989,54.551
			c4.199,6.03,7.739,10.737,10.313,14.027c-2.627-12.508-6.948-38.6-2.023-56.81c6.326-23.372,3.951-39.041,3.925-39.197
			l-1.888-11.895l5.104,10.906c0.259,0.554,6.359,13.716,8.355,29.087c0.69,5.337,1.102,15.188,1.576,26.596
			c0.763,18.26,1.682,40.384,4.119,50.979c5.154-11.606,19.086-45.954,13.895-67.62c-6.484-27.057-6.557-33.26-6.557-33.512v-6.776
			l3.197,5.978c0.627,1.174,15.404,28.86,17.971,38.277c2.319,8.502,6.725,46.952-14.073,79.764
			c-0.501,0.796-1.55,1.028-2.342,0.524c-0.793-0.501-1.028-1.55-0.524-2.342c20.127-31.761,15.898-68.857,13.663-77.051
			c-1.586-5.821-8.389-19.576-13.079-28.731c0.932,4.992,2.48,12.365,5.049,23.08c6.574,27.451-15.057,72.001-15.979,73.886
			l-1.605,3.271l-1.473-3.334c-3.655-8.272-4.717-33.76-5.655-56.249c-0.472-11.328-0.879-21.113-1.553-26.301
			c-0.892-6.883-2.677-13.388-4.339-18.402c-0.139,7.092-1.114,17.397-4.511,29.952c-6.315,23.354,3.586,61.855,3.686,62.243
			l1.817,6.962l-4.736-5.416c-0.246-0.278-6.11-7.012-15.119-19.958c-6.601-9.49-12.624-33.409-15.597-46.677
			c-1.194,11.722-1.37,32.805,8.856,51.396c15.265,27.763,32.646,45.015,32.818,45.184c0.67,0.657,0.677,1.735,0.02,2.402
			C1123.157,741.158,1122.716,741.327,1122.278,741.327z"/>
		<path d="M1158.556,741.327c-0.226,0-0.458-0.046-0.677-0.14c-0.858-0.374-1.254-1.376-0.882-2.235
			c0.109-0.249,10.937-25.01,23.912-42.789c10.982-15.036,15.868-56.04,3.658-83.783c0.816,13.579,1.655,40.284-3.267,52.046
			c-6.484,15.511-16.442,31.502-16.542,31.661c-0.497,0.803-1.549,1.042-2.339,0.541c-0.796-0.498-1.038-1.546-0.54-2.339
			c0.096-0.159,9.911-15.925,16.289-31.176c6.279-15.007,2.462-58.197,2.422-58.632l-0.65-7.208l3.788,6.167
			c16.715,27.186,13.882,75.617-0.076,94.727c-12.75,17.47-23.432,41.894-23.537,42.139
			C1159.836,740.945,1159.209,741.327,1158.556,741.327z"/>
		<path d="M1136.465,676.785c-0.779,0-1.482-0.544-1.655-1.337c-0.663-3.045-0.404-8.421-0.076-15.225
			c0.54-11.244,1.214-25.235-1.907-35.296c-3.078-9.921-4.127-22.974-4.468-32.032c-5.467,23.613-3.168,58.445-3.138,58.85
			c0.063,0.936-0.645,1.745-1.579,1.812c-0.926,0.043-1.745-0.644-1.812-1.579c-0.133-1.934-3.147-47.635,6.528-70.39l3.452-8.127
			l-0.191,8.827c-0.007,0.255-0.501,25.67,4.451,41.631c3.301,10.635,2.61,24.957,2.057,36.468c-0.303,6.295-0.564,11.731,0,14.339
			c0.199,0.919-0.382,1.821-1.297,2.021C1136.707,676.772,1136.584,676.785,1136.465,676.785z"/>
		<path d="M1152.095,637.632c-0.196,0-0.396-0.036-0.591-0.106c-0.879-0.325-1.326-1.3-1.008-2.179
			c0.022-0.057,2.129-5.954,3.774-21.853c0.962-9.308-0.999-22.041-2.807-31.067c-1.015,12.144-3.012,30.467-6.209,37.107
			c-0.408,0.846-1.42,1.204-2.266,0.793c-0.846-0.405-1.2-1.42-0.793-2.266c4.548-9.457,6.667-46.853,6.69-47.228l0.588-10.578
			l2.746,10.23c0.295,1.088,7.138,26.817,5.426,43.359c-1.697,16.436-3.87,22.43-3.963,22.678
			C1153.432,637.207,1152.781,637.632,1152.095,637.632z"/>
		<path d="M1136.89,652.445c-0.026,0-0.054,0-0.083-0.003c-0.936-0.044-1.658-0.84-1.612-1.778
			c0.372-7.698,4.378-24.917,4.548-25.646c0.215-0.909,1.104-1.479,2.043-1.268c0.912,0.216,1.479,1.128,1.268,2.043
			c-0.043,0.173-4.11,17.644-4.469,25.037C1138.541,651.739,1137.791,652.445,1136.89,652.445z"/>
		<path d="M1108.145,672.526c-0.677,0-1.316-0.408-1.579-1.075c-0.063-0.158-6.339-16.156-10.007-33.014
			c-2.077-9.539-3.895-23.361-5.082-33.598c-1.961,16.445-4.113,44.315,0.723,63.036c0.232,0.909-0.312,1.834-1.221,2.069
			c-0.912,0.232-1.834-0.314-2.069-1.221c-7.387-28.605,0.776-75.991,1.128-77.995l2.183-12.459l1.181,12.592
			c0.026,0.302,2.859,30.237,6.475,46.853c3.612,16.592,9.789,32.334,9.849,32.489c0.345,0.873-0.083,1.861-0.956,2.203
			C1108.563,672.49,1108.354,672.526,1108.145,672.526z"/>
		<path d="M1171.091,683.347c-0.133,0-0.269-0.017-0.405-0.05c-0.912-0.223-1.469-1.145-1.243-2.054
			c5.021-20.433,2.866-43.134,0.458-57.596c-1.805,23.245-9.348,45.482-9.739,46.616c-0.305,0.89-1.267,1.36-2.155,1.056
			c-0.89-0.302-1.36-1.271-1.056-2.156c0.113-0.335,11.427-33.697,9.769-60.771l-0.979-15.991l4.309,15.431
			c0.113,0.398,11.039,40.262,2.69,74.221C1172.551,682.829,1171.857,683.347,1171.091,683.347z"/>
	</g>
	<g>
		<g>
			<path d="M536.47,728.918H355.316v-28.599H536.47V728.918z M358.713,725.521h174.361v-21.806H358.713V725.521z"/>
			<path d="M489.034,842.386h-86.281l-0.503-0.527c-21.534-22.572-37.163-70.088-37.163-112.979l-0.025-3.357h161.657l-0.021,3.357
				c0,42.892-15.629,90.407-37.162,112.979L489.034,842.386z M404.212,838.989h83.363c20.398-21.876,35.717-68.983,35.727-110.071
				H368.483C368.493,770.003,383.813,817.11,404.212,838.989z"/>
		</g>
		<path d="M415.979,703.716c-0.939,0-1.698-0.76-1.698-1.698V522.602c0-0.938,0.759-1.698,1.698-1.698
			c0.938,0,1.698,0.76,1.698,1.698v179.416C417.678,702.956,416.918,703.716,415.979,703.716z"/>
		<path d="M463.531,703.716c-0.938,0-1.698-0.76-1.698-1.698v-180.59c0-0.938,0.76-1.698,1.698-1.698
			c0.939,0,1.698,0.76,1.698,1.698v180.59C465.229,702.956,464.47,703.716,463.531,703.716z"/>
		<path d="M415.979,662.957c-0.427,0-0.853-0.159-1.183-0.478c-0.674-0.653-0.69-1.729-0.037-2.401
			c1.104-1.142,27.305-28.056,47.956-39.369c0.822-0.455,1.855-0.149,2.305,0.673c0.451,0.822,0.149,1.854-0.673,2.306
			c-20.204,11.068-46.883,38.477-47.149,38.752C416.865,662.784,416.422,662.957,415.979,662.957z"/>
		<path d="M415.979,691.911c-0.427,0-0.853-0.159-1.183-0.478c-0.674-0.654-0.69-1.729-0.037-2.402
			c1.104-1.141,27.305-28.055,47.956-39.369c0.822-0.451,1.855-0.148,2.305,0.674c0.451,0.822,0.149,1.854-0.673,2.305
			c-20.204,11.069-46.883,38.478-47.149,38.753C416.865,691.738,416.422,691.911,415.979,691.911z"/>
		<path d="M434.104,703.716c-0.47,0-0.938-0.195-1.274-0.573c-0.621-0.703-0.554-1.778,0.149-2.398
			c11.57-10.21,21.574-17.653,29.737-22.128c0.822-0.451,1.855-0.149,2.305,0.674c0.451,0.822,0.149,1.854-0.673,2.305
			c-7.942,4.353-17.739,11.653-29.12,21.696C434.904,703.576,434.503,703.716,434.104,703.716z"/>
		<path d="M415.979,637.765c-0.427,0-0.853-0.159-1.183-0.478c-0.674-0.654-0.69-1.729-0.037-2.402
			c1.104-1.141,27.305-28.055,47.956-39.369c0.822-0.457,1.855-0.148,2.305,0.674c0.451,0.822,0.149,1.854-0.673,2.305
			c-20.204,11.069-46.883,38.478-47.149,38.753C416.865,637.592,416.422,637.765,415.979,637.765z"/>
		<path d="M415.979,612.572c-0.427,0-0.853-0.16-1.183-0.479c-0.674-0.653-0.69-1.728-0.037-2.401
			c1.104-1.141,27.305-28.055,47.956-39.369c0.822-0.454,1.855-0.149,2.305,0.674c0.451,0.822,0.149,1.854-0.673,2.305
			c-20.204,11.069-46.883,38.478-47.149,38.753C416.865,612.399,416.422,612.572,415.979,612.572z"/>
		<path d="M415.979,587.379c-0.427,0-0.853-0.158-1.183-0.478c-0.674-0.653-0.69-1.728-0.037-2.401
			c1.104-1.141,27.305-28.055,47.956-39.369c0.822-0.454,1.855-0.149,2.305,0.674c0.451,0.822,0.149,1.854-0.673,2.305
			c-20.204,11.069-46.883,38.478-47.149,38.753C416.865,587.207,416.422,587.379,415.979,587.379z"/>
		<path d="M415.979,562.187c-0.427,0-0.853-0.159-1.183-0.478c-0.674-0.653-0.69-1.728-0.037-2.401
			c1.104-1.141,27.305-28.055,47.956-39.369c0.822-0.451,1.855-0.149,2.305,0.673c0.451,0.823,0.149,1.854-0.673,2.306
			c-20.204,11.069-46.883,38.478-47.149,38.753C416.865,562.015,416.422,562.187,415.979,562.187z"/>
		<path d="M415.979,536.994c-0.427,0-0.853-0.159-1.183-0.478c-0.674-0.653-0.69-1.728-0.037-2.401
			c1.093-1.131,26.76-27.494,47.305-39.011c1.458-5.493,11.286-38.202,41.585-50.535l2.3-0.937l0.039,2.483
			c0.005,0.375,0.144,37.755-37.615,60.638c-0.799,0.483-1.844,0.229-2.333-0.574c-0.486-0.8-0.229-1.845,0.572-2.332
			c30.383-18.413,35.113-46.421,35.847-55.055c-28.783,13.389-37.192,47.483-37.276,47.834l-0.174,0.732l-0.662,0.365
			c-20.204,11.068-46.883,38.477-47.149,38.752C416.865,536.822,416.422,536.994,415.979,536.994z"/>
		<path d="M463.531,662.957c-0.442,0-0.886-0.173-1.219-0.518c-0.267-0.275-26.952-27.687-47.149-38.752
			c-0.822-0.451-1.124-1.483-0.673-2.306c0.451-0.822,1.48-1.128,2.305-0.673c20.65,11.313,46.851,38.228,47.956,39.369
			c0.654,0.673,0.637,1.748-0.037,2.401C464.384,662.798,463.958,662.957,463.531,662.957z"/>
		<path d="M463.531,691.911c-0.442,0-0.886-0.173-1.219-0.518c-0.267-0.275-26.952-27.687-47.149-38.753
			c-0.822-0.451-1.124-1.482-0.673-2.305c0.451-0.822,1.48-1.125,2.305-0.674c20.65,11.314,46.851,38.229,47.956,39.369
			c0.654,0.674,0.637,1.748-0.037,2.402C464.384,691.752,463.958,691.911,463.531,691.911z"/>
		<path d="M445.391,703.699c-0.399,0-0.801-0.139-1.124-0.425c-11.367-10.033-21.159-17.327-29.104-21.68
			c-0.822-0.451-1.124-1.482-0.673-2.305c0.451-0.823,1.48-1.125,2.305-0.674c8.163,4.475,18.162,11.911,29.721,22.111
			c0.703,0.62,0.77,1.694,0.149,2.398C446.328,703.504,445.86,703.699,445.391,703.699z"/>
		<path d="M463.531,637.765c-0.442,0-0.886-0.173-1.219-0.518c-0.267-0.275-26.952-27.687-47.149-38.753
			c-0.822-0.451-1.124-1.482-0.673-2.305c0.451-0.822,1.48-1.131,2.305-0.674c20.65,11.314,46.851,38.229,47.956,39.369
			c0.654,0.674,0.637,1.748-0.037,2.402C464.384,637.605,463.958,637.765,463.531,637.765z"/>
		<path d="M463.531,612.572c-0.442,0-0.886-0.173-1.219-0.518c-0.267-0.275-26.952-27.688-47.149-38.753
			c-0.822-0.451-1.124-1.482-0.673-2.305c0.451-0.823,1.48-1.128,2.305-0.674c20.65,11.314,46.851,38.229,47.956,39.369
			c0.654,0.674,0.637,1.748-0.037,2.401C464.384,612.412,463.958,612.572,463.531,612.572z"/>
		<path d="M463.531,587.379c-0.442,0-0.886-0.172-1.219-0.517c-0.267-0.275-26.952-27.688-47.149-38.753
			c-0.822-0.451-1.124-1.482-0.673-2.305c0.451-0.823,1.48-1.128,2.305-0.674c20.65,11.314,46.851,38.229,47.956,39.369
			c0.654,0.674,0.637,1.748-0.037,2.401C464.384,587.221,463.958,587.379,463.531,587.379z"/>
		<path d="M463.531,562.187c-0.442,0-0.886-0.172-1.219-0.517c-0.267-0.275-26.952-27.688-47.149-38.753
			c-0.822-0.451-1.124-1.482-0.673-2.306c0.451-0.822,1.48-1.124,2.305-0.673c20.65,11.314,46.851,38.229,47.956,39.369
			c0.654,0.674,0.637,1.748-0.037,2.401C464.384,562.027,463.958,562.187,463.531,562.187z"/>
		<path d="M360.249,543.264l1.57-3.078c10.245-20.091,29.979-28.483,41.451-31.78c-32.646-8.104-64.95-46.114-66.43-47.873
			l-2.361-2.808l5.085,0.023c25.164,0.118,75.278,35.593,77.4,37.104c20.481,11.209,46.682,38.123,47.786,39.264
			c0.654,0.674,0.637,1.748-0.037,2.401c-0.672,0.65-1.748,0.637-2.401-0.04c-0.267-0.275-26.952-27.687-47.149-38.752
			c-0.657-0.454-48.202-34.117-73.131-36.452c9.234,10.15,41.488,43.298,70.376,45.162l0.111,3.38
			c-0.322,0.04-31.163,4.383-45.896,28.719c10.49-2.321,41.076-9.978,54.402-22.851c0.677-0.65,1.755-0.634,2.402,0.04
			c0.651,0.677,0.633,1.751-0.04,2.401c-16.872,16.3-57.999,24.178-59.742,24.503L360.249,543.264z"/>
		<path d="M475.235,523.395c-10.515,0-17.338-3.041-17.791-3.25c-0.851-0.389-1.224-1.396-0.836-2.249
			c0.39-0.853,1.393-1.225,2.25-0.84c0.164,0.077,16.907,7.464,38.25-1.711c16.613-7.151,24.728-19.02,27.584-24.108
			c-7.534,0.361-29.027,2.163-49.795,11.105c-0.854,0.378-1.859-0.023-2.23-0.886c-0.371-0.862,0.026-1.86,0.888-2.232
			c26.28-11.319,53.67-11.473,53.944-11.473l2.541-0.001l-0.968,2.348c-0.312,0.753-7.886,18.583-30.619,28.366
			C489.721,522.221,481.765,523.395,475.235,523.395z"/>
		<path d="M452.864,504.743c-0.427,0-0.853-0.159-1.183-0.478c-0.673-0.653-0.69-1.729-0.037-2.401
			c8.417-8.686,11.615-24.06,12.625-30.526c-13.168,6.933-22.929,24.135-23.033,24.316l-2.992-1.605
			c12.369-24.094,11.137-43.93,10.061-51.24c-20.247,21.233-24.069,57.185-24.106,57.56c-0.093,0.933-0.896,1.629-1.859,1.52
			c-0.934-0.093-1.614-0.926-1.521-1.857c0.165-1.632,4.274-40.221,27.398-61.92l2.07-1.94l0.732,2.739
			c0.228,0.851,4.633,18.048-3.61,42.267c4.748-5.523,11.074-11.364,18.325-14.251l2.579-1.027l-0.259,2.763
			c-0.091,0.955-2.333,23.559-13.971,35.564C453.75,504.57,453.307,504.743,452.864,504.743z"/>
		<path d="M406.102,491.146c-0.561,0-1.108-0.276-1.434-0.782c-0.887-1.39-21.784-34.324-24.625-60.742l-0.345-3.203l2.837,1.526
			c1.032,0.554,21.143,11.54,30.692,28.765c0.08-7.962,1.437-19.016,6.563-31.319l1.322-3.174l1.717,2.98
			c0.467,0.811,11.42,20.139,9.347,43.814c-0.081,0.935-0.92,1.658-1.839,1.544c-0.936-0.082-1.625-0.906-1.544-1.839
			c1.491-17.029-4.272-32.055-7.243-38.494c-6.765,18.588-4.741,33.868-4.085,37.593c0.065,0.315,0.128,0.633,0.186,0.952
			l-3.325,0.689c-0.025-0.103-0.118-0.512-0.241-1.197c-3.853-17.577-22.801-30.939-30.196-35.564
			c4.113,25.06,23.438,55.52,23.642,55.838c0.504,0.791,0.274,1.841-0.516,2.347C406.731,491.061,406.415,491.146,406.102,491.146z"
			/>
		<path d="M466.013,472.894c-0.297,0-0.597-0.078-0.871-0.24c-0.804-0.483-1.066-1.526-0.585-2.33
			c10.858-18.136,11.488-36.497,11.171-44.216c-12.148,13.855-19.044,30.409-19.118,30.586l-5.136,12.476l1.884-13.359
			c5.042-35.737-4.284-52.163-8.311-57.386c-7.78,22.585-2.314,49.813-2.256,50.095c0.189,0.919-0.401,1.818-1.32,2.007
			c-0.927,0.188-1.817-0.401-2.007-1.32c-0.255-1.241-6.158-30.667,3.394-54.641l0.881-2.21l1.804,1.552
			c0.673,0.579,15.299,13.673,12.268,52.51c3.748-7.012,9.854-16.957,18.082-25.513l2.41-2.504l0.496,3.44
			c0.147,1.03,3.466,25.516-11.328,50.229C467.153,472.599,466.59,472.894,466.013,472.894z"/>
		<path d="M419.311,433.192c-0.018,0-0.037,0-0.055-0.001c-0.937-0.028-1.673-0.813-1.645-1.75
			c0.026-0.834,0.698-20.582,5.532-35.087l0.821-2.465l1.929,1.741c0.423,0.383,10.424,9.565,14.983,26.277
			c0.247,0.906-0.287,1.839-1.191,2.086c-0.902,0.255-1.839-0.285-2.086-1.191c-3.113-11.409-9.031-19.204-12.074-22.65
			c-3.917,13.739-4.513,31.208-4.52,31.394C420.978,432.466,420.224,433.192,419.311,433.192z"/>
		<path d="M492.825,454.1c-0.25,0-0.504-0.055-0.744-0.172c-0.843-0.413-1.191-1.43-0.78-2.272
			c4.223-8.629,3.646-23.776,3.129-30.508c-11.47,11.342-17.283,26.428-17.344,26.589c-0.332,0.879-1.319,1.322-2.189,0.985
			c-0.878-0.332-1.319-1.313-0.985-2.189c0.28-0.74,7.022-18.228,20.77-30.257l2.411-2.109l0.392,3.181
			c0.119,0.958,2.822,23.634-3.131,35.802C494.058,453.75,493.454,454.1,492.825,454.1z"/>
		<path d="M376.319,473.68c-0.469,0-0.935-0.194-1.271-0.572c-0.498-0.562-12.235-14.029-14.817-35.536l-0.295-2.468l2.406,0.62
			c0.684,0.177,16.827,4.421,25.76,13.447c0.66,0.667,0.653,1.742-0.013,2.402c-0.665,0.658-1.743,0.651-2.402-0.014
			c-6.3-6.367-16.93-10.284-21.721-11.812c3.045,18.932,13.517,30.984,13.626,31.11c0.62,0.703,0.554,1.775-0.147,2.396
			C377.121,473.539,376.72,473.68,376.319,473.68z"/>
		<path d="M399.965,444.597c-0.77,0-1.466-0.527-1.652-1.309c-0.161-0.682-3.894-16.87,0.011-31.548l0.778-2.919l2.09,2.179
			c0.487,0.507,11.984,12.604,17.469,27.771c0.318,0.882-0.138,1.856-1.02,2.174c-0.877,0.323-1.853-0.138-2.174-1.02
			c-3.843-10.626-10.998-19.909-14.575-24.141c-2.433,12.984,0.693,26.577,0.729,26.723c0.214,0.914-0.352,1.828-1.264,2.043
			C400.225,444.582,400.094,444.597,399.965,444.597z"/>
	</g>
	<g>
		<path d="M724.595,844.233h-81.573l-15.27-93.688h112.117L724.595,844.233z M645.911,840.837h75.798l14.167-86.896h-104.13
			L645.911,840.837z"/>
		<path d="M749.336,753.941H618.284v-34.108h131.052V753.941z M621.681,750.545h124.259v-27.315H621.681V750.545z"/>
		<g>
			<path d="M686.569,723.229c-0.215,0-0.435-0.039-0.647-0.129c-0.867-0.355-1.28-1.347-0.924-2.216
				c1.496-3.636,36.996-89.396,66.65-116.931l4.073-3.784l-1.265,5.416c-0.186,0.783-18.621,78.858-43.973,116.888
				c-0.521,0.782-1.582,0.988-2.355,0.471c-0.779-0.521-0.991-1.575-0.471-2.354c20.937-31.409,37.167-90.807,42.006-109.789
				c-28.264,31.007-61.178,110.535-61.524,111.378C687.869,722.835,687.235,723.229,686.569,723.229z"/>
			<path d="M679.351,723.229c-0.709,0-1.372-0.447-1.61-1.157c-0.325-0.969-31.326-92.66-58.721-129.963
				c4.442,23.275,19.935,100.313,35.495,128.603c0.453,0.823,0.153,1.854-0.67,2.309c-0.819,0.448-1.856,0.149-2.305-0.67
				c-18.602-33.823-36.374-132.212-37.122-136.384l-1.097-6.117l4.055,4.71c28.756,33.409,62.175,132.238,63.585,136.432
				c0.298,0.889-0.181,1.851-1.07,2.149C679.713,723.2,679.53,723.229,679.351,723.229z"/>
			<path d="M724.355,723.229c-0.467,0-0.932-0.192-1.267-0.567c-0.624-0.699-0.563-1.774,0.136-2.397
				c25.322-22.582,48.418-62.088,56.018-75.78c-32.274,17.447-50.598,42.438-50.786,42.699c-0.551,0.764-1.612,0.926-2.372,0.382
				c-0.76-0.551-0.932-1.612-0.381-2.371c0.205-0.282,20.867-28.467,56.916-46.279l4.653-2.298l-2.395,4.604
				c-0.275,0.534-28.102,53.672-59.391,81.578C725.162,723.087,724.758,723.229,724.355,723.229z"/>
			<path d="M636.249,723.229c-0.488,0-0.972-0.209-1.307-0.613c-34.423-41.38-52.135-95.128-52.311-95.665l-1.265-3.895l3.65,1.857
				c25.115,12.768,51.481,47.781,52.591,49.264c0.562,0.754,0.408,1.818-0.343,2.379c-0.753,0.563-1.816,0.408-2.377-0.342
				c-0.253-0.338-24.28-32.244-47.562-46.143c4.856,13.351,21.771,56.163,50.228,90.375c0.6,0.72,0.502,1.791-0.219,2.391
				C637.017,723.101,636.63,723.229,636.249,723.229z"/>
			<path d="M668.836,694.057c-0.192,0-0.386-0.033-0.577-0.1c-0.882-0.318-1.338-1.293-1.02-2.176
				c1.283-3.556,31.708-87.355,53.418-107.364l3.165-2.915l-0.318,4.292c-0.047,0.594-4.578,59.652-16.947,95.741
				c-0.298,0.883-1.27,1.36-2.156,1.055c-0.885-0.302-1.359-1.267-1.056-2.156c10.182-29.706,15.004-75.318,16.357-90.096
				c-20.897,24.439-48.972,101.778-49.269,102.598C670.185,693.626,669.531,694.057,668.836,694.057z"/>
			<path d="M654.847,659.003c-0.864,0-1.604-0.656-1.688-1.536c-0.249-2.57-6.057-63.142-3.069-78.074l0.826-4.134l2.271,3.55
				c1.093,1.711,26.836,42.262,32.641,74.489c0.166,0.926-0.448,1.808-1.372,1.974c-0.922,0.152-1.806-0.451-1.972-1.37
				c-4.629-25.706-22.862-57.842-29.622-69.122c-1.351,19.951,3.624,71.792,3.678,72.363c0.091,0.932-0.592,1.761-1.526,1.854
				C654.956,659,654.901,659.003,654.847,659.003z"/>
			<path d="M673.429,622.41c-0.864,0-1.602-0.657-1.688-1.532c-2.546-25.886,14.991-58.827,15.739-60.217l1.563-2.902l1.458,2.959
				c9.246,18.773,11.414,56.12,11.501,57.702c0.054,0.936-0.665,1.738-1.601,1.787c-0.91,0.11-1.738-0.666-1.789-1.602
				c-0.02-0.358-1.982-34.132-9.728-53.182c-4.309,8.883-15.766,34.77-13.764,55.122c0.091,0.933-0.59,1.765-1.524,1.857
				C673.54,622.406,673.483,622.41,673.429,622.41z"/>
		</g>
	</g>
</g>
</svg>
