<?xml version="1.0" encoding="utf-8"?>
<!-- Generator: Adobe Illustrator 16.0.0, SVG Export Plug-In . SVG Version: 6.00 Build 0)  -->
<!DOCTYPE svg PUBLIC "-//W3C//DTD SVG 1.1//EN" "http://www.w3.org/Graphics/SVG/1.1/DTD/svg11.dtd">
<svg version="1.1" id="图层_1" xmlns="http://www.w3.org/2000/svg" xmlns:xlink="http://www.w3.org/1999/xlink" x="0px" y="0px"
	 width="207px" height="288px" viewBox="0 0 207 288" enable-background="new 0 0 207 288" xml:space="preserve">
<g>
	<path fill="#040000" d="M144.595,287.233H63.021l-15.27-93.688h112.117L144.595,287.233z M65.911,283.837h75.798l14.167-86.896
		H51.746L65.911,283.837z"/>
	<path fill="#040000" d="M169.336,196.941H38.284v-34.108h131.052V196.941z M41.681,193.545h124.26v-27.315H41.681V193.545z"/>
	<g>
		<path fill="#040000" d="M106.569,166.229c-0.216,0-0.436-0.039-0.647-0.13c-0.867-0.354-1.28-1.347-0.924-2.216
			c1.496-3.636,36.996-89.396,66.65-116.931l4.072-3.784l-1.265,5.416c-0.187,0.783-18.621,78.858-43.973,116.888
			c-0.521,0.782-1.582,0.988-2.355,0.472c-0.779-0.521-0.991-1.575-0.471-2.354c20.937-31.409,37.167-90.807,42.006-109.789
			c-28.264,31.007-61.178,110.535-61.524,111.378C107.869,165.835,107.235,166.229,106.569,166.229z"/>
		<path fill="#040000" d="M99.351,166.229c-0.709,0-1.372-0.447-1.609-1.157c-0.325-0.97-31.326-92.66-58.722-129.963
			c4.442,23.274,19.936,100.313,35.495,128.603c0.453,0.823,0.153,1.854-0.67,2.31c-0.818,0.447-1.855,0.148-2.305-0.671
			C52.938,131.528,35.166,33.139,34.418,28.967l-1.097-6.117l4.055,4.71c28.756,33.409,62.175,132.238,63.585,136.433
			c0.298,0.889-0.181,1.851-1.07,2.148C99.713,166.2,99.53,166.229,99.351,166.229z"/>
		<path fill="#040000" d="M144.355,166.229c-0.468,0-0.933-0.192-1.268-0.567c-0.624-0.699-0.563-1.774,0.136-2.397
			c25.322-22.582,48.418-62.088,56.019-75.779c-32.274,17.446-50.599,42.438-50.786,42.698c-0.551,0.765-1.612,0.927-2.372,0.383
			c-0.76-0.552-0.932-1.612-0.381-2.371c0.205-0.282,20.867-28.468,56.916-46.279l4.652-2.298l-2.395,4.604
			c-0.275,0.534-28.102,53.672-59.391,81.578C145.162,166.087,144.758,166.229,144.355,166.229z"/>
		<path fill="#040000" d="M56.249,166.229c-0.488,0-0.972-0.209-1.307-0.613C20.52,124.236,2.807,70.488,2.631,69.951l-1.265-3.896
			l3.649,1.857c25.115,12.768,51.481,47.781,52.592,49.264c0.562,0.754,0.407,1.818-0.344,2.379
			c-0.753,0.563-1.815,0.408-2.377-0.342c-0.253-0.338-24.279-32.244-47.562-46.143c4.855,13.351,21.771,56.163,50.228,90.375
			c0.601,0.72,0.502,1.791-0.219,2.391C57.017,166.101,56.63,166.229,56.249,166.229z"/>
		<path fill="#040000" d="M88.836,137.057c-0.192,0-0.386-0.032-0.577-0.1c-0.882-0.318-1.338-1.293-1.02-2.176
			c1.282-3.557,31.708-87.355,53.418-107.364l3.165-2.915l-0.318,4.292c-0.047,0.594-4.578,59.652-16.947,95.741
			c-0.298,0.883-1.27,1.36-2.155,1.055c-0.886-0.302-1.359-1.267-1.057-2.156c10.183-29.706,15.004-75.317,16.357-90.096
			c-20.897,24.439-48.973,101.778-49.27,102.599C90.185,136.626,89.531,137.057,88.836,137.057z"/>
		<path fill="#040000" d="M74.847,102.003c-0.863,0-1.604-0.656-1.688-1.536c-0.249-2.569-6.058-63.142-3.069-78.074l0.826-4.134
			l2.271,3.55c1.093,1.712,26.836,42.263,32.641,74.489c0.166,0.926-0.448,1.809-1.372,1.975c-0.922,0.151-1.806-0.451-1.972-1.37
			C97.855,71.196,79.622,39.06,72.862,27.78c-1.352,19.951,3.624,71.792,3.678,72.362c0.091,0.933-0.592,1.762-1.526,1.854
			C74.956,102,74.901,102.003,74.847,102.003z"/>
		<path fill="#040000" d="M93.429,65.41c-0.863,0-1.602-0.657-1.688-1.532C89.195,37.992,106.732,5.051,107.48,3.661l1.563-2.902
			l1.458,2.959c9.246,18.773,11.414,56.12,11.501,57.702c0.054,0.937-0.665,1.738-1.601,1.787c-0.91,0.11-1.738-0.666-1.789-1.602
			c-0.021-0.358-1.982-34.133-9.729-53.183c-4.309,8.883-15.766,34.771-13.764,55.122c0.091,0.933-0.59,1.765-1.524,1.857
			C93.54,65.406,93.483,65.41,93.429,65.41z"/>
	</g>
</g>
</svg>
