<?xml version="1.0" encoding="utf-8"?>
<!-- Generator: Adobe Illustrator 16.0.0, SVG Export Plug-In . SVG Version: 6.00 Build 0)  -->
<!DOCTYPE svg PUBLIC "-//W3C//DTD SVG 1.1//EN" "http://www.w3.org/Graphics/SVG/1.1/DTD/svg11.dtd">
<svg version="1.1" id="图层_1" xmlns="http://www.w3.org/2000/svg" xmlns:xlink="http://www.w3.org/1999/xlink" x="0px" y="0px"
	 width="1000px" height="1000px" viewBox="0 0 1000 1000" enable-background="new 0 0 1000 1000" xml:space="preserve">
<g transform="translate(-210.37 -192.27)">
	<path d="M753.554,750.799c0,2.151-16.127,3.895-36.02,3.895s-36.02-1.743-36.02-3.895c0-2.15,16.127-3.894,36.02-3.894
		S753.554,748.649,753.554,750.799z"/>
	<path fill="#FFFFFF" stroke="#000000" stroke-width="3.6" stroke-linecap="round" stroke-linejoin="round" d="M705.317,732.179
		c-3.516,10.843-7.361,19.31-8.589,18.911c-1.228-0.397,0.628-9.51,4.144-20.353s7.361-19.31,8.589-18.912
		C710.689,712.224,708.833,721.336,705.317,732.179L705.317,732.179z"/>
	<path fill="#FFFFFF" stroke="#000000" stroke-width="3.6" stroke-linecap="round" stroke-linejoin="round" d="M711.984,732.179
		c-3.516,10.843-7.361,19.31-8.589,18.911c-1.228-0.397,0.628-9.51,4.144-20.353s7.362-19.31,8.589-18.912
		C717.356,712.224,715.501,721.336,711.984,732.179L711.984,732.179z"/>
	<path fill="#FFFFFF" stroke="#000000" stroke-width="3.6" stroke-linecap="round" stroke-linejoin="round" d="M732.141,730.35
		c1.751,11.263,2.136,20.555,0.86,20.753c-1.274,0.198-3.728-8.772-5.478-20.035c-1.75-11.264-2.136-20.555-0.86-20.753
		S730.391,719.086,732.141,730.35L732.141,730.35z"/>
	<path fill="#FFFFFF" stroke="#000000" stroke-width="3.6" stroke-linecap="round" stroke-linejoin="round" d="M738.682,730.35
		c1.75,11.263,2.135,20.555,0.86,20.753c-1.275,0.198-3.728-8.772-5.479-20.035c-1.75-11.264-2.135-20.555-0.86-20.753
		C734.479,710.117,736.932,719.086,738.682,730.35L738.682,730.35z"/>
	<path fill="#FFFFFF" stroke="#000000" stroke-width="3.6" stroke-linecap="round" stroke-linejoin="round" d="M724.547,681.306
		c-2.33,0-4.366,1.264-5.464,3.14c-1.149-1.589-3.016-2.621-5.126-2.621c-2.621,0-4.867,1.594-5.827,3.865
		c-1.133-1.708-3.08-2.835-5.283-2.835c-3.356,0-6.093,2.614-6.305,5.917c-0.89-0.479-1.91-0.75-2.992-0.75
		c-3.494,0-6.321,2.835-6.321,6.33c0,0.49,0.05,0.967,0.156,1.426c-3.388,0.12-6.099,2.903-6.099,6.32
		c0,2.079,0.999,3.924,2.547,5.077c-3.174,0.34-5.646,3.016-5.646,6.28c0,3.013,2.107,5.535,4.929,6.172
		c-0.974,1.113-1.574,2.567-1.574,4.162c0,3.494,2.835,6.321,6.329,6.321c1.42,0,2.728-0.463,3.783-1.253
		c-0.19,0.602-0.297,1.24-0.297,1.904c0,3.494,2.835,6.321,6.33,6.321c1.63,0,3.114-0.621,4.236-1.632
		c0.351,0.146,0.705,0.286,1.063,0.42c0.11,3.397,2.897,6.124,6.321,6.124c2.637,0,4.893-1.614,5.843-3.907
		c0.809,2.563,3.203,4.418,6.033,4.418c3.092,0,5.662-2.211,6.214-5.143c0.898,2.4,3.211,4.112,5.926,4.112
		c3.494,0,6.329-2.835,6.329-6.329c0-0.655-0.104-1.285-0.288-1.879c1.052,0.78,2.363,1.235,3.774,1.235
		c3.494,0,6.32-2.835,6.32-6.329c0-1.592-0.587-3.042-1.558-4.153c2.817-0.64,4.921-3.162,4.921-6.173
		c0-2.445-1.39-4.567-3.421-5.62c2.169-1.004,3.676-3.198,3.676-5.744c0-3.326-2.565-6.042-5.826-6.297
		c0.26-0.692,0.403-1.442,0.403-2.226c0-3.493-2.835-6.321-6.329-6.321c-0.491,0-0.967,0.051-1.426,0.157
		c-0.12-3.389-2.903-6.099-6.321-6.099c-1.02,0-1.982,0.247-2.835,0.676C730.16,683.483,727.609,681.306,724.547,681.306
		L724.547,681.306z"/>
	<g transform="translate(100.78 -96.462)">
		<path fill="#FFFFFF" stroke="#000000" stroke-width="4.255" stroke-linecap="round" stroke-linejoin="round" d="M627.662,803.752
			c1.4,6.537-1.456,10.683-6.379,9.26c-4.924-1.423-2.969-8.28-4.369-14.816c-1.4-6.537-5.627-10.278-0.703-8.855
			C621.135,790.762,626.262,797.215,627.662,803.752L627.662,803.752z"/>
		<path fill="#FFFFFF" stroke="#000000" stroke-width="4.255" stroke-linecap="round" stroke-linejoin="round" d="M572.56,803.446
			c-1.726,6.459,0.919,10.742,5.908,9.566c4.989-1.175,3.379-8.121,5.104-14.579s6.133-9.983,1.144-8.809
			C579.728,790.799,574.285,796.988,572.56,803.446L572.56,803.446z"/>
		<path fill="#FFFFFF" stroke="#000000" stroke-width="3.6" stroke-linecap="round" stroke-linejoin="round" d="M615.684,802.866
			c0,12.551-6.937,17.978-15.494,17.978c-8.558,0-15.495-5.427-15.495-17.978s6.937-27.472,15.495-27.472
			C608.747,775.394,615.684,790.315,615.684,802.866z"/>
		<path fill="#FFFFFF" stroke="#000000" stroke-width="3.6" stroke-linecap="round" stroke-linejoin="round" d="M598.901,788.952
			c0,4.064-3.989,7.359-8.909,7.359c-4.92,0-8.909-3.295-8.909-7.359c0-4.065,3.989-7.36,8.909-7.36
			C594.912,781.592,598.901,784.887,598.901,788.952z"/>
		<path fill="#FFFFFF" stroke="#000000" stroke-width="3.6" stroke-linecap="round" stroke-linejoin="round" d="M618.266,789.342
			c0,5.276-4.278,9.555-9.555,9.555s-9.555-4.278-9.555-9.555c0-5.277,4.278-9.555,9.555-9.555
			C613.987,779.787,618.266,784.065,618.266,789.342z"/>
		<path d="M593.069,812.217c1.864,1.879,4.171,2.744,6.7,2.744c1.852,0,3.584-0.465,5.109-1.45l0.404,0.692
			c-1.655,1.06-3.534,1.582-5.513,1.582c-0.293,0-0.585-0.01-0.874-0.033c-0.199,1.874-0.073,3.483,0.956,4.574l-0.692,0.651
			c-1.32-1.399-1.419-3.343-1.203-5.341c-2.01-0.34-3.87-1.263-5.423-2.802C592.712,812.628,592.892,812.423,593.069,812.217
			L593.069,812.217z"/>
		<path stroke="#000000" stroke-width="3.6" stroke-linecap="round" stroke-linejoin="round" d="M595.329,790.602
			c0,1.184-0.958,2.143-2.142,2.143c-1.183,0-2.142-0.959-2.142-2.143c0-1.183,0.959-2.142,2.142-2.142
			C594.371,788.461,595.329,789.42,595.329,790.602z"/>
		<path stroke="#000000" stroke-width="3.6" stroke-linecap="round" stroke-linejoin="round" d="M606.234,790.408
			c0,1.183-0.959,2.142-2.142,2.142c-1.183,0-2.142-0.959-2.142-2.142c0-1.183,0.959-2.142,2.142-2.142
			C605.276,788.266,606.234,789.225,606.234,790.408z"/>
	</g>
	<path fill="#FFFFFF" stroke="#000000" stroke-width="3.6" d="M713.376,718.314c1.132-2.987,0.068-5.586-1.961-7.953
		c1.672,0.409,4.267,0.967,3.841,3.383C714.957,715.5,714.22,717.144,713.376,718.314L713.376,718.314z"/>
	<path d="M711.641,708.454c-2.681-0.439-3.418,2.429-2.639,4.19C706.361,709.916,708.239,706.771,711.641,708.454z"/>
</g>
</svg>
