<?xml version="1.0" encoding="UTF-8"?>
<svg viewBox="0 0 734 792.9826" xmlns="http://www.w3.org/2000/svg">
 <defs>
  <linearGradient id="d" x1="406" x2="410" y1="630.36" y2="753.2" gradientUnits="userSpaceOnUse">
   <stop stop-color="#4e9a06" offset="0"/>
   <stop stop-color="#325511" offset="1"/>
  </linearGradient>
  <linearGradient id="c" x1="397.44" x2="384.03" y1="807.58" y2="938.38" gradientUnits="userSpaceOnUse">
   <stop stop-color="#325511" offset="0"/>
   <stop offset="1"/>
  </linearGradient>
  <linearGradient id="b" x1="432" x2="444.34" y1="877.01" y2="984.35" gradientUnits="userSpaceOnUse">
   <stop stop-color="#69d008" offset="0"/>
   <stop stop-color="#4e9a06" offset="1"/>
  </linearGradient>
  <linearGradient id="a" x1="454.75" x2="455.02" y1="353.61" y2="364.35" gradientUnits="userSpaceOnUse">
   <stop offset="0"/>
   <stop stop-opacity="0" offset="1"/>
  </linearGradient>
  <linearGradient id="e" x1="436" x2="427" y1="280.36" y2="782.36" gradientUnits="userSpaceOnUse">
   <stop stop-color="#729fcf" offset="0"/>
   <stop stop-color="#729fcf" stop-opacity="0" offset="1"/>
  </linearGradient>
 </defs>
 <g transform="translate(-60 -190.38)">
  <path d="m455 190.38c-44.835 0-85.368 16.467-114.28 42.969-9.8767-1.9482-20.151-2.9688-30.719-2.9688-75.072 0-136 51.968-136 116 0 17.416 4.52 33.922 12.594 48.75-45.326 23.851-76.594 74.129-76.594 132.25 0 36.81 12.541 70.453 33.25 96.25-50.268 34.094-83.25 91.158-83.25 155.75 0 104.33 86.016 189 192 189 62.244 0 117.6-29.229 152.69-74.469 38.454 39.225 98.215 64.469 165.31 64.469 115.92 0 210-75.264 210-168 0-28.187-8.7082-54.758-24.062-78.094 23.842-25.859 38.062-58.465 38.062-93.906 0-39.667-17.823-75.8-47-102.88 9.6458-18.711 15-39.381 15-61.125 0-76.056-65.528-139.12-150.97-150.25-14.325-64.809-78.772-113.75-156.03-113.75z" fill="url(#e)" opacity=".8"/>
  <g transform="matrix(0 -1 -1 0 763.36 1005.4)">
   <path d="m755 277.36-12 72-84-6-614 6v-72l258 8 400.08-5.5651 51.919-2.4349z" fill="#a46602"/>
   <path d="m725.28 283.16c-37.129 0.40918-96.758 9.5861-131 10.562-85.915-3.8116-172.35-12.266-258.47-3.5312-5.5531 0.95284-11.104 1.7942-16.656 2.5312 84.814-5.6282 169.91-8.9785 254.38 3.4375 58.422 1.4083 125.82-18.289 178.5-8.9375l0.21875-1.2812c-5.7188-2.1582-15.225-2.9107-26.969-2.7812zm-406.12 9.5625c-20.934 1.3891-41.863 2.9072-62.75 4.375 20.913-0.30321 41.834-1.5985 62.75-4.375zm-62.75 4.375c-3.26 0.04726-6.5213 0.06227-9.7812 0.0625-34.513-3.4723-68.984-7.9829-103.41-12.125-28.566 0.19269-58.056-1.6735-87.125-0.59375-3.7006-0.24217-7.3928-0.47791-11.094-0.6875v0.78125c1.2257 0.0857 2.4577 0.1602 3.6875 0.25-1.2302 0.06865-2.4594 0.13755-3.6875 0.21875v1.625c4.5378-0.43298 9.0974-0.77837 13.656-1.0625 58.099 4.6681 120.16 13.008 177.97 12.906l2.4375-0.15625c57.935 5.9907 116.12 8.2508 174.38 2.7812 112.59-5.8295 227.65 13.899 338.34-12.438l0.15625-0.8125c-108.26 25.688-220.98 6.9037-331.16 11.688-56.994 6.2367-113.75 3.5401-170.38-2.0312l6-0.40625zm-172.12-12.438c26.327-0.23298 52.738 1.4818 78.625 3.9375 20.958 3.0795 41.962 5.9084 63 8.2812-53.181-1.4319-106.37-7.8694-159.59-11.719 5.9799-0.27041 11.972-0.44693 17.969-0.5zm-39.281 17.281v0.375c2.963 0.01314 5.9555 0.03347 8.9688 0.03125-3.0348-0.10969-6.0282-0.24902-8.9688-0.40625zm112.25 0.3125c-15.727-0.04376-32.177 0.22686-48.531 0.40625 4.3136 0.14374 8.4535 0.32153 12.219 0.59375 154.38-1.9038 308.25 11.812 462.56 12.375 54.34 5.6 110.52-11.749 163.75 0.25l0.625-3.8125c-12.679-2.1655-31.24-2.9664-45.188-1.4062-169.28 13.471-338.3-8.9977-507.59-7.375-11.75-0.71917-24.539-0.99423-37.844-1.0312zm-48.531 0.40625c-16.181-0.53923-35.604-0.32859-54.469-0.3125 17.185 0.61281 35.756 0.51776 54.469 0.3125zm-35.156 7.5625c-5.4637 0.0578-10.921 0.25324-16.375 0.5625 24.452-0.15971 51.043 3.47 68.438 5.5938 70.241 4.1776 140.31 11.337 210.53 16.812 7.817-0.53705 15.647-0.98201 23.469-1.3438-65.5-0.66154-130.45-11.791-196.19-13.469-29.624-5.1343-59.799-8.4744-89.875-8.1562zm286.06 21.625c13.873 0.14012 27.786-0.19912 41.719-1.1875-13.915 0.19622-27.817 0.5446-41.719 1.1875zm41.719-1.1875c110.36-1.5563 221.08 8.7542 331-3.1875 5.262-0.79848 9.6234-1.581 13.375-2.375l0.53125-3.1875c-109.36 21.003-221.91 3.9941-332.38 7.6875-4.1849 0.41999-8.3532 0.76611-12.531 1.0625zm-344.16-19.875c-4.1515 0.02712-8.2145 0.16419-12.188 0.4375v0.46875c4.0568-0.38094 8.1217-0.67571 12.188-0.90625zm18.469 14.5c-3.1694 0.05018-6.593 0.39028-10.188 0.90625 6.8486-0.06199 13.715 0.05666 20.594 0.34375-2.9561-0.95676-6.4869-1.3121-10.406-1.25zm10.406 1.25c0.44676 0.1446 0.8923 0.32768 1.3125 0.5 60.288 11.646 121.28 8.6602 182.12 12.156l8.2188-0.09375c-37.853-2.8931-75.753-5.0142-113.84-4.4688-25.686-3.6528-51.813-7.0086-77.812-8.0938zm-20.594-0.34375c-6.8481 0.06198-13.672 0.33066-20.469 0.8125v3.2812c7.0113-1.6236 14.003-3.1657 20.469-4.0938zm651.47 5.4688c-9.7412 0.16235-19.15 1.1944-27.969 3.7812 18.333-1.7397 36.721-1.5493 55.156-0.875l0.28125-1.6562c-9.2665-0.80156-18.508-1.3994-27.469-1.25zm-27.969 3.7812-0.34375 0.03125h0.21875l0.125-0.03125zm-0.34375 0.03125c-7.8379 0.01462-15.691 0.14831-23.531 0.34375l12.844 0.90625c3.5544-0.49909 7.1276-0.90748 10.688-1.25z" fill="#e9b96e"/>
   <path d="m725.28 280.16c-37.129 0.40918-96.758 9.5861-131 10.562-85.915-3.8116-172.35-12.266-258.47-3.5312-5.5531 0.95284-11.104 1.7942-16.656 2.5312 84.814-5.6282 169.91-8.9785 254.38 3.4375 58.422 1.4083 125.82-18.289 178.5-8.9375l0.21875-1.2812c-5.7188-2.1582-15.225-2.9107-26.969-2.7812zm-406.12 9.5625c-20.934 1.3891-41.863 2.9072-62.75 4.375 20.913-0.30321 41.834-1.5985 62.75-4.375zm-62.75 4.375c-3.26 0.04726-6.5213 0.06227-9.7812 0.0625-34.513-3.4723-68.984-7.9829-103.41-12.125-28.566 0.19269-58.056-1.6735-87.125-0.59375-3.7006-0.24217-7.3928-0.47791-11.094-0.6875v0.78125c1.2257 0.0857 2.4577 0.1602 3.6875 0.25-1.2302 0.06865-2.4594 0.13755-3.6875 0.21875v1.625c4.5378-0.43298 9.0974-0.77837 13.656-1.0625 58.099 4.6681 120.16 13.008 177.97 12.906l2.4375-0.15625c57.935 5.9907 116.12 8.2508 174.38 2.7812 112.59-5.8295 227.65 13.899 338.34-12.438l0.15625-0.8125c-108.26 25.688-220.98 6.9037-331.16 11.688-56.994 6.2367-113.75 3.5401-170.38-2.0312l6-0.40625zm-172.12-12.438c26.327-0.23298 52.738 1.4818 78.625 3.9375 20.958 3.0795 41.962 5.9084 63 8.2812-53.181-1.4319-106.37-7.8694-159.59-11.719 5.9799-0.27041 11.972-0.44693 17.969-0.5zm-39.281 17.281v0.375c2.963 0.01314 5.9555 0.03347 8.9688 0.03125-3.0348-0.10969-6.0282-0.24902-8.9688-0.40625zm112.25 0.3125c-15.727-0.04376-32.177 0.22686-48.531 0.40625 4.3136 0.14374 8.4535 0.32153 12.219 0.59375 154.38-1.9038 308.25 11.812 462.56 12.375 54.34 5.6 110.52-11.749 163.75 0.25l0.625-3.8125c-12.679-2.1655-31.24-2.9664-45.188-1.4062-169.28 13.471-338.3-8.9977-507.59-7.375-11.75-0.71917-24.539-0.99423-37.844-1.0312zm-48.531 0.40625c-16.181-0.53923-35.604-0.32859-54.469-0.3125 17.185 0.61281 35.756 0.51776 54.469 0.3125zm-35.156 7.5625c-5.4637 0.0578-10.921 0.25324-16.375 0.5625 24.452-0.15971 51.043 3.47 68.438 5.5938 70.241 4.1776 140.31 11.337 210.53 16.812 7.817-0.53705 15.647-0.98201 23.469-1.3438-65.5-0.66154-130.45-11.791-196.19-13.469-29.624-5.1343-59.799-8.4744-89.875-8.1562zm286.06 21.625c13.873 0.14012 27.786-0.19912 41.719-1.1875-13.915 0.19622-27.817 0.5446-41.719 1.1875zm41.719-1.1875c110.36-1.5563 221.08 8.7542 331-3.1875 5.262-0.79848 9.6234-1.581 13.375-2.375l0.53125-3.1875c-109.36 21.003-221.91 3.9941-332.38 7.6875-4.1849 0.41999-8.3532 0.76611-12.531 1.0625zm-344.16-19.875c-4.1515 0.02712-8.2145 0.16419-12.188 0.4375v0.46875c4.0568-0.38094 8.1217-0.67571 12.188-0.90625zm18.469 14.5c-3.1694 0.05018-6.593 0.39028-10.188 0.90625 6.8486-0.06199 13.715 0.05666 20.594 0.34375-2.9561-0.95676-6.4869-1.3121-10.406-1.25zm10.406 1.25c0.44676 0.1446 0.8923 0.32768 1.3125 0.5 60.288 11.646 121.28 8.6602 182.12 12.156l8.2188-0.09375c-37.853-2.8931-75.753-5.0142-113.84-4.4688-25.686-3.6528-51.813-7.0086-77.812-8.0938zm-20.594-0.34375c-6.8481 0.06198-13.672 0.33066-20.469 0.8125v3.2812c7.0113-1.6236 14.003-3.1657 20.469-4.0938zm651.47 5.4688c-9.7412 0.16235-19.15 1.1944-27.969 3.7812 18.333-1.7397 36.721-1.5493 55.156-0.875l0.28125-1.6562c-9.2665-0.80156-18.508-1.3994-27.469-1.25zm-27.969 3.7812-0.34375 0.03125h0.21875l0.125-0.03125zm-0.34375 0.03125c-7.8379 0.01462-15.691 0.14831-23.531 0.34375l12.844 0.90625c3.5544-0.49909 7.1276-0.90748 10.688-1.25z" opacity=".5"/>
  </g>
  <g transform="matrix(.8946 0 0 .8946 81.45 133.9)" fill="url(#c)">
   <path d="m174.04 936.54c-5.6241-28.57-17.386-55.801-14.094-88.709 3.5679-17.727 15.896-53.005 21.296-47.462-6.3996 24.888-12.228 58.9-1.795 82.96 4.9221 12.776 26.036 45.906 11.027 55.038-5.5013 0.21861-10.922-2.3164-16.434-1.8272z"/>
   <path d="m466.7 934.12c-1.4354-31.774-7.4715-62.947-2.0006-98.189 4.256-18.735 16.538-55.294 19.959-48.531-6.9892 26.111-14.413 62.198-9.0502 89.747 2.3973 14.543 14.703 53.413 2.906 61.236-4.0322-0.52647-7.749-4.029-11.814-4.2634z"/>
   <path d="m338.1 937.42c-6.1976-25.787-17.699-50.065-16.3-80.225 2.3224-16.331 11.513-49.075 16.481-44.273-4.4756 22.993-8.0423 54.278 2.1552 75.728 4.8751 11.418 24.815 40.638 12.108 49.667-4.798 0.45697-9.6495-1.6006-14.445-0.89635z"/>
   <path d="m203.43 933.61c-0.35891-29.116-6.9963-58.026 2.1982-89.795 6.7182-16.788 25.229-49.251 29.537-42.822-10.799 23.318-22.689 55.713-16.784 81.265 2.5279 13.456 17.295 49.861 0.88131 56.125-5.45-0.78093-10.323-4.2555-15.832-4.7722z"/>
   <path d="m332.86 932.05c4.3405-31.509 4.0475-63.259 15.808-96.929 7.5774-17.655 26.275-51.386 28.415-44.116-11.601 24.414-25.435 58.561-25.148 86.626-0.27503 14.736 4.7905 55.193-8.2279 60.75-3.8703-1.2477-6.8916-5.3652-10.847-6.3317z"/>
   <path d="m239.54 934.88c-1.4268-26.483-8.3428-52.442-1.5066-81.85 5.2405-15.64 20.207-46.179 24.224-40.558-8.5642 21.803-17.736 51.925-11.59 74.866 2.7274 12.112 17.048 44.459 2.9162 51.038-4.8014-0.41918-9.2003-3.321-14.044-3.4965z"/>
   <path d="m576.48 937.42c-6.1976-25.787-17.699-50.065-16.3-80.225 2.3224-16.331 11.513-49.075 16.481-44.273-4.4756 22.993-8.0423 54.278 2.1552 75.728 4.8751 11.418 24.815 40.638 12.108 49.667-4.798 0.45697-9.6495-1.6006-14.445-0.89635z"/>
   <path d="m421.95 936.54c-5.6241-28.57-17.386-55.801-14.094-88.709 3.5679-17.727 15.896-53.005 21.296-47.462-6.3996 24.888-12.228 58.9-1.795 82.96 4.9221 12.776 26.036 45.906 11.027 55.038-5.5013 0.21861-10.922-2.3164-16.434-1.8272z"/>
   <path d="m241.42 934.12c-1.4354-31.774-7.4715-62.947-2.0006-98.189 4.256-18.735 16.538-55.294 19.959-48.531-6.9892 26.111-14.413 62.198-9.0502 89.747 2.3973 14.543 14.703 53.413 2.906 61.236-4.0322-0.52647-7.749-4.029-11.814-4.2634z"/>
   <path d="m369.53 937.42c-6.1976-25.787-17.699-50.065-16.3-80.225 2.3224-16.331 11.513-49.075 16.481-44.273-4.4756 22.993-8.0423 54.278 2.1552 75.728 4.8751 11.418 24.815 40.638 12.108 49.667-4.798 0.45697-9.6495-1.6006-14.445-0.89635z"/>
   <path d="m179.91 933.61c-0.35891-29.116-6.9963-58.026 2.1982-89.795 6.7182-16.788 25.229-49.251 29.537-42.822-10.799 23.318-22.689 55.713-16.784 81.265 2.5279 13.456 17.295 49.861 0.88131 56.125-5.45-0.78093-10.323-4.2555-15.832-4.7722z"/>
   <path d="m453.73 934.88c-1.4268-26.483-8.3428-52.442-1.5066-81.85 5.2405-15.64 20.207-46.179 24.224-40.558-8.5642 21.803-17.736 51.925-11.59 74.866 2.7274 12.112 17.048 44.459 2.9162 51.038-4.8014-0.41918-9.2003-3.321-14.044-3.4965z"/>
   <path d="m322.7 937.42c-6.1976-25.787-17.699-50.065-16.3-80.225 2.3224-16.331 11.513-49.075 16.481-44.273-4.4756 22.993-8.0423 54.278 2.1552 75.728 4.8751 11.418 24.815 40.638 12.108 49.667-4.798 0.45697-9.6495-1.6006-14.445-0.89635z"/>
   <path d="m504.19 936.54c-5.6241-28.57-17.386-55.801-14.094-88.709 3.5679-17.727 15.896-53.005 21.296-47.462-6.3996 24.888-12.228 58.9-1.795 82.96 4.9221 12.776 26.036 45.906 11.027 55.038-5.5013 0.21861-10.922-2.3164-16.434-1.8272z"/>
   <path d="m160.33 934.12c-1.4354-31.774-7.4715-62.947-2.0006-98.189 4.256-18.735 16.538-55.294 19.959-48.531-6.9892 26.111-14.413 62.198-9.0502 89.747 2.3973 14.543 14.703 53.413 2.906 61.236-4.0322-0.52647-7.749-4.029-11.814-4.2634z"/>
   <path d="m553.83 937.42c-6.1976-25.787-17.699-50.065-16.3-80.225 2.3224-16.331 11.513-49.075 16.481-44.273-4.4756 22.993-8.0423 54.278 2.1552 75.728 4.8751 11.418 24.815 40.638 12.108 49.667-4.798 0.45697-9.6495-1.6006-14.445-0.89635z"/>
   <path d="m516.6 933.61c-0.35891-29.116-6.9963-58.026 2.1982-89.795 6.7182-16.788 25.229-49.251 29.537-42.822-10.799 23.318-22.689 55.713-16.784 81.265 2.5279 13.456 17.295 49.861 0.88131 56.125-5.45-0.78093-10.323-4.2555-15.832-4.7722z"/>
   <path d="m583.03 932.05c4.3405-31.509 4.0475-63.259 15.808-96.929 7.5774-17.655 26.275-51.386 28.415-44.116-11.601 24.414-25.435 58.561-25.148 86.626-0.27503 14.736 4.7905 55.193-8.2279 60.75-3.8703-1.2477-6.8916-5.3652-10.847-6.3317z"/>
   <path d="m479.21 934.88c-1.4268-26.483-8.3428-52.442-1.5066-81.85 5.2405-15.64 20.207-46.179 24.224-40.558-8.5642 21.803-17.736 51.925-11.59 74.866 2.7274 12.112 17.048 44.459 2.9162 51.038-4.8014-0.41918-9.2003-3.321-14.044-3.4965z"/>
   <path d="m632.95 937.42c-6.1976-25.787-17.699-50.065-16.3-80.225 2.3224-16.331 11.513-49.075 16.481-44.273-4.4756 22.993-8.0423 54.278 2.1552 75.728 4.8751 11.418 24.815 40.638 12.108 49.667-4.798 0.45697-9.6495-1.6006-14.445-0.89635z"/>
   <path d="m265.63 936.54c-5.6241-28.57-17.386-55.801-14.094-88.709 3.5679-17.727 15.896-53.005 21.296-47.462-6.3996 24.888-12.228 58.9-1.795 82.96 4.9221 12.776 26.036 45.906 11.027 55.038-5.5013 0.21861-10.922-2.3164-16.434-1.8272z"/>
   <path d="m282.36 934.12c-1.4354-31.774-7.4715-62.947-2.0006-98.189 4.256-18.735 16.538-55.294 19.959-48.531-6.9892 26.111-14.413 62.198-9.0502 89.747 2.3973 14.543 14.703 53.413 2.906 61.236-4.0322-0.52647-7.749-4.029-11.814-4.2634z"/>
   <path d="m385.69 937.42c-6.1976-25.787-17.699-50.065-16.3-80.225 2.3224-16.331 11.513-49.075 16.481-44.273-4.4756 22.993-8.0423 54.278 2.1552 75.728 4.8751 11.418 24.815 40.638 12.108 49.667-4.798 0.45697-9.6495-1.6006-14.445-0.89635z"/>
   <path d="m389.5 933.61c-0.35891-29.116-6.9963-58.026 2.1982-89.795 6.7182-16.788 25.229-49.251 29.537-42.822-10.799 23.318-22.689 55.713-16.784 81.265 2.5279 13.456 17.295 49.861 0.88131 56.125-5.45-0.78093-10.323-4.2555-15.832-4.7722z"/>
   <path d="m435.51 934.88c-1.4268-26.483-8.3428-52.442-1.5066-81.85 5.2405-15.64 20.207-46.179 24.224-40.558-8.5642 21.803-17.736 51.925-11.59 74.866 2.7274 12.112 17.048 44.459 2.9162 51.038-4.8014-0.41918-9.2003-3.321-14.044-3.4965z"/>
   <path d="m304.08 937.42c-6.1976-25.787-17.699-50.065-16.3-80.225 2.3224-16.331 11.513-49.075 16.481-44.273-4.4756 22.993-8.0423 54.278 2.1552 75.728 4.8751 11.418 24.815 40.638 12.108 49.667-4.798 0.45697-9.6495-1.6006-14.445-0.89635z"/>
   <path d="m221.49 935.13c-1.3744-24.6-8.036-48.713-1.4512-76.031 5.0478-14.528 19.464-42.896 23.333-37.674-8.2492 20.252-17.083 48.233-11.164 69.544 2.6271 11.251 16.421 41.298 2.809 47.41-4.6249-0.38938-8.862-3.0849-13.527-3.2479z"/>
  </g>
  <g transform="translate(58,227)" fill="url(#d)">
   <path d="m172.46 750.29c-5.6241-28.57-17.386-55.801-14.094-88.709 3.5679-17.727 15.896-53.005 21.296-47.462-6.3996 24.888-12.228 58.9-1.795 82.96 4.9221 12.776 26.036 45.906 11.027 55.038-5.5013 0.21861-10.922-2.3164-16.434-1.8272z"/>
   <path d="m258.4 748.93c-1.4354-31.774-7.4715-62.947-2.0006-98.189 4.256-18.735 16.538-55.294 19.959-48.531-6.9892 26.111-14.413 62.198-9.0502 89.747 2.3973 14.543 14.703 53.413 2.906 61.236-4.0322-0.52647-7.749-4.029-11.814-4.2634z"/>
   <path d="m198.37 749c-6.1976-25.787-17.699-50.065-16.3-80.225 2.3224-16.331 11.513-49.075 16.481-44.273-4.4756 22.993-8.0423 54.278 2.1552 75.728 4.8751 11.418 24.815 40.638 12.108 49.667-4.798 0.45697-9.6495-1.6006-14.445-0.89635z"/>
   <path d="m232.98 745.37c-0.35891-29.116-6.9963-58.026 2.1982-89.795 6.7182-16.788 25.229-49.251 29.537-42.822-10.799 23.318-22.689 55.713-16.784 81.265 2.5279 13.456 17.295 49.861 0.88131 56.125-5.45-0.78093-10.323-4.2555-15.832-4.7722z"/>
   <path d="m129.74 744.59c4.3405-31.509 4.0475-63.259 15.808-96.929 7.5774-17.655 26.275-51.386 28.415-44.116-11.601 24.414-25.435 58.561-25.148 86.626-0.27503 14.736 4.7905 55.193-8.2279 60.75-3.8703-1.2477-6.8916-5.3652-10.847-6.3317z"/>
   <path d="m209.3 748.36c-1.4268-26.483-8.3428-52.442-1.5066-81.85 5.2405-15.64 20.207-46.179 24.224-40.558-8.5642 21.803-17.736 51.925-11.59 74.866 2.7274 12.112 17.048 44.459 2.9162 51.038-4.8014-0.41918-9.2003-3.321-14.044-3.4965z"/>
   <path d="m160.37 752c-6.1976-25.787-17.699-50.065-16.3-80.225 2.3224-16.331 11.513-49.075 16.481-44.273-4.4756 22.993-8.0423 54.278 2.1552 75.728 4.8751 11.418 24.815 40.638 12.108 49.667-4.798 0.45697-9.6495-1.6006-14.445-0.89635z"/>
   <path d="m297.46 748.36c-5.6241-28.57-17.386-55.801-14.094-88.709 3.5679-17.727 15.896-53.005 21.296-47.462-6.3996 24.888-12.228 58.9-1.795 82.96 4.9221 12.776 26.036 45.906 11.027 55.038-5.5013 0.21861-10.922-2.3164-16.434-1.8272z"/>
   <path d="m383.4 747c-1.4354-31.774-7.4715-62.947-2.0006-98.189 4.256-18.735 16.538-55.294 19.959-48.531-6.9892 26.111-14.413 62.198-9.0502 89.747 2.3973 14.543 14.703 53.413 2.906 61.236-4.0322-0.52647-7.749-4.029-11.814-4.2634z"/>
   <path d="m324.37 749.07c-6.1976-25.787-17.699-50.065-16.3-80.225 2.3224-16.331 11.513-49.075 16.481-44.273-4.4756 22.993-8.0423 54.278 2.1552 75.728 4.8751 11.418 24.815 40.638 12.108 49.667-4.798 0.45697-9.6495-1.6006-14.445-0.89635z"/>
   <path d="m357.98 743.44c-0.35891-29.116-6.9963-58.026 2.1982-89.795 6.7182-16.788 25.229-49.251 29.537-42.822-10.799 23.318-22.689 55.713-16.784 81.265 2.5279 13.456 17.295 49.861 0.88131 56.125-5.45-0.78093-10.323-4.2555-15.832-4.7722z"/>
   <path d="m334.3 746.43c-1.4268-26.483-8.3428-52.442-1.5066-81.85 5.2405-15.64 20.207-46.179 24.224-40.558-8.5642 21.803-17.736 51.925-11.59 74.866 2.7274 12.112 17.048 44.459 2.9162 51.038-4.8014-0.41918-9.2003-3.321-14.044-3.4965z"/>
   <path d="m285.37 750.07c-6.1976-25.787-17.699-50.065-16.3-80.225 2.3224-16.331 11.513-49.075 16.481-44.273-4.4756 22.993-8.0423 54.278 2.1552 75.728 4.8751 11.418 24.815 40.638 12.108 49.667-4.798 0.45697-9.6495-1.6006-14.445-0.89635z"/>
   <path d="m438.46 750.29c-5.6241-28.57-17.386-55.801-14.094-88.709 3.5679-17.727 15.896-53.005 21.296-47.462-6.3996 24.888-12.228 58.9-1.795 82.96 4.9221 12.776 26.036 45.906 11.027 55.038-5.5013 0.21861-10.922-2.3164-16.434-1.8272z"/>
   <path d="m524.4 748.93c-1.4354-31.774-7.4715-62.947-2.0006-98.189 4.256-18.735 16.538-55.294 19.959-48.531-6.9892 26.111-14.413 62.198-9.0502 89.747 2.3973 14.543 14.703 53.413 2.906 61.236-4.0322-0.52647-7.749-4.029-11.814-4.2634z"/>
   <path d="m464.37 749c-6.1976-25.787-17.699-50.065-16.3-80.225 2.3224-16.331 11.513-49.075 16.481-44.273-4.4756 22.993-8.0423 54.278 2.1552 75.728 4.8751 11.418 24.815 40.638 12.108 49.667-4.798 0.45697-9.6495-1.6006-14.445-0.89635z"/>
   <path d="m498.98 745.37c-0.35891-29.116-6.9963-58.026 2.1982-89.795 6.7182-16.788 25.229-49.251 29.537-42.822-10.799 23.318-22.689 55.713-16.784 81.265 2.5279 13.456 17.295 49.861 0.88131 56.125-5.45-0.78093-10.323-4.2555-15.832-4.7722z"/>
   <path d="m395.74 744.59c4.3405-31.509 4.0475-63.259 15.808-96.929 7.5774-17.655 26.275-51.386 28.415-44.116-11.601 24.414-25.435 58.561-25.148 86.626-0.27503 14.736 4.7905 55.193-8.2279 60.75-3.8703-1.2477-6.8916-5.3652-10.847-6.3317z"/>
   <path d="m475.3 748.36c-1.4268-26.483-8.3428-52.442-1.5066-81.85 5.2405-15.64 20.207-46.179 24.224-40.558-8.5642 21.803-17.736 51.925-11.59 74.866 2.7274 12.112 17.048 44.459 2.9162 51.038-4.8014-0.41918-9.2003-3.321-14.044-3.4965z"/>
   <path d="m426.37 752c-6.1976-25.787-17.699-50.065-16.3-80.225 2.3224-16.331 11.513-49.075 16.481-44.273-4.4756 22.993-8.0423 54.278 2.1552 75.728 4.8751 11.418 24.815 40.638 12.108 49.667-4.798 0.45697-9.6495-1.6006-14.445-0.89635z"/>
   <path d="m563.46 748.36c-5.6241-28.57-17.386-55.801-14.094-88.709 3.5679-17.727 15.896-53.005 21.296-47.462-6.3996 24.888-12.228 58.9-1.795 82.96 4.9221 12.776 26.036 45.906 11.027 55.038-5.5013 0.21861-10.922-2.3164-16.434-1.8272z"/>
   <path d="m649.4 747c-1.4354-31.774-7.4715-62.947-2.0006-98.189 4.256-18.735 16.538-55.294 19.959-48.531-6.9892 26.111-14.413 62.198-9.0502 89.747 2.3973 14.543 14.703 53.413 2.906 61.236-4.0322-0.52647-7.749-4.029-11.814-4.2634z"/>
   <path d="m589.37 747.07c-6.1976-25.787-17.699-50.065-16.3-80.225 2.3224-16.331 11.513-49.075 16.481-44.273-4.4756 22.993-8.0423 54.278 2.1552 75.728 4.8751 11.418 24.815 40.638 12.108 49.667-4.798 0.45697-9.6495-1.6006-14.445-0.89635z"/>
   <path d="m623.98 743.44c-0.35891-29.116-6.9963-58.026 2.1982-89.795 6.7182-16.788 25.229-49.251 29.537-42.822-10.799 23.318-22.689 55.713-16.784 81.265 2.5279 13.456 17.295 49.861 0.88131 56.125-5.45-0.78093-10.323-4.2555-15.832-4.7722z"/>
   <path d="m600.3 746.43c-1.4268-26.483-8.3428-52.442-1.5066-81.85 5.2405-15.64 20.207-46.179 24.224-40.558-8.5642 21.803-17.736 51.925-11.59 74.866 2.7274 12.112 17.048 44.459 2.9162 51.038-4.8014-0.41918-9.2003-3.321-14.044-3.4965z"/>
   <path d="m551.37 750.07c-6.1976-25.787-17.699-50.065-16.3-80.225 2.3224-16.331 11.513-49.075 16.481-44.273-4.4756 22.993-8.0423 54.278 2.1552 75.728 4.8751 11.418 24.815 40.638 12.108 49.667-4.798 0.45697-9.6495-1.6006-14.445-0.89635z"/>
   <path d="m585.13 746.68c-1.3744-24.6-8.036-48.713-1.4512-76.031 5.0478-14.528 19.464-42.896 23.333-37.674-8.2492 20.252-17.083 48.233-11.164 69.544 2.6271 11.251 16.421 41.298 2.809 47.41-4.6249-0.38938-8.862-3.0849-13.527-3.2479z"/>
  </g>
  <g transform="translate(-2,-2)" fill="url(#b)">
   <path d="m243.69 982.46c-5.7855-29.39-17.885-57.403-14.499-91.256 3.6704-18.236 16.352-54.527 21.908-48.824-6.5832 25.603-12.579 60.591-1.8466 85.342 5.0634 13.143 26.783 47.224 11.344 56.617-5.6592 0.22489-11.236-2.3829-16.906-1.8796z"/>
   <path d="m658.8 979.97c-1.4766-32.686-7.686-64.754-2.058-101.01 4.3782-19.273 17.013-56.881 20.532-49.924-7.1898 26.86-14.827 63.983-9.31 92.323 2.4661 14.96 15.125 54.947 2.9894 62.994-4.148-0.54158-7.9714-4.1446-12.153-4.3857z"/>
   <path d="m522.23 983.36c-6.3755-26.527-18.207-51.502-16.767-82.528 2.3891-16.799 11.843-50.483 16.954-45.544-4.6041 23.653-8.2732 55.836 2.2171 77.901 5.0151 11.746 25.527 41.804 12.455 51.093-4.9357 0.47008-9.9265-1.6465-14.859-0.92208z"/>
   <path d="m323.04 979.44c-0.36921-29.952-7.1971-59.692 2.2614-92.373 6.911-17.27 25.953-50.665 30.384-44.051-11.109 23.988-23.34 57.312-17.266 83.597 2.6005 13.842 17.792 51.292 0.90661 57.736-5.6064-0.80335-10.619-4.3776-16.286-4.9092z"/>
   <path d="m368.25 977.84c4.4651-32.413 4.1637-65.075 16.262-99.711 7.795-18.162 27.029-52.861 29.231-45.382-11.934 25.115-26.165 60.242-25.87 89.112-0.28292 15.159 4.928 56.777-8.4641 62.494-3.9814-1.2836-7.0894-5.5192-11.159-6.5134z"/>
   <path d="m536.16 980.76c-1.4678-27.243-8.5822-53.947-1.5499-84.2 5.3909-16.089 20.787-47.505 24.919-41.722-8.81 22.428-18.245 53.415-11.922 77.015 2.8057 12.46 17.537 45.735 3 52.503-4.9393-0.43121-9.4644-3.4164-14.447-3.5969z"/>
   <path d="m483.94 983.36c-6.3755-26.527-18.207-51.502-16.767-82.528 2.3891-16.799 11.843-50.483 16.954-45.544-4.6041 23.653-8.2732 55.836 2.2171 77.901 5.0151 11.746 25.527 41.804 12.455 51.093-4.9357 0.47008-9.9265-1.6465-14.859-0.92208z"/>
   <path d="m570.03 982.46c-5.7855-29.39-17.885-57.403-14.499-91.256 3.6704-18.236 16.352-54.527 21.908-48.824-6.5832 25.603-12.579 60.591-1.8466 85.342 5.0634 13.143 26.783 47.224 11.344 56.617-5.6592 0.22489-11.236-2.3829-16.906-1.8796z"/>
   <path d="m432.54 979.97c-1.4766-32.686-7.686-64.754-2.058-101.01 4.3782-19.273 17.013-56.881 20.532-49.924-7.1898 26.86-14.827 63.983-9.31 92.323 2.4661 14.96 15.125 54.947 2.9894 62.994-4.148-0.54158-7.9714-4.1446-12.153-4.3857z"/>
   <path d="m298.48 983.36c-6.3755-26.527-18.207-51.502-16.767-82.528 2.3891-16.799 11.843-50.483 16.954-45.544-4.6041 23.653-8.2732 55.836 2.2171 77.901 5.0151 11.746 25.527 41.804 12.455 51.093-4.9357 0.47008-9.9265-1.6465-14.859-0.92208z"/>
   <path d="m255.66 979.44c-0.36921-29.952-7.1971-59.692 2.2614-92.373 6.911-17.27 25.953-50.665 30.384-44.051-11.109 23.988-23.34 57.312-17.266 83.597 2.6005 13.842 17.792 51.292 0.90661 57.736-5.6064-0.80335-10.619-4.3776-16.286-4.9092z"/>
   <path d="m216 980.76c-1.4678-27.243-8.5822-53.947-1.5499-84.2 5.3909-16.089 20.787-47.505 24.919-41.722-8.81 22.428-18.245 53.415-11.922 77.015 2.8057 12.46 17.537 45.735 3 52.503-4.9392-0.43121-9.4644-3.4164-14.447-3.5969z"/>
   <path d="m624.91 983.36c-6.3755-26.527-18.207-51.502-16.767-82.528 2.3891-16.799 11.843-50.483 16.954-45.544-4.6041 23.653-8.2732 55.836 2.2171 77.901 5.0151 11.746 25.527 41.804 12.455 51.093-4.9357 0.47008-9.9265-1.6465-14.859-0.92208z"/>
   <path d="m503.24 981.01c-1.4138-25.306-8.2666-50.112-1.4929-78.213 5.1926-14.945 20.023-44.128 24.003-38.756-8.486 20.834-17.574 49.618-11.484 71.54 2.7025 11.574 16.892 42.483 2.8896 48.77-4.7576-0.40056-9.1164-3.1734-13.916-3.3412z"/>
  </g>
  <path d="m449.81 827.19c-1.5914 0.2653-3.9413 4.3793-6.4688 10.312-0.00485 0.0199 0.00485 0.0426 0 0.0625-6.2034 25.485-11.452 56.984-6.625 81.781 2.4225 14.695 14.664 53.533 3.5938 62.531 1.4381 0.6849 2.8854 1.2742 4.375 1.4688 12.136-8.0472-0.50261-48.04-2.9688-63-5.5168-28.34 2.1226-65.452 9.3125-92.313-0.3299-0.6521-0.74292-0.923-1.2188-0.8437zm226.25 0c-1.5914 0.2653-3.9413 4.3793-6.4688 10.312-0.00485 0.0199 0.00485 0.0426 0 0.0625-6.2034 25.485-11.452 56.984-6.625 81.781 2.4225 14.695 14.694 53.533 3.625 62.531 1.4381 0.6849 2.8854 1.2742 4.375 1.4688 12.136-8.0472-0.53385-48.04-3-63-5.5168-28.34 2.1227-65.452 9.3125-92.313-0.3299-0.6521-0.74292-0.923-1.2188-0.8437zm-263.38 3.5313c-1.5478-0.0262-4.4082 3.3007-7.7812 8.3124-10.941 24.189-22.295 54.99-22.031 80.813-0.27166 14.555 4.5037 53.515-6.9688 61.656 1.1181 0.7766 2.2688 1.4468 3.5 1.8438 13.392-5.7172 8.1858-47.341 8.4688-62.5-0.29508-28.871 13.941-63.979 25.875-89.094-0.20637-0.7012-0.58018-1.0232-1.0625-1.0312zm-163 10.062c-1.4167 0.1062-3.1044 1.9632-4.9062 4.9376-5.9927 24.969-10.535 56.928-0.53125 80 0.88084 2.2862 2.3318 5.3428 3.9375 8.6562-0.16147-3.6319-0.25099-7.294-0.25-10.969-8.8888-24.488-3.1383-57.551 3.1562-82.031-0.43399-0.4455-0.89295-0.6321-1.4062-0.5938zm326.31 0c-1.4038 0.1053-3.0942 1.9171-4.875 4.8438-6.0031 24.982-10.547 56.995-0.53125 80.094 5.0634 13.142 26.783 47.231 11.344 56.625-4.0435 0.1606-8.039-1.0942-12.062-1.6563l0.15625 0.7813c5.6701-0.5034 11.247 2.0998 16.906 1.875 15.44-9.3936-6.2804-43.483-11.344-56.625-10.732-24.751-4.7395-59.741 1.8438-85.344-0.43399-0.4455-0.9242-0.6321-1.4375-0.5938zm-221.94 0.375c-1.3192 0.0751-3.0844 1.4218-5.0938 3.625-10.604 23.627-21.326 54.901-15.562 79.844 2.5761 13.712 17.51 50.578 1.375 57.531 1.4804 0.5204 2.9862 0.9661 4.5312 1.1876 16.885-6.4433 1.6942-43.877-0.90625-57.719-6.0739-26.285 6.1718-59.606 17.281-83.594-0.4154-0.62-0.97479-0.9119-1.625-0.875zm-67.375 0.0313c-1.3199 0.0744-3.0811 1.3925-5.0938 3.5937-10.604 23.627-21.326 54.901-15.562 79.844 2.5761 13.712 17.51 50.578 1.375 57.531 1.4864 0.5262 2.9808 0.9653 4.5312 1.1876 16.885-6.4433 1.6942-43.877-0.90625-57.719-6.0739-26.285 6.1718-59.606 17.281-83.594-0.4154-0.62-0.97444-0.8804-1.625-0.8437zm271.41 11.969c-1.4762 0.178-3.5094 2.3116-5.7812 5.5626-8.0595 21.753-15.508 49.514-9.7188 71.125 2.795 12.412 17.414 45.462 3.1562 52.406 1.5882 0.5093 3.1956 0.9498 4.8438 1.0938 14.537-6.7683-0.19429-40.04-3-52.5-6.3223-23.6 3.1275-54.572 11.938-77-0.38739-0.5422-0.86964-0.7559-1.4375-0.6876zm-74.969 0.625c-1.577-0.0917-3.4478 2.6697-5.3438 6.9063-3.8491 22.645-5.87 50.659 3.5625 70.5 3.1962 7.4862 12.67 22.411 15.75 34.656-0.57686-5.3372-1.2277-10.676-1.8125-16.063-3.4718-6.9991-7.1655-13.443-8.9375-17.594-10.49-22.066-6.8229-54.253-2.2188-77.906-0.31943-0.3087-0.64955-0.4796-1-0.5zm38.094 0c-1.5208 0.1128-3.2919 2.7177-5.0938 6.7188-0.00607 0.0135-0.02517 0.0177-0.03125 0.0312-0.21544 1.2823-0.42025 2.5653-0.625 3.875 2.2952-2.7069 4.1918-3.8453 5.2812-2.375-2.5631 6.2927-5.1681 13.321-7.4062 20.656-1.2557 17.085-0.25143 34.759 6.2812 48.5 1.6968 3.9743 5.1561 10.066 8.5 16.719-0.36854-3.4727-0.69947-6.9554-0.96875-10.469-1.011-1.9635-1.9055-3.7844-2.5312-5.25-6.5327-13.741-7.5369-31.415-6.2812-48.5 2.2381-7.3351 4.8431-14.364 7.4062-20.656-1.0895-1.4703-2.9861-0.3319-5.2812 2.375 0.60138-3.8468 1.2506-7.596 1.9375-11.125-0.37444-0.3618-0.77134-0.5308-1.1875-0.5zm-223.56 0.0313c-1.5822-0.0926-3.4412 2.6504-5.3438 6.9063-3.8457 22.64-5.8658 50.637 3.5625 70.469 5.0151 11.746 25.54 41.806 12.469 51.094-3.3571 0.3197-6.7479-0.5452-10.125-0.9062 0.08185 0.3331 0.16983 0.6664 0.25 1 4.9328-0.7245 9.9393 1.3763 14.875 0.9062 13.072-9.2882-7.4537-39.348-12.469-51.094-10.49-22.066-6.8229-54.253-2.2188-77.906-0.31943-0.3087-0.64943-0.4482-1-0.4687zm326.44 0c-1.5822-0.0926-3.4412 2.6504-5.3438 6.9063-3.8457 22.64-5.8658 50.637 3.5625 70.469 5.0151 11.746 25.54 41.806 12.469 51.094-3.3571 0.3197-6.7479-0.5452-10.125-0.9062 0.08185 0.3331 0.16983 0.6664 0.25 1 4.9328-0.7245 9.9393 1.3763 14.875 0.9062 13.072-9.2882-7.4537-39.348-12.469-51.094-10.49-22.066-6.8229-54.253-2.2188-77.906-0.31943-0.3087-0.64942-0.4482-1-0.4687zm-389.53 1.8125c-0.75239 0.8436-1.5732 1.9016-2.4062 3.0938-8.0595 21.753-15.508 49.514-9.7188 71.125 2.7933 12.405 17.404 45.436 3.1875 52.406 1.5792 0.5097 3.1726 0.9505 4.8125 1.0938 4.3281-2.0151 6.0548-6.3788 6.2812-11.844-6.1486-26.202-15.571-51.886-12.531-82.281 1.8485-9.1842 6.0119-22.917 10.375-33.594zm263.41 119.31c-0.38521 3.0262-1.6539 5.5657-4.1562 7.3437-3.3571 0.3197-6.7479-0.5452-10.125-0.9062 0.08185 0.3331 0.16983 0.6664 0.25 1 4.9328-0.7245 9.9393 1.3763 14.875 0.9062 1.418-1.0075 2.4356-2.2721 3.125-3.7187-1.207-0.3106-2.4345-0.5187-3.6875-0.5625-0.07605-1.3613-0.17669-2.7035-0.28125-4.0625zm18.5 3.4375c-0.93876 1.6814-2.2753 3.024-4.1562 3.9062 1.5909 0.5038 3.1903 0.9233 4.8438 1.0626 1.1818-0.5306 2.1399-1.2399 2.9375-2.0938-0.96017-0.0325-1.9193-0.0154-2.875 0.125-0.2405-1.0007-0.49498-2.0034-0.75-3zm18.344 0.9688c-0.66534 1.124-1.5588 2.1132-2.7188 2.9374-3.3571 0.3197-6.7479-0.5452-10.125-0.9062 0.08278 0.3337 0.16983 0.6664 0.25 1 4.9328-0.7245 9.9393 1.3763 14.875 0.9062 0.98385-0.6991 1.7824-1.5194 2.4062-2.4374-1.5599-0.5324-3.1066-1.0897-4.6875-1.5zm-276.22 0.3437c-0.78251 1.028-1.78 1.914-3 2.6563-4.0435 0.1606-8.039-1.0942-12.062-1.6563l0.15625 0.7813c5.6701-0.5034 11.247 2.0998 16.906 1.875 0.94248-0.5735 1.7571-1.2246 2.4375-1.9688-1.49-0.498-2.9668-1.1032-4.4375-1.6875zm-42.594 0.0313c5.6e-4 0.0103-5.6e-4 0.0208 0 0.0312h0.1875c-0.05949-0.0187-0.12796-0.0129-0.1875-0.0312zm287.25 0.25c5.9e-4 0.0104-5.8e-4 0.0208 0 0.0312h0.1875c-0.06042-0.0187-0.12703-0.0129-0.1875-0.0312z" fill="#2e3436" opacity=".5"/>
  <path d="m416.49 385.56h62.932v188.09h-62.932z" opacity=".5"/>
  <path d="m610.62873,341.56731-2.59375,4.375c.39319.03445.78159.08486 1.15625.1875l1.1875-1.96875 .25-2.59375zm-10.4375,1.03125 2.1875,5.5c-.44104.24147-.85436.53589-1.21875.875l.96875-.03125c.57673-.9468 1.40023-1.74757 2.375-2.28125v-.03125l-4.3125-4.03125zm19.96875,6.4375-.21875.03125-6.125,3.875c-.00353.0313.00426.06262 0,.09375l6.34375-4zm-21.28125,1.375-6.46875.09375 6.78125,2.0625c-.06158.35382-.09375.72238-.09375,1.09375 1e-005,1.66815.66096,3.15204 1.71875,4.28125l-2.625,4 3.15625-3.46875c.06725.05642.14907.10253.21875.15625l1.375-2.09375c-1.05779-1.12921-1.71876-2.64434-1.71875-4.3125 0-.37137.03216-.73992.09375-1.09375l-2.4375-.71875zm13.0625,6.34375c-.60789.59518-1.34862,1.06291-2.15625,1.375v.0625l.03125-.03125 8.9375,1.21875-3.375-2.15625-3.4375-.46875zm-8.46875.3125-1.625,1.78125c.67657.46485 1.45243.82714 2.28125,1l2.65625,7.53125 .625-5.625-1.1875-3.34375c-1.03603-.21607-1.96803-.68765-2.75-1.34375z"/>
  <g transform="translate(71,292.5)">
   <path d="m589.73 36.719-386.78 13.75-55.062-2.625 2.0312 16.062 26.438-1.8438-25.5 5.1562 1.7812 11.531-2.8125 47.062 359.88-10.062 82-1.0625-0.28125-11.438c-27.899-2.7158-29.413-0.74257-1.3125-6.125l-0.375-60.406zm-48.406 12.688-0.75 7.625c0.42859 0.42859 0.77077 0.90068 1.0625 1.4375l9.2188-1.5938-8.4688 5.3125c-0.01681 0.14905-0.03547 0.29176-0.0625 0.4375l7.1562 4.5938-8.9688-1.2188c-0.60789 0.59518-1.3174 1.0629-2.125 1.375l-0.90625 7.875-2.6562-7.5625c-1.036-0.21607-1.9993-0.68763-2.7812-1.3438l-3.1562 3.4375 2.625-4c-1.0578-1.1292-1.7187-2.6131-1.7188-4.2812 0-0.37137 0.03218-0.73991 0.09375-1.0938l-6.7812-2.0625 7.625-0.125c0.57673-0.9468 1.369-1.7476 2.3438-2.2812l-2.1875-5.5 5.0625 4.75c0.0544-0.00139 0.10153-0.03124 0.15625-0.03125 0.57828 0 1.124 0.10418 1.6562 0.25l3.5625-6zm-44.344 36.094 7.625 5.25 2.2812-4.4375 2.1875 8.9688 3.9688-2-5.0938 8.6562 1.5 2.625-5.9688-0.875c-0.67199 0.22928-1.4069 0.34376-2.1562 0.34375-0.2372 0-0.45668-0.00694-0.6875-0.03125l1.6875 3.875-3.3125-4.25c-1.1319-0.42676-2.1348-1.1631-2.875-2.0938l-2.625 2.7812 1.4062-5.2188c-0.13694-0.53079-0.21877-1.1141-0.21875-1.6875 2e-5 -1.1248 0.28665-2.1652 0.78125-3.0938l-3.8125-1.3438 7.0312-2.875-1.7188-4.5938z" fill="#8f5902"/>
   <path d="m460.59 41.312-9.1562 0.3125c8.0962 1.0328 16.198 2.0452 24.281 2.9375 21.61 1.1198 43.376 3.4473 65.188 5.5938l0.25-0.4375c-26.903-2.2465-53.741-5.2316-80.562-8.4062zm-108.38 3.8438-8.5 0.3125c59.164 6.1339 118.43 11.476 177.94 12.5 3.0902-0.02406 6.182-0.03211 9.2812-0.03125 0.05817-0.0859 0.12563-0.16698 0.1875-0.25-47.311-0.76464-94.632-4.2081-141.62-8.5625-12.396-0.96678-24.834-2.4082-37.281-3.9688zm-197.88 3c-2.0471 0.70094-4.088 1.416-6.125 2.1562l0.15625 1.125c3.3203-1.0597 6.6619-2.0897 10-3.0938l-4.0312-0.1875zm21.812 1.0312c-9.0862 2.4606-18.134 5.0851-27.062 8.0312l0.25 2c10.258-3.4633 20.586-6.8406 31-9.8438l-4.1875-0.1875zm365.16 0.5625-0.03125 0.4375c16.182 1.591 32.389 3.09 48.562 3.9375v-1.2812c-16.184-0.67047-32.375-1.7464-48.531-3.0938zm48.375 7.4062c-13.437 0.49104-26.889 0.70268-40.344 0.6875l-0.28125 0.15625c13.583 0.11722 27.194 0.31761 40.812 0.21875v-1.0625h-0.1875zm-48.469 0.625c0.03977 0.05569 0.0557 0.13031 0.09375 0.1875 1.051 0.00655 2.1046-0.0078 3.1562 0h0.0625l0.90625-0.15625-4.2188-0.03125zm-358.5 8.3125c-10.311 0.02979-21.723 0.83438-31.844 1.1875l0.03125 0.0625c78.72-2.4134 157.23 10.368 235.84 13.312 4.1045-0.02113 8.2084-0.07859 12.312-0.125-68.027-1.9944-135.59-13.042-203.72-13.906-3.8596-0.39219-8.1392-0.54421-12.625-0.53125zm407.25 5.875c-17.457 0.28231-34.884 1.0282-52.312 1.9688l-0.15625 1.3125-0.4375-1.2812c-34.882 1.8915-69.721 4.5523-104.62 5.9375 52.526-1.3496 105.03-4.2486 157.53-6.75v-1.1875zm-157.53 7.9375c-11.007 0.28283-21.99 0.49852-33 0.625 2.0691 0.05965 4.1174 0.11397 6.1875 0.15625 8.9358-0.15027 17.885-0.42698 26.812-0.78125zm-173.06 8.1562c-30.451 0.10308-60.904 1.2646-91.25 3.25 21.76-1.1187 43.568-1.556 65.344-1.5625 43.865-3.3941 87.658-0.6572 131.31 3.875-39.49-1.5935-78.966-3.6358-118.34 1-28.703 6.3477-57.971 1.2296-86.938 3.625-2.6293 1.2917-5.4154 2.5553-8.25 3.7812l-0.15625 2.875c4.5405-1.8574 8.9264-4.0416 13.094-6.5625 33.126 1.6141 66.319-0.53359 99.25-4.125 35.436-1.325 70.895-0.80134 106.38-0.0625 22.612 2.4174 45.167 5.2577 67.688 7.9688 51.026 6.5234 102.76 9.6255 154.06 5.8125l-0.0625-1.625c-29.762 1.8576-59.62 2.3457-89.375 1.0938l0.21875 0.46875-0.375-0.5c-32.816-1.3875-65.512-4.852-97.875-10.938-5.2898-0.66642-10.576-1.325-15.875-1.9062 35.671 0.7648 71.349 1.4488 107 0.375 0.0836-0.20069 0.17929-0.40233 0.28125-0.59375l-1.9375-0.6875c-20.88 0.59264-41.757 0.90497-62.625 1-14.692 0.42863-29.397 0.21805-44.094-0.21875-42.311-4.5831-84.892-6.4879-127.47-6.3438zm330.69 0.25c-27.11 2.3413-54.292 3.873-81.5 4.8438l0.3125 1.2812c0.70854-0.03081 1.4165-0.09262 2.125-0.125l2.0625-1.0312-0.5625 0.96875c3.6549-0.17286 7.3145-0.34515 10.969-0.5625 21.763-2.8894 44.278-2.8157 66.625-3.6562l-0.03125-1.7188zm-422.62 3.0312c-5.197 0.27063-10.402 0.58576-15.594 0.9375v0.1875c5.1971-0.39017 10.39-0.78239 15.594-1.125zm116.84 11.781c-1.5139 0.01004-3.0166 0.03473-4.5312 0.0625-25.732 2.8168-51.216 8.7837-77.219 10-18.244-0.45807-35.378 5.0713-52.562 10.375l-0.0625 1.4688c13.497-4.355 26.946-9.0941 41-10.406 33.082 1.3362 64.872-10.041 97.75-11.125 100.64 8.1808 202.11 16.931 303 8.6562l-0.03125-1.4062c-55.508 4.7267-111.41 5.2918-167 1.9375-46.868-1.8872-93.413-9.8738-140.34-9.5625z" fill="#e9b96e"/>
   <path d="m463.35 40.312-9.1562 0.30194c8.0962 0.99794 16.198 1.9761 24.281 2.8383 21.61 1.082 43.376 3.3308 65.188 5.4048l0.25-0.42272c-26.903-2.1706-53.741-5.0548-80.562-8.1222zm-108.38 3.7139-8.5 0.30194c59.164 5.9266 118.43 11.088 177.94 12.078 3.0902-0.02325 6.182-0.03103 9.2812-0.03019 0.05817-0.08301 0.12563-0.16134 0.1875-0.24156-47.311-0.73881-94.632-4.0659-141.62-8.2732-12.396-0.93412-24.834-2.3269-37.281-3.8347zm-197.88 2.8986c-2.0471 0.67726-4.088 1.3682-6.125 2.0834l0.15625 1.087c3.3203-1.0239 6.6619-2.0191 10-2.9892l-4.0312-0.18117zm21.812 0.99641c-9.0862 2.3775-18.134 4.9133-27.062 7.7599l0.25 1.9324c10.258-3.3463 20.586-6.6094 31-9.5112l-4.1875-0.18117zm365.16 0.5435-0.03125 0.42272c16.182 1.5372 32.389 2.9856 48.562 3.8045v-1.238c-16.184-0.64783-32.375-1.6874-48.531-2.9892zm48.375 7.156c-13.437 0.47445-26.889 0.67894-40.344 0.66427l-0.28125 0.15097c13.583 0.11327 27.194 0.30689 40.812 0.21136v-1.0266h-0.1875zm-48.469 0.60389c0.03977 0.0538 0.0557 0.1259 0.09375 0.18116 1.051 0.00633 2.1046-0.00754 3.1562 0h0.0625l0.90625-0.15097-4.2188-0.03019zm-358.5 8.0317c-10.311 0.02878-21.723 0.80619-31.844 1.1474l0.03125 0.06039c78.72-2.3319 157.23 10.017 235.84 12.863 4.1045-0.02042 8.2084-0.07594 12.312-0.12078-68.027-1.927-135.59-12.601-203.72-13.436-3.8596-0.37894-8.1392-0.52582-12.625-0.5133zm407.25 5.6765c-17.457 0.27278-34.884 0.99343-52.312 1.9022l-0.15625 1.2682-0.4375-1.238c-34.882 1.8276-69.721 4.3985-104.62 5.7369 52.526-1.304 105.03-4.105 157.53-6.522v-1.1474zm-157.53 7.6693c-11.007 0.27328-21.99 0.48168-33 0.60389 2.0691 0.05763 4.1174 0.11012 6.1875 0.15097 8.9358-0.14519 17.885-0.41256 26.812-0.75486zm-173.06 7.8807c-30.451 0.09959-60.904 1.2219-91.25 3.1402 21.76-1.0809 43.568-1.5035 65.344-1.5097 43.865-3.2795 87.658-0.635 131.31 3.7441-39.49-1.5396-78.966-3.513-118.34 0.96621-28.703 6.1332-57.971 1.188-86.938 3.5025-2.6293 1.248-5.4154 2.469-8.25 3.6535l-0.15625 2.7779c4.5405-1.7946 8.9264-3.905 13.094-6.3408 33.126 1.5595 66.319-0.51557 99.25-3.9856 35.436-1.2803 70.895-0.77427 106.38-0.06039 22.612 2.3357 45.167 5.0801 67.688 7.6995 51.026 6.303 102.76 9.3004 154.06 5.6161l-0.0625-1.5701c-29.762 1.7948-59.62 2.2665-89.375 1.0568l0.21875 0.45291-0.375-0.48311c-32.816-1.3406-65.512-4.688-97.875-10.568-5.2898-0.64391-10.576-1.2802-15.875-1.8418 35.671 0.73897 71.349 1.3998 107 0.36233 0.0836-0.19391 0.17929-0.38874 0.28125-0.57369l-1.9375-0.66427c-20.88 0.57261-41.757 0.87439-62.625 0.96621-14.692 0.41415-29.397 0.21068-44.094-0.21136-42.311-4.4283-84.892-6.2687-127.47-6.1294zm330.69 0.24155c-27.11 2.2622-54.292 3.7421-81.5 4.6801l0.3125 1.238c0.70854-0.02977 1.4165-0.08949 2.125-0.12078l2.0625-0.99641-0.5625 0.93602c3.6549-0.16702 7.3145-0.33349 10.969-0.54349 21.763-2.7918 44.278-2.7205 66.625-3.5327l-0.03125-1.6607zm-422.62 2.9288c-5.197 0.26148-10.402 0.56597-15.594 0.90583v0.18116c5.1971-0.37699 10.39-0.75595 15.594-1.087zm116.84 11.383c-1.5139 0.0097-3.0166 0.03356-4.5312 0.06039-25.732 2.7217-51.216 8.487-77.219 9.6622-18.244-0.44259-35.378 4.8999-52.562 10.024l-0.0625 1.4191c13.497-4.2078 26.946-8.7869 41-10.055 33.082 1.291 64.872-9.7016 97.75-10.749 100.64 7.9044 202.11 16.359 303 8.3638l-0.03125-1.3587c-55.508 4.567-111.41 5.113-167 1.872-46.868-1.8235-93.413-9.5402-140.34-9.2394z" fill="#2e3436"/>
  </g>
  <path d="m567.884,376.36711 1.85361,4.90814-7.51886,3.08064 4.07271,1.4359c-.52844.99203-.83542,2.11386-.83542,3.3156 0,.6126.08865,1.20819.23496,1.77529l-1.48811,5.58693 2.79347-2.95011c.16733.21039.35834.41109.54825.60046l.86153-3.23728c-.14631-.5671-.23496-1.16269-.23496-1.77529 1e-005-1.20174.30699-2.32357.83543-3.3156l-4.07272-1.4359 7.51886-3.08064-.91375-2.40186-3.655-2.50628zm10.5995.88764-1.72307,3.34171 2.01025,1.38368 .57436-1.14871-.86154-3.57668zm6.579,7.44054-1.8275.91375 .28718,1.20092 .41771-.20885 1.12261-1.90582zm-15.351,8.82421-1.27925,1.35757c.49335.34898 1.04352.6447 1.61864.86154l3.55057,4.54264-1.80139-4.12493c.24658.02598.47757.02611.731.02611 .19146,0 .38592-.01227.57436-.02611l-.33939-.41771c-1.20934-.45595-2.26369-1.22484-3.05454-2.21911zm7.83214,2.29743c-.31067.106-.63565.20135-.96596.26107l4.64707.65268-.23496-.41772-3.44615-.49603z"/>
  <g transform="translate(2.1213 246.78)">
   <path d="m216.46 174.61c129.63-3.2674 262.32-4.0222 391.85-10.877l50.009-0.26023 4.7547 29.89c-0.64363-13.31-35.499 5.0846-0.6444 11.109l-2.1448 36.976-114.89 5.8968-326.97 5.2408 1.9155-43.062c12.032-1.7065 9.8826-6.5643-2.0672-13.6l-1.8138-21.313z" fill="#8f5902"/>
   <path d="m657.1 165.3c-24.065 2.6157-47.908 6.8618-71.844 10.406 24.224-1.3393 47.789-7.9087 71.969-9.6562l-0.125-0.75zm-77.938 11.875-3.0929 0.48516 3.0929-0.48516zm-3.7188 0.59375c-58.792 4.8672-117.53 11.86-176.53 13.135-55.541-2.5157-111.03-6.6055-166.64-7.1157-8.3895-0.82816-20.915-0.35241-4.9668 0.17097 53.064 1.9424 106.15 3.5869 159.11 7.4275 48.795 1.1062 97.303-5.5643 145.92-8.7044 14.404-1.3161 28.788-2.8793 43.109-4.9133zm85.406 11.219c-6.5922-0.74-1.7828 2.4282 0 0zm-7.125 0.65625c-77.196 6.8249-154.67 9.5748-232.14 10.493-7.7495 0.20122-37.539 1.4155-16.23 0.87802 82.081-1.7019 164.4-2.5292 246.12-10.578l2.2437-0.79323zm-363.22 7.7812c-22.339 0.45585-44.659 1.7445-66.906 3.8125 22.453-0.5616 44.832-3.2456 67.293-3.4647l-0.38687-0.3478zm4.0312 0.53125c14.052 1.4136 44.878 3.2199 48.36 2.8654-16.121-0.93839-32.206-2.5807-48.36-2.8654zm92.062 2.9375c-6.5577-0.20065-32.588 0.47765-12.851 0.59795 1.0824 0.13793 25.394-0.37298 12.851-0.59795zm-34.406 0.1875 3.4502 0.20295-3.4502-0.20295zm-125.44 5.9062c35.017 4.5464 70.414 6.2007 105.61 9.2381 72.125 5.367 144.39 9.4639 216.73 9.8244-107.67-1.5414-215.1-9.8579-322.34-19.062zm229.28 0.3125c-3.5002 0.44818 9.553 0.05217 0 0zm3.4375 0.25c6.9226 0.29878 37.775 4.925 17.36 3.9715-13.209-0.30946-26.456-0.34908-39.599-1.8639 8.3706-1.5648 21.702-2.9184 5.4627-1.8629-12.492 1.3294-25.012 2.8042-37.595 2.685 38.692 1.3185 77.758-0.97001 116.01 6.1362 43.105 2.006 87.324-4.6519 129.27 8.5337 19.409 2.7907-14.376-5.2179-21.14-5.2759-16.817-5.485 12.388-5.3341 17.822-6.6553 18.472-2.7057-9.7399 0.40688-15.606 1.2612-37.065 4.0155-74.282-1.9293-111.44-1.4164-20.291-0.15678-40.276-4.7497-60.545-5.5132zm138.62 9.4062c-2.2618-1.6923-0.63446 1.5717 0 0zm-176.53-6.75c3.1123 0.05553-3.1123 0.05551 0 0zm-16.312 0.03125-0.5 0.0625 0.5-0.0625zm0.09375 0.46875h0.34375-0.34375zm234.94 1.875c1.7011 0.11927 0.78366 0.05235 0 0zm-137.31 0.28125c22.043 1.0849 44.133 1.0543 66.156 2.5625-21.995 2.7061-44.451 1.9855-66.156-2.5625zm80.625 2.5938c5.0515 0.24673-4.518 0.12818 0 0zm15.188 0.90625c6.9167-1.8995 0.54483 2.3201 0 0zm-34.312 9.5938c-8.3406-0.11661-15.916 0.45485-3.1389 0.45679 32.782 0.60709 65.535 2.4083 98.326 2.5432-31.751-0.27098-63.429-3.0658-95.188-3zm-239.03 2.0312c-12.916 0.51811-40.894-0.29234-44.252 0.43537 63.646-1.6221 127.1 4.6962 190.35 10.742 31.767 1.7947 63.598 1.3769 95.399 1.1665-26.963-1.1355-54.073 0.86686-81.067-1.1236-53.565-2.5634-106.73-11.376-160.43-11.22zm241.5 12.344c-2.6672 0.98591 2.7273-0.31605 0 0zm-0.71875 0.375c-21.678 5.78-44.293 5.2221-66.531 5.7812 22.218-0.30367 45.172 1.7054 66.531-5.7812zm-313-12.656c-6.9532 0.32598-27.492 0.06883-25.179 0.62966 8.8413-0.03612 28.545 0.36878 30.883-0.5638-1.9013-0.03138-3.8027-0.04901-5.7042-0.06586zm-16.375 12.406c-5.8766-0.9776-26.224 4.7435-10.503 1.8059 7.5873-0.50533 29.708-1.3099 10.503-1.8059zm12.562 1.125c30.207 9.1609 62.074 5.5522 93.125 5.8125-29.023-0.91982-58.431 2.2383-86.974-4.7513-2.0496-0.35822-4.0996-0.71471-6.1512-1.0612zm-1.125 0.21875 0.4375 0.125-0.4375-0.125zm247.31 4.75c-50.175 1.9072-100.4 1.4498-150.59 0.875 50.183 1.3464 100.46 2.3178 150.59-0.875z" fill="#e9b96e"/>
   <path d="m657.1 165.3c-24.065 2.6157-47.908 6.8618-71.844 10.406 24.224-1.3393 47.789-7.9087 71.969-9.6562l-0.125-0.75zm-77.938 11.875-3.0929 0.48516 3.0929-0.48516zm-3.7188 0.59375c-58.792 4.8672-117.53 11.86-176.53 13.135-55.541-2.5157-111.03-6.6055-166.64-7.1157-8.3895-0.82816-20.915-0.35241-4.9668 0.17097 53.064 1.9424 106.15 3.5869 159.11 7.4275 48.795 1.1062 97.303-5.5643 145.92-8.7044 14.404-1.3161 28.788-2.8793 43.109-4.9133zm85.406 11.219c-6.5922-0.74-1.7828 2.4282 0 0zm-7.125 0.65625c-77.196 6.8249-154.67 9.5748-232.14 10.493-7.7495 0.20122-37.539 1.4155-16.23 0.87802 82.081-1.7019 164.4-2.5292 246.12-10.578l2.2437-0.79323zm-363.22 7.7812c-22.339 0.45585-44.659 1.7445-66.906 3.8125 22.453-0.5616 44.832-3.2456 67.293-3.4647l-0.38687-0.3478zm4.0312 0.53125c14.052 1.4136 44.878 3.2199 48.36 2.8654-16.121-0.93839-32.206-2.5807-48.36-2.8654zm92.062 2.9375c-6.5577-0.20065-32.588 0.47765-12.851 0.59795 1.0824 0.13793 25.394-0.37298 12.851-0.59795zm-34.406 0.1875 3.4502 0.20295-3.4502-0.20295zm-125.44 5.9062c35.017 4.5464 70.414 6.2007 105.61 9.2381 72.125 5.367 144.39 9.4639 216.73 9.8244-107.67-1.5414-215.1-9.8579-322.34-19.062zm229.28 0.3125c-3.5002 0.44818 9.553 0.05217 0 0zm3.4375 0.25c6.9226 0.29878 37.775 4.925 17.36 3.9715-13.209-0.30946-26.456-0.34908-39.599-1.8639 8.3706-1.5648 21.702-2.9184 5.4627-1.8629-12.492 1.3294-25.012 2.8042-37.595 2.685 38.692 1.3185 77.758-0.97001 116.01 6.1362 43.105 2.006 87.324-4.6519 129.27 8.5337 19.409 2.7907-14.376-5.2179-21.14-5.2759-16.817-5.485 12.388-5.3341 17.822-6.6553 18.472-2.7057-9.7399 0.40688-15.606 1.2612-37.065 4.0155-74.282-1.9293-111.44-1.4164-20.291-0.15678-40.276-4.7497-60.545-5.5132zm138.62 9.4062c-2.2618-1.6923-0.63446 1.5717 0 0zm-176.53-6.75c3.1123 0.05553-3.1123 0.05551 0 0zm-16.312 0.03125-0.5 0.0625 0.5-0.0625zm0.09375 0.46875h0.34375-0.34375zm234.94 1.875c1.7011 0.11927 0.78366 0.05235 0 0zm-137.31 0.28125c22.043 1.0849 44.133 1.0543 66.156 2.5625-21.995 2.7061-44.451 1.9855-66.156-2.5625zm80.625 2.5938c5.0515 0.24673-4.518 0.12818 0 0zm15.188 0.90625c6.9167-1.8995 0.54483 2.3201 0 0zm-34.312 9.5938c-8.3406-0.11661-15.916 0.45485-3.1389 0.45679 32.782 0.60709 65.535 2.4083 98.326 2.5432-31.751-0.27098-63.429-3.0658-95.188-3zm-239.03 2.0312c-12.916 0.51811-40.894-0.29234-44.252 0.43537 63.646-1.6221 127.1 4.6962 190.35 10.742 31.767 1.7947 63.598 1.3769 95.399 1.1665-26.963-1.1355-54.073 0.86686-81.067-1.1236-53.565-2.5634-106.73-11.376-160.43-11.22zm241.5 12.344c-2.6672 0.98591 2.7273-0.31605 0 0zm-0.71875 0.375c-21.678 5.78-44.293 5.2221-66.531 5.7812 22.218-0.30367 45.172 1.7054 66.531-5.7812zm-313-12.656c-6.9532 0.32598-27.492 0.06883-25.179 0.62966 8.8413-0.03612 28.545 0.36878 30.883-0.5638-1.9013-0.03138-3.8027-0.04901-5.7042-0.06586zm-16.375 12.406c-5.8766-0.9776-26.224 4.7435-10.503 1.8059 7.5873-0.50533 29.708-1.3099 10.503-1.8059zm12.562 1.125c30.207 9.1609 62.074 5.5522 93.125 5.8125-29.023-0.91982-58.431 2.2383-86.974-4.7513-2.0496-0.35822-4.0996-0.71471-6.1512-1.0612zm-1.125 0.21875 0.4375 0.125-0.4375-0.125zm247.31 4.75c-50.175 1.9072-100.4 1.4498-150.59 0.875 50.183 1.3464 100.46 2.3178 150.59-0.875z" fill="#e9b96e"/>
   <path d="m655.68 163.88c-24.065 2.6157-47.908 6.8618-71.844 10.406 24.224-1.3393 47.789-7.9087 71.969-9.6562l-0.125-0.75zm-77.938 11.875-3.0929 0.48516 3.0929-0.48516zm-3.7188 0.59375c-58.792 4.8672-117.53 11.86-176.53 13.135-55.541-2.5157-111.03-6.6055-166.64-7.1157-8.3895-0.82816-20.915-0.35241-4.9668 0.17097 53.064 1.9424 106.15 3.5869 159.11 7.4275 48.795 1.1062 97.303-5.5643 145.92-8.7044 14.404-1.3161 28.788-2.8793 43.109-4.9133zm85.406 11.219c-6.5922-0.74-1.7828 2.4282 0 0zm-7.125 0.65625c-77.196 6.8249-154.67 9.5748-232.14 10.493-7.7495 0.20122-37.539 1.4155-16.23 0.87802 82.081-1.7019 164.4-2.5292 246.12-10.578l2.2437-0.79323zm-363.22 7.7812c-22.339 0.45585-44.659 1.7445-66.906 3.8125 22.453-0.5616 44.832-3.2456 67.293-3.4647l-0.38687-0.3478zm4.0312 0.53125c14.052 1.4136 44.878 3.2199 48.36 2.8654-16.121-0.93839-32.206-2.5807-48.36-2.8654zm92.062 2.9375c-6.5577-0.20065-32.588 0.47765-12.851 0.59795 1.0824 0.13793 25.394-0.37298 12.851-0.59795zm-34.406 0.1875 3.4502 0.20295-3.4502-0.20295zm-125.44 5.9062c35.017 4.5464 70.414 6.2007 105.61 9.2381 72.125 5.367 144.39 9.4639 216.73 9.8244-107.67-1.5414-215.1-9.8579-322.34-19.062zm229.28 0.3125c-3.5002 0.44818 9.553 0.05217 0 0zm3.4375 0.25c6.9226 0.29878 37.775 4.925 17.36 3.9715-13.209-0.30946-26.456-0.34908-39.599-1.8639 8.3706-1.5648 21.702-2.9184 5.4627-1.8629-12.492 1.3294-25.012 2.8042-37.595 2.685 38.692 1.3185 77.758-0.97001 116.01 6.1362 43.105 2.006 87.324-4.6519 129.27 8.5337 19.409 2.7907-14.376-5.2179-21.14-5.2759-16.817-5.485 12.388-5.3341 17.822-6.6553 18.472-2.7057-9.7399 0.40688-15.606 1.2612-37.065 4.0155-74.282-1.9293-111.44-1.4164-20.291-0.15678-40.276-4.7497-60.545-5.5132zm138.62 9.4062c-2.2618-1.6923-0.63446 1.5717 0 0zm-176.53-6.75c3.1123 0.05553-3.1123 0.05551 0 0zm-16.312 0.03125-0.5 0.0625 0.5-0.0625zm0.09375 0.46875h0.34375-0.34375zm234.94 1.875c1.7011 0.11927 0.78366 0.05235 0 0zm-137.31 0.28125c22.043 1.0849 44.133 1.0543 66.156 2.5625-21.995 2.7061-44.451 1.9855-66.156-2.5625zm80.625 2.5938c5.0515 0.24673-4.518 0.12818 0 0zm15.188 0.90625c6.9167-1.8995 0.54483 2.3201 0 0zm-34.312 9.5938c-8.3406-0.11661-15.916 0.45485-3.1389 0.45679 32.782 0.60709 65.535 2.4083 98.326 2.5432-31.751-0.27098-63.429-3.0658-95.188-3zm-239.03 2.0312c-12.916 0.51811-40.894-0.29234-44.252 0.43537 63.646-1.6221 127.1 4.6962 190.35 10.742 31.767 1.7947 63.598 1.3769 95.399 1.1665-26.963-1.1355-54.073 0.86686-81.067-1.1236-53.565-2.5634-106.73-11.376-160.43-11.22zm241.5 12.344c-2.6672 0.98591 2.7273-0.31605 0 0zm-0.71875 0.375c-21.678 5.78-44.293 5.2221-66.531 5.7812 22.218-0.30367 45.172 1.7054 66.531-5.7812zm-313-12.656c-6.9532 0.32598-27.492 0.06883-25.179 0.62966 8.8413-0.03612 28.545 0.36878 30.883-0.5638-1.9013-0.03138-3.8027-0.04901-5.7042-0.06586zm-16.375 12.406c-5.8766-0.9776-26.224 4.7435-10.503 1.8059 7.5873-0.50533 29.708-1.3099 10.503-1.8059zm12.562 1.125c30.207 9.1609 62.074 5.5522 93.125 5.8125-29.023-0.91982-58.431 2.2383-86.974-4.7513-2.0496-0.35822-4.0996-0.71471-6.1512-1.0612zm-1.125 0.21875 0.4375 0.125-0.4375-0.125zm247.31 4.75c-50.175 1.9072-100.4 1.4498-150.59 0.875 50.183 1.3464 100.46 2.3178 150.59-0.875z" opacity=".7"/>
  </g>
  <g transform="translate(19,315)">
   <path d="m198.2 188.98 345.97-5.7195 95.894-5.4181 2.0924 34.573-14.997 3.9444 13.026 7.9983 1.6418 23.462-441.86 11.138 0.23511-9.9854 22.088-3.5494-21.798 0.55896 0.44141-28.062-1.4164-14.465 27.602-1.1698-27.928-2.8421-0.98705-10.463z" fill="#8f5902"/>
   <path d="m629.81 185.75c-28.78 0.22847-55.971 19.578-85.438 13.156-29.822-3.6598-60.829 7.5282-89.625-4.0938-17.96-4.318-36.76-2.2933-54.5-7.1562l-5.0938 0.09375c9.9162 2.3151 19.828 4.497 30.062 4.3438 17.181-1.8768 46.137 10.641 55.062 9.1875-28.747 5.3338-58.236 10.409-87.312 4.3125-22.676-3.8502-46.066-10.83-68.906-3.9375-15.78 4.5386-31.654 9.4853-47.938 9.5938 0.66676 0.04912 1.3333 0.10706 2 0.15625 24.756 2.0002 46.734-13.262 71.594-11.906 21.192 1.0206 41.563 8.7824 62.969 9 30.533 3.8008 59.872-8.4132 90.219-7.5312 24.403 2.734 48.956 0.09852 73.469 0.125-1.9793-0.15156-3.9878-0.34803-5.9688-0.65625 23.752-4.5181 47.479-18.4 72.188-11.969l-0.09375-1.4688c-4.2696-0.9163-8.4967-1.2833-12.688-1.25zm-53.438 15.344c3.6565 0.27998 7.2849 0.34746 10.938 0.21875-3.6447-0.14817-7.2899-0.21481-10.938-0.21875zm10.938 0.21875c1.7648 0.07175 3.5486 0.16648 5.3125 0.28125 11.062-0.40865 42.94-4.5682 40.75-4.5-15.376 0.25051-30.713 3.6778-46.062 4.2188zm-298.69-11.812-5.0625 0.09375c-3.341 1.0449-6.6636 2.1284-9.9688 3.25-24.064 3.6576-48.091 0.60807-72.125-1.9062l-1.25 0.03125 0.0625 0.65625c27.336 3.0305 54.858 5.6478 81.875 0.25 2.1418-0.8284 4.297-1.6237 6.4688-2.375zm244.75 8.875c0.168-0.00517 0.41756 0.00149 0.78125 0.03125 0.39541 0.27444 0.21458 0.33364-0.09375 0.3125 9.2254 0.98671 33.762 1.9226 11.281 2.5938-14.573 0.80233-36.501 0.57337-46.5-1.125 11.413-0.63058 22.833-1.0116 34.25-1.5625l0.75 0.0625c-0.5083-0.08615-1.1011-0.29305-0.46875-0.3125zm-6.4062 3.6562c1.4434 0.01727-1.5688 0.20879 0 0zm-325.34 4.3125 0.0625 0.59375c20.729 0.61912 41.43 1.9209 62.125 3.4062-1.376-0.22005-2.7418-0.47268-4.125-0.78125-19.318-1.3702-38.686-2.6744-58.062-3.2188zm62.344 4.0312c4.0325 0.63543 8.0534 0.89541 12.031 0.875-4.0094-0.29533-8.0205-0.58698-12.031-0.875zm294.5 2.75c-3.3581 0.00152-6.7045 0.02404-10.062 0.03125-5.0526 0.01153-10.104 0.01484-15.156 0.0625-3.3064 0.04074-6.6146 0.05317-9.9062 0.40625-2.3286 0.30417-4.6464 0.70781-6.875 1.4688-1.9157 0.64771-3.9051 1.2085-5.6562 2.25-1.6032 1.0081-3.1807 2.0522-4.7812 3.0625-1.4095 0.96989-2.833 1.9221-4.1875 2.9688-1.2356 0.83325-2.4634 1.6842-3.75 2.4375-1.6012 0.78281-3.2139 1.5099-4.875 2.1562-2.2007 0.91204-4.4412 1.7387-6.6875 2.5312-1.9766 0.68678-3.9426 1.4426-6 1.8438-2.1614 0.33601-4.3608 0.41463-6.5312 0.6875 0.58092 0.02458 1.1748 0.00849 1.75 0.09375 0.02101 0.00311 0.0184 0.02873 0.03125 0.03125-0.20168 0.00915-0.99388-0.03001-1.3125-0.03125-1.8722-0.00728-3.7529-0.0433-5.625-0.0625-2.8877-0.03553-5.7706-0.06596-8.6562-0.1875-4.4168-0.18168-8.8263-0.50934-13.25-0.375-2.6429 0.17326-5.2809 0.50077-7.9062 0.84375-2.8058 0.13601-5.6054 0.31637-8.4062 0.53125-0.5537 0.03416-1.1504-0.10268-1.6562 0.125-0.39451 0.17756 1.7106 0.00924 1.2812 0.0625-1.9098 0.23689-3.8971-0.27735-5.8125-0.1875-3.2328-0.21559-6.4809-0.51865-9.6562-1.1875-4.6253-1.0243-9.1457-2.4447-13.562-4.1562-6.9666-2.7947-13.826-5.8528-20.875-8.4375-3.6281-1.3583-7.3502-2.467-11.125-3.3438-3.9162-0.97725-7.8731-1.8985-11.875-2.4375-3.2245-0.13474-6.429-0.25327-9.6562-0.1875-2.1047 0.00662-4.208 0.03198-6.3125 0.0625-2.3414 0.03851-4.6934 0.07607-7.0312 0.21875-2.0777 0.14581-4.1297 0.39615-6.1875 0.71875-2.4304 0.22644-4.8814 0.16091-7.3125 0.40625-2.0112 0.19079-4.036 0.43325-5.9375 1.1562-1.831 0.54887-3.6874 1.0077-5.4688 1.7188-2.0082 0.54805-3.975 1.226-6.0625 1.4062-2.3979 0.347-4.7935 0.7647-7.2188 0.875-2.3709 0.22806-4.7367 0.55784-7.125 0.46875-2.4494 0.02062-4.8957 0.03419-7.3438 0.125-2.2044 0.09728-4.4026 0.26467-6.5938 0.53125-0.75174 0.08546-3.0141 0.06196-2.2812 0.25 0.12166 0.03122 0.25062 0.05077 0.375 0.0625-1.5662-0.06731-3.1176-0.12831-1.5 0-2.0621-0.00315-4.1254-0.01568-6.1875-0.03125-2.3179-0.02018-4.6519-0.04821-6.9688-0.125-2.9962-0.10625-5.9811-0.2447-8.9688-0.5-3.0184-0.24806-6.0305-0.47947-9.0625-0.40625-2.7201-0.04201-5.4403-0.08651-8.1562-0.25-4.4939-0.27881-9.0027-0.67075-13.469-1.25-5.3909-0.69704-10.742-1.5734-16.156-2.0312l0.0625 0.6875c4.3862 0.47232 8.7433 1.1796 13.125 1.75 4.467 0.58372 8.9738 0.99456 13.469 1.2812 2.7165 0.16828 5.4354 0.23591 8.1562 0.28125 3.0298-0.05763 6.0453 0.12822 9.0625 0.375 2.9884 0.25781 5.9718 0.42028 8.9688 0.53125 2.3172 0.08057 4.6504 0.10308 6.9688 0.125 2.0622 0.01699 4.1252 0.02776 6.1875 0.03125 3.1197 0.03708 6.2423 0.01352 9.3438-0.34375 2.19-0.26326 4.3906-0.4112 6.5938-0.5 2.4476-0.08346 4.8949-0.10582 7.3438-0.125 2.39 0.08674 4.7518-0.27626 7.125-0.5 2.4278-0.09862 4.8186-0.56628 7.2188-0.90625 2.0904-0.18539 4.048-0.89949 6.0625-1.4375 1.7624-0.7726 3.6816-1.1304 5.5-1.7188 1.8945-0.72487 3.8709-0.91981 5.875-1.0938 2.4311-0.24708 4.8868-0.1291 7.3125-0.40625 2.0534-0.34918 4.1413-0.5534 6.2188-0.6875 2.3374-0.13338 4.6595-0.18307 7-0.21875 2.1044-0.02818 4.208-0.0565 6.3125-0.0625h4.0625c0.36414-2.6e-4 1.4197-0.16233 1.0938 0-0.42198 0.21015-0.93772 0.10406-1.4062 0.15625 4.0036 0.50619 7.9584 1.4468 11.875 2.4062 3.7719 0.87031 7.4609 1.9801 11.094 3.3125 7.0497 2.5787 13.944 5.6053 20.906 8.4062 4.418 1.7276 8.9366 3.168 13.562 4.2188 3.1758 0.68795 6.42 0.99188 9.6562 1.2188 4.0376 0.23133 8.0877 0.29817 12.125 0.03125 2.8-0.222 5.6005-0.43219 8.4062-0.5625 2.4237-0.36289 4.869-0.58396 7.3125-0.75 2.5871 0.22739 5.3207 0.17313 7.9062 0.28125 2.886 0.12386 5.7681 0.18112 8.6562 0.21875 3.6938 0.07132 7.4006 0.05067 11.094-0.03125 2.1681-0.31189 4.3762-0.36223 6.5312-0.75 2.0504-0.45318 4.0217-1.1731 6-1.875 2.2508-0.78963 4.4846-1.6172 6.6875-2.5312 1.6685-0.63779 3.3004-1.407 4.9062-2.1875 1.2584-0.81547 2.5238-1.6375 3.75-2.5 1.3506-1.0501 2.771-2.0103 4.1875-2.9688 1.6066-0.99406 3.1732-2.0346 4.7812-3.0312 1.76-1.003 3.7247-1.5299 5.625-2.1875 2.228-0.74123 4.5511-1.1515 6.875-1.4375 3.292-0.32413 6.6018-0.30551 9.9062-0.34375 5.0523-0.04531 10.104-0.05134 15.156-0.0625 3.358-0.00699 6.7045-0.02986 10.062-0.03125-0.2025 0.04024-0.71619 0.08082-0.84375 0.125 0.00268 0.00862-0.00161 0.02104 0.03125 0.03125 0.76013 0.23617 1.5871 0.23065 2.375 0.34375l2.5312 0.375c2.4327 0.36064 4.8304 0.74721 7.25 1.1875 3.4999 0.75178 7.0853 1.0783 10.625 1.5625 2.9367 0.46592 5.8796 0.80889 8.8438 1.0312 2.3929 0.16864 4.7896 0.23292 7.1875 0.28125 2.0853 0.03696 4.1644 0.05468 6.25 0.0625 3.3968 0.17408 6.7514-0.33275 10.125-0.59375 2.4187-0.16599 4.8518-0.16176 7.25-0.53125 1.9417-0.34093 3.9086-0.53962 5.875-0.65625 2.2028 0.00138 4.3527-0.23694 6.5312-0.53125 1.8862-0.42031 3.7344-0.94442 5.5312-1.6562l-2.9688-0.375c-1.7968 0.67993-3.645 1.2226-5.5312 1.5938-2.1768 0.29154-4.3332 0.47176-6.5312 0.5-1.9679 0.1293-3.9306 0.35082-5.875 0.6875-2.3977 0.3458-4.8368 0.34293-7.25 0.53125-1.3092 0.10471-2.6 0.23855-3.9062 0.375-0.3764 0.03932-1.4915 0.03059-1.125 0.125 0.1403 0.03614 0.2624 0.05164 0.40625 0.0625-1.9394-0.00691-3.8734-0.03085-5.8125-0.0625-2.3969-0.04472-4.7952-0.08872-7.1875-0.25-2.9632-0.21319-5.9092-0.52886-8.8438-1-3.5348-0.50688-7.1281-0.79767-10.625-1.5625-5.7107-1.0456-11.457-2.1356-17.281-2.125zm-22.875 4.0625c-10.052 12.558 38.171 13.039 28.094 3.0312-9.368-1.3074-18.814-1.1428-28.094-3.0312zm-189.78 0.03125c-26.06 1.2565 30.699-1.7573 8.9375 10.438-9.112 0.0974-26.834-12.152-12.188-1.0312 10.026 7.7692 32.836-5.2976 11.469-8.875l-4.0938-0.46875-4.125-0.0625zm190.41 0.6875c9.1746 0.24477 42.991 4.7975 16.219 8.0625-3.569-0.73706-22.837-0.86052-16.219-8.0625zm-333.28 2.1875v0.8125c6.9797 0.64079 13.902 1.9367 20.719 4.25 22.804 6.224 46.666 9.9457 70.125 5.3438-20.326 1.654-40.864 2.3297-60.531-4.1875-9.9159-2.7872-20.074-5.1134-30.312-6.2188zm90.844 10.406c2.4037-0.1956 4.8228-0.38117 7.2188-0.59375 1.2924-0.28647 2.5695-0.48361 3.8438-0.625-3.4174-0.03916-6.8994 0.27874-10.469 1.125-0.19689 0.03982-0.39681 0.05512-0.59375 0.09375zm11.062-1.2188c19.393 0.2222 36.72 12.576 55.969 12.844 0.78182-0.17711 1.5612-0.35746 2.3438-0.53125-19.987 0.4469-38.06-14.56-58.312-12.312zm58.312 12.312c2.8345-0.06338 5.7024-0.43863 8.625-1.2188 0.73731-0.36292 1.4787-0.71157 2.2188-1.0312-3.6177 0.67255-7.2364 1.4489-10.844 2.25zm269.41-21.156c-18.955 4.2117-37.723 9.0808-55.906 16.062-22.849 3.1071-46.761-7.3936-68.219 5.4062-20.504 0.60948-40.935 6.3716-61.375 3.5312-23.825-4.624-49.102-16.378-72.969-6.125 18.82-3.4905 37.706-4.5548 56.094 3.4375 8.3495 4.4528 44.177 3.5047 19.531 6.5-8.1284 1.8302-16.491 4.1238-24.938 6.0938l4.875-0.125c17.171-4.2702 34.395-9.6281 52.188-6.8438 0.34417-0.09142 0.68735-0.16495 1.0312-0.25-6.6465-0.16407-11.963-1.2841-10-2.1562 9.5689-1.5797 19.232-2.4762 28.938-2.3438-0.78339 1.1043-2.1146 1.9644-3.8125 2.625 11.552-0.07921 22.896 2.7036 33.969 6.375l2.5938-0.0625c-10.544-3.2152-26.346-6.1397-23.188-10.75 23.588-13.2 50.726 1.9623 75.156-7.2812 15.48-5.1288 31.059-9.8827 46.906-13.562l-0.875-0.53125zm-149.69 27.688c5.1444 0.12699 11.089-0.32506 15.094-1.875-4.9933 0.03645-10.034 0.62368-15.094 1.875zm-209.59-26c0.46632 0.0304 0.93895-0.03978 1.4062 0 1.5866 0.13505 0.12092 0.06548-1.4062 0zm-70.562 12.75-0.03125 0.71875c12.061 0.25599 24.088 1.5668 35.969 4.375 21.501 6.0067 43.647-1.0101 65.125 3.9062 18.654 4.8383 38.57 1.4086 56.562 9.4375 3.1764 1.3412 6.4171 2.465 9.6875 3.4062l3.8125-0.09375c-2.8904-0.92816-5.762-2.0828-8.5938-3.5312-22.85-8.26-47.768-5.4642-71.031-11.844-20.075 0.52626-40.362 2.4447-60-3.125-10.39-1.7344-20.943-2.8913-31.5-3.25zm362.59 2.875c-1.5372 0.07394 1.5891 0.01807 0 0zm78.406 10.469c-4.2504 0.63181-8.5062 1.2551-12.75 1.9062l6.7188-0.15625c2.0318-0.29413 4.0592-0.5967 6.0938-0.875l-0.0625-0.875z" fill="#e9b96e"/>
   <path d="m631.81 184.75c-28.78 0.22847-55.971 19.578-85.438 13.156-29.822-3.6598-60.829 7.5282-89.625-4.0938-17.96-4.318-36.76-2.2933-54.5-7.1562l-5.0938 0.09375c9.9162 2.3151 19.828 4.497 30.062 4.3438 17.181-1.8768 46.137 10.641 55.062 9.1875-28.747 5.3338-58.236 10.409-87.312 4.3125-22.676-3.8502-46.066-10.83-68.906-3.9375-15.78 4.5386-31.654 9.4853-47.938 9.5938 0.66676 0.04912 1.3333 0.10706 2 0.15625 24.756 2.0002 46.734-13.262 71.594-11.906 21.192 1.0206 41.563 8.7824 62.969 9 30.533 3.8008 59.872-8.4132 90.219-7.5312 24.403 2.734 48.956 0.09852 73.469 0.125-1.9793-0.15156-3.9878-0.34803-5.9688-0.65625 23.752-4.5181 47.479-18.4 72.188-11.969l-0.09375-1.4688c-4.2696-0.9163-8.4967-1.2833-12.688-1.25zm-53.438 15.344c3.6565 0.27998 7.2849 0.34746 10.938 0.21875-3.6447-0.14817-7.2899-0.21481-10.938-0.21875zm10.938 0.21875c1.7648 0.07175 3.5486 0.16648 5.3125 0.28125 11.062-0.40865 42.94-4.5682 40.75-4.5-15.376 0.25051-30.713 3.6778-46.062 4.2188zm-298.69-11.812-5.0625 0.09375c-3.341 1.0449-6.6636 2.1284-9.9688 3.25-24.064 3.6576-48.091 0.60807-72.125-1.9062l-1.25 0.03125 0.0625 0.65625c27.336 3.0305 54.858 5.6478 81.875 0.25 2.1418-0.8284 4.297-1.6237 6.4688-2.375zm244.75 8.875c0.168-0.00517 0.41756 0.00149 0.78125 0.03125 0.39541 0.27444 0.21458 0.33364-0.09375 0.3125 9.2254 0.98671 33.762 1.9226 11.281 2.5938-14.573 0.80233-36.501 0.57337-46.5-1.125 11.413-0.63058 22.833-1.0116 34.25-1.5625l0.75 0.0625c-0.5083-0.08615-1.1011-0.29305-0.46875-0.3125zm-6.4062 3.6562c1.4434 0.01727-1.5688 0.20879 0 0zm-325.34 4.3125 0.0625 0.59375c20.729 0.61912 41.43 1.9209 62.125 3.4062-1.376-0.22005-2.7418-0.47268-4.125-0.78125-19.318-1.3702-38.686-2.6744-58.062-3.2188zm62.344 4.0312c4.0325 0.63543 8.0534 0.89541 12.031 0.875-4.0094-0.29533-8.0205-0.58698-12.031-0.875zm294.5 2.75c-3.3581 0.00152-6.7045 0.02404-10.062 0.03125-5.0526 0.01153-10.104 0.01484-15.156 0.0625-3.3064 0.04074-6.6146 0.05317-9.9062 0.40625-2.3286 0.30417-4.6464 0.70781-6.875 1.4688-1.9157 0.64771-3.9051 1.2085-5.6562 2.25-1.6032 1.0081-3.1807 2.0522-4.7812 3.0625-1.4095 0.96989-2.833 1.9221-4.1875 2.9688-1.2356 0.83325-2.4634 1.6842-3.75 2.4375-1.6012 0.78281-3.2139 1.5099-4.875 2.1562-2.2007 0.91204-4.4412 1.7387-6.6875 2.5312-1.9766 0.68678-3.9426 1.4426-6 1.8438-2.1614 0.33601-4.3608 0.41463-6.5312 0.6875 0.58092 0.02458 1.1748 0.00849 1.75 0.09375 0.02101 0.00311 0.0184 0.02873 0.03125 0.03125-0.20168 0.00915-0.99388-0.03001-1.3125-0.03125-1.8722-0.00728-3.7529-0.0433-5.625-0.0625-2.8877-0.03553-5.7706-0.06596-8.6562-0.1875-4.4168-0.18168-8.8263-0.50934-13.25-0.375-2.6429 0.17326-5.2809 0.50077-7.9062 0.84375-2.8058 0.13601-5.6054 0.31637-8.4062 0.53125-0.5537 0.03416-1.1504-0.10268-1.6562 0.125-0.39451 0.17756 1.7106 0.00924 1.2812 0.0625-1.9098 0.23689-3.8971-0.27735-5.8125-0.1875-3.2328-0.21559-6.4809-0.51865-9.6562-1.1875-4.6253-1.0243-9.1457-2.4447-13.562-4.1562-6.9666-2.7947-13.826-5.8528-20.875-8.4375-3.6281-1.3583-7.3502-2.467-11.125-3.3438-3.9162-0.97725-7.8731-1.8985-11.875-2.4375-3.2245-0.13474-6.429-0.25327-9.6562-0.1875-2.1047 0.00662-4.208 0.03198-6.3125 0.0625-2.3414 0.03851-4.6934 0.07607-7.0312 0.21875-2.0777 0.14581-4.1297 0.39615-6.1875 0.71875-2.4304 0.22644-4.8814 0.16091-7.3125 0.40625-2.0112 0.19079-4.036 0.43325-5.9375 1.1562-1.831 0.54887-3.6874 1.0077-5.4688 1.7188-2.0082 0.54805-3.975 1.226-6.0625 1.4062-2.3979 0.347-4.7935 0.7647-7.2188 0.875-2.3709 0.22806-4.7367 0.55784-7.125 0.46875-2.4494 0.02062-4.8957 0.03419-7.3438 0.125-2.2044 0.09728-4.4026 0.26467-6.5938 0.53125-0.75174 0.08546-3.0141 0.06196-2.2812 0.25 0.12166 0.03122 0.25062 0.05077 0.375 0.0625-1.5662-0.06731-3.1176-0.12831-1.5 0-2.0621-0.00315-4.1254-0.01568-6.1875-0.03125-2.3179-0.02018-4.6519-0.04821-6.9688-0.125-2.9962-0.10625-5.9811-0.2447-8.9688-0.5-3.0184-0.24806-6.0305-0.47947-9.0625-0.40625-2.7201-0.04201-5.4403-0.08651-8.1562-0.25-4.4939-0.27881-9.0027-0.67075-13.469-1.25-5.3909-0.69704-10.742-1.5734-16.156-2.0312l0.0625 0.6875c4.3862 0.47232 8.7433 1.1796 13.125 1.75 4.467 0.58372 8.9738 0.99456 13.469 1.2812 2.7165 0.16828 5.4354 0.23591 8.1562 0.28125 3.0298-0.05763 6.0453 0.12822 9.0625 0.375 2.9884 0.25781 5.9718 0.42028 8.9688 0.53125 2.3172 0.08057 4.6504 0.10308 6.9688 0.125 2.0622 0.01699 4.1252 0.02776 6.1875 0.03125 3.1197 0.03708 6.2423 0.01352 9.3438-0.34375 2.19-0.26326 4.3906-0.4112 6.5938-0.5 2.4476-0.08346 4.8949-0.10582 7.3438-0.125 2.39 0.08674 4.7518-0.27626 7.125-0.5 2.4278-0.09862 4.8186-0.56628 7.2188-0.90625 2.0904-0.18539 4.048-0.89949 6.0625-1.4375 1.7624-0.7726 3.6816-1.1304 5.5-1.7188 1.8945-0.72487 3.8709-0.91981 5.875-1.0938 2.4311-0.24708 4.8868-0.1291 7.3125-0.40625 2.0534-0.34918 4.1413-0.5534 6.2188-0.6875 2.3374-0.13338 4.6595-0.18307 7-0.21875 2.1044-0.02818 4.208-0.0565 6.3125-0.0625h4.0625c0.36414-2.6e-4 1.4197-0.16233 1.0938 0-0.42198 0.21015-0.93772 0.10406-1.4062 0.15625 4.0036 0.50619 7.9584 1.4468 11.875 2.4062 3.7719 0.87031 7.4609 1.9801 11.094 3.3125 7.0497 2.5787 13.944 5.6053 20.906 8.4062 4.418 1.7276 8.9366 3.168 13.562 4.2188 3.1758 0.68795 6.42 0.99188 9.6562 1.2188 4.0376 0.23133 8.0877 0.29817 12.125 0.03125 2.8-0.222 5.6005-0.43219 8.4062-0.5625 2.4237-0.36289 4.869-0.58396 7.3125-0.75 2.5871 0.22739 5.3207 0.17313 7.9062 0.28125 2.886 0.12386 5.7681 0.18112 8.6562 0.21875 3.6938 0.07132 7.4006 0.05067 11.094-0.03125 2.1681-0.31189 4.3762-0.36223 6.5312-0.75 2.0504-0.45318 4.0217-1.1731 6-1.875 2.2508-0.78963 4.4846-1.6172 6.6875-2.5312 1.6685-0.63779 3.3004-1.407 4.9062-2.1875 1.2584-0.81547 2.5238-1.6375 3.75-2.5 1.3506-1.0501 2.771-2.0103 4.1875-2.9688 1.6066-0.99406 3.1732-2.0346 4.7812-3.0312 1.76-1.003 3.7247-1.5299 5.625-2.1875 2.228-0.74123 4.5511-1.1515 6.875-1.4375 3.292-0.32413 6.6018-0.30551 9.9062-0.34375 5.0523-0.04531 10.104-0.05134 15.156-0.0625 3.358-0.00699 6.7045-0.02986 10.062-0.03125-0.2025 0.04024-0.71619 0.08082-0.84375 0.125 0.00268 0.00862-0.00161 0.02104 0.03125 0.03125 0.76013 0.23617 1.5871 0.23065 2.375 0.34375l2.5312 0.375c2.4327 0.36064 4.8304 0.74721 7.25 1.1875 3.4999 0.75178 7.0853 1.0783 10.625 1.5625 2.9367 0.46592 5.8796 0.80889 8.8438 1.0312 2.3929 0.16864 4.7896 0.23292 7.1875 0.28125 2.0853 0.03696 4.1644 0.05468 6.25 0.0625 3.3968 0.17408 6.7514-0.33275 10.125-0.59375 2.4187-0.16599 4.8518-0.16176 7.25-0.53125 1.9417-0.34093 3.9086-0.53962 5.875-0.65625 2.2028 0.00138 4.3527-0.23694 6.5312-0.53125 1.8862-0.42031 3.7344-0.94442 5.5312-1.6562l-2.9688-0.375c-1.7968 0.67993-3.645 1.2226-5.5312 1.5938-2.1768 0.29154-4.3332 0.47176-6.5312 0.5-1.9679 0.1293-3.9306 0.35082-5.875 0.6875-2.3977 0.3458-4.8368 0.34293-7.25 0.53125-1.3092 0.10471-2.6 0.23855-3.9062 0.375-0.3764 0.03932-1.4915 0.03059-1.125 0.125 0.1403 0.03614 0.2624 0.05164 0.40625 0.0625-1.9394-0.00691-3.8734-0.03085-5.8125-0.0625-2.3969-0.04472-4.7952-0.08872-7.1875-0.25-2.9632-0.21319-5.9092-0.52886-8.8438-1-3.5348-0.50688-7.1281-0.79767-10.625-1.5625-5.7107-1.0456-11.457-2.1356-17.281-2.125zm-22.875 4.0625c-10.052 12.558 38.171 13.039 28.094 3.0312-9.368-1.3074-18.814-1.1428-28.094-3.0312zm-189.78 0.03125c-26.06 1.2565 30.699-1.7573 8.9375 10.438-9.112 0.0974-26.834-12.152-12.188-1.0312 10.026 7.7692 32.836-5.2976 11.469-8.875l-4.0938-0.46875-4.125-0.0625zm190.41 0.6875c9.1746 0.24477 42.991 4.7975 16.219 8.0625-3.569-0.73706-22.837-0.86052-16.219-8.0625zm-333.28 2.1875v0.8125c6.9797 0.64079 13.902 1.9367 20.719 4.25 22.804 6.224 46.666 9.9457 70.125 5.3438-20.326 1.654-40.864 2.3297-60.531-4.1875-9.9159-2.7872-20.074-5.1134-30.312-6.2188zm90.844 10.406c2.4037-0.1956 4.8228-0.38117 7.2188-0.59375 1.2924-0.28647 2.5695-0.48361 3.8438-0.625-3.4174-0.03916-6.8994 0.27874-10.469 1.125-0.19689 0.03982-0.39681 0.05512-0.59375 0.09375zm11.062-1.2188c19.393 0.2222 36.72 12.576 55.969 12.844 0.78182-0.17711 1.5612-0.35746 2.3438-0.53125-19.987 0.4469-38.06-14.56-58.312-12.312zm58.312 12.312c2.8345-0.06338 5.7024-0.43863 8.625-1.2188 0.73731-0.36292 1.4787-0.71157 2.2188-1.0312-3.6177 0.67255-7.2364 1.4489-10.844 2.25zm269.41-21.156c-18.955 4.2117-37.723 9.0808-55.906 16.062-22.849 3.1071-46.761-7.3936-68.219 5.4062-20.504 0.60948-40.935 6.3716-61.375 3.5312-23.825-4.624-49.102-16.378-72.969-6.125 18.82-3.4905 37.706-4.5548 56.094 3.4375 8.3495 4.4528 44.177 3.5047 19.531 6.5-8.1284 1.8302-16.491 4.1238-24.938 6.0938l4.875-0.125c17.171-4.2702 34.395-9.6281 52.188-6.8438 0.34417-0.09142 0.68735-0.16495 1.0312-0.25-6.6465-0.16407-11.963-1.2841-10-2.1562 9.5689-1.5797 19.232-2.4762 28.938-2.3438-0.78339 1.1043-2.1146 1.9644-3.8125 2.625 11.552-0.07921 22.896 2.7036 33.969 6.375l2.5938-0.0625c-10.544-3.2152-26.346-6.1397-23.188-10.75 23.588-13.2 50.726 1.9623 75.156-7.2812 15.48-5.1288 31.059-9.8827 46.906-13.562l-0.875-0.53125zm-149.69 27.688c5.1444 0.12699 11.089-0.32506 15.094-1.875-4.9933 0.03645-10.034 0.62368-15.094 1.875zm-209.59-26c0.46632 0.0304 0.93895-0.03978 1.4062 0 1.5866 0.13505 0.12092 0.06548-1.4062 0zm-70.562 12.75-0.03125 0.71875c12.061 0.25599 24.088 1.5668 35.969 4.375 21.501 6.0067 43.647-1.0101 65.125 3.9062 18.654 4.8383 38.57 1.4086 56.562 9.4375 3.1764 1.3412 6.4171 2.465 9.6875 3.4062l3.8125-0.09375c-2.8904-0.92816-5.762-2.0828-8.5938-3.5312-22.85-8.26-47.768-5.4642-71.031-11.844-20.075 0.52626-40.362 2.4447-60-3.125-10.39-1.7344-20.943-2.8913-31.5-3.25zm362.59 2.875c-1.5372 0.07394 1.5891 0.01807 0 0zm78.406 10.469c-4.2504 0.63181-8.5062 1.2551-12.75 1.9062l6.7188-0.15625c2.0318-0.29413 4.0592-0.5967 6.0938-0.875l-0.0625-0.875z" opacity=".7"/>
  </g>
  <path transform="translate(-4,-4.25)" d="m460.33 358.34a5.3033 6.0104 0 1 1 -10.607 0 5.3033 6.0104 0 1 1 10.607 0z" fill="url(#a)" opacity=".7"/>
  <path transform="translate(49.75,-2.5)" d="m405 356.36a3.875 4.5 0 1 1 -7.75 0 3.875 4.5 0 1 1 7.75 0z" fill="#babdb6"/>
  <path d="m454.3125,351.9375c.11012.41725.1875.85353.1875,1.3125 0,2.484-1.736,4.5-3.875,4.5-1.50451,0-2.7956-1.01267-3.4375-2.46875 .47786,1.8561 1.93444,3.21875 3.6875,3.21875 2.139,0 3.875-2.016 3.875-4.5 0-.74337-.16228-1.44445-.4375-2.0625z" fill="#555753"/>
  <g transform="translate(-.5,122.75)">
   <path transform="translate(-4,-4.25)" d="m460.33 358.34a5.3033 6.0104 0 1 1 -10.607 0 5.3033 6.0104 0 1 1 10.607 0z" fill="url(#a)" opacity=".7"/>
   <path transform="translate(49.75,-2.5)" d="m405 356.36a3.875 4.5 0 1 1 -7.75 0 3.875 4.5 0 1 1 7.75 0z" fill="#babdb6"/>
   <path d="m454.3125,351.9375c.11012.41725.1875.85353.1875,1.3125 0,2.484-1.736,4.5-3.875,4.5-1.50451,0-2.7956-1.01267-3.4375-2.46875 .47786,1.8561 1.93444,3.21875 3.6875,3.21875 2.139,0 3.875-2.016 3.875-4.5 0-.74337-.16228-1.44445-.4375-2.0625z" fill="#555753"/>
  </g>
  <g transform="translate(-2.75,72.25)">
   <path transform="translate(-4,-4.25)" d="m460.33 358.34a5.3033 6.0104 0 1 1 -10.607 0 5.3033 6.0104 0 1 1 10.607 0z" fill="url(#a)" opacity=".7"/>
   <path transform="translate(49.75,-2.5)" d="m405 356.36a3.875 4.5 0 1 1 -7.75 0 3.875 4.5 0 1 1 7.75 0z" fill="#babdb6"/>
   <path d="m454.3125,351.9375c.11012.41725.1875.85353.1875,1.3125 0,2.484-1.736,4.5-3.875,4.5-1.50451,0-2.7956-1.01267-3.4375-2.46875 .47786,1.8561 1.93444,3.21875 3.6875,3.21875 2.139,0 3.875-2.016 3.875-4.5 0-.74337-.16228-1.44445-.4375-2.0625z" fill="#555753"/>
  </g>
  <g transform="translate(-2.75,72.25)">
   <path transform="translate(-4,-4.25)" d="m460.33 358.34a5.3033 6.0104 0 1 1 -10.607 0 5.3033 6.0104 0 1 1 10.607 0z" fill="url(#a)" opacity=".7"/>
   <path transform="translate(49.75,-2.5)" d="m405 356.36a3.875 4.5 0 1 1 -7.75 0 3.875 4.5 0 1 1 7.75 0z" fill="#babdb6"/>
   <path d="m454.3125,351.9375c.11012.41725.1875.85353.1875,1.3125 0,2.484-1.736,4.5-3.875,4.5-1.50451,0-2.7956-1.01267-3.4375-2.46875 .47786,1.8561 1.93444,3.21875 3.6875,3.21875 2.139,0 3.875-2.016 3.875-4.5 0-.74337-.16228-1.44445-.4375-2.0625z" fill="#555753"/>
  </g>
  <g transform="translate(-.5,122.75)">
   <path transform="translate(-4,-4.25)" d="m460.33 358.34a5.3033 6.0104 0 1 1 -10.607 0 5.3033 6.0104 0 1 1 10.607 0z" fill="url(#a)" opacity=".7"/>
   <path transform="translate(49.75,-2.5)" d="m405 356.36a3.875 4.5 0 1 1 -7.75 0 3.875 4.5 0 1 1 7.75 0z" fill="#babdb6"/>
   <path d="m454.3125,351.9375c.11012.41725.1875.85353.1875,1.3125 0,2.484-1.736,4.5-3.875,4.5-1.50451,0-2.7956-1.01267-3.4375-2.46875 .47786,1.8561 1.93444,3.21875 3.6875,3.21875 2.139,0 3.875-2.016 3.875-4.5 0-.74337-.16228-1.44445-.4375-2.0625z" fill="#555753"/>
  </g>
  <g transform="translate(-1,162.25)">
   <path transform="translate(-4,-4.25)" d="m460.33 358.34a5.3033 6.0104 0 1 1 -10.607 0 5.3033 6.0104 0 1 1 10.607 0z" fill="url(#a)" opacity=".7"/>
   <path transform="translate(49.75,-2.5)" d="m405 356.36a3.875 4.5 0 1 1 -7.75 0 3.875 4.5 0 1 1 7.75 0z" fill="#babdb6"/>
   <path d="m454.3125,351.9375c.11012.41725.1875.85353.1875,1.3125 0,2.484-1.736,4.5-3.875,4.5-1.50451,0-2.7956-1.01267-3.4375-2.46875 .47786,1.8561 1.93444,3.21875 3.6875,3.21875 2.139,0 3.875-2.016 3.875-4.5 0-.74337-.16228-1.44445-.4375-2.0625z" fill="#555753"/>
  </g>
  <g transform="translate(-23.75,206.75)">
   <path transform="translate(-4,-4.25)" d="m460.33 358.34a5.3033 6.0104 0 1 1 -10.607 0 5.3033 6.0104 0 1 1 10.607 0z" fill="url(#a)" opacity=".7"/>
   <path transform="translate(49.75,-2.5)" d="m405 356.36a3.875 4.5 0 1 1 -7.75 0 3.875 4.5 0 1 1 7.75 0z" fill="#babdb6"/>
   <path d="m454.3125,351.9375c.11012.41725.1875.85353.1875,1.3125 0,2.484-1.736,4.5-3.875,4.5-1.50451,0-2.7956-1.01267-3.4375-2.46875 .47786,1.8561 1.93444,3.21875 3.6875,3.21875 2.139,0 3.875-2.016 3.875-4.5 0-.74337-.16228-1.44445-.4375-2.0625z" fill="#555753"/>
  </g>
  <g transform="translate(6.0104 41.012)">
   <path transform="translate(-4,-4.25)" d="m460.33 358.34a5.3033 6.0104 0 1 1 -10.607 0 5.3033 6.0104 0 1 1 10.607 0z" fill="url(#a)" opacity=".7"/>
   <path transform="translate(49.75,-2.5)" d="m405 356.36a3.875 4.5 0 1 1 -7.75 0 3.875 4.5 0 1 1 7.75 0z" fill="#babdb6"/>
   <path d="m454.3125,351.9375c.11012.41725.1875.85353.1875,1.3125 0,2.484-1.736,4.5-3.875,4.5-1.50451,0-2.7956-1.01267-3.4375-2.46875 .47786,1.8561 1.93444,3.21875 3.6875,3.21875 2.139,0 3.875-2.016 3.875-4.5 0-.74337-.16228-1.44445-.4375-2.0625z" fill="#555753"/>
  </g>
  <path transform="matrix(5.3128 -.24374 .24374 5.3128 -138.28 -281.17)" d="m71.772,125.14264c-1.68.084-2.52.224-2.52.336 .196.112.364.364.476.672 .14,1.232.308,1.876.448,1.876l-.196.392 .14.644-.084.448v.056l.084.056-.084.056v.168c.504.252.756.476.756.728l-.056.364 .056.168-.056.252 .056.308-.14.672 .084.056h-.084c.084.42.14.616.252.616v.112l.084.364c-.252,0-.392.476-.448,1.428l.056.168-.056.392 .056.196-.056.196v2.268l.056.28-.056.056v.056l.056.056c0,.252-.14.672-.42,1.204 0,.868.056,1.372.168,1.512h.084c.056-.224.14-.336.224-.336l1.232-1.652c.336-1.148.616-1.876.812-2.156v-.056l-.056-.056 .168-.784c.196-.056.448-.336.756-.812h.112c.336.224.756.616 1.232,1.148 1.96,2.57599 3.416,3.92 4.368,3.976l.672-.112-.14-.224 .084-.56-.14-.364v-.084l.196-.532c-.56-.98-1.176-1.764-1.848-2.38 0-.112-.812-.7-2.436-1.764l-1.736-1.008v-.392c.168-.14.252-.28.252-.364h.364l1.54-.644c.252-.364.588-.588 1.036-.7l.056.056h.14c.504-.476.812-.728.924-.728l.168.112 .14-.112 1.204-.756c.644-.56 1.064-.84 1.232-.84 .14-.476.308-.728.56-.812l-.112-.336c0-.42-.812-1.036-2.408-1.792h-.112l-.084.056c-.028-.112-.196-.14-.476-.196h-.112c-.224.364-.616.84-1.26,1.428v.056c.14,0 .196.028.196.112v.056l-1.288,1.652 .112.112h.084l.056-.056c.084-.252.364-.504.784-.812l-.084-.168 .336-.224h.196v.168l-1.008,1.204c-.504.672-.84,1.008-1.008,1.008l.168-.56v-.056h-.084l-.224.224c-.28.42-.56.7-.924.812h-.112l-.224-.168v-.196l.084-.28-.084-.336v-.728l-.028-.364 .028-.056-.224-2.128c-.42-1.12-1.092-1.652-1.96-1.652m3.892,4.536v.112l.168-.112v-.056l-.084-.056-.084.112m16.3555-4.396c-.476.084-.672.224-.588.448 .28.028.448.112.476.252v.056c.056.112-.084.168-.42.224-.14-.028-.168.084-.112.336h-.084l-.056-.056c-.028-.112-.084-.168-.14-.168-.168,0-.28.14-.336.392h-.196l-.28-.196-.056.14 .112.168-.056.224-.924-.14c-.056.252-.14.392-.308.448-.056,0-.14-.056-.196-.168-.168-.084-.28-.168-.308-.224l-.028-.084 .028-.056 .196.056 .196-.084h.084l.056.084c.168,0 .196-.084.196-.252l.588-.448-.168-.028-.868.336-.252-.056c-.7.308-1.092.588-1.232.84l-.168-.112h-.056c-1.456.7-2.296,1.036-2.492,1.036h-.084l-.28-.056-.98.252h-.028l-.28-.056c-.812-.56-1.288-.84-1.4-.84l.028.056-.028.056 .168.532-.056.224c.532.7 1.26,1.344 2.184,1.96 .532.168.784.28.812.336l.028.028c.056.168.056.448-.028.868v.056l.112-.056c.056-.364.196-.56.42-.56l.196.196v.056l.196-.112 .084.112c.084.448.084.7.056.812-.14.42-.196.728-.14.868-.336,1.036-.476,1.652-.42,1.792-.252,0-.336.224-.224.7-.224.336-.308.644-.224.952-.056.42-.252.756-.644.924-.364.896-.56,1.54-.56,1.96v.084c-.224,0-.308.112-.28.28l.056.168 .112.196 .336-.084 .476.084 .14-.252h.084c.252.784 1.148,1.176 2.604,1.232 1.344-.196 2.1-.308 2.212-.42h.084l.056.056v-.056c.364.028.7-.084.952-.308l.308.056 .196-.112 .196.084 2.1-.392 .476.028 1.176-.084 .28.112 .28-.056 .532.196c.28,0 .364-.196.196-.616l-.168-.196-.056-.28-.028-.056-.056-.056c-.14-.42-.784-.784-1.904-1.092 .028.056-.084.112-.336.168l-.504-.14 .14.308-1.12-.084-.812-.028-.056-.056-.028.056h-.196l-.084-.084v.084l-.644-.028c-.028-.112-.084-.168-.168-.168h-.084l-.112.168-.476-.028-.28-.056-.196.056h-.056l-.728-.252-1.232.084h-.028l-.028-.056c.812-1.204 1.428-1.82 1.876-1.82 1.708-.14 2.548-.252 2.492-.336l.672-.056c.476,0 .756-.196.784-.672l-.168-.168-.028-.168-.28-.476c-.308-.14-.532-.336-.588-.56-.504-.196-.924-.42-1.288-.644-.42.14-1.484.336-3.136.616l-.168-.056v-.056c.056-.532.364-1.008.868-1.456-.112-.392-.14-.588-.084-.616-.14-.14-.224-.308-.28-.532-.084-.028-.168-.112-.252-.252l-.028-.056 .028-.056c.14,0 .196-.056.168-.112 .672-.168 1.092-.364 1.232-.532 .868-.224 1.232-.448 1.176-.644 .308,0 .476-.028.448-.112 .672-.196.952-.364.868-.532 .252,0 .364-.112.308-.308 .168-.252.448-.42.868-.504 .14-.252.28-.392.392-.42h.056l.056.056h.056l.028-.056 .42-.364c.644-.196.924-.42.84-.616l-.028-.056c-.196-.588-.728-.896-1.596-.896l-.28.112-.28-.14m-6.244,11.984c.056-.504.168-.728.364-.728 .056-.644.14-1.008.252-1.036l.392.224c.168,0 .252.028.28.112l.028.14c.056.168-.196.476-.756.924-.056.308-.224.448-.448.448-.084.252-.252.392-.56.392l-.084-.252h.14l.084.084 .308-.308m2.016-9.968h.196c.056.224-.084.448-.392.672-.224-.056-.364-.112-.392-.224l-.112-.252 .028-.056 .308.056h.14l.224-.196m-1.316.644h.196l.056.168c.056.14-.112.252-.42.308h-.056l.224-.476m1.568-.168 .14.112 .028.056-.056.112h-.168l-.028-.084 .084-.196m3.472-1.232 .084.196h-.056l-.112-.14-.028-.056h.112m14.77744-1.26c-.476.084-.672.224-.588.448 .28.028.448.112.476.252v.056c.056.112-.084.168-.42.224-.14-.028-.168.084-.112.336h-.084l-.056-.056c-.028-.112-.084-.168-.14-.168-.168,0-.28.14-.336.392h-.196l-.28-.196-.056.14 .112.168-.056.224-.924-.14c-.056.252-.14.392-.308.448-.056,0-.14-.056-.196-.168-.168-.084-.28-.168-.308-.224l-.028-.084 .028-.056 .196.056 .196-.084h.084l.056.084c.168,0 .196-.084.196-.252l.588-.448-.168-.028-.868.336-.252-.056c-.7.308-1.092.588-1.232.84l-.168-.112h-.056c-1.456.7-2.296,1.036-2.492,1.036h-.084l-.28-.056-.98.252h-.028l-.28-.056c-.812-.56-1.288-.84-1.4-.84l.028.056-.028.056 .168.532-.056.224c.532.7 1.26,1.344 2.184,1.96 .532.168.784.28.812.336l.028.028c.056.168.056.448-.028.868v.056l.112-.056c.056-.364.196-.56.42-.56l.196.196v.056l.196-.112 .084.112c.084.448.084.7.056.812-.14.42-.196.728-.14.868-.336,1.036-.476,1.652-.42,1.792-.252,0-.336.224-.224.7-.224.336-.308.644-.224.952-.056.42-.252.756-.644.924-.364.896-.56,1.54-.56,1.96v.084c-.224,0-.308.112-.28.28l.056.168 .112.196 .336-.084 .476.084 .14-.252h.084c.252.784 1.148,1.176 2.604,1.232 1.344-.196 2.1-.308 2.212-.42h.084l.056.056v-.056c.364.028.7-.084.952-.308l.308.056 .196-.112 .196.084 2.1-.392 .476.028 1.176-.084 .28.112 .28-.056 .532.196c.28,0 .364-.196.196-.616l-.168-.196-.056-.28-.028-.056-.056-.056c-.14-.42-.784-.784-1.904-1.092 .028.056-.084.112-.336.168l-.504-.14 .14.308-1.12-.084-.812-.028-.056-.056-.028.056h-.196l-.084-.084v.084l-.644-.028c-.028-.112-.084-.168-.168-.168h-.084l-.112.168-.476-.028-.28-.056-.196.056h-.056l-.728-.252-1.232.084h-.028l-.028-.056c.812-1.204 1.428-1.82 1.876-1.82 1.708-.14 2.548-.252 2.492-.336l.672-.056c.476,0 .756-.196.784-.672l-.168-.168-.028-.168-.28-.476c-.308-.14-.532-.336-.588-.56-.504-.196-.924-.42-1.288-.644-.42.14-1.484.336-3.136.616l-.168-.056v-.056c.056-.532.364-1.008.868-1.456-.112-.392-.14-.588-.084-.616-.14-.14-.224-.308-.28-.532-.084-.028-.168-.112-.252-.252l-.028-.056 .028-.056c.14,0 .196-.056.168-.112 .672-.168 1.092-.364 1.232-.532 .868-.224 1.232-.448 1.176-.644 .308,0 .476-.028.448-.112 .672-.196.952-.364.868-.532 .252,0 .364-.112.308-.308 .168-.252.448-.42.868-.504 .14-.252.28-.392.392-.42h.056l.056.056h.056l.028-.056 .42-.364c.644-.196.924-.42.84-.616l-.028-.056c-.196-.588-.728-.896-1.596-.896l-.28.112-.28-.14m-6.244,11.984c.056-.504.168-.728.364-.728 .056-.644.14-1.008.252-1.036l.392.224c.168,0 .252.028.28.112l.028.14c.056.168-.196.476-.756.924-.056.308-.224.448-.448.448-.084.252-.252.392-.56.392l-.084-.252h.14l.084.084 .308-.308m2.016-9.968h.196c.056.224-.084.448-.392.672-.224-.056-.364-.112-.392-.224l-.112-.252 .028-.056 .308.056h.14l.224-.196m-1.316.644h.196l.056.168c.056.14-.112.252-.42.308h-.056l.224-.476m1.568-.168 .14.112 .028.056-.056.112h-.168l-.028-.084 .084-.196m3.472-1.232 .084.196h-.056l-.112-.14-.028-.056h.112m10.26943-1.316v-.056l-.14.056h-.05599l-.056-.056-1.20401.168c-.55999,0-.924.168-1.092.476l-.084-.084-.336.056-.756.532h-.44799l-.14.112-.08401-.112-.50399.308 .13999.504-.448.084 .08401.308c.27999.196.39199.364.39199.42 .224.056.336.14.336.28 .476.588.72801.868.78401.868 0,.224.14.42.44799.588h.25201c.08399,0 .112-.028.112-.14 .22399,0 .336-.14.39199-.392l.16801.056c.47599-.14.7-.28.7-.42l.14.112 .14-.112h.112l-.112.56h.112v-.112h.05599l.08401.112v.196c0,.196-.05601.532-.196.98l.196.448v.056l-.08401.952v.196c-.11199.14-.168.364-.224.644l.05601.028c0,.308-.16801.588-.53201.868l.056.168c-.39199.448-.7.672-.952.672h-.056l.056.14-.36399.336v.084h.08399l.05601-.028v.168c-.672.392-1.45601.728-2.38001,1.008h-.11199l-.056-.196 .11199-.084h.056l.02801.168c.08399,0 .392-.168.86799-.476 .504-.14.78401-.252.84001-.42v-.084h-.056l-.336.28c-.756.168-1.176.336-1.176.476l-.08401-.084-1.372.532c-.86799.196-1.28799.308-1.28799.392l.084.112h.056l.30799-.056 .14.056 .14-.168 .08401.056 .25199-.056h.056l.05601.056 .22399-.224 .756.28 .25201-.056v.056h.11199l-.05599.056v.056l.05599.028 .476-.084v.056l.252-.056 .44801.056c.36399-.056.588-.112.67199-.168h.336l.756-.28v.056l.50401-.168 .028.056h.336v.28l.056.056h-.056l.056.252v.756l.16799,1.008c0,.168-.056.252-.14.252l-.196-1.428c-.05599,0-.084.084-.14.196 .112.644.22401,1.12.336,1.372l-.02799.336c0,.112.112.448.28.924v.056c-.112,0-.25201-.28-.44801-.812h-.084c.056.308.08401.476.14.476 .14.476.33601.812.58801,1.064l.11199-.084v-.392l.30801-.056c.16799-.532.336-.868.44799-1.064l-.16799-.448c.16799-.056.252-.112.252-.168v-.112l-.02801-.196 .196-.728v-.056l.14.056 .14-.364-.02799-.252 .14-.28v-.14c-.084,0-.14-.168-.14-.504l.336-1.26h-.112l-.028.084v-.084l-.056-.056v-.028c0-.224.308-.532.952-.896 .41999-.14.644-.308.644-.476 .41999-.112.64399-.252.64399-.364h.11201c1.11999-.784 1.708-1.176 1.82-1.176 .16799-.224.28-.336.39199-.364 0-.084.05601-.14.14-.14 .392-.308.75601-.812 1.12001-1.512 .16799,0 .25199-.028.25199-.112v-.224l-.056-.056 .196-.336-.084-.14v-.084l.14-.364-.056-.056h-.02799l.02799-.112-.084-.168 .084-.168v-.196c0-.196-.056-.364-.196-.532-.11199,0-.19599-.112-.19599-.308-.28-.224-.44801-.392-.44801-.448-.16799,0-.27999-.084-.27999-.224-.7-.42-1.06401-.644-1.12-.756-1.288-.532-2.10001-.784-2.464-.784l-.25201.056-.36399-.056-.056.056h-.028l-.056-.056-.14.056-.22401-.056-.25199.056-.14-.056-.50401.14m.58801,3.556c.08399-.056.336-.14.728-.196l.44799.084 .05601-.084c0,.056.14.112.392.168h.05599l.02801-.056v.056l.16799-.056 1.00801.252v.112l-.05601.224 .05601.056-.224.308v.168l.056.056 .28-.056c0,.252-.22401.588-.672.952-1.12,1.036-1.73601,1.54-1.848,1.54v-.252l.392-.336v-.056c-.056,0-.22401.112-.44801.308l-.056-.252v-.056l.056-.056-.056-.224 .056-.168v-.028l-.056-.056 .11201-.308c-.168-.588-.33601-1.26-.476-2.044m-2.99601-1.12c.084,0 .33601-.14.672-.392l.14.056h.19601l.056-.028 .14.616h-.056v.084c-.28.028-.44801.084-.53201.14l-.30799-.084-.14.084h-.56l-.16801-.14v-.084c.28,0 .42-.112.42-.308l.14.056m5.93601-.14 .14.14 .196-.056 .11199.112 .14-.056h.08401c-.056.224-.11201.308-.22401.336h-.196c0-.112-.14-.224-.42-.336l.056-.14h.11201m-.812,2.856c-.056,0-.084.028-.084.14-.308.168-.476.28-.476.336v.168h.11199v-.112c.308-.168.476-.308.476-.392v-.14h-.02799m.69999-1.848 .224.14h.02801l.056-.084-.08401.252c-.25199-.028-.39199-.084-.39199-.14v-.112l.16799-.056m-2.408-1.12 .11201.112v.028l-.16801.168h-.30799v-.168h.14l.02799.056 .196-.196m-4.172.252 .11201.28v.112l-.14-.056c0-.084-.02801-.14-.11201-.14l.056-.196h.084m3.33201,9.66 .056.028-.11201.364h-.056l-.056-.252 .112-.14h.05601m3.47199-9.184c.168,0 .25201.056.28.168l-.11199.084-.16801-.084v-.168m-6.272.196v.196l-.112.14h-.11199l.11199-.336h.112m5.712,1.764c-.13999.056-.224.14-.28.28v.028l.05601.056 .252-.28v-.028l-.02801-.056m-1.428-2.38h-.05599l-.14-.168v-.224l.14.084h.05599l-.05599.056 .05599.252m1.512.812v.056h-.05599l-.36401-.056v-.084l.42.084m1.79201-.532 .11199.084v.14h-.11199l-.02801-.224h.02801m-10.472,8.204v.112h-.19601v-.112h.19601m-.33601.056h.084v.056l-.25199.112h-.056l.22399-.168m9.492-8.4v.056l-.16799.14v-.14l.16799-.056m-1.76399-.392c0-.112.028-.168.084-.168l-.028.252h-.056v-.084m4.64799.336v.196h-.11199v-.084l.11199-.112m-7.25199,4.172-.16801.196 .02801-.196h.14m1.092,3.304v.168h-.056l-.05601-.056 .11201-.112m2.99599-7.952v.084l-.11199.112v-.056l.11199-.14m-5.51599,1.344h.056v.028l-.11201.084h-.02799v-.028l.084-.084m-.44801.28v.14l-.084-.112v-.028h.084m4.368-1.652-.112.112v-.112h.112m.11201,4.032h.056l.084-.112v-.028l-.14.14" fill="#fff" opacity=".8"/>
  <path transform="matrix(5.3128 -.24374 .24374 5.3128 -21.28 -188.17)" d="m76.28,126.57064-.056.056c.084,0 .196.056.252.168l-.392.14c-.98-.056-1.54-.112-1.736-.196v.112l.056.028c.14,0 .196.028.196.084v.056c0,.056-.112.112-.336.14l-1.4-.28v.084l.756.224-.056.196c-.308.112-.476.196-.476.252l-.224-.028h-.084v.028c.168.084.252.168.252.224l-.112.112h-.14l-1.372-.056-.504.224-.364-.028c-.952.028-1.484.168-1.596.364v.084l1.624.336c.98.168 1.456.28 1.456.392v.028c-1.736,1.81999-2.604,3.976-2.604,6.44 0,1.232.112,1.988.308,2.212 0,.392.336.812.98,1.232 .196.364.616.672 1.232.924l1.428.336 .196-.084 .28.056c2.296-.56 4.032-1.288 5.18-2.184 1.176-1.372 1.876-2.212 2.016-2.492 .364-.616.616-1.4.784-2.324h-.084l-.056.056c-.112.364-.196.56-.28.56h-.084l-.14-.7c0-.308-.084-.476-.28-.476v-.14l-.084-.504v-.308h.084l.056.252h.028c.112-.28.224-.448.336-.448l.084.112-.084.392 .028.336h.168v-.252l.084-.336-.056-.252 .056-.532v-.196c0-.112-.14-.56-.42-1.344l.168-.056v-.28c-.448-.504-.756-.756-.98-.756-.98-.896-2.352-1.568-4.088-2.044v.056m-2.24.224 .14.056v-.112l-.14-.028v.084m3.5.224c.924.336 1.736.868 2.436,1.596v.056h-.196l-.224-.224-.056.14c-.112,0-.224-.084-.336-.252-.28-.252-.56-.42-.84-.532h-.056l-.028.056-.14-.224c-.476-.168-.7-.364-.7-.588l.056-.028h.084m-.056,1.456c0-.056.14-.14.364-.28h.14l.196.196v.056l-.252-.056h-.14l.252.252v.056l-.252.056h-.028l-.28-.224v-.056m.84.28 .084.084v.056h-.14l-.028-.056 .084-.084m1.008.336h.084l.084.084v.196l-.084.084h-.084l-.112-.084v-.196l.112-.084m-8.68,6.86c.084-1.064.672-2.40801 1.792-4.032 1.372-1.708 2.24-2.576 2.52-2.576 .112,0 .588.112 1.4.336 1.988.672 2.968,1.68 2.968,2.996l-.28,2.604c-.476.532-.7.84-.7.924-.308.448-.56.672-.7.672 0,.224-.056.336-.168.336 0,.112-.028.224-.084.308-.616.112-.924.224-.952.308l-2.1.588-.364-.14-1.4.252h-.14c-.224,0-.392-.028-.504-.084-.756-.364-1.176-.98-1.288-1.876l.056-.14-.056-.252v-.224m10.612-4.984c.112,0 .168.084.196.168 0,.112-.056.14-.112.14h-.028l-.056-.224v-.084m-.364.532v.14h-.084v-.14h.084m.784,1.596v.112h.196v-.112l-.056-.056-.14.056m10.44356-6.832 .028.056v.448l-.028.364h.028l.056.168 .028.056c.056.924.168,1.68.308,2.24v.364l.14.252-.112.532 .14.784-.084.336 .028.448c-.028,1.232-.224,2.212-.56,2.912 0,.588-.056.896-.168.896-.252.616-.448.952-.504.98h-.056l-.056-.056-.728,1.4c-.252-.028-.364.028-.364.168-.448.644-.98.952-1.624.952l-.504-.028-.868-.308c-1.54-1.036-2.296-2.32401-2.268-3.92l.056-.28-.056-.056 .056-.364-.056-.28 .056-.7v-.644l.112-.112 .112-.532c.252-1.344.616-2.74401 1.092-4.228l-.056-.448c-.364-.588-.756-.98-1.12-1.148l-1.904-.588h-.028v.252c-.14,0-.224.224-.224.7-.476.224-.728.448-.756.644l.028,1.316c.196.224.28.644.28,1.176v.98c.056,1.65199.168,2.856.28,3.584 0,.252.056.392.196.392 .224,1.064.364,1.624.476,1.624l-.168-1.064v-.812h.084c.224,1.036.42,1.708.616,2.016 .224.756.448,1.148.644,1.176v.42l1.008,1.288v.056c-.252-.028-.784-.56-1.596-1.624 0,.252.252.672.812,1.26 .196.336.448.616.728.84h.28c0,.112.14.308.448.504 .392.28 1.176.504 2.296.616l.112-.112 .28.14c.868,0 1.316-.084 1.316-.252 .504.028.924-.308 1.288-.952h.084l.028.056c.476-.448.728-.812.784-1.12 .56-.504.98-1.204 1.288-2.128l-.056-.364c0-.084.084-.14.224-.14-.028-.084.14-.448.504-1.036 .112-1.036.224-1.624.364-1.736 0-.364-.14-.7-.392-1.008v-.364l.14-.308-.112-.28h.028l-.084-.28c-.112-.336-.336-.812-.672-1.4v-.532c-.392-.448-.616-.812-.672-1.092-.112-.588-.28-1.288-.56-2.156-.168-.42-.252-.644-.28-.644l-.14.7m-8.54,10.892c.084.336.168.504.224.504h.084v-.056c0-.196-.084-.364-.252-.448h-.056m25.025-11.984v.112h.112l.084-.084v-.14h-.112l-.084.112m-1.12.112 .028.112 .112.056 .364-.084 .364.056 .14-.028v-.056c0-.084-.14-.168-.392-.252l-.616.196m-.7,0 .028.112h.084c.14,0 .252-.056.28-.14h-.14l-.252.028m-4.004-.14-.112-.056v.056l-1.68.336-.056-.056-.336-.028-.028.056v-.056c-.14.084-.224.14-.224.196l.28-.084 .196.056 .168-.028 .028.028 .056.028 .448-.14 .252.084v.056c-.224.196-1.036.336-2.464.392v-.056c.056-.14.14-.224.28-.28l-.028-.14-.028-.056 .056-.056-.252-.14-.756.28-2.576.42-.224-.028-.056-.056c0-.112-.056-.168-.112-.168 0-.308-.056-.448-.224-.448l-.168-.252 .028.504-.168,1.204v.028l.168-.084h.084v.112c0,.112-.084.14-.196.14 .252,1.288.504,1.932.728,1.932v.056c-.112,0-.14.056-.14.112l.112.112 .308-.14-.112-.168v-.084c0-.308.112-.448.308-.448h.028c0,.168.056.28.112.392v.028l-.224-.056h-.028c.056.168.196.308.336.364l.168-.392 .196.084v.14l-.14.056 .056.28 .196-.056 .112.14 .196-.056 .392.084h.056c0-.168.028-.252.084-.252s.112.056.112.224v.056l.588-.196 .168.112 .364-.168v.028l.308-.028 .336.056 .28-.028h.028l.056.056c-.196,2.23999-.28,3.696-.224,4.396l.084.616-.028.868v.084l.084.364v.476l.028.504c.112,0 .252,1.12.42,3.388l-.084.644 .056.56 .056.364h.084c.084-.028.112-.112.112-.308h.084l.056.224 .168-.14c0-.308.084-.504.224-.644h.224l.028-.168c.308-.42.476-.672.448-.728l-.028-.056 .112-1.652c.168-.224.224-.56.224-.98-.056,0-.084-.084-.084-.224l.112-1.008-.056-.28 .224-.42-.056-.252c.112-.756.168-1.26.14-1.512v-.196l.084-.14 .504-3.64c0-.42.112-.7.42-.812l.196.028 .252.056c.448-.084.672-.168.672-.224l.532.14 1.036-.168-.028-.112h-.168l-.42-.14v-.056l.196-.196 .616.028c.084,0 .168-.168.28-.476h.364l-.028.14 .084.056v-.056l.896-.28v-.084l-.084-.196v-.056l.672-.364 .224.056c.224-.056.364-.224.476-.448 0-.112-.056-.224-.14-.364l-1.036-.14-.252.112-.868-.168-.28.084h-.14l-.056-.168v-.056l.056-.028v-.056l-.084-.056-2.548-.084-.28-.112-.896.056m1.848.28 .448.028v.112l-.084.112-.588-.056v-.14l.224-.056m-2.576.196c0-.112.224-.14.644-.14l.028.112-.224-.028-.14.112-.308-.028v-.028" fill="#fff" opacity=".8"/>
  <path d="m249.73 931.04c1.9494 5.438 3.5356 10.999 5.2862 16.499 3.5437 7.7537 7.2567 15.65 8.2567 24.214 1.4829 1.501 0.53077 4.785-1.7682 4.6751-1.8577-0.18364-2.3925-2.3002-2.4295-3.8642-0.76366-8.7263-4.6061-16.753-8.2089-24.607-1.9196-4.1987-2.1282-8.994-4.2719-13.116-1.3074-1.4257-0.45629-3.9925 1.6126-3.9899 0.51341-0.05095 1.0371 0.01695 1.5231 0.18831z" fill="#3c6e0c" opacity=".8"/>
  <path d="m529.86 943c2.0874 3.6006 4.1655 7.3198 4.7726 11.499 1.0132 3.5275 1.8844 7.1028 2.1797 10.768 0.76293 3.9399 3.5779 6.9568 5.663 10.228-0.78729 1.3894-4.938 1.0077-5.2764-1.3365-2.5406-3.2746-4.8667-7.0197-4.9271-11.301-0.57597-4.1691-1.9153-8.1802-2.9084-12.258-0.89733-2.6107-2.426-4.9374-3.7388-7.35l4.2353-0.2493z" fill="#3e740b"/>
  <path d="m508.41 920.5c0.11821 16.203 5.4505 31.709 7.6108 47.651 2.3487 3.2153 12.925 17.933 2.9493 11.189-10.026-10.378-8.7005-25.953-12.569-38.944 0.2931-4.7684-6.7951-21.243 2.0087-19.896z" fill="#3e740b"/>
 </g>
</svg>
