<?xml version="1.0" encoding="utf-8"?>
<!-- Generator: Adobe Illustrator 16.0.0, SVG Export Plug-In . SVG Version: 6.00 Build 0)  -->
<!DOCTYPE svg PUBLIC "-//W3C//DTD SVG 1.1//EN" "http://www.w3.org/Graphics/SVG/1.1/DTD/svg11.dtd">
<svg version="1.1" id="图层_1" xmlns="http://www.w3.org/2000/svg" xmlns:xlink="http://www.w3.org/1999/xlink" x="0px" y="0px"
	 width="612px" height="792px" viewBox="0 0 612 792" enable-background="new 0 0 612 792" xml:space="preserve">
<symbol  id="Gras_4" viewBox="-22.384 -11.915 44.766 23.829">
	<g>
		<path fill="#12A438" d="M8.129-5.523L9.65-6.459c0,0-0.352,14.745,0.584,18.373C10.234,11.914,7.66,4.775,8.129-5.523z"/>
	</g>
	<g>
		<path fill="#12A438" d="M11.406-5.289l1.168,0.818c0,0-0.232,11.587,0.234,12.757C12.809,8.286,11.055-0.373,11.406-5.289z"/>
	</g>
	<g>
		<path fill="#12A438" d="M1.133-10.627l-1.316,0.818c0,0,0.263,11.588-0.264,12.757C-0.447,2.948,1.528-5.711,1.133-10.627z"/>
	</g>
	<g>
		<path fill="#86BB24" d="M15.266-5.758l0.82,0.819l0.117,9.597C16.203,4.658,14.916-2.947,15.266-5.758z"/>
	</g>
	<g>
		<path fill="#148B2F" d="M6.373-5.758c0,0,0,9.595-1.053,11.938c0,0-0.002-9.012-0.352-10.768L6.373-5.758z"/>
	</g>
	<g>
		<path fill="#148B2F" d="M22.383-9.639c0,0,0,9.596-1.053,11.937c0,0-0.002-9.011-0.352-10.767L22.383-9.639z"/>
	</g>
	<g>
		<path fill="#148B2F" d="M13.16-7.279c0,0,1.053,6.904,3.861,8.66c0,0-3.043-6.084-2.691-9.596L13.16-7.279z"/>
	</g>
	<g>
		<path fill="#148B2F" d="M13.041-7.643c0,0,1.053,6.904,3.861,8.66c0,0-3.045-6.087-2.693-9.597L13.041-7.643z"/>
	</g>
	<g>
		<path fill="#86BB24" d="M11.289-5.426c0,0,0.115,8.309-2.342,10.299c0,0,1.639-7.957,1.17-11.937L11.289-5.426z"/>
	</g>
	<g>
		<path fill="#12A438" d="M6.139-7.981c0,0-0.35,9.479,1.17,13.341c0,0-0.584-12.755,0-14.979L6.139-7.981z"/>
	</g>
	<g>
		<path fill="#86BB24" d="M4.028-4.059c0,0,0.116,6.553-0.585,9.127c0,0-0.117-9.946-0.82-12.756L4.028-4.059z"/>
	</g>
	<g>
		<path fill="#12A438" d="M4.852-7.864c0,0-0.586,6.437-3.745,9.245c0,0,3.277-8.309,2.81-11L4.852-7.864z"/>
	</g>
	<g>
		<path fill="#12A438" d="M20.74-6.166c0,0-0.586,6.437-3.744,9.246c0,0,3.275-8.31,2.809-11L20.74-6.166z"/>
	</g>
	<g>
		<path fill="#12A438" d="M16.672-7.161c0,0-0.35,2.573,1.404,4.914c0,0-0.818-5.734-0.352-7.606L16.672-7.161z"/>
	</g>
	<g>
		<path fill="#148B2F" d="M15.951-8.623c0,0,0,7.52,2.063,10.309c0,0-1.578-9.581-1.092-13.22L15.951-8.623z"/>
	</g>
	<g>
		<path fill="#86BB24" d="M2.725-6.342c0,0-1.254,10.488-1.911,11.486c0,0,0.835-10.928,0.316-12.982L2.725-6.342z"/>
	</g>
	<g>
		<path fill="#86BB24" d="M11.949-7.896c0,0,0.848,8.854,2.063,11.401c0,0-0.486-7.157-0.486-9.098L11.949-7.896z"/>
	</g>
	<g>
		<path fill="#86BB24" d="M18.135-8.381c0,0,0.848,8.854,2.063,11.399c0,0-0.486-7.155-0.486-9.096L18.135-8.381z"/>
	</g>
	<g>
		<path fill="#86BB24" d="M7.219-5.834c0,0,1.336,10.309,0.365,13.705c0,0,1.939-10.188,0.971-15.525L7.219-5.834z"/>
	</g>
	<g>
		<path fill="#12A438" d="M-19.223-6.074l-1.521-0.766c0,0,0.352,12.053-0.586,15.018C-21.33,8.178-18.756,2.344-19.223-6.074z"/>
	</g>
	<g>
		<path fill="#12A438" d="M-10.869-5.669l1.168,1.044c0,0-0.232,14.781,0.234,16.274C-9.467,11.649-11.221,0.602-10.869-5.669z"/>
	</g>
	<g>
		<path fill="#12A438" d="M-12.228-11.006l1.315,0.818c0,0-0.262,11.586,0.265,12.757C-10.647,2.569-12.623-6.092-12.228-11.006z"/>
	</g>
	<g>
		<path fill="#86BB24" d="M-7.01-6.137l0.82,0.818l0.117,9.598C-6.072,4.279-7.359-3.328-7.01-6.137z"/>
	</g>
	<g>
		<path fill="#148B2F" d="M-17.469-6.137c0,0,0,9.596,1.055,11.935c0,0,0-9.009,0.351-10.765L-17.469-6.137z"/>
	</g>
	<g>
		<path fill="#148B2F" d="M0.107-10.019c0,0,0,9.595-1.053,11.937c0,0-0.002-9.011-0.352-10.767L0.107-10.019z"/>
	</g>
	<g>
		<path fill="#148B2F" d="M-9.115-7.658c0,0,1.053,6.904,3.861,8.66c0,0-3.043-6.086-2.691-9.597L-9.115-7.658z"/>
	</g>
	<g>
		<path fill="#86BB24" d="M-22.383-5.805c0,0-0.115,8.309,2.342,10.297c0,0-1.639-7.956-1.172-11.936L-22.383-5.805z"/>
	</g>
	<g>
		<path fill="#12A438" d="M-17.234-8.362c0,0,0.352,9.481-1.17,13.343c0,0,0.584-12.756,0-14.979L-17.234-8.362z"/>
	</g>
	<g>
		<path fill="#86BB24" d="M-15.123-4.439c0,0-0.117,6.555,0.586,9.129c0,0,0.115-9.947,0.818-12.756L-15.123-4.439z"/>
	</g>
	<g>
		<path fill="#12A438" d="M-1.535-6.545c0,0-0.586,6.436-3.744,9.245c0,0,3.275-8.309,2.809-11.001L-1.535-6.545z"/>
	</g>
	<g>
		<path fill="#12A438" d="M-5.604-7.541c0,0-0.35,2.574,1.404,4.914c0,0-0.818-5.732-0.352-7.605L-5.604-7.541z"/>
	</g>
	<g>
		<path fill="#148B2F" d="M-6.324-9.003c0,0,0,7.518,2.063,10.309c0,0-1.578-9.581-1.093-13.221L-6.324-9.003z"/>
	</g>
	<g>
		<path fill="#86BB24" d="M-13.82-6.722c0,0,1.254,10.487,1.912,11.485c0,0-0.836-10.928-0.316-12.98L-13.82-6.722z"/>
	</g>
	<g>
		<path fill="#86BB24" d="M-10.326-8.275c0,0,0.848,8.854,2.063,11.401c0,0-0.486-7.157-0.486-9.097L-10.326-8.275z"/>
	</g>
	<g>
		<path fill="#86BB24" d="M-4.141-8.762c0,0,0.848,8.855,2.063,11.402c0,0-0.486-7.158-0.486-9.098L-4.141-8.762z"/>
	</g>
	<g>
		<path fill="#86BB24" d="M-18.314-6.215c0,0-1.336,10.309-0.365,13.706c0,0-1.939-10.189-0.969-15.525L-18.314-6.215z"/>
	</g>
	<g>
		<path fill="#148B2F" d="M-12.26-8.023c0,0-1.054,6.905-3.861,8.66c0,0,3.043-6.084,2.691-9.596L-12.26-8.023z"/>
	</g>
	<g>
		<path fill="#12A438" d="M-5.549-8.244c0,0-0.586,6.436-3.745,9.246c0,0,3.277-8.309,2.81-11.001L-5.549-8.244z"/>
	</g>
</symbol>
<rect fill="#9ED4EC" width="612" height="784.5"/>
<g>
	<path fill="#FFFFFF" stroke="#FFFFFF" stroke-width="0.0938" d="M60.989,65.768c7.921-1.798,16.176-2.123,24.215-0.969
		c5.218,0.848,10.417,2.295,15.003,4.985c2.426,1.399,4.645,3.264,6.098,5.684c0.982,1.619,1.355,3.627,0.899,5.476
		c-0.245,1.077-0.924,1.97-1.364,2.964c0.583,0.874,1.47,1.492,2.091,2.336c1.431,1.788,2.11,4.303,1.233,6.49
		c-1.147,2.996-3.901,4.998-6.633,6.464c-5.224,2.7-11.083,3.908-16.894,4.51c-7.475,0.714-15.029,0.239-22.415-1.045
		c-1.237-0.188-2.458-0.641-3.723-0.52c-8.278,1.31-17.018,1.186-24.939-1.795c-3.461-1.386-7.143-3.414-8.523-7.105
		c-4.628-0.733-9.307-1.345-13.786-2.792c-1.342-0.481-2.722-0.982-3.844-1.884c-0.803-0.59-0.81-1.96,0-2.547
		c1.635-1.304,3.717-1.798,5.639-2.518c-1.457-0.902-3.557-1.297-4.227-3.063c-0.293-1.438,1.361-2.167,2.41-2.687
		c5.387-2.279,11.296-2.792,17.028-3.624c1.737-3.557,5.301-5.731,8.883-7.086c5.737-2.139,12.026-2.527,18.067-1.75
		C57.798,65.462,59.379,66.068,60.989,65.768L60.989,65.768z"/>
	<path fill="#FFFFFF" stroke="#FFFFFF" stroke-width="0.0938" d="M197.729,94.86c4.922-0.998,10.057-0.711,14.898,0.567
		c0.953,0.258,1.96,0.497,2.939,0.21c3.882-0.918,8.039-0.755,11.794,0.625c2.744,0.992,5.342,2.722,6.878,5.256
		c0.523,0.826,0.733,1.794,1.145,2.674c3.082,0.95,6.375,1.527,9.158,3.277c0.896,0.59,1.909,1.536,1.533,2.731
		c-0.721,1.479-2.417,2.024-3.8,2.694c0.88,0.896,2.458,1.609,2.247,3.095c-0.083,1.062-1.106,1.661-1.922,2.161
		c-3.028,1.635-6.448,2.305-9.795,2.952c-0.947,3.149-3.385,5.699-6.34,7.067c-2.75,1.406-5.948,1.702-8.973,1.275
		c-1.39-0.185-2.776-1.007-4.179-0.437c-5.77,1.782-12.199,1.533-17.713-0.988c-2.949-1.294-5.584-3.328-7.503-5.919
		c-1.734-2.413-2.703-5.619-1.651-8.51c0.061-0.469,0.507-1.004,0.144-1.431c-0.676-1.026-1.501-1.983-1.861-3.181
		c-0.775-2.515-0.268-5.394,1.364-7.468C188.859,97.815,193.299,95.756,197.729,94.86z"/>
</g>
<linearGradient id="SVGID_1_" gradientUnits="userSpaceOnUse" x1="1490.1631" y1="484.0527" x2="1733.4131" y2="484.0527" gradientTransform="matrix(0.3187 0 0 -0.3187 8.6803 405.328)">
	<stop  offset="0" style="stop-color:#F8FF3F"/>
	<stop  offset="1" style="stop-color:#FF7100"/>
</linearGradient>
<path display="none" fill="url(#SVGID_1_)" d="M560.682,244.103c-1.55-8.909-6.407-17.184-13.359-22.957
	c-9.862-8.345-24.047-11.354-36.366-7.328c-1.329,0.504-2.817,0.733-3.934,1.667c-0.057,0.02-0.175,0.061-0.232,0.083
	c-0.593,0.003-1.173,0.102-1.683,0.405c-1.645,0.87-3.265,1.794-4.807,2.831c-5.32,3.551-9.537,8.578-12.598,14.159
	c-0.356,0.615-0.513,1.313-0.611,2.011c-2.024,4.017-3.083,8.508-3.366,12.983c-0.086,3.934-0.207,7.937,0.784,11.781
	c0.921,3.911,2.353,7.724,4.456,11.156c0.615,1.052,1.188,2.161,2.126,2.974c0.197,0.561,0.615,1.001,0.981,1.46
	c0.813,0.924,1.575,1.896,2.448,2.77c0.452,0.437,0.81,1.083,1.508,1.141l0.245-0.099l-0.096,0.293
	c-0.172,0.52,0.497,0.593,0.781,0.845c0.848,1.416,2.336,2.231,3.644,3.171c3.331,2.276,7.044,3.924,10.872,5.167
	c0.335,0.121,0.686,0.163,1.052,0.131c4.89,1.16,9.983,1.702,14.976,0.889c6.085-0.791,11.962-3.082,16.979-6.614
	c0.794-0.577,1.718-1.039,2.295-1.862c1.523-0.701,2.63-2.018,3.783-3.19c6.016-6.299,9.859-14.656,10.583-23.345
	C561.169,251.119,561.424,247.558,560.682,244.103L560.682,244.103z"/>
<path fill="#B339E2" stroke="#B339E2" stroke-width="0.0938" d="M582.717,550.834c1.896-0.672,4.061-0.532,5.747-1.772
	c-0.207,0.854-0.459,1.709-0.539,2.589c0.332,0.656,0.842,1.191,1.307,1.76c-0.398,0.264-0.793,0.528-1.183,0.797
	c0.186,0.232,0.373,0.468,0.567,0.707c-0.268,0.172-0.532,0.348-0.787,0.525c0.211,0.928,0.367,1.875,0.297,2.831
	c0.111,0.093,0.335,0.277,0.449,0.37c-0.191,0.203-0.373,0.408-0.548,0.615c0.061,0.309,0.127,0.624,0.203,0.939
	c-0.293,0.31-0.576,0.619-0.854,0.935c0.066,0.296,0.144,0.599,0.226,0.901c-0.223,0.246-0.437,0.491-0.644,0.743
	c-0.019,0.44-0.028,0.88-0.031,1.326c0.22,0.14,0.445,0.286,0.679,0.433c-0.37,0.479-0.736,0.957-1.094,1.441
	c0.497,0.612,1.008,1.221,1.521,1.83c-0.561,0.331-1.115,0.666-1.667,1c0.201,0.552,0.411,1.106,0.618,1.661
	c-0.516,0.103-1.026,0.207-1.529,0.315c0.182,0.498,0.372,0.998,0.566,1.495c-0.363,0.128-0.72,0.259-1.073,0.392
	c-0.083,0.619-0.163,1.234-0.236,1.855c-0.522,0.09-1.036,0.179-1.549,0.268c-0.265,0.494-0.517,0.992-0.774,1.488
	c-0.689,0.141-1.406,0.205-2.05,0.479c-0.401,0.405-0.698,0.896-1.014,1.364c-0.89-1.692-2.19-3.149-3.927-3.993
	c0.232,1.794,0.48,3.703,1.769,5.09c-0.688,0.092-1.364,0.194-2.04,0.307c-0.382,0.566-0.81,1.105-1.316,1.567
	c-0.555-0.025-1.097-0.086-1.635-0.016c-0.363,0.325-0.663,0.708-0.973,1.074c-0.545-0.239-1.084-0.517-1.657-0.657
	c-0.348,0.186-0.66,0.412-0.976,0.632c-0.318-0.392-0.641-0.788-0.949-1.177c-0.367,0.398-0.721,0.801-1.074,1.202
	c-0.345-0.494-0.689-0.988-1.027-1.476c-0.605,0.313-1.201,0.618-1.807,0.918c-0.262-0.715-0.52-1.428-0.778-2.136
	c-0.644,0.044-1.281,0.095-1.915,0.149c0.051-0.271,0.104-0.539,0.169-0.803c-0.781-0.293-1.591-0.498-2.416-0.562
	c-0.087-0.153-0.252-0.452-0.338-0.605c-0.466,0.131-0.922,0.265-1.381,0.386c-0.334-0.459-0.857-0.564-1.383-0.561
	c-0.083-0.135-0.242-0.398-0.325-0.529c-0.813-0.488-1.591-1.033-2.317-1.633c-0.121,0.115-0.366,0.352-0.487,0.466
	c-0.236-0.261-0.476-0.526-0.698-0.78c-0.411,0.162-0.784,0.344-1.18,0.513c-0.255-0.657-0.398-1.377-0.842-1.935
	c-0.672-0.463-1.529-0.517-2.272-0.801c0.099-0.385,0.567-0.529,0.842-0.787c1.109-0.704,1.756-1.887,2.668-2.802
	c3.783-3.573,8.65-5.813,13.671-7.031c0.829-0.22,1.683-0.067,2.506,0.134c0.031-0.07,0.092-0.211,0.124-0.283
	c0.076-0.176,0.232-0.533,0.313-0.708l0.117-0.271c0.163-0.039,0.491-0.119,0.654-0.16c0.178-0.048,0.538-0.143,0.717-0.194
	c0.232-0.268,0.462-0.548,0.679-0.835c1.285-1.754,3.013-3.098,4.663-4.488C576.947,553.377,579.749,551.848,582.717,550.834
	L582.717,550.834z"/>
<path fill="#9167D2" stroke="#9167D2" stroke-width="0.0938" d="M499.162,365.062c0.383,0.073,0.692,0.261,0.925,0.564
	c-0.635,1.438-1.604,2.731-1.874,4.316c-0.217,0.287-0.446,0.567-0.68,0.835c-0.178,0.051-0.538,0.146-0.717,0.194
	C497.533,368.973,498.748,367.169,499.162,365.062z"/>
<path fill="#9468D1" stroke="#9468D1" stroke-width="0.0938" d="M489.504,370.137c2.152,0.564,4.342,0.934,6.544,1.265
	c-0.079,0.175-0.235,0.533-0.312,0.708c-2.05-0.357-4.087-0.861-6.172-0.921C489.549,370.924,489.521,370.398,489.504,370.137
	L489.504,370.137z"/>
<path fill="#4797EC" stroke="#4797EC" stroke-width="0.0938" d="M60.647,430.64c0.81,0.354,1.613,0.759,2.486,0.94
	c4.746,0.656,9.078,3.102,12.651,6.219c1.227,1.077,2.614,2.094,3.347,3.602c0.236,0.459,0.446,0.969,0.908,1.269
	c-0.57-2.106-1.912-3.897-2.563-5.957c0.159-0.028,0.484-0.089,0.644-0.118c0.784,1.721,1.421,3.516,2.314,5.189
	c0.306,0.631,1.039,1.042,1.74,0.918c1.929-0.256,3.847-0.635,5.722-1.167c0.01,0.233,0.025,0.692,0.035,0.925
	c-2.11,0.22-4.268,0.414-6.27,1.141c2.885-0.354,5.584,0.832,8.221,1.823c2.448,0.979,4.708,2.384,6.786,4.001
	c1.913,1.387,2.983,3.649,5.097,4.8c-0.829,0.262-1.753,0.341-2.486,0.835c-0.417,0.57-0.577,1.278-0.825,1.932
	c-0.424-0.178-0.842-0.351-1.259-0.525c-0.108,0.162-0.325,0.49-0.43,0.653c-0.281-0.077-0.558-0.149-0.829-0.22
	c-0.686,0.545-1.396,1.051-2.148,1.498c-0.064,0.149-0.188,0.449-0.249,0.6c-0.331-0.049-0.66-0.09-0.985-0.131
	c-0.086,0.182-0.258,0.538-0.344,0.72c-0.542-0.156-1.074-0.303-1.609-0.449c-0.064,0.204-0.191,0.605-0.255,0.81
	c-0.347-0.07-0.695-0.141-1.036-0.204c-0.411,0.175-0.819,0.354-1.23,0.522c-0.016,0.208-0.051,0.619-0.067,0.826
	c-0.638-0.032-1.269-0.063-1.9-0.09c-0.249,0.711-0.494,1.422-0.733,2.136c-0.638-0.344-1.291-0.646-1.97-0.893
	c-0.268,0.453-0.535,0.905-0.806,1.358c-0.363-0.37-0.724-0.736-1.084-1.1c-0.306,0.328-0.609,0.656-0.908,0.991
	c-0.408-0.169-0.807-0.36-1.227-0.466c-0.479,0.146-0.912,0.408-1.352,0.635c-0.424-0.408-0.842-0.816-1.259-1.221
	c-0.551,0.006-1.106,0.044-1.651-0.038c-0.507-0.364-0.784-0.957-1.221-1.384c-0.586-0.232-1.24-0.169-1.852-0.229
	c1.252-1.737,1.444-3.873,1.909-5.891c-1.387,1.584-3.354,2.69-4.103,4.771c-0.344-0.507-0.653-1.046-1.1-1.463
	c-0.65-0.239-1.393-0.191-1.999-0.526c-0.313-0.4-0.51-0.873-0.736-1.316c-0.58-0.162-1.16-0.314-1.737-0.465
	c-0.016-0.574-0.025-1.141-0.038-1.709c-0.379-0.149-0.755-0.299-1.131-0.442c0.188-0.487,0.379-0.979,0.57-1.464
	c-0.526-0.117-1.055-0.235-1.578-0.35c0.245-0.52,0.488-1.039,0.736-1.557c-0.555-0.365-1.205-0.634-1.62-1.166
	c0.386-0.605,0.874-1.131,1.339-1.67c-0.36-0.577-0.724-1.145-1.087-1.712c0.217-0.038,0.65-0.114,0.87-0.153
	c-0.146-0.513-0.258-1.032-0.334-1.553c-0.146-0.219-0.293-0.436-0.437-0.646c0.07-0.309,0.146-0.618,0.223-0.921
	c-0.287-0.269-0.574-0.536-0.854-0.797c0.061-0.303,0.125-0.603,0.188-0.902c-0.137-0.2-0.271-0.401-0.401-0.596
	c0.424-1.04,0.347-2.171,0.417-3.261c-0.159-0.182-0.313-0.36-0.465-0.535c0.057-0.294,0.115-0.584,0.172-0.874
	c-0.318-0.242-0.634-0.481-0.95-0.72c0.446-0.564,0.893-1.129,1.342-1.689C61.077,432.328,60.87,431.48,60.647,430.64L60.647,430.64
	z"/>
<path fill="#A2D3ED" stroke="#A2D3ED" stroke-width="0.0938" d="M337.779,452.849c0.481,0.606,0.985,1.192,1.485,1.792
	c-0.928,0.36-1.868,0.672-2.789,1.036C336.995,454.774,337.384,453.809,337.779,452.849z"/>
<path fill="#A0D4EC" stroke="#A0D4EC" stroke-width="0.0938" d="M541.524,483.835c0.908,0.538,1.778,1.16,2.744,1.612
	c1.023,0.476,2.178,0.396,3.28,0.428c-0.252,0.376-0.469,0.774-0.656,1.188c-2.519,0.141-4.798,1.313-6.972,2.486
	c-3.362,1.795-6.471,4.017-9.473,6.353c0.379-3.318,1.125-6.595,1.229-9.941c0.176-0.443,0.364-0.88,0.552-1.313
	c0.103-0.013,0.306-0.035,0.408-0.048c0.87,1.795,1.95,3.714,3.876,4.542c1.097,0.542,2.375-0.038,3.181-0.835
	C540.833,487.096,541.106,485.381,541.524,483.835L541.524,483.835z"/>
<path fill="#C0C2E8" stroke="#C0C2E8" stroke-width="0.0938" d="M354.004,487.439c0.828-0.096,1.67-0.096,2.505-0.003
	C355.703,487.876,354.804,487.896,354.004,487.439z"/>
<path fill="#BDC1E8" stroke="#BDC1E8" stroke-width="0.0938" d="M363.184,488.795c1.256-0.093,2.537-0.262,3.593-1.011
	C365.973,488.944,364.475,489.302,363.184,488.795z"/>
<path fill="#A1D3ED" stroke="#A1D3ED" stroke-width="0.0938" d="M543.819,492.989c1.077-1.029,2.065-2.148,3.003-3.309
	c0.226,1.352,0.634,2.665,1.032,3.978c-0.484-0.048-0.962-0.092-1.435-0.134C545.544,493.378,544.684,493.165,543.819,492.989z"/>
<path fill="#A4D2EC" stroke="#A4D2EC" stroke-width="0.0938" d="M65.204,498.573c1.597-0.076,3.159-0.424,4.657-0.969
	c-0.146,0.771-0.29,1.543-0.43,2.317c-1.412,0.077-2.812,0.287-4.195,0.58c-0.175,0.025-0.532,0.07-0.711,0.093
	C64.754,499.919,64.99,499.249,65.204,498.573z"/>
<path fill="#94CC73" stroke="#94CC73" stroke-width="0.0938" d="M101.841,538.736c0.223-0.366,0.969-0.351,0.998,0.156
	C102.822,539.604,101.433,539.447,101.841,538.736z"/>
<path fill="#93CD8D" stroke="#93CD8D" stroke-width="0.0938" d="M256.31,541.51c0.156,0.439,0.325,0.87,0.497,1.316
	c-0.653,0.063-1.307,0.117-1.96,0.159c-1.256,0.994-2.429,2.174-3.984,2.69c-1.25,0.363-1.97,1.517-2.812,2.422
	c-1.237-0.104-2.474,0.004-3.707-0.031c-0.459,0.006-0.797-0.36-1.16-0.567c-0.313-0.141-0.622-0.277-0.928-0.405
	c1.839-0.401,3.694,0.169,5.463,0.638c1.042-1.173,2.132-2.426,3.749-2.754c0.22-0.3,0.443-0.593,0.669-0.877
	c1.59-0.379,2.563-2.027,4.329-1.864C256.428,542.055,256.348,541.691,256.31,541.51z"/>
<path fill="#96CE9F" stroke="#96CE9F" stroke-width="0.0938" d="M91.736,549.638c0.048-1.26,0.354-2.524,1.297-3.414
	c-0.019,0.58-0.042,1.167-0.061,1.753C92.559,548.528,92.144,549.08,91.736,549.638z"/>
<path fill="#92C99F" stroke="#92C99F" stroke-width="0.0938" d="M44.864,567.87c1.686-0.593,3.197-1.578,4.842-2.264
	c-0.058,0.552-0.115,1.116-0.169,1.677c-1.071,0.086-2.142,0.134-3.213,0.159c-0.322,0.304-0.644,0.609-0.966,0.922
	c-1.526,0.063-3.009,0.452-4.427,1.01C41.794,568.02,43.522,568.291,44.864,567.87L44.864,567.87z"/>
<path fill="#A1D791" stroke="#A1D791" stroke-width="0.0938" d="M28.879,573.895c0.347-0.103,0.691-0.207,1.039-0.313
	c-0.093,0.59-0.137,1.198-0.341,1.769c-1.447,0.093-2.936,0.15-4.252,0.842c0.87-0.838,1.957-1.349,3.168-1.428
	C28.621,574.468,28.751,574.178,28.879,573.895L28.879,573.895z"/>
<path fill="#A3D986" stroke="#A3D986" stroke-width="0.0938" d="M611.458,580.779c0.134,0.086,0.401,0.262,0.536,0.351v33.545
	c-0.784-1.421-0.354-3.104-0.438-4.646C611.49,600.277,611.688,590.523,611.458,580.779z"/>
<g>
	<defs>
		<rect id="SVGID_2_" x="-2.355" y="590.87" width="613.813" height="201.13"/>
	</defs>
	<clipPath id="SVGID_3_">
		<use xlink:href="#SVGID_2_"  overflow="visible"/>
	</clipPath>
	<rect x="-25.003" y="800.812" clip-path="url(#SVGID_3_)" fill="#56AB31" width="663.663" height="21.196"/>
	<path clip-path="url(#SVGID_3_)" fill="#4D974C" d="M475.702,832.925c-3.923-2.281-6.188-5.34-8.488-8.354
		c5.103-6.952,0.897-13.679-1.175-20.962c-1.38-4.875-2.114-9.983-1.314-14.949c0.402-0.05,0.809-0.085,1.203-0.133
		c13.442-1.584,14.133-11.185,6.167-15.801c0.519-0.942,1.009-1.883,1.415-2.848c1.685-3.891,0.81-6.844-1.781-9.087
		c1.105-5.064,1.426-10.069,2.013-13.828c1.795-11.545,0.356-23.358-8.868-33.521c1.643-3.001,1.151-6.4-1.355-9.196
		c5.432-4.407,8.063-9.973,2.351-14.95c-4.808-4.167-12.819-6.561-21.409-5.138c-3.97,0.656-7.448,1.803-10.71,3.161
		c-3.16-2.704-6.438-5.357-9.919-7.922c-2.507-0.598-5.152-0.827-7.841-0.418c0,0-2.04,3.781-2.285,8.156l-7.568,2.107
		c-0.397-3.005-2.826-3.997-2.826-3.997c-7.758,1.43-10.899,4.474-12.152,7.001c-1.082-5.604-10.137-10.249-10.137-10.249
		c-11.713,5.524-12.916,15.795-13.041,17.863l-0.193,0.055c-2.896-5.117-7.485-5.433-7.485-5.433
		c-6.069,4.722-8.858,7.09-10.149,8.271c-0.601,0.213-1.143,0.429-1.624,0.641c-0.342-0.316-0.698-0.607-1.054-0.869
		c1.045-3.343-2.151-7.259-2.151-7.259c-8.676-1.597-14.225,3.392-14.225,3.392c5.965-7.145,11.879-7.462,11.879-7.462
		c-5.777-7.173-19.779-3.509-20.967-3.181c12.007-3.083,15.605-13.425,15.605-13.425c-14.267-1.094-23.874,3.22-29.257,6.817
		c2.145-6.078-3.532-15.688-3.532-15.688c-22.251,5.921-17.029,16.763-17.029,16.763c-5.419-7.73-25.244-8.877-25.244-8.877
		c-2.484,4.493,3.844,8.657,8.487,10.988c-5.491-1.649-10.874-0.932-10.874-0.932c-3.243,1.502-4.783,3.137-5.374,4.695
		c-0.331-0.307-0.689-0.606-1.108-0.915c0,0-4.963-1.426-10.95-0.557c5.426-1.648,13.198-4.851,12.516-9.559
		c0,0-19.744-1.553-28.011,5.248c0,0,6.93-6.801-8.218-13.524c0,0-9.772,5.438-11.008,10.134
		c-3.71-4.271-11.424-10.12-26.218-10.999c0,0-0.504,10.55,9.99,15.168c-1.036-0.48-13.24-5.927-21.641,0.275
		c0,0,5.632,1.106,8.675,8.859c0,0-3.464-5.597-12.534-5.214c0,0-7.166,5.241-4.203,9.225c-1.36-1.481-7.26-6.656-23.847-7.354
		c0,0,3.509,11.071,12.067,14.729c-4.709-1.393-14.04-3.916-19.99-3.976c0,0-3.542,4.144,8.664,7.398
		c-3.791-0.867-12.019-2.495-20.463-2.44c0,0,3.637,4.517,12.618,7.965c-15.137,4.854-17.511,14.799-16.142,25.181
		c1.107,8.37-3.705,17.683,3.288,24.742c-1.189,7.062-0.916,14.139,0.362,21.355c1.463,8.301-10.695,18.602-0.046,25.902
		c-2.17,2.479-3.049,5.268-2.435,7.933c-3.033,3.003-2.745,6.476-3.387,9.925c-0.008,0.045-0.018,0.088-0.025,0.129
		c-5.765,4.212-5.419,10.626-1.918,16.22c-0.636,2.276,0.174,4.688,3.125,6.987c0.11,0.086,0.24,0.157,0.353,0.24
		c-3.515,4.551,0.251,11.166,11.325,11.161c54.622-0.027,109.259-0.321,163.876,0.256c54.075,0.573,107.2,3.968,161.14-0.256
		c0.055,0,0.116,0,0.171,0c0-0.004,0-0.009,0-0.013c1.152-0.09,2.309-0.163,3.466-0.262c9.683-0.82,11.356-7.14,7.295-11.337
		c1.563-1.595,2.423-3.299,2.697-5.04C474.976,846.898,485.492,838.614,475.702,832.925z"/>
	<path clip-path="url(#SVGID_3_)" fill="#00843D" d="M338.411,716.174c-5.051-2.326-12.669-2.902-19.12-2.887
		c12.829-3.058,19.169-12.787,19.169-12.787c-31.813-7.947-41.988,5.75-41.988,5.75c1.904-10.479-14.695-16.7-14.695-16.7
		c-6.106,4.703-4.103,11.189-2.003,15.087c-3.439-3.308-8.847-3.773-8.847-3.773c-14.199,3.324-1.302,12.39-12.791,12.871
		c-6.624,0.277-4.929-5.211-4.929-5.211c-0.969,0.236-1.799,0.529-2.556,0.856c-5.001-0.682-9.363-0.879-13.125-0.759
		c-0.724-0.154-1.217-0.202-1.217-0.202c-0.141,0.083-0.25,0.193-0.386,0.279c-8.031,0.459-13.057,2.313-15.453,3.458v-0.293
		c3.909-3.766,0.518-9.702,0-10.551v-7.138h-3.909c-6.891-6.326-21.566-3.315-22.913-3.014c14.926-3.006,20.97-15.203,20.97-15.203
		c-17.491-2.216-29.995,2.789-36.928,6.868c1.518-5.642-6.268-13.999-6.268-13.999c-21.571,4.396-17.898,13.702-17.898,13.702
		c-5.202-9.597-28.797-12.125-28.797-12.125c-3.732,5.243,3.165,10.61,8.345,13.683c-6.307-2.309-12.894-1.757-12.894-1.757
		c-1.775,0.693-3.176,1.43-4.279,2.194c-2.599-3.307-5.214-5.717-5.214-5.717c-13.549,8.692-11.47,16.099-10.585,18.056
		c-2.983-4.93-16.603-6.035-16.603-6.035c-6.045,2.905-5.333,7.081-4.432,9.247c-0.227-0.043-0.455-0.08-0.686-0.12
		c-6.319-7.192-3.364-10.439-3.364-10.439c-16.047-1.342-19.113,9.379-19.347,10.297c2.729-9.158-12.484-18.151-12.484-18.151
		c-11.72,7.971-10.304,16.848-7.58,22.394c-7.659-3.506-23.823-3.506-23.823-3.506c-3.856,13.264,11.741,15.845,11.741,15.845
		c-16.77-1.93-23.375,4.554-23.375,4.554c9.133,6.787,22.064,5.453,22.064,5.453c-11.234,1.196-15.041,7.134-15.041,7.134
		c1.358,9.905,18.398,9.304,17.55,9.514c-0.709,0.182-1.316,0.342-1.935,0.509c-0.372-0.016-0.59-0.022-0.59-0.022
		c-0.025,0.065-0.031,0.123-0.055,0.192c-5.715,1.546-7.468,2.381-7.468,2.381c0.599,3.935,5.293,5.413,8.7,5.962
		c0.055,0.065,0.109,0.127,0.169,0.186c-10.5,0.025-13.959,5.396-13.959,5.396c0.423,0.471,0.952,0.848,1.521,1.188
		c-3.414,1.483-5.567,2.897-5.567,2.897c0.842,0.692,1.859,1.223,2.986,1.627c2.11,0,7.993,0.062,16.709,0.166
		c-1.631,2.132-2.485,4.453-3.231,6.867c-1.65,5.327-8.079,9.688-8.851,15.059c-0.524,3.651,0.699,6.594,3.117,9
		c-2.491,4.499-5.208,8.955-7.818,13.458c-3.811,6.573-2.134,15.337,11.072,17.48c7.776,1.261,15.66-0.729,23.448-0.729
		c9.334,0,18.648,0.018,27.974-0.243c22.909-0.641,45.753-0.277,68.682-0.197c42.832,0.151,85.665,0.077,128.49-0.054
		c10.499-0.033,20.936,0.703,31.4,1.104c6.493,0.249,16.13,1.548,22.431,0.145c7.034-1.568,11.411-3.7,13.4-8.113
		c1.739-3.86-1.924-7.797-5.043-11.464c1.199-0.879,2.124-1.881,2.616-3.002c5.371-12.241,7.042-26.806,2.705-39.62
		c2.764-6.685,1.572-13.38,1.142-20.065c-4.865-0.619-7.374-0.243-8.564,0.512c2.126-2.925,7.716-5.464,7.716-5.464
		c-2.887-2.652-24.871-2.276-24.871-2.276c11.49-6.985,26.838-5.821,26.838-5.821c-7.386-3.768-16.676-3.509-16.676-3.509
		C334.589,725.944,338.411,716.174,338.411,716.174z"/>
	<path clip-path="url(#SVGID_3_)" fill="#93BA89" d="M379.05,798.715c2.767-18.863,11.653-36.862,27.826-52.746
		c-0.116-0.397-0.245-0.804-0.324-1.225c-1.965-10.875,12.255-24.786,25.249-31.867c0.588-0.317,1.181-0.602,1.776-0.882
		c1.716-1.959,4.044-3.813,7.073-5.5c0.94-0.525,1.916-0.967,2.901-1.383c-1.906-1.392-3.983-2.751-6.565-3.926
		c-0.336-0.151-0.693-0.308-1.05-0.464c-1.092-1.905-1.234-3.994,1.05-5.854c0,0,10.951-0.568,15.456,5.979
		c-0.92-2.018-1.609-5.961,5.274-8.377c0,0,2.737,0.765,9.423,4.19c0.727,0.379-7.946-8.807,7.24-14.042
		c0,0,6.906-0.351,13.258,2.257c-5.099-3.372-11.773-9.196-7.383-14.536c0,0,24.351,3.418,28.861,13.595
		c0,0-2.938-9.821,19.957-13.683c0,0,7.323,8.976,5.186,14.811c7.619-4.02,21.137-8.834,39.173-5.94c0,0-7.479,12.514-23.318,15.144
		c1.558-0.283,20.067-3.438,25.188,6.073c0,0-7.458-0.2-16.959,8.092c0,0,8.359-5.651,18.703-2.792c0,0,4.399,8.056-2.114,11.935
		c2.721-1.375,13.591-5.873,33.585-2.295c0,0-12.569,12.067-25.398,14.077c2.652-0.153,6.339-0.317,10.263-0.372
		c3.745-0.823,6.841-1.356,9.483-1.698c-0.224,3.328-0.552,6.662-0.76,9.98c15.188,3.979,18.985,15.898,10.765,22.472
		c6.398,5.73,9.543,11.745,6.843,18.586c-0.811,2.088-2.479,3.762-4.659,5.065c-0.098,0.921-0.157,1.841-0.283,2.761
		c-0.401,3.094-0.846,6.138-1.067,9.246c-0.172,2.508,2.899,5.211,3.012,7.833c0.503,11.478-13.911,18.146-32.073,19.676
		c-19.119,1.623-38.918,0.892-58.186,1.783c-22.302,1.036-44.804,8.289-64.487-1.762c-0.676,0.044-1.314,0.115-2.017,0.132
		C427.504,823.615,374.863,827.304,379.05,798.715z"/>
	<path clip-path="url(#SVGID_3_)" fill="#00754B" d="M599.672,817.982c-1.302-7.137-2.781-14.729-7.157-21.559
		c3.1-8.829,3.771-18.778,0.759-27.66c2.174-5.257,1.239-10.526,0.907-15.779c-3.831-0.488-5.798-0.191-6.745,0.399
		c1.685-2.298,6.068-4.294,6.068-4.294c-2.258-2.087-19.549-1.79-19.549-1.79c9.035-5.492,21.099-4.58,21.099-4.58
		c-5.801-2.96-13.109-2.757-13.109-2.757c10.521-0.515,13.526-8.194,13.526-8.194c-3.969-1.83-9.965-2.282-15.039-2.272
		c10.089-2.404,15.076-10.054,15.076-10.054c-25.018-6.252-33.016,4.521-33.016,4.521c1.497-8.242-11.552-13.134-11.552-13.134
		c-4.808,3.697-3.234,8.799-1.572,11.864c-2.717-2.6-6.967-2.969-6.967-2.969c-11.173,2.615-1.022,9.743-10.053,10.124
		c-5.209,0.217-3.881-4.098-3.881-4.098c-0.765,0.185-1.416,0.415-2.004,0.675c-3.933-0.54-7.364-0.694-10.324-0.602
		c-0.565-0.12-0.959-0.154-0.959-0.154c-0.111,0.063-0.193,0.149-0.305,0.216c-6.32,0.36-10.26,1.819-12.153,2.721v-0.229
		c3.072-2.963,0.402-7.63,0-8.299v-5.611h-3.076c-5.416-4.978-16.953-2.608-18.013-2.372c11.735-2.363,16.49-11.957,16.49-11.957
		c-13.762-1.741-23.593,2.196-29.046,5.403c1.201-4.437-4.932-11.01-4.932-11.01c-16.958,3.46-14.071,10.775-14.071,10.775
		c-4.09-7.545-22.646-9.536-22.646-9.536c-2.938,4.126,2.493,8.347,6.56,10.763c-4.959-1.814-10.135-1.383-10.135-1.383
		c-1.397,0.545-2.503,1.125-3.368,1.725c-2.045-2.598-4.1-4.495-4.1-4.495c-10.657,6.835-9.025,12.66-8.326,14.198
		c-2.346-3.874-13.055-4.746-13.055-4.746c-4.755,2.285-4.196,5.571-3.489,7.273c-0.179-0.032-0.354-0.064-0.535-0.094
		c-4.969-5.656-2.646-8.21-2.646-8.21c-12.62-1.058-15.03,7.373-15.215,8.097c2.146-7.201-9.816-14.274-9.816-14.274
		c-9.215,6.269-8.105,13.251-5.963,17.613c-6.023-2.759-18.735-2.759-18.735-2.759c-3.031,10.43,9.233,12.46,9.233,12.46
		c-13.186-1.517-18.386,3.582-18.386,3.582c7.185,5.337,17.354,4.287,17.354,4.287c-8.837,0.94-11.829,5.61-11.829,5.61
		c1.07,7.79,14.471,7.315,13.804,7.484c-0.559,0.139-1.035,0.266-1.521,0.397c-0.297-0.012-0.468-0.019-0.468-0.019
		c-0.019,0.052-0.023,0.097-0.042,0.151c-4.491,1.214-5.875,1.871-5.875,1.871c0.473,3.093,4.164,4.257,6.847,4.691
		c0.042,0.05,0.083,0.102,0.134,0.148c-8.257,0.015-10.981,4.237-10.981,4.237c0.335,0.37,0.75,0.668,1.194,0.937
		c-2.681,1.165-4.376,2.279-4.376,2.279c0.664,0.548,1.462,0.964,2.348,1.282c1.658,0,6.284,0.044,13.144,0.13
		c-1.286,1.675-1.957,3.499-2.545,5.396c-1.295,4.19-6.355,7.619-6.962,11.843c-0.281,1.975,0.111,3.673,0.981,5.162
		c-3.22,4.868-4.361,10.349-5.303,15.405c-0.98,5.27-4.9,14.754,5.714,17.8c9.35,2.685,17.329,0.325,24.084-3.881
		c0.18,0.405,0.379,0.81,0.624,1.216c3.034,5.047,14.85,8.058,21.771,3.39c2.109-1.42,3.729-2.995,5.07-4.655
		c3.271,2.176,8.725,3.383,13.341,2.396c1.697-0.365,3.206-0.808,4.557-1.324c1.166,1.707,2.734,3.309,4.974,4.738
		c3.854,2.456,11.005,2.985,15.789,1.201c4.847-1.808,8.201-4.175,10.99-6.799c2.051,1.387,4.683,2.462,7.702,2.954
		c7.749,1.257,13.218-1.281,17.445-4.621c0.445,0.637,0.944,1.26,1.541,1.86c4.122,4.169,14.702,5.194,20.456,1.554
		c0.375-0.237,0.704-0.478,1.055-0.715c0.796,0.754,1.68,1.497,2.729,2.255c5.589,4.039,14.263,2.418,19.091-0.86
		c1.999,1.428,4.423,2.592,7.671,3.235c8.804,1.745,14.798-0.955,20.42-4.181c0.661,0.391,1.318,0.756,1.79,1.035
		c3.557,2.099,7.688,3.085,12.68,3.087c3.122,0,5.986-0.72,8.409-1.805c4.4,3.122,13.306,2.505,17.941,0.021
		C589.313,826.741,600.818,824.274,599.672,817.982z"/>
	<g clip-path="url(#SVGID_3_)">
		
			<linearGradient id="SVGID_4_" gradientUnits="userSpaceOnUse" x1="158.459" y1="741.8115" x2="158.459" y2="812.0067" gradientTransform="matrix(0.6511 2.000000e-004 2.000000e-004 1 52.0844 -0.044)">
			<stop  offset="0" style="stop-color:#D0A979"/>
			<stop  offset="0.0166" style="stop-color:#BF9A6F"/>
			<stop  offset="0.0507" style="stop-color:#A3805D"/>
			<stop  offset="0.0849" style="stop-color:#8E6D51"/>
			<stop  offset="0.1186" style="stop-color:#82624A"/>
			<stop  offset="0.1517" style="stop-color:#7E5E47"/>
			<stop  offset="0.2472" style="stop-color:#A58160"/>
			<stop  offset="0.427" style="stop-color:#D0A979"/>
			<stop  offset="0.5096" style="stop-color:#B28C62"/>
			<stop  offset="0.6244" style="stop-color:#8D6846"/>
			<stop  offset="0.6854" style="stop-color:#7F5B3B"/>
			<stop  offset="0.8652" style="stop-color:#D0A979"/>
			<stop  offset="0.8911" style="stop-color:#C7A172"/>
			<stop  offset="0.9333" style="stop-color:#AF8B60"/>
			<stop  offset="0.9863" style="stop-color:#876743"/>
			<stop  offset="1" style="stop-color:#7C5D3A"/>
		</linearGradient>
		<polygon fill="url(#SVGID_4_)" points="318.928,762.977 -8.104,763.087 -8.113,754.297 318.928,754.177 		"/>
		
			<linearGradient id="SVGID_5_" gradientUnits="userSpaceOnUse" x1="157.7192" y1="741.6396" x2="157.7192" y2="811.8063" gradientTransform="matrix(0.6511 2.000000e-004 2.000000e-004 1 52.0844 -0.044)">
			<stop  offset="0" style="stop-color:#D0A979"/>
			<stop  offset="0.0166" style="stop-color:#BF9A6F"/>
			<stop  offset="0.0507" style="stop-color:#A3805D"/>
			<stop  offset="0.0849" style="stop-color:#8E6D51"/>
			<stop  offset="0.1186" style="stop-color:#82624A"/>
			<stop  offset="0.1517" style="stop-color:#7E5E47"/>
			<stop  offset="0.2472" style="stop-color:#A58160"/>
			<stop  offset="0.427" style="stop-color:#D0A979"/>
			<stop  offset="0.5096" style="stop-color:#B28C62"/>
			<stop  offset="0.6244" style="stop-color:#8D6846"/>
			<stop  offset="0.6854" style="stop-color:#7F5B3B"/>
			<stop  offset="0.8652" style="stop-color:#D0A979"/>
			<stop  offset="0.8911" style="stop-color:#C7A172"/>
			<stop  offset="0.9333" style="stop-color:#AF8B60"/>
			<stop  offset="0.9863" style="stop-color:#876743"/>
			<stop  offset="1" style="stop-color:#7C5D3A"/>
		</linearGradient>
		<polygon fill="url(#SVGID_5_)" points="317.944,800.804 -8.063,800.918 -8.076,792.122 317.93,792.017 		"/>
		
			<linearGradient id="SVGID_6_" gradientUnits="userSpaceOnUse" x1="-2.8926" y1="772.0137" x2="35.7725" y2="772.0137" gradientTransform="matrix(0.9833 0 0 1 3.9731 -0.0781)">
			<stop  offset="0.0056" style="stop-color:#B17E41"/>
			<stop  offset="0.191" style="stop-color:#8A5E3B"/>
			<stop  offset="0.3427" style="stop-color:#B37F41"/>
			<stop  offset="0.4888" style="stop-color:#B17E41"/>
			<stop  offset="0.6348" style="stop-color:#8A5E3B"/>
			<stop  offset="0.9663" style="stop-color:#B37F41"/>
		</linearGradient>
		<polygon fill="url(#SVGID_6_)" stroke="#925F36" stroke-width="1.0807" points="39.148,824.992 1.227,825 1.129,734.05 
			21.339,718.872 39.06,734.035 		"/>
		
			<linearGradient id="SVGID_7_" gradientUnits="userSpaceOnUse" x1="42.4551" y1="772.0107" x2="81.127" y2="772.0107" gradientTransform="matrix(0.9833 0 0 1 3.9731 -0.0781)">
			<stop  offset="0.0056" style="stop-color:#B17E41"/>
			<stop  offset="0.191" style="stop-color:#8A5E3B"/>
			<stop  offset="0.3427" style="stop-color:#B37F41"/>
			<stop  offset="0.4888" style="stop-color:#B17E41"/>
			<stop  offset="0.6348" style="stop-color:#8A5E3B"/>
			<stop  offset="0.9663" style="stop-color:#B37F41"/>
		</linearGradient>
		<polygon fill="url(#SVGID_7_)" stroke="#925F36" stroke-width="1.0807" points="83.745,824.977 45.818,825 45.719,734.033 
			65.936,718.865 83.649,734.021 		"/>
		
			<linearGradient id="SVGID_8_" gradientUnits="userSpaceOnUse" x1="87.8066" y1="772.0137" x2="126.4663" y2="772.0137" gradientTransform="matrix(0.9833 0 0 1 3.9731 -0.0781)">
			<stop  offset="0.0056" style="stop-color:#B17E41"/>
			<stop  offset="0.191" style="stop-color:#8A5E3B"/>
			<stop  offset="0.3427" style="stop-color:#B37F41"/>
			<stop  offset="0.4888" style="stop-color:#B17E41"/>
			<stop  offset="0.6348" style="stop-color:#8A5E3B"/>
			<stop  offset="0.9663" style="stop-color:#B37F41"/>
		</linearGradient>
		<polygon fill="url(#SVGID_8_)" stroke="#925F36" stroke-width="1.0807" points="90.406,825 128.327,825 128.238,734.028 
			107.981,718.872 90.313,734.043 		"/>
		
			<linearGradient id="SVGID_9_" gradientUnits="userSpaceOnUse" x1="178.4868" y1="772.0127" x2="217.1421" y2="772.0127" gradientTransform="matrix(0.9833 0 0 1 3.9731 -0.0781)">
			<stop  offset="0.0056" style="stop-color:#B17E41"/>
			<stop  offset="0.191" style="stop-color:#8A5E3B"/>
			<stop  offset="0.3427" style="stop-color:#B37F41"/>
			<stop  offset="0.4888" style="stop-color:#B17E41"/>
			<stop  offset="0.6348" style="stop-color:#8A5E3B"/>
			<stop  offset="0.9663" style="stop-color:#B37F41"/>
		</linearGradient>
		<polygon fill="url(#SVGID_9_)" stroke="#925F36" stroke-width="1.0807" points="217.489,824.986 179.569,825 179.479,734.043 
			199.688,718.869 217.38,734.028 		"/>
		
			<linearGradient id="SVGID_10_" gradientUnits="userSpaceOnUse" x1="133.1494" y1="772.0127" x2="171.8032" y2="772.0123" gradientTransform="matrix(0.9833 0 0 1 3.9731 -0.0781)">
			<stop  offset="0.0056" style="stop-color:#B17E41"/>
			<stop  offset="0.191" style="stop-color:#8A5E3B"/>
			<stop  offset="0.3427" style="stop-color:#B37F41"/>
			<stop  offset="0.4888" style="stop-color:#B17E41"/>
			<stop  offset="0.6348" style="stop-color:#8A5E3B"/>
			<stop  offset="0.9663" style="stop-color:#B37F41"/>
		</linearGradient>
		<polygon fill="url(#SVGID_10_)" stroke="#925F36" stroke-width="1.0807" points="172.908,824.977 134.991,825 134.898,734.035 
			155.109,718.869 172.802,734.028 		"/>
		
			<linearGradient id="SVGID_11_" gradientUnits="userSpaceOnUse" x1="223.8203" y1="772.0127" x2="262.4858" y2="772.0127" gradientTransform="matrix(0.9833 0 0 1 3.9731 -0.0781)">
			<stop  offset="0.0056" style="stop-color:#B17E41"/>
			<stop  offset="0.191" style="stop-color:#8A5E3B"/>
			<stop  offset="0.3427" style="stop-color:#B37F41"/>
			<stop  offset="0.4888" style="stop-color:#B17E41"/>
			<stop  offset="0.6348" style="stop-color:#8A5E3B"/>
			<stop  offset="0.9663" style="stop-color:#B37F41"/>
		</linearGradient>
		<polygon fill="url(#SVGID_11_)" stroke="#925F36" stroke-width="1.0807" points="262.075,824.992 224.16,825 224.056,734.059 
			244.272,718.869 261.999,734.028 		"/>
		
			<linearGradient id="SVGID_12_" gradientUnits="userSpaceOnUse" x1="269.1709" y1="772.0137" x2="307.8174" y2="772.0137" gradientTransform="matrix(0.9833 0 0 1 3.9731 -0.0781)">
			<stop  offset="0.0056" style="stop-color:#B17E41"/>
			<stop  offset="0.191" style="stop-color:#8A5E3B"/>
			<stop  offset="0.3427" style="stop-color:#B37F41"/>
			<stop  offset="0.4888" style="stop-color:#B17E41"/>
			<stop  offset="0.6348" style="stop-color:#8A5E3B"/>
			<stop  offset="0.9663" style="stop-color:#B37F41"/>
		</linearGradient>
		<polygon fill="url(#SVGID_12_)" stroke="#925F36" stroke-width="1.0807" points="306.649,824.992 268.723,825 268.649,734.028 
			288.853,718.872 306.589,734.019 		"/>
		
			<use xlink:href="#Gras_4"  width="44.766" height="23.829" x="-22.384" y="-11.915" transform="matrix(3.1798 0 0 -1.5744 64.9849 781.418)" overflow="visible"/>
		
			<use xlink:href="#Gras_4"  width="44.766" height="23.829" x="-22.384" y="-11.915" transform="matrix(3.4033 0 0 -2.0069 212.2529 776.2588)" overflow="visible"/>
		
			<use xlink:href="#Gras_4"  width="44.766" height="23.829" x="-22.384" y="-11.915" transform="matrix(3.4033 0 0 -2.0069 235.5332 778.4902)" overflow="visible"/>
		
			<use xlink:href="#Gras_4"  width="44.766" height="23.829" x="-22.384" y="-11.915" transform="matrix(3.4595 0 0 -1.1971 248.4717 785.1641)" overflow="visible"/>
		
			<use xlink:href="#Gras_4"  width="44.766" height="23.829" x="-22.384" y="-11.915" transform="matrix(3.4033 0 0 -1.6175 153.1084 780.9033)" overflow="visible"/>
		
			<use xlink:href="#Gras_4"  width="44.766" height="23.829" x="-22.384" y="-11.915" transform="matrix(3.1798 0 0 -1.5744 46.1738 781.418)" overflow="visible"/>
		
			<use xlink:href="#Gras_4"  width="44.766" height="23.829" x="-22.384" y="-11.915" transform="matrix(3.4033 0 0 -2.0069 99.1846 778.0342)" overflow="visible"/>
	</g>
	<g clip-path="url(#SVGID_3_)">
		
			<linearGradient id="SVGID_13_" gradientUnits="userSpaceOnUse" x1="638.8047" y1="740.7158" x2="638.8047" y2="810.9109" gradientTransform="matrix(0.6511 2.000000e-004 2.000000e-004 1 52.0844 -0.044)">
			<stop  offset="0" style="stop-color:#D0A979"/>
			<stop  offset="0.0166" style="stop-color:#BF9A6F"/>
			<stop  offset="0.0507" style="stop-color:#A3805D"/>
			<stop  offset="0.0849" style="stop-color:#8E6D51"/>
			<stop  offset="0.1186" style="stop-color:#82624A"/>
			<stop  offset="0.1517" style="stop-color:#7E5E47"/>
			<stop  offset="0.2472" style="stop-color:#A58160"/>
			<stop  offset="0.427" style="stop-color:#D0A979"/>
			<stop  offset="0.5096" style="stop-color:#B28C62"/>
			<stop  offset="0.6244" style="stop-color:#8D6846"/>
			<stop  offset="0.6854" style="stop-color:#7F5B3B"/>
			<stop  offset="0.8652" style="stop-color:#D0A979"/>
			<stop  offset="0.8911" style="stop-color:#C7A172"/>
			<stop  offset="0.9333" style="stop-color:#AF8B60"/>
			<stop  offset="0.9863" style="stop-color:#876743"/>
			<stop  offset="1" style="stop-color:#7C5D3A"/>
		</linearGradient>
		<polygon fill="url(#SVGID_13_)" points="631.684,761.977 304.653,762.087 304.637,753.297 631.684,753.177 		"/>
		
			<linearGradient id="SVGID_14_" gradientUnits="userSpaceOnUse" x1="638.0674" y1="740.5381" x2="638.0674" y2="810.7123" gradientTransform="matrix(0.6511 2.000000e-004 2.000000e-004 1 52.0844 -0.044)">
			<stop  offset="0" style="stop-color:#D0A979"/>
			<stop  offset="0.0166" style="stop-color:#BF9A6F"/>
			<stop  offset="0.0507" style="stop-color:#A3805D"/>
			<stop  offset="0.0849" style="stop-color:#8E6D51"/>
			<stop  offset="0.1186" style="stop-color:#82624A"/>
			<stop  offset="0.1517" style="stop-color:#7E5E47"/>
			<stop  offset="0.2472" style="stop-color:#A58160"/>
			<stop  offset="0.427" style="stop-color:#D0A979"/>
			<stop  offset="0.5096" style="stop-color:#B28C62"/>
			<stop  offset="0.6244" style="stop-color:#8D6846"/>
			<stop  offset="0.6854" style="stop-color:#7F5B3B"/>
			<stop  offset="0.8652" style="stop-color:#D0A979"/>
			<stop  offset="0.8911" style="stop-color:#C7A172"/>
			<stop  offset="0.9333" style="stop-color:#AF8B60"/>
			<stop  offset="0.9863" style="stop-color:#876743"/>
			<stop  offset="1" style="stop-color:#7C5D3A"/>
		</linearGradient>
		<polygon fill="url(#SVGID_14_)" points="630.698,799.804 304.688,799.918 304.679,791.122 630.675,791.017 		"/>
		
			<linearGradient id="SVGID_15_" gradientUnits="userSpaceOnUse" x1="315.1699" y1="771.0137" x2="353.8359" y2="771.0137" gradientTransform="matrix(0.9833 0 0 1 3.9731 -0.0781)">
			<stop  offset="0.0056" style="stop-color:#B17E41"/>
			<stop  offset="0.191" style="stop-color:#8A5E3B"/>
			<stop  offset="0.3427" style="stop-color:#B37F41"/>
			<stop  offset="0.4888" style="stop-color:#B17E41"/>
			<stop  offset="0.6348" style="stop-color:#8A5E3B"/>
			<stop  offset="0.9663" style="stop-color:#B37F41"/>
		</linearGradient>
		<polygon fill="url(#SVGID_15_)" stroke="#925F36" stroke-width="1.0807" points="351.9,823.992 313.978,824 313.88,733.05 
			334.088,717.872 351.808,733.035 		"/>
		
			<linearGradient id="SVGID_16_" gradientUnits="userSpaceOnUse" x1="360.5166" y1="771.0107" x2="399.1885" y2="771.0107" gradientTransform="matrix(0.9833 0 0 1 3.9731 -0.0781)">
			<stop  offset="0.0056" style="stop-color:#B17E41"/>
			<stop  offset="0.191" style="stop-color:#8A5E3B"/>
			<stop  offset="0.3427" style="stop-color:#B37F41"/>
			<stop  offset="0.4888" style="stop-color:#B17E41"/>
			<stop  offset="0.6348" style="stop-color:#8A5E3B"/>
			<stop  offset="0.9663" style="stop-color:#B37F41"/>
		</linearGradient>
		<polygon fill="url(#SVGID_16_)" stroke="#925F36" stroke-width="1.0807" points="396.495,823.977 358.566,824 358.469,733.033 
			378.689,717.865 396.403,733.021 		"/>
		
			<linearGradient id="SVGID_17_" gradientUnits="userSpaceOnUse" x1="405.8691" y1="771.0137" x2="444.5313" y2="771.0137" gradientTransform="matrix(0.9833 0 0 1 3.9731 -0.0781)">
			<stop  offset="0.0056" style="stop-color:#B17E41"/>
			<stop  offset="0.191" style="stop-color:#8A5E3B"/>
			<stop  offset="0.3427" style="stop-color:#B37F41"/>
			<stop  offset="0.4888" style="stop-color:#B17E41"/>
			<stop  offset="0.6348" style="stop-color:#8A5E3B"/>
			<stop  offset="0.9663" style="stop-color:#B37F41"/>
		</linearGradient>
		<polygon fill="url(#SVGID_17_)" stroke="#925F36" stroke-width="1.0807" points="403.161,824 441.081,824 440.997,733.028 
			420.736,717.872 403.064,733.043 		"/>
		
			<linearGradient id="SVGID_18_" gradientUnits="userSpaceOnUse" x1="496.541" y1="771.0127" x2="535.1953" y2="771.0127" gradientTransform="matrix(0.9833 0 0 1 3.9731 -0.0781)">
			<stop  offset="0.0056" style="stop-color:#B17E41"/>
			<stop  offset="0.191" style="stop-color:#8A5E3B"/>
			<stop  offset="0.3427" style="stop-color:#B37F41"/>
			<stop  offset="0.4888" style="stop-color:#B17E41"/>
			<stop  offset="0.6348" style="stop-color:#8A5E3B"/>
			<stop  offset="0.9663" style="stop-color:#B37F41"/>
		</linearGradient>
		<polygon fill="url(#SVGID_18_)" stroke="#925F36" stroke-width="1.0807" points="530.23,823.986 492.324,824 492.222,733.043 
			512.438,717.869 530.132,733.028 		"/>
		
			<linearGradient id="SVGID_19_" gradientUnits="userSpaceOnUse" x1="451.2119" y1="771.0127" x2="489.8711" y2="771.0123" gradientTransform="matrix(0.9833 0 0 1 3.9731 -0.0781)">
			<stop  offset="0.0056" style="stop-color:#B17E41"/>
			<stop  offset="0.191" style="stop-color:#8A5E3B"/>
			<stop  offset="0.3427" style="stop-color:#B37F41"/>
			<stop  offset="0.4888" style="stop-color:#B17E41"/>
			<stop  offset="0.6348" style="stop-color:#8A5E3B"/>
			<stop  offset="0.9663" style="stop-color:#B37F41"/>
		</linearGradient>
		<polygon fill="url(#SVGID_19_)" stroke="#925F36" stroke-width="1.0807" points="485.663,823.977 447.742,824 447.649,733.035 
			467.856,717.869 485.551,733.028 		"/>
		
			<linearGradient id="SVGID_20_" gradientUnits="userSpaceOnUse" x1="541.8789" y1="771.0127" x2="580.5459" y2="771.0127" gradientTransform="matrix(0.9833 0 0 1 3.9731 -0.0781)">
			<stop  offset="0.0056" style="stop-color:#B17E41"/>
			<stop  offset="0.191" style="stop-color:#8A5E3B"/>
			<stop  offset="0.3427" style="stop-color:#B37F41"/>
			<stop  offset="0.4888" style="stop-color:#B17E41"/>
			<stop  offset="0.6348" style="stop-color:#8A5E3B"/>
			<stop  offset="0.9663" style="stop-color:#B37F41"/>
		</linearGradient>
		<polygon fill="url(#SVGID_20_)" stroke="#925F36" stroke-width="1.0807" points="574.824,823.992 536.914,824 536.803,733.059 
			557.02,717.869 574.751,733.028 		"/>
		
			<linearGradient id="SVGID_21_" gradientUnits="userSpaceOnUse" x1="587.2324" y1="771.0137" x2="625.8721" y2="771.0137" gradientTransform="matrix(0.9833 0 0 1 3.9731 -0.0781)">
			<stop  offset="0.0056" style="stop-color:#B17E41"/>
			<stop  offset="0.191" style="stop-color:#8A5E3B"/>
			<stop  offset="0.3427" style="stop-color:#B37F41"/>
			<stop  offset="0.4888" style="stop-color:#B17E41"/>
			<stop  offset="0.6348" style="stop-color:#8A5E3B"/>
			<stop  offset="0.9663" style="stop-color:#B37F41"/>
		</linearGradient>
		<polygon fill="url(#SVGID_21_)" stroke="#925F36" stroke-width="1.0807" points="619.393,823.992 581.472,824 581.398,733.028 
			601.601,717.872 619.346,733.019 		"/>
		
			<use xlink:href="#Gras_4"  width="44.766" height="23.829" x="-22.384" y="-11.915" transform="matrix(3.1798 0 0 -1.5744 377.7363 781.418)" overflow="visible"/>
		
			<use xlink:href="#Gras_4"  width="44.766" height="23.829" x="-22.384" y="-11.915" transform="matrix(3.4033 0 0 -2.0069 524.998 776.2588)" overflow="visible"/>
		
			<use xlink:href="#Gras_4"  width="44.766" height="23.829" x="-22.384" y="-11.915" transform="matrix(3.4033 0 0 -2.0069 548.2813 778.4902)" overflow="visible"/>
		
			<use xlink:href="#Gras_4"  width="44.766" height="23.829" x="-22.384" y="-11.915" transform="matrix(3.4595 0 0 -1.1971 561.2246 785.1641)" overflow="visible"/>
		
			<use xlink:href="#Gras_4"  width="44.766" height="23.829" x="-22.384" y="-11.915" transform="matrix(3.4033 0 0 -1.6175 465.8535 780.9033)" overflow="visible"/>
		
			<use xlink:href="#Gras_4"  width="44.766" height="23.829" x="-22.384" y="-11.915" transform="matrix(3.1798 0 0 -1.5744 358.9229 781.418)" overflow="visible"/>
		
			<use xlink:href="#Gras_4"  width="44.766" height="23.829" x="-22.384" y="-11.915" transform="matrix(3.4033 0 0 -2.0069 411.9365 778.0342)" overflow="visible"/>
	</g>
</g>
</svg>
