<?xml version="1.0" encoding="utf-8"?>
<!-- Generator: Adobe Illustrator 16.0.0, SVG Export Plug-In . SVG Version: 6.00 Build 0)  -->
<!DOCTYPE svg PUBLIC "-//W3C//DTD SVG 1.1//EN" "http://www.w3.org/Graphics/SVG/1.1/DTD/svg11.dtd">
<svg version="1.1" id="图层_1" xmlns="http://www.w3.org/2000/svg" xmlns:xlink="http://www.w3.org/1999/xlink" x="0px" y="0px"
	 width="595.281px" height="841.891px" viewBox="0 0 595.281 841.891" enable-background="new 0 0 595.281 841.891"
	 xml:space="preserve">
<linearGradient id="SVGID_1_" gradientUnits="userSpaceOnUse" x1="395.9009" y1="840.9128" x2="395.9008" y2="384.9124" gradientTransform="matrix(0.7516 0 0 -0.7516 0.0746 822.9943)">
	<stop  offset="0.0062" style="stop-color:#1F000A"/>
	<stop  offset="0.3144" style="stop-color:#300454"/>
	<stop  offset="0.9927" style="stop-color:#0066AB"/>
</linearGradient>
<rect y="190.951" fill="url(#SVGID_1_)" width="595.281" height="342.737"/>
<radialGradient id="SVGID_2_" cx="270.2007" cy="709.863" r="55.5257" gradientTransform="matrix(0.7516 0 0 -0.7516 0.0746 822.9943)" gradientUnits="userSpaceOnUse">
	<stop  offset="0" style="stop-color:#F1F7E6"/>
	<stop  offset="0.9897" style="stop-color:#A3ACB1"/>
</radialGradient>
<path fill="url(#SVGID_2_)" d="M190.911,276.935c-1.503-7.291,0.15-13.304,1.503-18.189c1.353-4.96,3.157-8.719,4.284-10.898
	c-20.52,3.834-35.401,21.497-35.401,41.339c0,23,18.866,41.865,41.865,41.865s41.865-18.865,41.865-41.865
	c-4.585,3.007-14.356,8.494-27.058,8.043c-5.336-0.15-13.83-0.451-20.293-6.765C192.714,285.579,191.437,279.566,190.911,276.935
	L190.911,276.935z"/>
<g opacity="0.59">
	<path fill="#F1F2F2" d="M246.53,219.436c1.804,0,1.804-2.855,0-2.855C244.727,216.656,244.727,219.436,246.53,219.436z"/>
	<path fill="#F1F2F2" d="M365.285,267.24c2.406,0,2.406-3.759,0-3.759C362.88,263.481,362.88,267.24,365.285,267.24z"/>
	<path fill="#F1F2F2" d="M148.82,242.286c1.202,0,1.202-1.879,0-1.879C147.618,240.407,147.618,242.286,148.82,242.286z"/>
	<path fill="#F1F2F2" d="M200.682,273.854c1.203,0,1.203-1.88,0-1.88S199.479,273.854,200.682,273.854z"/>
	<path fill="#F1F2F2" d="M320.189,403.132c1.203,0,1.203-1.879,0-1.879S318.986,403.132,320.189,403.132z"/>
	<path fill="#F1F2F2" d="M387.833,351.27c1.203,0,1.203-1.879,0-1.879C386.632,349.391,386.632,351.27,387.833,351.27z"/>
	<path fill="#F1F2F2" d="M476.525,415.158c1.203,0,1.203-1.879,0-1.879S475.322,415.158,476.525,415.158z"/>
	<path fill="#F1F2F2" d="M555.445,353.525c1.203,0,1.203-1.879,0-1.879S554.242,353.525,555.445,353.525z"/>
	<path fill="#F1F2F2" d="M517.113,301.664c1.201,0,1.201-1.879,0-1.879C515.91,299.785,515.91,301.664,517.113,301.664z"/>
	<path fill="#F1F2F2" d="M582.503,217.482c1.201,0,1.201-1.879,0-1.879C581.3,215.603,581.3,217.482,582.503,217.482z"/>
	<path fill="#F1F2F2" d="M48.104,415.158c1.203,0,1.203-1.879,0-1.879S46.901,415.158,48.104,415.158z"/>
	<path fill="#F1F2F2" d="M32.319,310.683c1.203,0,1.203-1.88,0-1.88S31.117,310.683,32.319,310.683z"/>
	<path fill="#F1F2F2" d="M99.213,252.808c1.203,0,1.203-1.879,0-1.879S98.011,252.808,99.213,252.808z"/>
	<path fill="#F1F2F2" d="M57.875,233.718c1.804,0,1.804-2.856,0-2.856C56.071,230.936,56.071,233.718,57.875,233.718z"/>
	<path fill="#F1F2F2" d="M77.417,281.069c1.804,0,1.804-2.855,0-2.855C75.613,278.288,75.613,281.069,77.417,281.069z"/>
	<path fill="#F1F2F2" d="M344.24,254.011c1.805,0,1.805-2.856,0-2.856C342.437,251.23,342.437,254.011,344.24,254.011z"/>
	<path fill="#F1F2F2" d="M260.059,330.676c1.804,0,1.804-2.855,0-2.855C258.255,327.895,258.255,330.676,260.059,330.676z"/>
	<path fill="#F1F2F2" d="M123.265,434.399c1.804,0,1.804-2.856,0-2.856C121.461,431.618,121.461,434.399,123.265,434.399z"/>
	<path fill="#F1F2F2" d="M194.668,368.257c1.804,0,1.804-2.856,0-2.856C192.865,365.475,192.865,368.257,194.668,368.257z"/>
</g>
<linearGradient id="SVGID_3_" gradientUnits="userSpaceOnUse" x1="217.105" y1="730.0134" x2="217.105" y2="577.8855" gradientTransform="matrix(0.7516 0 0 -0.7516 0.0746 822.9943)">
	<stop  offset="0" style="stop-color:#4787A1"/>
	<stop  offset="0.9949" style="stop-color:#2F1753"/>
</linearGradient>
<path opacity="0.68" fill="url(#SVGID_3_)" enable-background="new    " d="M57.875,381.109
	c-12.552-2.931-20.594-15.258-18.189-27.659c2.405-12.702,15.032-21.346,27.96-18.94c-0.751-8.193,4.811-15.634,12.777-17.287
	c7.892-1.654,15.859,2.855,18.49,10.522c-0.451-2.255-2.48-13.68,4.811-24.804c7.065-10.898,17.963-13.755,20.293-14.28
	c1.428-7.742,7.667-13.604,15.032-14.281c8.418-0.826,16.611,5.262,18.34,14.281c12.251-4.435,25.78-0.677,33.522,9.02
	c6.539,8.268,7.892,19.617,3.758,29.688c5.036-8.268,14.657-12.627,24.052-10.898c9.696,1.804,17.362,9.696,18.791,19.542
	c0.451-0.226,10.522-5.712,20.294,0c6.915,4.059,10.823,12.101,9.771,20.294c3.683-5.036,9.921-6.689,14.28-4.51
	c4.435,2.255,6.314,9.245,4.961,14.13c-5.412,18.941-62.835,21.196-62.835,21.196s-36.378,1.729-74.41,1.503
	c-35.927-0.226-53.891-2.104-61.633-3.007C75.538,384.191,65.165,382.463,57.875,381.109z"/>
<linearGradient id="SVGID_4_" gradientUnits="userSpaceOnUse" x1="663.5737" y1="810.9558" x2="663.5737" y2="734.8914" gradientTransform="matrix(0.7516 0 0 -0.7516 0.0746 822.9943)">
	<stop  offset="0" style="stop-color:#4787A1"/>
	<stop  offset="0.9949" style="stop-color:#2F1753"/>
</linearGradient>
<path opacity="0.82" fill="url(#SVGID_4_)" enable-background="new    " d="M430.076,266.864
	c-8.193-1.429-13.379-7.667-11.877-13.83c1.578-6.389,9.771-10.673,18.266-9.471c-0.451-4.059,3.156-7.816,8.342-8.644
	c5.111-0.826,10.373,1.429,12.102,5.262c-0.301-1.128-1.578-6.84,3.082-12.401c4.584-5.412,11.725-6.84,13.229-7.141
	c0.902-3.908,5.035-6.765,9.77-7.141c5.488-0.376,10.824,2.631,11.951,7.141c7.967-2.18,16.836-0.376,21.873,4.51
	c4.283,4.134,5.186,9.846,2.48,14.807c3.23-4.134,9.545-6.313,15.709-5.411c6.313,0.901,11.273,4.81,12.25,9.771
	c0.301-0.15,6.84-2.856,13.229,0c4.51,2.029,7.066,6.013,6.389,10.146c2.406-2.555,6.465-3.382,9.32-2.255
	c2.932,1.128,4.135,4.585,3.232,7.065c-3.533,9.471-40.963,10.598-40.963,10.598s-23.752,0.902-48.555,0.752
	c-23.451-0.15-35.176-1.053-40.211-1.503C441.574,268.367,434.81,267.54,430.076,266.864L430.076,266.864z"/>
<linearGradient id="SVGID_5_" gradientUnits="userSpaceOnUse" x1="-2904.4761" y1="785.0593" x2="-2904.4761" y2="718.906" gradientTransform="matrix(-0.8571 0 0 -0.7516 -2071.3804 822.9943)">
	<stop  offset="0" style="stop-color:#4787A1"/>
	<stop  offset="0.9949" style="stop-color:#2F1753"/>
</linearGradient>
<path opacity="0.92" fill="url(#SVGID_5_)" enable-background="new    " d="M464.951,279.341c5.561-1.277,9.17-6.614,8.117-12.025
	c-1.053-5.563-6.689-9.245-12.477-8.193c0.301-3.532-2.18-6.765-5.713-7.516c-3.533-0.677-7.064,1.277-8.268,4.585
	c0.225-0.978,1.127-5.938-2.105-10.748c-3.156-4.735-8.041-5.938-9.02-6.239c-0.6-3.382-3.457-5.862-6.689-6.238
	c-3.758-0.376-7.439,2.33-8.191,6.238c-5.486-1.954-11.5-0.3-14.957,3.909c-2.932,3.607-3.533,8.568-1.654,12.928
	c-2.254-3.608-6.539-5.487-10.748-4.735c-4.359,0.751-7.742,4.209-8.418,8.493c-0.225-0.075-4.66-2.48-9.02,0
	c-3.082,1.729-4.811,5.262-4.359,8.794c-1.654-2.18-4.434-2.932-6.389-1.954c-1.955,0.977-2.855,3.983-2.18,6.163
	c2.404,8.192,28.035,9.17,28.035,9.17s16.234,0.751,33.221,0.676c16.01-0.075,24.053-0.901,27.51-1.277
	C457.058,280.693,461.642,279.942,464.951,279.341z"/>
<linearGradient id="SVGID_6_" gradientUnits="userSpaceOnUse" x1="248.3662" y1="513.3425" x2="248.3662" y2="457.3116" gradientTransform="matrix(0.7516 0 0 -0.7516 0.0746 822.9943)">
	<stop  offset="0" style="stop-color:#4787A1"/>
	<stop  offset="0.9949" style="stop-color:#2F1753"/>
</linearGradient>
<path opacity="0.79" fill="url(#SVGID_6_)" enable-background="new    " d="M137.922,476.49c-5.788-1.053-9.546-5.638-8.418-10.223
	c1.127-4.659,6.99-7.892,13.003-6.989c-0.375-3.007,2.255-5.788,5.938-6.389c3.683-0.602,7.366,1.052,8.568,3.908
	c-0.226-0.827-1.127-5.036,2.18-9.17c3.307-3.983,8.343-5.036,9.395-5.262c0.677-2.855,3.533-5.035,6.99-5.261
	c3.908-0.301,7.667,1.954,8.493,5.261c5.712-1.653,11.951-0.225,15.559,3.308c3.006,3.007,3.683,7.216,1.729,10.898
	c2.33-3.082,6.765-4.66,11.124-3.983c4.51,0.676,8.042,3.532,8.719,7.215c0.226-0.075,4.886-2.104,9.395,0
	c3.232,1.504,5.036,4.435,4.51,7.441c1.729-1.879,4.585-2.48,6.614-1.653c2.029,0.826,2.932,3.382,2.255,5.186
	c-2.48,6.99-29.087,7.817-29.087,7.817s-16.912,0.677-34.5,0.526c-16.686-0.075-25.029-0.752-28.561-1.128
	C146.114,477.617,141.304,477.016,137.922,476.49L137.922,476.49z"/>
<linearGradient id="SVGID_7_" gradientUnits="userSpaceOnUse" x1="76.8652" y1="540.9832" x2="76.8652" y2="484.9522" gradientTransform="matrix(0.7516 0 0 -0.7516 0.0746 822.9943)">
	<stop  offset="0" style="stop-color:#4787A1"/>
	<stop  offset="0.9949" style="stop-color:#2F1753"/>
</linearGradient>
<path opacity="0.79" fill="url(#SVGID_7_)" enable-background="new    " d="M9.02,455.745c-5.788-1.052-9.546-5.637-8.418-10.222
	c1.127-4.66,6.99-7.892,13.003-6.99c-0.376-3.006,2.254-5.787,5.938-6.389s7.366,1.053,8.568,3.908
	c-0.226-0.826-1.127-5.035,2.18-9.169c3.307-3.984,8.343-5.036,9.396-5.262c0.676-2.856,3.532-5.036,6.99-5.262
	c3.909-0.301,7.667,1.954,8.493,5.262c5.712-1.654,11.951-0.226,15.559,3.307c3.006,3.007,3.683,7.216,1.729,10.898
	c2.33-3.081,6.764-4.659,11.124-3.983c4.51,0.677,8.042,3.533,8.719,7.216c0.226-0.075,4.886-2.104,9.396,0
	c3.232,1.503,5.036,4.435,4.51,7.441c1.729-1.88,4.584-2.48,6.614-1.654c2.029,0.827,2.931,3.383,2.254,5.187
	c-2.48,6.99-29.087,7.816-29.087,7.816s-16.911,0.677-34.499,0.526c-16.686-0.075-25.029-0.752-28.562-1.127
	C17.212,456.873,12.402,456.196,9.02,455.745L9.02,455.745z"/>
<linearGradient id="SVGID_8_" gradientUnits="userSpaceOnUse" x1="598.3647" y1="551.9431" x2="598.3647" y2="495.9121" gradientTransform="matrix(0.7516 0 0 -0.7516 0.0746 822.9943)">
	<stop  offset="0" style="stop-color:#4787A1"/>
	<stop  offset="0.9949" style="stop-color:#2F1753"/>
</linearGradient>
<path opacity="0.79" fill="url(#SVGID_8_)" enable-background="new    " d="M400.988,447.477c-5.787-1.052-9.547-5.637-8.418-10.222
	c1.127-4.66,6.99-7.893,13.002-6.99c-0.375-3.007,2.256-5.787,5.938-6.389c3.684-0.602,7.367,1.052,8.568,3.908
	c-0.225-0.826-1.127-5.036,2.18-9.17c3.309-3.983,8.344-5.036,9.396-5.261c0.676-2.856,3.531-5.036,6.99-5.262
	c3.908-0.301,7.666,1.954,8.492,5.262c5.713-1.654,11.951-0.226,15.559,3.307c3.006,3.007,3.684,7.216,1.729,10.898
	c2.33-3.081,6.766-4.66,11.125-3.983c4.51,0.677,8.041,3.532,8.719,7.216c0.225-0.075,4.885-2.104,9.395,0
	c3.232,1.503,5.035,4.435,4.51,7.44c1.729-1.879,4.584-2.48,6.613-1.653c2.031,0.827,2.932,3.383,2.256,5.187
	c-2.48,6.99-29.088,7.816-29.088,7.816s-16.91,0.677-34.498,0.526c-16.688-0.075-25.029-0.752-28.563-1.128
	C409.179,448.605,404.445,448.004,400.988,447.477L400.988,447.477z"/>
<linearGradient id="SVGID_9_" gradientUnits="userSpaceOnUse" x1="532.8862" y1="547.5564" x2="532.8862" y2="471.4854" gradientTransform="matrix(0.7516 0 0 -0.7516 0.0746 822.9943)">
	<stop  offset="0" style="stop-color:#4787A1"/>
	<stop  offset="0.9949" style="stop-color:#2F1753"/>
</linearGradient>
<path opacity="0.79" fill="url(#SVGID_9_)" enable-background="new    " d="M328.457,464.84c-8.568-1.428-14.055-7.666-12.477-13.83
	c1.652-6.389,10.297-10.673,19.166-9.47c-0.525-4.059,3.307-7.817,8.719-8.644c5.412-0.827,10.822,1.428,12.701,5.261
	c-0.299-1.127-1.652-6.839,3.309-12.401c4.811-5.412,12.326-6.84,13.904-7.141c0.977-3.908,5.262-6.765,10.297-7.141
	c5.787-0.375,11.35,2.631,12.553,7.141c8.418-2.18,17.662-0.376,22.924,4.51c4.436,4.134,5.412,9.847,2.555,14.882
	c3.459-4.134,9.998-6.313,16.461-5.411c6.689,0.902,11.875,4.811,12.854,9.771c0.301-0.15,7.215-2.855,13.904,0
	c4.734,2.03,7.365,6.014,6.689,10.147c2.555-2.556,6.84-3.383,9.771-2.255c3.082,1.127,4.359,4.585,3.383,7.065
	c-3.684,9.47-42.918,10.598-42.994,10.598c0,0-24.877,0.901-50.883,0.751c-24.578-0.15-36.904-1.052-42.166-1.503
	C340.558,466.343,333.492,465.516,328.457,464.84L328.457,464.84z"/>
<linearGradient id="SVGID_10_" gradientUnits="userSpaceOnUse" x1="-2979.8203" y1="552.9128" x2="-2979.8203" y2="352.5129" gradientTransform="matrix(-0.7516 0 0 -0.7516 -1942.0414 822.9943)">
	<stop  offset="0.0051" style="stop-color:#412267"/>
	<stop  offset="1" style="stop-color:#160B45"/>
</linearGradient>
<path fill="url(#SVGID_10_)" d="M595.281,476.264c-2.707-3.232-5.412-6.389-8.043-9.621c0.076,0.752,0.752,9.17-3.834,15.107
	c-4.133,5.337-9.318,4.435-10.07,4.284c-1.578,0.15-11.049,0.978-17.814-8.644c-2.631-3.758-3.982-7.892-4.66-10.748l-12.4,9.696
	c-10.824-14.131-25.18-30.29-43.293-45.247c-12.477-10.223-24.277-17.889-34.801-23.677c-3.758,9.546-13.904,31.869-33.973,47.353
	c-19.092,14.731-36.98,15.408-44.797,15.107c-2.33-0.827-6.84-2.932-10.822-8.644c-1.879-2.631-3.082-5.337-3.834-7.517
	c-6.313,9.696-16.611,23.301-31.719,34.424c-18.037,13.379-57.047,20.369-61.857,15.108c-6.464-7.216-6.238-18.189-6.163-19.393
	c-6.164,7.517-12.402,15.108-18.565,22.624c-8.794-9.846-20.594-21.195-35.552-31.192c-13.529-9.094-26.081-14.731-36.303-18.264
	c-8.869,9.395-36.153,36.604-68.773,42.016c-14.807,2.479-31.643,7.892-39.385-5.412c-6.088-10.297-3.758-26.231-2.33-33.372
	c-11.951,8.719-24.803,19.617-37.881,33.372c-4.059,4.284-7.967,8.644-11.575,12.928c-4.434-1.353-16.535-9.546-16.535-9.546
	L0,558.04c0,0,395.05-2.104,595.281-3.156"/>
<linearGradient id="SVGID_11_" gradientUnits="userSpaceOnUse" x1="395.9497" y1="513.9128" x2="395.9497" y2="373.9128" gradientTransform="matrix(0.7516 0 0 -0.7516 0.0746 822.9943)">
	<stop  offset="0" style="stop-color:#372871"/>
	<stop  offset="1" style="stop-color:#190020"/>
</linearGradient>
<path fill="url(#SVGID_11_)" d="M0,485.81c3.006-2.556,6.013-5.187,9.095-7.742c-0.075,0.526-0.752,6.389,3.758,10.522
	c4.059,3.684,9.095,3.082,9.771,3.007c1.579,0.15,10.748,0.677,17.287-6.013c2.556-2.631,3.833-5.487,4.51-7.517
	c3.984,2.255,8.042,4.51,12.026,6.765c10.523-9.921,24.503-21.195,42.091-31.568c12.101-7.14,23.601-12.477,33.823-16.535
	c3.683,6.689,13.529,22.248,33.071,33.071c18.565,10.297,35.927,10.748,43.594,10.522c2.255-0.602,6.689-2.029,10.523-6.013
	c1.804-1.879,3.006-3.758,3.758-5.262c6.088,6.765,16.16,16.235,30.816,24.052c17.513,9.32,55.47,14.281,60.13,10.522
	c6.238-5.035,6.012-12.702,6.012-13.528l18.039,15.783c8.568-6.84,20.068-14.807,34.574-21.797
	c13.154-6.389,25.33-10.297,35.326-12.777c8.645,6.539,35.176,25.555,66.895,29.313c14.43,1.729,30.74,5.562,38.332-3.759
	c5.863-7.215,3.607-18.264,2.254-23.3c11.65,6.088,24.127,13.68,36.83,23.3c3.984,3.007,7.742,6.014,11.273,9.02
	c4.359-0.977,10.148-2.78,16.086-6.689c6.313-4.134,15.408-7.666,15.482-7.816v50.584L0,539.701"/>
<linearGradient id="SVGID_12_" gradientUnits="userSpaceOnUse" x1="395.9009" y1="447.9822" x2="395.9009" y2="285.4133" gradientTransform="matrix(0.7516 0 0 -0.7516 0.0746 822.9943)">
	<stop  offset="0" style="stop-color:#441854"/>
	<stop  offset="0.1641" style="stop-color:#31083B"/>
	<stop  offset="0.2881" style="stop-color:#220028"/>
	<stop  offset="0.3518" style="stop-color:#1A0020"/>
	<stop  offset="0.355" style="stop-color:#1A0020"/>
	<stop  offset="0.449" style="stop-color:#180424"/>
	<stop  offset="0.5449" style="stop-color:#161127"/>
	<stop  offset="0.6425" style="stop-color:#15182A"/>
	<stop  offset="0.7426" style="stop-color:#141B2B"/>
	<stop  offset="0.8493" style="stop-color:#131C2B"/>
</linearGradient>
<path fill="url(#SVGID_12_)" d="M0.376,505.127c14.431-6.464,32.545-12.777,53.74-16.235
	c60.505-9.921,101.844,10.522,169.114,26.833c31.793,7.666,75.313,11.875,162.35,20.293c92.449,8.944,209.701,15.483,209.701,15.483
	v28.862c0,0-585.735,25.705-595.281,28.11C0.376,505.127,0,608.398,0.376,505.127L0.376,505.127z"/>
<linearGradient id="SVGID_13_" gradientUnits="userSpaceOnUse" x1="396.1509" y1="395.0276" x2="396.1509" y2="262.2839" gradientTransform="matrix(0.7516 0 0 -0.7516 0.0746 822.9943)">
	<stop  offset="0" style="stop-color:#441854"/>
	<stop  offset="0.1641" style="stop-color:#31083B"/>
	<stop  offset="0.2881" style="stop-color:#220028"/>
	<stop  offset="0.3518" style="stop-color:#1A0020"/>
	<stop  offset="0.355" style="stop-color:#1A0020"/>
	<stop  offset="0.449" style="stop-color:#180424"/>
	<stop  offset="0.5449" style="stop-color:#161127"/>
	<stop  offset="0.6425" style="stop-color:#15182A"/>
	<stop  offset="0.7426" style="stop-color:#141B2B"/>
	<stop  offset="0.8493" style="stop-color:#131C2B"/>
</linearGradient>
<path fill="url(#SVGID_13_)" d="M0.376,531.358c52.538,15.708,143.709,40.286,251.04,18.113c11.35-2.33,7.441-1.954,27.81-6.765
	c98.838-23.375,316.055-15.258,316.055-15.258s0,72.531,0,72.005c0-0.525-403.844,78.094-594.003-33.521
	c-1.203-24.954-0.15-2.405-0.751-29.989C0.451,534.59,0.451,533.011,0.376,531.358z"/>
<linearGradient id="SVGID_14_" gradientUnits="userSpaceOnUse" x1="396.3999" y1="340.2126" x2="396.3999" y2="228.8123" gradientTransform="matrix(0.7516 0 0 -0.7516 0.0746 822.9943)">
	<stop  offset="0" style="stop-color:#441854"/>
	<stop  offset="0.1641" style="stop-color:#31083B"/>
	<stop  offset="0.2881" style="stop-color:#220028"/>
	<stop  offset="0.3518" style="stop-color:#1A0020"/>
	<stop  offset="0.355" style="stop-color:#1A0020"/>
	<stop  offset="0.449" style="stop-color:#180424"/>
	<stop  offset="0.5449" style="stop-color:#161127"/>
	<stop  offset="0.6425" style="stop-color:#15182A"/>
	<stop  offset="0.7426" style="stop-color:#141B2B"/>
	<stop  offset="0.8493" style="stop-color:#131C2B"/>
</linearGradient>
<path fill="url(#SVGID_14_)" d="M595.281,567.285c-87.639,10.522-186.477,17.663-294.785,17.738
	c-110.261,0.075-210.828-7.065-299.744-17.738v83.73h594.529V567.285L595.281,567.285z"/>
<linearGradient id="SVGID_15_" gradientUnits="userSpaceOnUse" x1="45.896" y1="770.6375" x2="87.6333" y2="770.6375" gradientTransform="matrix(4.6398 0 0 -4.6398 -0.4688 4175.9395)">
	<stop  offset="0" style="stop-color:#000000;stop-opacity:0.4"/>
	<stop  offset="1" style="stop-color:#000000;stop-opacity:0.4"/>
</linearGradient>
<path fill="url(#SVGID_15_)" d="M354.495,579.705c2.095-0.487,5.868-0.802,11.312-0.942c1.676,0,4.189-0.035,7.541-0.104
	c2.933,0,5.412,0.104,7.438,0.314c1.465,0.209,3.734,0.454,6.808,0.732c0.698,0.069,1.465,0.386,2.304,0.943
	c0.489,0.28,1.187,0.732,2.096,1.361c1.186,0.628,3.072,0.907,5.655,0.836c1.187,0.138,3.038,0.56,5.55,1.259l-0.105,0.836
	c0.35,0.138,1.047,0.386,2.095,0.735c0.838,0.487,1.116,1.047,0.838,1.676c-0.212,0.418-0.838,0.732-1.886,0.942
	c-1.115,0.138-1.779,0.383-1.99,0.733c-0.138,0.209-0.173,0.487-0.104,0.837c0.139,0.417,0.177,0.767,0.104,1.048
	c-0.416,0.209-1.185,0.452-2.303,0.733c-1.049,0.138-1.781,0.35-2.199,0.628c0.347-0.069,0.627,0.105,0.836,0.523
	c0.14,0.35,0.14,0.735,0,1.152c-0.139,0.35-0.349,0.595-0.629,0.735h-1.048c-1.187,0.069-2.095,0.138-2.723,0.21
	c-1.187,0.138-2.095,0.35-2.724,0.628c0,1.535-0.069,2.409-0.211,2.618c-0.279,0.631-0.734,0.909-1.359,0.838
	c-0.838,0-1.361,0.069-1.572,0.209c0.139,0.351,0.139,0.7,0,1.048c-0.211,0.35-0.313,0.595-0.313,0.735
	c0,0.419-0.419,0.802-1.257,1.152c-0.699,0.209-0.873,0.419-0.523,0.628c0.766,0.419,0.662,1.012-0.314,1.782
	c-1.257,0.836-2.094,1.36-2.514,1.571c-1.115,0.767-1.918,1.083-2.406,0.94c-1.117-0.278-2.06-0.383-2.83-0.312
	c0.141,0.697-0.174,1.186-0.941,1.466c-0.908,0.21-1.501,0.384-1.781,0.523c-0.488,0.21-0.768,0.453-0.836,0.733
	c-0.212,0.488-0.386,0.838-0.523,1.048c-0.212,0.209-0.805,0.385-1.783,0.523c-0.767,0.068-1.186,0.559-1.257,1.466
	c-1.535,0.488-3.178,0.909-4.925,1.257c-0.629,0.139-1.047,0.35-1.256,0.628c-0.488,0.631-0.768,0.979-0.838,1.048
	c-0.349,0.281-1.359,0.419-3.036,0.419c-0.56,0-1.57-0.138-3.036-0.419c-1.26-0.278-2.271-0.348-3.038-0.209
	c-2.095,0.138-3.597,0.385-4.503,0.732c-1.187,0.35-1.919,0.488-2.2,0.419c-0.628-0.487-1.116-0.767-1.466-0.836
	c-0.56-0.211-1.291-0.245-2.199-0.106c-1.186,0.141-1.92,0.212-2.199,0.212l-4.085-0.629c-0.419-0.071-1.222-0.106-2.407-0.106
	c-0.978,0-1.746-0.104-2.306-0.313c-0.697-0.488-1.257-0.769-1.677-0.838h-1.885v-0.209l-0.104,0.104
	c-1.186,0.281-2.026,0.488-2.513,0.629c-0.698,0.559-1.291,0.978-1.781,1.259c-0.35,0.138-0.805,0.209-1.361,0.209
	c-0.767-0.069-1.222-0.104-1.359-0.104c-0.629,0.278-1.186,0.523-1.676,0.733c-1.26,0.699-3.073,0.978-5.449,0.838
	c-1.256-0.909-3.314-0.874-6.178,0.104l-0.313,0.523c-1.607,2.164-4.713,2.933-9.322,2.304c-1.115-0.347-1.92-0.487-2.408-0.416
	c-0.488,0.209-0.874,0.348-1.152,0.416c-0.697,0-1.152,0.141-1.361,0.42c-0.069,0.628-0.209,1.011-0.419,1.151
	c-0.488,0.419-1.397,0.488-2.723,0.212c-1.257-0.281-2.13-0.662-2.618-1.152l0.209-0.942l-2.828-0.104
	c-3.001,0-5.027-0.281-6.074-0.838c-0.697-0.351-0.979-0.662-0.838-0.942c0.279-0.836,0.419-1.291,0.419-1.36
	c-2.095-0.487-2.444-1.012-1.047-1.57c-1.047-0.56-2.654-0.7-4.818-0.419c-2.373,0.278-4.049,0.243-5.027-0.105
	c-0.769-0.364-1.152-0.747-1.152-1.166c-0.138-1.117-0.245-1.745-0.314-1.884c-0.139-0.35-0.593-0.699-1.362-1.047
	c-0.907-0.419-1.501-0.769-1.78-1.048c-0.279-0.28-0.559-0.873-0.838-1.782c-0.279-0.767-0.559-1.257-0.838-1.464
	c-0.419-0.212-1.117-0.212-2.095,0c-1.257,0.278-1.957,0.417-2.095,0.417c-0.838,0.071-1.535,0.106-2.094,0.106
	c-0.979,0-1.607-0.14-1.886-0.419c-0.488-0.487-0.488-0.909,0-1.259c0.35-0.138,0.874-0.383,1.571-0.733
	c0-0.697-0.769-1.397-2.304-2.095c-1.257-0.628-2.34-0.979-3.247-1.047c-1.047,0-1.85-0.036-2.409-0.104
	c-0.907,0-1.709-0.139-2.409-0.419v-1.886c-0.488,0-1.257-0.174-2.304-0.523c-0.907-0.348-1.676-0.488-2.304-0.417
	c-2.654,0.697-4.642,1.047-5.97,1.047c-1.257,0-3.142-0.35-5.656-1.047c-1.326-0.28-2.164-0.488-2.514-0.63
	c-0.769-0.488-0.873-1.257-0.314-2.305c-2.025-0.138-3.42-0.419-4.189-0.838c-0.139-0.069-0.629-0.384-1.467-0.94
	c-0.418-0.35-0.909-0.523-1.466-0.523c-2.235,0.138-3.492,0.174-3.771,0.104c-1.536-0.138-2.689-0.699-3.456-1.676
	c0.209-0.419,0.628-0.631,1.256-0.631c0.35-0.068,0.874-0.104,1.571-0.104c2.444-0.278,4.154-0.661,5.132-1.151l30.582-1.258
	c1.186,0,4.922,0.349,11.207,1.048c1.885,0.21,4.887,0.452,9.007,0.733c3.63,0.419,6.529,1.361,8.693,2.828
	c2.514,1.677,4.818,3.841,6.913,6.495c2.166,2.861,3.771,5.76,4.818,8.69l0.523,1.99c0.769-0.278,2.304-0.419,4.608-0.419
	c0.071,0,3.98-0.104,11.732-0.313c4.749-0.068,8.657-0.068,11.73,0c0.838,0.069,2.025,0.069,3.561,0
	c1.467,0,2.654,0.139,3.561,0.419l2.096,0.523l-2.096-16.969c0.488-0.418,2.479-1.64,5.971-3.665
	c4.677-2.654,9.217-4.887,13.615-6.703C351.212,580.753,353.726,579.844,354.495,579.705L354.495,579.705z"/>
<g>
	<path fill="#6E4325" d="M365.597,573.526c2.025-0.348,3.839-0.069,5.445,0.838c0.56,0.28,1.293,0.873,2.199,1.78
		c4.052-0.21,5.935,0.805,5.656,3.037c0.629-0.068,1.466,0.036,2.514,0.314c0.559,0.139,1.359,0.35,2.407,0.629
		c0.068,0,0.872,0.068,2.409,0.209c0.978,0.071,1.744,0.212,2.304,0.419l1.154,0.419c0.278,0.209,0.382,0.733,0.312,1.57
		c0.91,0.21,2.375,0.245,4.401,0.105c1.257,0,2.056,0.104,2.406,0.314c0.28,0.209,0.488,0.488,0.629,0.835
		c0.212,0.351,0.386,0.562,0.523,0.631c0.28,0.139,0.769,0.21,1.466,0.21c0.629,0.138,0.805,0.661,0.523,1.57
		c-0.209,0.77-1.29,1.257-3.246,1.467c0,1.116-0.174,1.85-0.524,2.199c-0.349,0.35-1.011,0.523-1.989,0.523l-3.143-0.104
		c1.048,0.35,1.434,1.083,1.152,2.199c-0.139,0.56-0.383,0.873-0.733,0.942h-1.151c-1.885,0-3.283,0.105-4.189,0.313
		c0.068,1.118-0.245,1.99-0.942,2.618c-0.629,0.562-1.326,0.838-2.095,0.838l0.104,0.314c0.28,2.304-0.697,3.525-2.931,3.666
		c-2.725-0.212-4.434-0.314-5.131-0.314c0.349,1.328,0.137,2.095-0.629,2.304c-0.07,0-0.838-0.036-2.307-0.104
		c0.211,0.56,0.314,1.188,0.314,1.886c0.068,1.466-0.488,2.373-1.676,2.723c-1.117,0.28-1.678,0.873-1.678,1.78
		c-0.279,0.35-0.662,0.523-1.152,0.523c-0.697,0.071-1.116,0.141-1.256,0.212c-0.42,0.069-0.806,0.278-1.152,0.628
		c-0.489,0.419-0.91,0.769-1.26,1.048c-0.35,0.28-0.906,0.454-1.676,0.523c-0.838,0.069-1.396,0.21-1.676,0.419
		c-0.211,0.139-0.593,0.559-1.151,1.257c-0.351,0.419-0.769,0.699-1.259,0.838c-0.767,0.278-1.851,0.209-3.247-0.212
		c-1.606-0.485-2.724-0.697-3.352-0.628c-2.515,0.14-4.228-0.105-5.132-0.733c0,2.095-0.838,2.968-2.514,2.618
		c-1.186-0.28-2.444-1.012-3.771-2.199c0.069,1.464-0.909,2.06-2.933,1.78c-2.025-0.35-2.896-1.396-2.618-3.142
		c-0.419,0.769-1.397,1.292-2.931,1.57c-1.609,0.21-2.445-0.242-2.514-1.361c-2.514,0.7-3.527,0.35-3.037-1.047
		c-0.769-0.348-1.432-0.417-1.99-0.21c-0.209,0.069-0.767,0.455-1.676,1.152c-0.35,0.769-0.732,1.259-1.151,1.466
		c-0.281,0.139-0.629,0.175-1.048,0.105c-0.559-0.069-0.942-0.069-1.152,0c-0.35,0.069-0.873,0.385-1.57,0.942
		c-0.7,0.419-1.293,0.697-1.783,0.838c-0.697,0.139-1.92,0-3.665-0.419c-1.466-0.281-2.723-0.212-3.771,0.209
		c-0.21,0.069-0.523,0.314-0.942,0.735c-0.411,0.419-0.83,0.664-1.249,0.733l-0.942-0.104c0,0.697-0.138,1.221-0.419,1.57
		c-0.907,1.397-3.492,1.291-7.75-0.313l-0.209,0.838c-0.769,0-1.257-0.069-1.466-0.212c-0.767,2.025-2.269,2.969-4.503,2.83
		c-2.304-0.069-3.316-1.433-3.038-4.085c-0.769,0.069-1.99,0.281-3.666,0.629c-1.606,0.419-2.863,0.628-3.771,0.628
		c-1.047-0.069-1.849-0.312-2.409-0.733c-0.769-0.487-0.523-1.151,0.733-1.989c-0.697-0.139-1.221-0.278-1.571-0.419
		c-0.628-0.278-0.978-0.733-1.047-1.359c0.698-0.56,0.976-1.259,0.838-2.095c-0.628-0.069-2.409,0.385-5.341,1.359
		c-2.444,0.769-4.154,0.699-5.132-0.21c-0.419-0.419-0.909-1.78-1.466-4.084c-0.976,0.978-1.885,0.699-2.723-0.836
		c-0.769-1.888-1.361-3.004-1.78-3.354c-0.279-0.21-0.56-0.21-0.838,0c-0.419,0.35-0.698,0.523-0.838,0.523
		c-1.257,0.212-2.304,0.314-3.142,0.314c-1.606,0.069-2.619-0.245-3.037-0.942c-0.138-0.279-0.174-0.662-0.105-1.152
		c0.069-0.488,0.069-0.805,0-0.942c-0.14-0.21-0.35-0.314-0.628-0.314c-0.35-0.069-0.559-0.174-0.628-0.313l-0.838-0.837v-0.629
		l-0.628-0.942c-0.209-0.21-1.256-0.139-3.142,0.211c-1.397,0.21-2.059-0.63-1.99-2.513c-1.188,0-1.921-0.139-2.199-0.419
		c0.071-0.698-0.138-1.152-0.628-1.362l-1.257-0.104c-0.488,0.069-1.117,0.314-1.885,0.735c-0.978,0.417-1.64,0.697-1.99,0.836
		c-0.838,0.211-1.814,0.245-2.933,0.104c-1.257-0.209-2.199-0.348-2.828-0.417c-1.466,0.139-2.654,0.174-3.561,0.104
		c-1.607-0.28-2.2-1.327-1.781-3.142l0.314-0.628c-3.42,0.767-5.306,0.035-5.656-2.202c-1.257,0.35-2.618,0.523-4.084,0.523
		c-1.745,0-3.106-0.347-4.084-1.047c-0.279-1.884,0.523-2.757,2.409-2.618c-0.071-0.139-0.036-0.836,0.105-2.095
		c0.278,0,1.816-0.384,4.608-1.152c0-0.419,0.243-0.836,0.733-1.257c0.56-0.35,1.222-0.56,1.99-0.628
		c-0.069-0.909,0-1.536,0.209-1.886c0.209-0.209,0.593-0.454,1.152-0.732c0.698-0.281,1.816-0.281,3.352,0
		c1.536,0.347,2.618,0.347,3.247,0c0.35-0.212,0.733-0.56,1.152-1.048c0.488-0.35,1.257-0.699,2.304-1.047
		c0.488-0.212,1.186-0.735,2.095-1.571c0.697-0.35,1.745-0.28,3.142,0.209c1.397,0.419,2.409,0.386,3.038-0.104
		c0.278-0.212,0.802-0.979,1.571-2.306c0.698-0.977,1.326-0.836,1.885,0.418c0.209-0.628,0.838-0.871,1.885-0.732
		c1.257,0.138,2.059,0.069,2.409-0.212c0.419-0.278,1.047-1.047,1.885-2.304c0.769-0.838,1.502-0.629,2.2,0.628
		c0.35-0.978,0.978-1.64,1.885-1.989l2.304-0.733c0.209-0.139,0.56-0.488,1.047-1.048c0.419-0.419,0.838-0.662,1.257-0.732
		c0.209-0.069,0.698-0.069,1.466,0c0.628,0,1.083-0.107,1.362-0.314l12.463,5.551c16.408,1.466,26.289,9.25,29.64,23.355
		c0.28,1.116,0.487,2.654,0.631,4.608c3.141-1.676,5.897-2.654,8.271-2.933c9.426-1.186,17.35-0.486,23.776,2.095l1.149,0.314
		c1.257-0.488,3.84-1.048,7.751-1.676c0.697-0.698,1.744-1.536,3.142-2.514c1.326-0.838,3.002-1.502,5.025-1.99
		c1.188-0.278,2.898-0.662,5.132-1.152c1.466-0.487,3.142-0.837,5.026-1.047l-0.104-0.629c1.606-1.116,3.597-1.885,5.97-2.306
		c-4.957-0.139-8.938-1.326-11.939-3.559c-1.676-1.397-2.444-2.969-2.304-4.714c0.21-1.606,0.907-2.898,2.095-3.877
		C359.732,575.48,361.966,574.295,365.597,573.526L365.597,573.526z"/>
	<g>
		<path fill="#5E3C22" d="M232.376,586.512c1.536-0.278,2.654-0.419,3.352-0.419c1.816,0,3.911,1.013,6.284,3.038
			c0.209,0.211,0.664,0.454,1.361,0.735c0.628,0.278,1.047,0.56,1.257,0.836c0.279,0.28,0.455,0.734,0.524,1.361
			c0.209,0.278,0.523,0.559,0.942,0.836c0.35,0.28,0.523,0.804,0.523,1.57c0.069,0.909-0.314,1.782-1.152,2.618l-0.733,0.735
			c-0.979,0-1.607-0.138-1.885-0.419c0.071-0.697-0.138-1.152-0.628-1.361l-1.257-0.104c-0.488,0.068-1.116,0.313-1.885,0.735
			c-0.978,0.417-1.64,0.697-1.99,0.836c-0.838,0.211-1.814,0.245-2.933,0.104c-1.257-0.21-2.199-0.348-2.828-0.417
			c-1.466,0.138-2.654,0.174-3.561,0.104c-1.607-0.28-2.2-1.328-1.781-3.142l0.314-0.629c-3.42,0.767-5.306,0.036-5.656-2.201
			c-1.257,0.35-2.618,0.523-4.084,0.523c-1.745,0-3.106-0.348-4.084-1.047c-0.209-1.257,0-2.023,0.628-2.305
			c-0.279,1.606,0.838,2.409,3.351,2.409c0.838,0,1.291-0.036,1.362-0.107c0.488-0.138,0.697-0.592,0.628-1.359
			c0-0.628-0.174-1.012-0.524-1.151c-0.419-0.141-0.769-0.245-1.047-0.314l1.047-0.733c0.35,0,0.838,0.139,1.466,0.417h0.628
			c0.071-0.139,0.174-0.417,0.314-0.836c0.21-0.28,0.314-0.697,0.314-1.259c0.278,1.119,0.943,1.609,1.99,1.467
			c1.397-0.139,2.235-0.105,2.513,0.104c-0.14,0.35-0.488,0.838-1.047,1.466c-0.35,0.7-0.385,1.397-0.104,2.095
			c0.281,0.629,0.874,1.012,1.78,1.152c0.909,0.071,1.606-0.104,2.095-0.523c-0.069,0.28-0.35,0.735-0.838,1.361
			c-0.419,0.629-0.628,1.083-0.628,1.361c-0.071,1.257,0.56,1.883,1.885,1.883l2.514-0.628c0.419-0.35,0.523-0.909,0.314-1.676
			l-0.419-1.676c0.35-0.212,0.909-0.35,1.676-0.419c-0.697,1.956-0.104,3.106,1.781,3.454c1.957,0.419,2.654-0.452,2.095-2.618
			c0.419-0.279,0.697-0.243,0.838,0.107c0.071,0.138,0.14,0.416,0.209,0.835c0.209,0.212,0.419,0.419,0.629,0.629
			c0.069,0.07,0.35,0.106,0.838,0.106c1.954,0,2.654-0.873,2.094-2.618c-0.209-0.56-0.595-0.909-1.152-1.048
			c-0.628,0-1.083-0.035-1.362-0.106c-0.418-0.069-0.873-0.383-1.361-0.94c-0.419-0.419-0.874-0.631-1.362-0.631
			c0.069-0.906-0.769-1.431-2.513-1.57c-1.885,0-2.968-0.069-3.247-0.21C229.932,586.863,230.77,586.722,232.376,586.512
			L232.376,586.512z"/>
		<path fill="#5E3C22" d="M264.005,607.46c0.698-1.048,1.257-1.571,1.676-1.571l-0.209,0.629c0.628-0.629,1.326-1.048,2.095-1.257
			c-0.071,0.209-0.385,0.697-0.942,1.466c-0.419,0.629-0.698,1.152-0.838,1.571c-0.209,1.048,0.036,2.199,0.733,3.454l0.105-0.21
			c0.209,0.139,0.523,0.245,0.942,0.314v-0.523c0.976,0.278,2.164,0.174,3.561-0.314l2.095-0.314c0.209,0,0.559,0.038,1.047,0.107
			c0.488-0.069,0.698-0.386,0.628-0.943l-1.152-0.211l-0.104-0.94c0.419,0.069,0.802-0.176,1.152-0.735
			c0.978-0.139,1.745-0.174,2.304-0.104c-0.697,1.047-1.047,1.815-1.047,2.304c0.35,0.071,0.909,0.106,1.676,0.106v2.096
			l-0.524,0.104c-0.559-0.069-2.339,0.385-5.341,1.359c-2.445,0.769-4.119,0.699-5.027-0.21c-0.419-0.419-0.909-1.78-1.466-4.084
			c-0.976,0.979-1.885,0.699-2.723-0.836c-0.769-1.886-1.361-3.002-1.78-3.352c-0.279-0.21-0.56-0.21-0.838,0
			c-0.419,0.35-0.698,0.523-0.838,0.523c-1.257,0.212-2.304,0.314-3.142,0.314c-1.606,0.069-2.619-0.245-3.037-0.942
			c-0.138-0.279-0.174-0.662-0.105-1.152c0.069-0.488,0.069-0.805,0-0.942c-0.071-0.069-0.385-0.21-0.942-0.419l0.209-0.21
			c0.418-0.35,1.083-0.662,1.99-0.942c-0.838,0.769-1.221,1.502-1.152,2.199c0,0.629,0.455,0.909,1.361,0.838
			c1.535-0.138,2.34-0.211,2.409-0.211c0.698,0.211,1.571,0,2.619-0.629l-0.314-0.733c1.119,0,1.781,0.139,1.99,0.42l0.21,1.256
			c0.138,0.419,0.523,0.979,1.152,1.676C263.063,607.67,263.586,608.016,264.005,607.46L264.005,607.46z"/>
		<path fill="#5E3C22" d="M290.189,613.429c-0.138,0.209-0.383,0.488-0.733,0.836c-0.278,0.35-0.488,0.664-0.628,0.942
			c-0.138,0.909-0.314,1.571-0.524,1.99l-0.314,0.732c-0.769,0-1.957,0.212-3.561,0.629c-1.536,0.35-2.757,0.523-3.666,0.523
			c-2.784-0.209-3.55-0.94-2.304-2.199c-0.134,0.146-0.134,0.32,0,0.523c0.697,0.419,1.642,0.523,2.828,0.314
			c0.071,0,0.978-0.28,2.723-0.838c0.138,0,0.419,0.036,0.838,0.104c0.209-0.138,0.419-0.417,0.628-0.835
			c0.278-0.069,0.664-0.036,1.152,0.104c0.419-0.139,0.802-0.593,1.152-1.362c0.209-0.348,0.523-0.942,0.942-1.78l-0.104,0.838
			L290.189,613.429z"/>
		<path fill="#5E3C22" d="M281.706,613.953c0.907-0.63,1.535-0.942,1.885-0.942c-1.047,1.116-1.816,1.921-2.304,2.407
			c-0.976,0.837-1.885,1.258-2.723,1.258l0.523-0.313c-0.697-0.139-1.221-0.278-1.571-0.419c-0.628-0.278-0.978-0.733-1.047-1.359
			l0.314-0.419l0.209,0.313c0.697,0.417,1.85,0.139,3.456-0.837l-0.419,0.837C280.311,614.686,280.868,614.512,281.706,613.953
			L281.706,613.953z"/>
		<path fill="#5E3C22" d="M250.495,599.604c0.697,0.141,1.291,0.104,1.78-0.104c-0.559,0.35-1.047,0.838-1.466,1.467l-0.628-0.838
			c-0.278-0.279-1.152-0.243-2.618,0.104c-1.326,0.28-2.13-0.036-2.409-0.94c0.769,0.138,1.397,0.104,1.885-0.106
			c1.188-0.418,2.339-0.629,3.456-0.629V599.604z"/>
		<path fill="#5E3C22" d="M306.737,611.963c-0.979-0.35-1.536-0.592-1.676-0.734c1.326-0.069,3.28-0.175,5.865-0.313
			c2.234-0.212,4.153-0.56,5.761-1.048c-0.139,0.21-0.734,0.733-1.781,1.571c0.836-0.068,2.095-0.313,3.771-0.735
			c-0.35,0.419-0.838,0.735-1.467,0.943l-1.675,0.63c0.488,0.212,1.152,0.176,1.99-0.104c1.115-0.488,1.813-0.733,2.094-0.733
			c-0.419,1.467-2.375,2.095-5.865,1.884l0.314,0.106c-0.766,0-1.29,0.104-1.571,0.313c0.629,0.978,1.536,1.223,2.724,0.735
			c0.631-0.281,1.57-0.77,2.83-1.467c0.278-0.069,0.732-0.069,1.359,0c0.561,0.069,0.979,0.036,1.258-0.104
			c0.349-0.21,0.662-0.629,0.941-1.257c0.348-0.419,0.941-0.629,1.78-0.629c-0.698-0.278-1.466-0.488-2.304-0.628
			c0.348-0.212,0.836-0.314,1.465-0.314c0.699,0,1.153-0.035,1.361-0.104c0.278-0.069,0.662-0.314,1.15-0.733h2.515
			c-0.629,0.417-0.874,1.396-0.733,2.931c0.56,0.141,1.117,0.104,1.676-0.104c0.697-0.279,1.048-0.803,1.048-1.571
			c-0.351-0.209-0.629-0.314-0.838-0.314c0-0.209,0.313-0.485,0.942-0.835c0.559-0.351,0.943-0.524,1.152-0.524
			c-0.139,0.35-0.42,0.942-0.836,1.78c-0.281,0.77-0.246,1.397,0.104,1.886c0.278,0.419,0.767,0.56,1.466,0.419
			c0.629-0.141,1.048-0.419,1.257-0.838h-1.361c0.281-0.419,0.63-0.697,1.048-0.838c-0.21-0.139-0.174-0.313,0.106-0.523
			c0.21-0.139,0.417-0.21,0.628-0.21c0.209,0.419,0.662,0.488,1.36,0.21c-0.138,0.28-0.104,1.011,0.106,2.201
			c-0.699,0.697-1.678,1.116-2.933,1.257c-1.397,0.138-2.13-0.314-2.198-1.361c-2.515,0.699-3.529,0.35-3.039-1.048
			c-0.768-0.348-1.432-0.417-1.989-0.209c-0.209,0.069-0.767,0.454-1.675,1.151c-0.351,0.77-0.734,1.259-1.153,1.467
			c-0.28,0.138-0.628,0.174-1.048,0.104c-0.559-0.069-0.941-0.069-1.15,0c-0.351,0.069-0.875,0.386-1.572,0.942
			c-0.699,0.419-1.291,0.697-1.781,0.838c-0.698,0.139-1.922,0-3.667-0.419c-1.466-0.28-2.723-0.211-3.771,0.21
			c-0.209,0.068-0.522,0.313-0.942,0.734c-0.419,0.415-0.838,0.66-1.257,0.729l-0.942-0.104c0,0.697-0.138,1.221-0.419,1.57
			c-0.907,1.397-3.492,1.291-7.75-0.313l-0.209,0.838c-0.769,0-1.257-0.069-1.466-0.212c-0.559,1.397-1.64,2.307-3.247,2.726
			c-1.607,0.417-2.828,0.104-3.666-0.942c0.628,0,0.978-0.386,1.047-1.152h2.514c1.117-0.141,1.64-0.909,1.571-2.307
			c0.838,0.419,1.397,0.523,1.676,0.314c0.209-0.138,0.523-0.77,0.942-1.886c0.419,0.77,1.083,1.188,1.99,1.26
			c0.559,0.068,1.326,0,2.304-0.212h1.257c0.419,0,0.769-0.209,1.047-0.629c0.979-1.186,0.874-2.232-0.312-3.142
			c0.419-0.139,1.152,0.245,2.2,1.152c0.068-0.56,0.068-0.942,0-1.152c0.627-0.069,1.535-0.035,2.723,0.104
			C307.714,612.592,307.365,612.173,306.737,611.963L306.737,611.963z"/>
		<path fill="#5E3C22" d="M395.131,586.827v-0.314c-0.419-0.347-1.083-0.487-1.989-0.419c-1.397,0.141-2.131,0.212-2.199,0.212
			c0.068-0.559,0.697-0.838,1.885-0.838c-0.562-0.628-1.783-0.871-3.666-0.732c-1.956,0.138-3.072,0.592-3.354,1.358
			c0.42-0.138,0.769-0.068,1.047,0.212c-0.209,0.069-0.453,0.351-0.732,0.836c-0.211,0.419-0.455,0.595-0.735,0.523
			c0.419,0.562,0.874,0.909,1.361,1.048c0.629,0.211,1.64,0.35,3.038,0.419l1.256,0.523l1.048-0.21h1.047
			c0.488,0,0.805-0.068,0.942-0.211c0.629-0.629,0.629-1.083,0-1.359c-0.838-0.281-1.325-0.488-1.465-0.629
			c0.48-0.278,1.318-0.419,2.512-0.419H395.131z M370.205,595.835c-0.836,1.186-1.501,1.989-1.986,2.408
			c-1.748,1.396-4.086,2.828-7.021,4.294c-1.186,0.629-2.232,0.767-3.142,0.419c0.28-1.747,1.328-3.561,3.142-5.448
			c1.048-1.047,2.48-2.337,4.294-3.875c2.025-2.025,3.561-3.28,4.608-3.771c0.629-0.28,1.921-0.664,3.878-1.153
			c1.605-0.349,2.86-0.836,3.77-1.465l-0.211,0.107c1.259-1.536,2.48-2.445,3.666-2.724l1.361-0.104
			c0.487-0.417,1.221-0.977,2.199-1.676c-0.908,0-1.571-0.069-1.99-0.21c0.069-0.068,0.211-0.245,0.419-0.523
			c-0.419-0.212-1.047-0.385-1.883-0.523c-0.909-0.069-1.571-0.245-1.99-0.523l0.524-0.314l-1.467-0.523
			c0.139-0.836,0.035-1.396-0.314-1.676c-0.56-0.21-1.047-0.419-1.465-0.629c0.07-0.909-0.977-1.502-3.141-1.782
			c3.977-0.209,5.795,0.805,5.445,3.037c0.629-0.069,1.467,0.036,2.514,0.314c0.56,0.138,1.359,0.35,2.406,0.628
			c0.07,0,0.874,0.069,2.409,0.21c0.979,0.071,1.745,0.212,2.304,0.419l1.154,0.419c0.279,0.21,0.384,0.732,0.313,1.571
			c0.909,0.209,2.375,0.245,4.4,0.104c1.258,0,2.058,0.104,2.408,0.314c0.279,0.209,0.487,0.487,0.629,0.835
			c0.21,0.35,0.385,0.562,0.521,0.631c0.281,0.138,0.77,0.21,1.467,0.21c0.629,0.138,0.805,0.661,0.523,1.57
			c-0.209,0.769-1.289,1.257-3.246,1.467c0,1.116-0.174,1.849-0.523,2.199c-0.351,0.35-1.012,0.523-1.99,0.523h-2.199l-0.943-0.104
			c1.049,0.35,1.434,1.083,1.153,2.199v0.104c-0.139,0.419-0.384,0.664-0.733,0.735c-0.488,0.069-0.873,0.104-1.152,0.104
			c-1.885,0-3.282,0.105-4.189,0.313c0.069,1.118-0.244,1.99-0.941,2.618c-0.629,0.562-1.326,0.838-2.096,0.838l0.105,0.314
			c0.279,2.304-0.697,3.525-2.932,3.666c-2.725-0.212-4.434-0.314-5.132-0.314c0.351,1.328,0.139,2.095-0.628,2.304
			c-0.069,0-0.838-0.036-2.307-0.104c0.212,0.56,0.314,1.188,0.314,1.886c0.069,1.466-0.488,2.373-1.676,2.723
			c-1.116,0.28-1.678,0.873-1.678,1.78c-0.279,0.35-0.662,0.523-1.152,0.523c-0.697,0.071-1.117,0.141-1.257,0.212
			c-0.419,0.069-0.804,0.278-1.151,0.628c-0.488,0.419-0.909,0.769-1.26,1.048c-0.35,0.28-0.906,0.454-1.675,0.523
			c-0.839,0.069-1.397,0.21-1.677,0.419c-0.211,0.139-0.592,0.559-1.15,1.257c-0.351,0.419-0.77,0.699-1.26,0.838
			c-0.768,0.278-1.85,0.209-3.246-0.212c-1.607-0.485-2.724-0.697-3.352-0.628c-2.515,0.14-4.228-0.105-5.133-0.733
			c0,2.095-0.838,2.968-2.514,2.618c-1.186-0.28-2.443-1.012-3.77-2.199c0.068,1.326-0.77,1.954-2.515,1.883
			c-1.744-0.138-2.757-0.907-3.036-2.304c0.068,0.069,0.35,0.174,0.837,0.312c0.278,0.072,0.455,0.245,0.524,0.524
			c2.514,0.28,3.665-0.279,3.453-1.676c-0.278-0.069-0.523-0.279-0.732-0.629c-0.21,0-0.385-0.068-0.523-0.209
			c0.209-0.141,0.488-0.35,0.838-0.631c-0.838,0-1.293-0.104-1.362-0.312l1.571-0.314c-0.629-0.21-1.64-0.313-3.037-0.313
			c0.697-0.28,1.57-0.454,2.619-0.523c1.046,0,1.885,0.139,2.512,0.417l-1.455,0.844c0.211,0,0.385,0.21,0.523,0.629
			c0.212,0.419,0.351,0.734,0.419,0.942c0.489,0.628,1.258,1.047,2.304,1.257c0.839,0.211,1.503,0.106,1.99-0.313
			c0.629-0.559,0.805-1.361,0.524-2.408c0.35-0.139,0.523-0.069,0.523,0.211c0,0.348,0.035,0.56,0.104,0.629
			c0.42,0.278,1.012,0.454,1.783,0.523c0.836,0.069,1.431,0.21,1.78,0.419l-0.419,0.313c0.488,0.14,1.085-0.139,1.782-0.836
			c0.698-0.7,1.257-1.012,1.675-0.942l-0.313,0.523l1.362,0.104c-0.209,0.21-0.629,0.386-1.258,0.523
			c0.629,0.419,1.607,0.662,2.931,0.733c1.466,0.071,2.376-0.174,2.724-0.733l-0.316-0.108c0.279-0.769,0.488-1.222,0.629-1.361
			l-2.2,0.104l2.619-1.152c0.978,0,2.304-0.21,3.978-0.628l1.047-0.629c0.069,0,0.141-0.104,0.212-0.314
			c0.069-0.209,0.209-0.278,0.419-0.209l0.104,0.628c0.561,0.139,1.117,0.139,1.677,0c0.769-0.138,1.185-0.593,1.257-1.361
			l-0.628,0.105c0.28-0.42,0.837-0.7,1.675-0.839c0.77-0.069,1.26-0.454,1.467-1.151c0.419-1.186,0.28-2.131-0.419-2.83
			c0.14,0.071,0.349,0.038,0.63-0.104c0.069-0.629-0.176-1.117-0.734-1.467c0.629-0.209,1.082-0.278,1.361-0.209
			c0.209,0.069,0.418,0.28,0.629,0.628c0.209,0.281,0.385,0.455,0.523,0.523c0.559,0.35,1.082,0.314,1.57-0.104
			c0.419-0.488,0.594-1.152,0.523-1.989c0.419-0.069,1.535,0,3.352,0.211c1.747,0.069,2.863-0.245,3.354-0.942
			c0.836-1.328,0.455-2.269-1.151-2.83c-0.489-0.139-1.609-0.313-3.354-0.523c0.349-0.139,0.56-0.452,0.628-0.94
			c-2.025-0.212-3.28-0.314-3.771-0.314c-1.535,0-2.722,0.35-3.559,1.048H370.205z"/>
		<path fill="#5E3C22" d="M371.566,574.678l1.676,1.464l-2.828-0.209c0.07-0.42,0.176-0.698,0.313-0.839
			c0.141-0.068,0.387-0.209,0.735-0.416H371.566L371.566,574.678z"/>
	</g>
	<path fill="#7D4F29" d="M227.035,580.857c1.397,0.631,1.709,1.259,0.942,1.885c0.279,0.069,0.698,0.175,1.257,0.314
		c0.488,0.139,0.804,0.417,0.942,0.836c-0.978-0.209-1.78-0.348-2.409-0.419c-1.119-0.068-1.711,0.245-1.781,0.943
		c-0.838-0.139-1.397-0.175-1.675-0.105c0,0.35-0.141,0.56-0.419,0.629c-0.278-0.069-0.523-0.069-0.733,0l-1.676,0.838
		c-0.14-1.536,0.35-2.307,1.466-2.307c0.071-0.209,0.209-0.485,0.419-0.836c-0.488-0.488-0.455-0.942,0.105-1.361
		c0.418-0.278,0.873-0.419,1.361-0.419l-0.419-0.104C224.695,580.193,225.568,580.229,227.035,580.857L227.035,580.857z"/>
	<path fill="#7D4F29" d="M236.984,577.61l0.314,0.524c0.35,0.069,0.664,0.314,0.943,0.735c0.279,0.416,0.383,0.835,0.314,1.256
		c-0.069,0.422-0.245,0.698-0.524,0.839c0,0.069-0.279,0.209-0.838,0.416c-1.606,0.839-3.142,1.188-4.608,1.048
		c0.141-0.348,0.455-0.593,0.943-0.733c0.488-0.069,0.802-0.209,0.942-0.419c0.141-0.138,0.141-0.454,0-0.942
		c0.141-0.139,0.386-0.348,0.733-0.629c0.14-0.906,0.278-1.466,0.419-1.676C235.763,577.679,236.216,577.542,236.984,577.61
		L236.984,577.61z"/>
	<path fill="#7D4F29" d="M231.958,580.229h0.733c0.069,0.28,0.036,0.628-0.105,1.047c-0.488,0.141-0.838,0.035-1.047-0.312
		C231.26,580.544,231.398,580.299,231.958,580.229z"/>
	<path fill="#7D4F29" d="M229.339,587.769l-0.419,0.313c0.14,0,0.524-0.036,1.152-0.104c0.559,0,0.907,0.138,1.047,0.419
		c0.209,0.488,0.138,0.802-0.209,0.942c-0.488,0.069-0.803,0.139-0.943,0.21c-0.769,0.35-1.326,0.559-1.676,0.628
		c-0.978,0-1.676,0.069-2.095,0.212c0-0.77,0.245-1.259,0.733-1.467c-0.071-0.697,0.209-1.083,0.838-1.152
		C228.118,587.701,228.642,587.701,229.339,587.769L229.339,587.769z"/>
	<path fill="#7D4F29" d="M228.92,591.225l-0.628,0.735h1.885c0.069,0.418-0.279,0.872-1.047,1.36
		c-0.698,0.559-1.083,0.454-1.152-0.313c-0.488-0.069-0.873,0.278-1.152,1.047c-0.138-0.909,0.036-1.535,0.524-1.885
		C227.627,591.959,228.151,591.645,228.92,591.225z"/>
	<path fill="#7D4F29" d="M234.995,590.597l-0.314-0.209c0.488-0.069,0.802,0.104,0.942,0.523c0.069,0.348-0.071,0.697-0.418,1.047
		c-0.069,0.069-0.209,0.069-0.419,0h-0.524l-1.257,0.941v-0.731c-0.488,0.35-0.874,0.593-1.152,0.732
		C231.643,591.366,232.69,590.597,234.995,590.597L234.995,590.597z"/>
	<path fill="#7D4F29" d="M237.718,590.703l-0.524-0.105c0.419-0.278,1.012-0.209,1.78,0.21c0.698,0.487,0.629,0.978-0.209,1.466
		c-0.419,0.281-0.874,0.314-1.362,0.105c-0.559-0.279-0.769-0.698-0.628-1.258L237.718,590.703z"/>
	<path fill="#7D4F29" d="M247.249,598.243h-1.571c-0.209-0.978-0.069-1.606,0.419-1.885c0.278-0.139,0.662-0.174,1.152-0.105
		c0.488,0.139,0.769,0.351,0.838,0.629l-1.047,0.314L247.249,598.243z"/>
	<path fill="#7D4F29" d="M253.637,598.976v0.732c0.697-0.209,0.942-0.035,0.733,0.524c-0.138,0.488-0.452,0.838-0.943,1.047
		c-1.535,0.631-2.373,0.562-2.513-0.209c-0.139-0.56,0.174-1.048,0.942-1.467C252.416,599.257,253.009,599.046,253.637,598.976
		L253.637,598.976z"/>
	<path fill="#7D4F29" d="M254.789,600.757l-0.314-0.209c0.35-0.488,0.698-0.698,1.047-0.629c0.419,0,0.628,0.313,0.628,0.943
		l0.524,0.104v0.628c-0.35,0.069-0.628,0.069-0.838,0c0.209,0.488-0.069,0.942-0.838,1.361c-0.769,0.417-1.362,0.56-1.78,0.417
		c0-0.559,0.209-1.047,0.628-1.464C254.056,601.63,254.37,601.245,254.789,600.757L254.789,600.757z"/>
	<path fill="#7D4F29" d="M263.063,602.642l0.314,0.209c0.488,0.141,0.662,0.769,0.523,1.885c-0.909-0.35-1.326-0.104-1.257,0.733
		c-0.559-0.069-0.838-0.593-0.838-1.57C261.875,602.851,262.294,602.432,263.063,602.642z"/>
	<path fill="#7D4F29" d="M262.958,606.36c0.141-0.082,0.279-0.101,0.419-0.053c0.278,0.139,0.383,0.386,0.314,0.733h-0.733V606.36
		L262.958,606.36z"/>
	<path fill="#7D4F29" d="M266.1,610.182c-0.138-0.976-0.036-2.057,0.314-3.246c0.419-1.396,1.083-1.99,1.99-1.781v0.105
		c0.628-0.419,1.433-0.524,2.409-0.314c1.326,0.35,2.166,0.523,2.513,0.523c-0.209,0.35-0.628,0.562-1.257,0.631
		c-0.769,0-1.256,0.104-1.466,0.312c0.072,0.281,0.314,0.524,0.733,0.735c0.209,0.069,0.524,0.174,0.942,0.313
		c-0.14,0.069-0.733,0.104-1.78,0.104l-0.105,0.733c-0.697,0.139-1.256,0.209-1.675,0.209c-0.769,0.069-1.117-0.138-1.047-0.628
		C266.972,608.576,266.448,609.344,266.1,610.182L266.1,610.182z"/>
	<path fill="#7D4F29" d="M279.087,606.307l-0.209,0.523l1.362,0.524v1.99c-0.628-0.139-1.047,0.173-1.257,0.942
		c-0.35,0.906-0.698,1.395-1.047,1.464c0.488-0.976,0.524-1.884,0.104-2.724c0-0.068-0.14-0.138-0.418-0.209
		c-0.279-0.139-0.453-0.35-0.524-0.628c-0.209-0.56,0.036-0.839,0.733-0.839c-0.209-0.138-0.386-0.454-0.524-0.942
		C277.656,606.344,278.25,606.307,279.087,606.307L279.087,606.307z"/>
	<path fill="#7D4F29" d="M288.932,609.554c1.119,0,1.711,0.28,1.78,0.838c0.071,0.697-0.35,1.047-1.257,1.047
		c-1.047-0.068-1.675-0.068-1.885,0c-0.418,0.139-1.397,0.874-2.932,2.199c-1.397,1.117-2.233,1.606-2.514,1.467
		c0.488-0.35,1.083-0.979,1.78-1.886c0.698-0.836,1.326-1.466,1.885-1.883l-0.209-0.63c0.697-0.349,1.326-0.524,1.885-0.524
		l-0.838-0.312C287.326,609.659,288.094,609.554,288.932,609.554L288.932,609.554z"/>
	<path fill="#7D4F29" d="M294.483,611.439l0.419,0.733c0.071,1.116-0.35,1.886-1.257,2.306c-1.397,0.56-2.164,0.941-2.304,1.152
		c1.607,0.767,1.5,1.571-0.314,2.407c-1.606,0.699-2.199-0.104-1.781-2.407c0.138-1.116,0.628-1.989,1.466-2.618
		c0.419-0.35,1.047-0.629,1.885-0.838C293.505,611.963,294.133,611.718,294.483,611.439L294.483,611.439z"/>
	<path fill="#7D4F29" d="M298.83,612.33c1.457-0.057,2.313,0.483,2.566,1.623c0.35,1.257-0.314,1.988-1.99,2.2
		c-1.955,0.277-2.792-0.139-2.514-1.26C297.13,614.121,297.776,613.266,298.83,612.33z"/>
	<path fill="#7D4F29" d="M301.919,611.649c1.186-0.278,1.675,0.035,1.466,0.942c-1.048,0.419-1.571,0.104-1.571-0.942H301.919z"/>
	<path fill="#7D4F29" d="M335.853,609.345c0.771,0.108,1.225,0.701,1.359,1.78c0.141,1.116-0.21,1.535-1.047,1.258
		c-0.486-0.14-0.734-0.592-0.734-1.361C335.434,610.411,335.572,609.851,335.853,609.345z"/>
	<path fill="#7D4F29" d="M344.022,609.345c0.224,0.098,0.397,0.271,0.522,0.522c0.213,0.56,0.039,1.084-0.522,1.571
		c-0.56,0.35-1.533,0.243-2.931-0.313c-0.212-0.979,0.066-1.571,0.836-1.78H344.022z"/>
	<path fill="#7D4F29" d="M348.839,609.868l0.21-0.209h1.78c0.631,0.141,0.838,0.631,0.631,1.467c-0.631,0.35-1.26,0.487-1.886,0.418
		c-0.769-0.068-1.151-0.454-1.151-1.151c-0.281,0.069-0.77,0-1.467-0.212C347.233,609.973,347.863,609.868,348.839,609.868z"/>
	<path fill="#7D4F29" d="M355.648,609.345l-0.838,0.522c0.978,0,1.709,0.069,2.199,0.21c-0.139,0.35-0.385,0.629-0.733,0.838
		c-0.979-0.139-1.677-0.385-2.095-0.735C354.39,609.345,354.878,609.064,355.648,609.345z"/>
	<path fill="#7D4F29" d="M358.684,607.355l-1.047-0.21c0.419-0.069,1.571-0.314,3.456-0.735c1.744-0.138,2.48,0.419,2.199,1.676
		c-1.186,0.488-2.93,0.664-5.236,0.524C357.916,608.124,358.125,607.705,358.684,607.355L358.684,607.355z"/>
</g>
<path fill="#633B21" d="M354.914,572.06c3.073,0.138,6.18,0.767,9.322,1.883c3.629,1.328,6.422,3.072,8.379,5.236
	c1.744,1.886,3.733,3.456,5.969,4.713c2.583,1.397,4.994,2.06,7.227,1.99c-0.629,0.28-1.396,1.012-2.304,2.199
	c-1.116,1.467-1.956,2.409-2.514,2.83c-0.629,0.559-1.397,0.907-2.304,1.047c-1.188,0.279-1.957,0.488-2.307,0.629
	c-1.117,0.628-2.583,1.64-4.398,3.037c-2.164,1.676-3.631,2.757-4.4,3.247l-0.734,0.523l0.734,0.104
	c-0.629,0.419-1.326,0.769-2.096,1.048l-3.142,2.513c-0.278,0.629-0.455,1.397-0.524,2.305c-4.605,1.259-8.133,2.095-10.578,2.514
	c-2.025,0.419-4.258,0.488-6.702,0.209c-2.788-0.418-5.023-0.697-6.698-0.838c-3.842-0.211-7.855-0.068-12.045,0.42
	c-2.725,0.347-6.599,1.047-11.627,2.094c-3.84,0.768-9.146,0.733-15.92-0.106c-0.698-0.069-1.816-0.104-3.352-0.104
	c-1.466,0-2.583-0.069-3.352-0.21c-1.257-0.138-2.583-0.697-3.98-1.676c-1.814-1.255-2.966-1.987-3.454-2.197
	c-1.535-0.628-3.63-1.047-6.284-1.257c-3.63-0.35-5.725-0.559-6.284-0.628c-0.838-0.139-1.921-0.488-3.247-1.048
	c-1.397-0.628-2.409-1.012-3.038-1.152c-2.232,0.21-3.979,0.279-5.236,0.21c-2.445,0-3.63-0.978-3.561-2.933
	c-4.468-1.395-7.715-2.023-9.74-1.883l-0.105-1.676c-1.256,0.348-2.059,0.138-2.409-0.631c-0.281-0.976-0.664-1.709-1.152-2.199
	c-0.56-0.488-1.745-0.942-3.561-1.359c-1.328-0.35-2.2-1.188-2.618-2.514l-2.828-0.735c-1.047-1.188-1.918-1.78-2.618-1.78
	c5.375-1.885,9.252-3.527,11.625-4.923c0.628-0.35,1.956-0.837,3.98-1.466c1.816-0.697,2.828-1.535,3.037-2.514
	c2.095-0.419,4.363-1.29,6.808-2.618c1.117-0.697,3.247-2.131,6.389-4.294c4.539-3.142,9.288-4.608,14.244-4.401
	c0.209,0,2.654-0.559,7.332-1.676c2.933-0.697,5.341-1.083,7.227-1.151c1.188-1.186,2.166-1.886,2.932-2.095
	c1.257-0.279,3.002-0.245,5.237,0.104c1.256,0.212,3.002,0.488,5.236,0.838c1.257,0.139,3.561,0,6.912-0.419
	c2.933-0.419,5.133-0.419,6.599,0c1.325,0.419,2.233,1.012,2.724,1.78l0.941,0.212c1.186,0.419,2.757,1.257,4.713,2.514
	c1.885-0.281,3.074-0.386,3.56-0.314c0.909,0.138,2.235,0.488,3.979,1.047c1.886,0.629,3.247,1.012,4.085,1.152
	c0.138,0.069,1.396,0.28,3.771,0.629c1.606,0.28,2.863,0.595,3.771,0.942c0.487,0.28,1.116,0.838,1.885,1.676
	c0.698,0.838,1.326,1.397,1.883,1.678c0.562,0.278,1.329,0.278,2.307,0C353.867,572.233,354.635,572.06,354.914,572.06
	L354.914,572.06z"/>
<g>
	<path fill="#57351D" d="M319.724,600.023c1.956,0.56,2.756,0.839,2.408,0.839c0.908,0.277,2.338,0.697,4.295,1.256
		c1.744,0.56,3.178,0.874,4.293,0.942c-0.138-0.837-0.35-1.396-0.628-1.676c0.697,0.279,1.85,0.908,3.454,1.884
		c1.466,0.769,2.656,1.012,3.561,0.735c-0.209-0.769-0.732-1.678-1.57-2.726c-0.979-1.257-1.607-2.13-1.883-2.618
		c0.835-0.278,3.177,0.735,7.017,3.037c3.421,1.676,5.306,2.199,5.655,1.571c-0.418-0.767-1.676-3.315-3.77-7.644
		c1.744,0.419,4.329,1.361,7.75,2.828c2.932,0.838,4.574,1.292,4.924,1.361c2.305,0.488,3.979,0.417,5.025-0.212
		c-0.21-2.232-0.559-3.63-1.047-4.189c0.14,0,0.454-0.035,0.941-0.104c0.07-0.767-0.383-1.571-1.359-2.408
		c0.418-0.139,0.979-0.21,1.676-0.21c0.351,0,0.908,0.035,1.676,0.104c-0.35-0.697-1.221-1.606-2.617-2.723
		c-1.002-0.75-1.752-1.326-2.252-1.729c0.756,0.644-0.132-0.004-2.669-1.938c-1.678-1.257-2.514-2.025-2.514-2.304
		c0.138,0.069,2.723,1.012,7.751,2.827c3.21,1.116,5.898,1.71,8.064,1.78c-0.979-1.325-2.445-2.478-4.399-3.453
		c-2.095-0.909-3.665-1.676-4.713-2.307c0.56-0.209,1.29-0.313,2.199-0.313c1.187,0.069,1.921,0.069,2.2,0
		c-0.351-0.978-1.503-1.852-3.457-2.618c-2.095-0.769-3.453-1.292-4.082-1.57c1.883-0.212,4.082,0,6.596,0.628
		c2.375,0.56,4.435,1.361,6.179,2.409l-3.247-2.095c1.117-0.069,2.234,0.174,3.352,0.733c0.281,0.209,1.26,0.873,2.934,1.989
		c-0.212-0.697-1.012-1.745-2.409-3.142c1.048-0.35,2.409-0.069,4.085,0.836c1.744,1.747,3.701,3.179,5.865,4.296
		c2.443,1.257,4.713,1.85,6.808,1.78c-0.629,0.281-1.397,1.012-2.306,2.199c-1.115,1.467-1.955,2.409-2.512,2.83
		c-0.629,0.56-1.398,0.907-2.305,1.047c-1.188,0.279-1.957,0.488-2.307,0.629c-1.116,0.629-2.582,1.641-4.398,3.037
		c-2.164,1.676-3.63,2.757-4.401,3.247l-0.733,0.523l0.733,0.104c-0.628,0.419-1.325,0.77-2.095,1.048l-3.141,2.514
		c-0.279,0.628-0.455,1.396-0.524,2.304c-4.606,1.259-8.134,2.095-10.579,2.514c-2.025,0.419-4.258,0.488-6.703,0.21
		c-2.787-0.421-5.021-0.7-6.698-0.841c-3.841-0.211-7.854-0.068-12.044,0.42c-2.725,0.347-6.598,1.047-11.627,2.094
		c-3.84,0.768-9.146,0.733-15.92-0.106c-0.697-0.069-1.816-0.104-3.351-0.104c-1.467,0-2.583-0.069-3.352-0.21
		c-1.257-0.138-2.583-0.697-3.98-1.676c-1.814-1.255-2.966-1.987-3.454-2.197c-1.535-0.628-3.63-1.047-6.284-1.257
		c-3.63-0.35-5.725-0.559-6.284-0.628c-0.838-0.139-1.921-0.488-3.247-1.048c-1.397-0.628-2.409-1.012-3.037-1.152
		c-2.233,0.21-3.98,0.279-5.237,0.21c-2.444,0-3.63-0.978-3.561-2.933c-4.468-1.395-7.715-2.023-9.74-1.883l-0.105-1.676
		c-1.257,0.348-2.059,0.138-2.409-0.631c-0.281-0.976-0.664-1.709-1.152-2.199c-0.559-0.488-1.745-0.942-3.561-1.359
		c-1.328-0.35-2.2-1.188-2.619-2.514l-2.828-0.735c-1.047-1.188-1.919-1.78-2.618-1.78c5.375-1.885,9.252-3.527,11.625-4.923
		c0.141-0.068,1.326-0.523,3.561-1.361c1.676-0.56,2.723-1.221,3.142-1.99l0.733,0.105c-0.488,0.562-1.433,1.188-2.828,1.885
		c-1.326,0.629-2.199,1.222-2.618,1.78c1.606-0.209,2.618-0.278,3.037-0.209c-0.35,0.488-0.942,0.942-1.78,1.361
		c-1.119,0.488-1.781,0.803-1.99,0.94c0.838,0.281,1.921,0.212,3.247-0.209c1.606-0.56,2.689-0.838,3.247-0.838
		c-0.488,0.561-0.979,0.979-1.466,1.259l-1.152,0.419c-0.279,0.069-0.628,0.313-1.047,0.733c-0.979,0.559-1.676,1.083-2.095,1.57
		l1.361,0.21c-0.278,1.259,0.105,2.234,1.152,2.933c1.397,1.047,3.142,1.57,5.236,1.57l0.209,1.467
		c0.419,1.606,1.221,2.338,2.409,2.199c5.168-0.278,10.09-1.956,14.768-5.027c-0.14,1.259-0.455,3.073-0.942,5.448l3.247,0.104
		c-0.071,0.281-0.036,0.77,0.105,1.467c0.559,0,1.502-0.069,2.828-0.212c1.257-0.209,2.199-0.278,2.828-0.209
		c-0.419,1.606,0.209,2.232,1.885,1.885c2.233-0.56,3.456-0.769,3.666-0.63c0.279,0.211,0.56,0.664,0.838,1.361
		c0.21,0.628,0.593,1.012,1.152,1.152c0.628,0.14,1.606-0.384,2.933-1.571c0.278,0.28,0.697,1.259,1.257,2.933
		c0.418,1.326,1.012,1.99,1.78,1.99c0.488,0.068,1.257-0.735,2.304-2.409c1.047-1.606,1.885-2.373,2.514-2.305
		c0.559,0.069,0.976,0.384,1.256,0.94c0.351,0.979,0.629,1.609,0.838,1.886c0.838,1.116,1.431,1.502,1.78,1.152
		c0.281-0.21,0.697-0.907,1.258-2.095c0.838-1.257,1.779-1.571,2.827-0.943c0.629,0.419,1.64,1.119,3.038,2.095
		c0.137-0.767,0.209-1.29,0.209-1.57c0.979-0.348,2.408,0,4.294,1.047c2.025,1.048,3.526,1.467,4.504,1.259
		c0.069-0.628,0.035-1.606-0.104-2.933c0.418-0.276,1.501-0.138,3.246,0.421H319.724z"/>
	<path fill="#57351D" d="M250.076,576.982l2.723-0.733c-0.488,0.279-1.431,0.662-2.828,1.152L250.076,576.982z"/>
</g>
<path fill="#4F301A" d="M298.253,609.659c-0.698-0.069-1.816-0.104-3.352-0.104c-1.466,0-2.583-0.069-3.352-0.209
	c-1.257-0.139-2.583-0.698-3.98-1.676c-1.816-1.258-2.968-1.99-3.456-2.2c-1.535-0.628-3.63-1.047-6.284-1.257
	c-3.63-0.35-5.725-0.559-6.284-0.628c-0.838-0.139-1.921-0.488-3.247-1.048c-1.397-0.628-2.409-1.012-3.038-1.152
	c-2.233,0.21-3.979,0.279-5.236,0.21c-2.445,0-3.63-0.978-3.561-2.933c-4.468-1.395-7.715-2.023-9.74-1.883l-0.105-1.676
	c-1.256,0.348-2.059,0.138-2.409-0.631c-0.281-0.976-0.664-1.709-1.152-2.199c-0.56-0.488-1.745-0.942-3.561-1.359
	c-1.328-0.35-2.2-1.188-2.618-2.514l-2.828-0.735c-1.047-1.188-1.918-1.78-2.618-1.78c2.095-0.697,4.713-1.745,7.855-3.143
	l-0.209,0.524l0.628,0.209c-0.069,0.42-0.138,1.085-0.209,1.99c1.536,0,2.444,0.036,2.723,0.104c0,0.351-0.138,0.805-0.419,1.362
	c-0.279,0.487-0.419,0.909-0.419,1.256c0.907,1.397,1.326,2.095,1.257,2.095c0.628,0.7,1.5,1.048,2.618,1.048
	c1.326,0,2.269,0.14,2.828,0.419c-0.279,1.259,0.245,2.199,1.571,2.83c0.769,0.278,1.816,0.56,3.142,0.836
	c0.209,0.14,0.523,0.487,0.942,1.047c0.35,0.141,0.838,0.212,1.466,0.212c0.35,0,0.838-0.036,1.466-0.107l4.084-0.312
	c0.35,0,0.976,0.069,1.885,0.209c0.838,0,1.466-0.174,1.885-0.523c0.209-0.138,0.455-0.56,0.733-1.257
	c0.209-0.56,0.524-0.874,0.943-0.942c0.559-0.069,0.874,0.209,0.942,0.838v1.676c0,1.466,0.314,2.337,0.943,2.618
	c0.419,0.209,1.361,0.488,2.828,0.835c0.209,0.072,0.698,0.314,1.466,0.735c0.559,0.351,1.047,0.56,1.466,0.629
	c0.769,0.21,1.709,0.56,2.828,1.047c0.279,0.069,0.698-0.035,1.257-0.313c0.281,0.071,0.628,0.28,1.047,0.63
	c0.419,0.348,0.733,0.56,0.942,0.629c0.419,0.138,0.909,0.104,1.466-0.105c0.698-0.28,1.186-0.418,1.466-0.418
	c0.979,0.068,2.374,0.909,4.189,2.513c1.745,1.536,3.213,2.305,4.399,2.305c2.723,0,4.328-0.838,4.818-2.514
	c0.35,0.141,1.152,0.488,2.409,1.048c0.976,0.418,1.813,0.664,2.514,0.734c0.56,0.069,2.095,0.279,4.608,0.629
	c2.306,0.138,3.527-0.245,3.666-1.152c0.561-0.069,1.466,0,2.725,0.21c1.047,0.138,1.883,0.104,2.512-0.105
	c0.419-0.138,1.012-0.419,1.781-0.837c0.489-0.139,1.117-0.175,1.885-0.105c0.418,0,1.047,0.036,1.885,0.105
	c0.978,0,2.863-0.069,5.655-0.21c2.373-0.139,4.259-0.174,5.655-0.104c0.486,0.069,1.187,0.174,2.096,0.312
	c0.835,0.069,1.532,0.069,2.094,0c0.279-0.069,0.768-0.069,1.465,0c0.141-0.069,0.211-0.312,0.211-0.733
	c0.069-0.418,0.209-0.697,0.42-0.837c0.697-0.348,1.57,0,2.617,1.047l2.305,2.3c0.838,0.488,2.025,0.733,3.561,0.733
	c0.42,0,1.676-0.104,3.771-0.314c0.209-0.485,0.174-1.29-0.105-2.406c-0.281-1.048-0.314-1.71-0.105-1.99
	c0.348-0.488,0.979-0.593,1.884-0.314c0.487,0.141,1.116,0.386,1.886,0.735c0.978,0.278,2.13,0.35,3.453,0.21v-1.257
	c1.396,0.068,2.307,0.035,2.727-0.105c0.906-0.35,1.289-1.223,1.15-2.618c0.489,0,0.943-0.035,1.36-0.106
	c0.28,0,0.593-0.243,0.942-0.733c0.212-0.35,0.385-1.012,0.523-1.99c0.141-0.906,0.141-1.571,0-1.989
	c-0.209-0.629-0.836-1.465-1.883-2.512c-0.979-1.048-1.608-1.957-1.885-2.726c1.047,0,3.352,0.942,6.912,2.83
	c0.281,0.139,0.663,0.386,1.152,0.733c0.486,0.35,0.941,0.488,1.361,0.419c0.838,0,1.64-0.243,2.408-0.733
	c0.979-0.631,1.359-1.397,1.152-2.307c-0.069-0.347-0.593-0.871-1.57-1.57c-1.048-0.697-1.677-1.152-1.886-1.359l0.419,0.733h-0.943
	c0.42-0.56-0.312-1.641-2.198-3.247c0.487,0.139,1.396,0.454,2.723,0.942c1.116,0.417,2.025,0.697,2.723,0.836
	c-0.417-1.116-1.64-2.131-3.665-3.037c1.957-0.21,4.296,0.664,7.019,2.618c-1.047-0.907-1.535-1.78-1.466-2.618
	c0.419-0.139,1.117,0.071,2.095,0.63c0.559,0.279,1.257,0.662,2.095,1.152c0.279,0.139,0.593,0.243,0.943,0.313
	c0.277,0.211,0.349,0.63,0.209,1.259c0.418,0.21,1.082,0.035,1.989-0.523c1.116-0.629,1.851-0.979,2.199-1.048h0.104
	c0.42,0.069,1.086,0.105,1.99,0.105c-0.629,0.28-1.396,1.011-2.304,2.198c-1.116,1.467-1.956,2.409-2.514,2.83
	c-0.629,0.56-1.397,0.907-2.304,1.048c-1.188,0.278-1.957,0.488-2.307,0.628c-1.117,0.629-2.583,1.641-4.398,3.037
	c-2.164,1.676-3.631,2.757-4.4,3.247l-0.734,0.523l0.734,0.105c-0.629,0.419-1.326,0.769-2.096,1.047l-3.142,2.514
	c-0.278,0.629-0.455,1.396-0.524,2.305c-4.605,1.258-8.133,2.094-10.578,2.513c-2.025,0.419-4.258,0.488-6.702,0.21
	c-2.788-0.425-5.023-0.704-6.698-0.845c-3.842-0.211-7.855-0.068-12.045,0.42c-2.725,0.347-6.599,1.047-11.627,2.094
	C310.333,610.532,305.025,610.497,298.253,609.659L298.253,609.659z"/>
<path fill="#4A2C1C" d="M306.109,609.24c1.256,0.139,2.163,0.036,2.723-0.314c0.211-0.138,0.455-0.454,0.734-0.942
	s0.56-0.767,0.836-0.836c0.56-0.141,1.222,0.21,1.99,1.048c0.209,0.069,0.979,0.104,2.305,0.104c0.631,0,1.258-0.245,1.885-0.735
	c0.77-0.278,2.199-0.348,4.295-0.209c1.047-0.069,2.652-0.279,4.816-0.629c0.979-0.069,2.48-0.138,4.504-0.211
	c0.909-0.069,2.232-0.243,3.979-0.524c1.534-0.138,2.861-0.069,3.979,0.212c3.979,0.836,7.157,1.29,9.53,1.359
	c0.281,0,0.838,0.071,1.678,0.212c0.836,0,1.359-0.174,1.571-0.524c0.209-0.28,0.243-0.873,0.104-1.782
	c-0.141-0.977-0.174-1.606-0.104-1.883c0.417-0.139,1.01,0.174,1.78,0.942c0.697,0.767,1.257,1.152,1.676,1.152
	c0.069,0,0.42-0.104,1.047-0.314c0.07,0,0.943-0.104,2.619-0.313l0.628-0.106c0.56-0.419,0.839-0.838,0.839-1.257
	c0.487,0.069,0.768-0.069,0.838-0.419c0.138-0.56,0.209-0.871,0.209-0.942c0.209-0.417,0.523-0.733,0.941-0.94
	c0.629-0.281,1.049-0.524,1.258-0.735c0.281-0.21,0.77-0.662,1.467-1.359c0.697-0.56,1.116-1.048,1.256-1.467
	c0.212-0.628,0.212-1.396,0-2.306c-0.348-0.977-0.592-1.71-0.732-2.199c0.138,0,1.116,0.559,2.932,1.675
	c1.187,0.7,2.096,0.7,2.725,0c0.137-0.209,0.349-0.661,0.627-1.359c0.21-0.697,0.488-1.185,0.838-1.466
	c0.349-0.21,0.907-0.35,1.676-0.419c1.814-0.488,2.131-1.325,0.943-2.514c0.417-0.069,0.836-0.069,1.256,0
	c0-0.629-0.035-1.01-0.104-1.152c0.56-0.068,1.36,0.069,2.407,0.419c1.047,0.281,1.816,0.386,2.306,0.314
	c0.56-0.141,1.013-0.386,1.36-0.735c0.14-0.209,0.455-0.628,0.941-1.257c0.489-0.488,1.013-0.838,1.572-1.047l1.57,0.104
	c-0.628,0.281-1.396,1.012-2.305,2.199c-1.115,1.467-1.955,2.409-2.513,2.83c-0.628,0.56-1.397,0.907-2.304,1.047
	c-1.188,0.279-1.957,0.488-2.307,0.629c-1.117,0.629-2.583,1.641-4.399,3.037c-2.163,1.676-3.63,2.757-4.401,3.247l-0.732,0.523
	l0.732,0.104c-0.627,0.419-1.324,0.77-2.094,1.048l-3.142,2.514c-0.278,0.628-0.455,1.396-0.524,2.304l-3.77,0.838
	c-2.793,0.836-5.063,1.397-6.809,1.676c-2.025,0.419-4.258,0.488-6.703,0.21c-2.787-0.421-5.021-0.7-6.698-0.841
	c-3.841-0.211-7.854-0.068-12.044,0.42c-2.726,0.347-6.598,1.047-11.628,2.094c-3.839,0.768-9.145,0.733-15.919-0.106
	c-0.698-0.069-1.816-0.104-3.352-0.104c-1.466,0-2.583-0.069-3.351-0.21c-1.257-0.138-2.583-0.697-3.98-1.676
	c-1.814-1.255-2.966-1.987-3.454-2.197c-1.536-0.628-3.63-1.047-6.284-1.257c-3.63-0.35-5.725-0.559-6.284-0.628
	c-0.838-0.139-1.921-0.488-3.247-1.048c-1.397-0.628-2.409-1.012-3.038-1.152c-2.233,0.21-3.98,0.279-5.236,0.21
	c-2.445,0-3.63-0.978-3.561-2.933c-4.468-1.395-7.715-2.023-9.74-1.883l-0.105-1.676c-1.256,0.348-2.059,0.138-2.409-0.631
	c-0.281-0.976-0.664-1.709-1.152-2.199c-0.56-0.488-1.745-0.942-3.561-1.359c-1.328-0.35-2.2-1.188-2.618-2.514l-2.828-0.735
	c-1.047-1.188-1.918-1.78-2.618-1.78l3.666-1.467l-0.838,0.839c0.279,0.209,0.907,0.312,1.885,0.312v0.735
	c0.279,0.139,0.769,0.209,1.466,0.209c0.281,0.281,0.385,0.735,0.314,1.362c0.069,0.419,0.138,0.733,0.209,0.942
	c0,0.138,0.245,0.313,0.733,0.523l2.828,1.465c0.769,0.28,1.709,0.873,2.828,1.782c0.069,0.069,0.209,0.243,0.418,0.523h0.524
	c0.209-0.069,0.385-0.069,0.523,0c0.141,0.139,0.35,0.454,0.628,0.942c0.138,0.488,0.419,0.803,0.838,0.941
	c0.838,0.211,1.99,0.595,3.456,1.153l2.514,0.94c0.35,0.141,0.838,0.212,1.467,0.212c0.628,0.069,1.083,0.138,1.361,0.21
	c0.419,0.14,0.942,0.559,1.571,1.258c0.628,0.349,1.64,0.418,3.038,0.21c1.047-0.138,2.48-0.593,4.294-1.361
	c0.209,1.047,0,1.885-0.628,2.514c0.35,0.141,0.838,0.211,1.466,0.211c0.209,0.069,0.697,0.417,1.466,1.048
	c0.628,0.488,1.852,0.803,3.666,0.94c1.047,0.069,2.514,0.313,4.398,0.73c0.279,0,1.362,0.175,3.247,0.524
	c1.257,0.209,2.304,0.278,3.142,0.209c0.767,0,1.5,0.176,2.199,0.524c0.488,0.211,1.186,0.592,2.095,1.151
	c2.374,1.397,3.98,2.133,4.818,2.201c1.816,0.349,2.968,0.488,3.456,0.417c0.138-0.068,0.523-0.242,1.152-0.523
	c0.418-0.209,0.802-0.278,1.152-0.209c0.35,0.069,0.804,0.28,1.361,0.628c0.629,0.419,1.117,0.664,1.467,0.735
	c0.769,0.139,1.99,0.139,3.666,0c0.559,0.069,1.502,0.243,2.828,0.521H306.109z"/>
<path fill="#704326" d="M300.244,560.853c1.256,0.212,3.001,0.488,5.236,0.838c1.326,0.138,3.491,0,6.494-0.419
	c2.863-0.35,4.957-0.386,6.283-0.104c-0.209,0.488-0.943,0.836-2.199,1.047c-1.535,0.279-2.409,0.49-2.619,0.629
	c-1.116,0.28-2.025,0.661-2.723,1.151l0.523-0.104c-2.582,0.698-4.503,1.328-5.76,1.885c-1.535,0.908-2.654,1.36-3.352,1.36
	c0.769-0.697,2.06-1.641,3.875-2.828c-2.582,0.419-4.47,0.662-5.655,0.733c0.909-0.419,1.571-0.907,1.989-1.467
	c-1.396,0.071-2.443,0.038-3.142-0.104l0.733-0.419c-2.023-0.138-3.804,0.141-5.341,0.838c0.418,0.769,0.593,1.467,0.523,2.095
	c-1.186,0.138-1.85,0.805-1.99,1.99c-0.629-0.909-1.012-1.641-1.152-2.199c-0.069-0.141-0.036-0.488,0.105-1.048
	c0.071-0.419-0.036-0.804-0.314-1.154v-0.729h0.314c1.188-1.186,2.166-1.886,2.932-2.095
	C296.263,560.47,298.008,560.504,300.244,560.853L300.244,560.853z"/>
<path fill="#704326" d="M309.984,568.603c-0.486,0.769-0.979,1.293-1.465,1.571c-0.699,0.35-1.678,0.593-2.933,0.733
	c-1.257,0.14-2.198,0.071-2.827-0.21c1.816-0.559,3.002-1.152,3.561-1.78c-0.907,0-1.571-0.036-1.987-0.106
	c0.628-0.697,1.675-1.291,3.142-1.781c1.395-0.487,2.618-0.732,3.666-0.732l1.047-0.212c0.414,0.354,0.344,0.947-0.213,1.785
	c-0.279,0.348-0.594,0.523-0.943,0.523C310.542,568.466,310.193,568.535,309.984,568.603L309.984,568.603z"/>
<path fill="#704326" d="M299.196,569.651v0.209h1.257c-0.139,0.77-0.977,1.224-2.514,1.361c-1.466,0.139-2.409-0.035-2.828-0.523
	C297.484,570.139,298.846,569.79,299.196,569.651z"/>
<path fill="#704326" d="M299.51,571.746l-0.314,0.419h1.886c0,0.697-0.42,1.083-1.258,1.151c-0.138,0-0.768-0.068-1.885-0.209
	c0.069-0.419,0.314-0.7,0.733-0.838C299.108,572.052,299.386,571.878,299.51,571.746z"/>
<path fill="#704326" d="M294.692,571.117l-0.419,0.21c1.047-0.069,1.78,0.14,2.2,0.628c0.488,0.562,0.209,1.188-0.838,1.886
	c-0.419,0.28-1.257,0.523-2.514,0.732c-1.186,0.141-2.06,0.141-2.619,0l0.314-0.628c-1.188,0.212-2.095,0.245-2.723,0.104
	c0.697-0.138,1.535-0.486,2.514-1.047c1.116-0.629,1.606-1.186,1.466-1.676C293.541,571.117,294.414,571.048,294.692,571.117z"/>
<path fill="#704326" d="M287.047,575.621h0.838c0.559,0,0.874,0.071,0.943,0.212c-0.56,1.116-1.64,1.535-3.247,1.256
	C285.65,576.739,286.14,576.249,287.047,575.621L287.047,575.621z"/>
<path fill="#704326" d="M290.922,575.934l0.209,0.733h1.257v0.735c-0.628,0.139-1.152,0.069-1.571-0.211
	C290.398,576.913,290.434,576.494,290.922,575.934z"/>
<path fill="#704326" d="M313.23,569.337h-1.256c0.349-0.767,1.047-1.116,2.094-1.047c0.559,0.07,1.397,0.176,2.514,0.313
	c0.139,1.676-0.488,2.48-1.885,2.409c-0.486,0-1.533-0.314-3.143-0.942L313.23,569.337L313.23,569.337z"/>
<path fill="#704326" d="M314.487,571.85v0.314c0.419-0.139,0.909-0.56,1.466-1.259c0.279-0.349,0.629-0.872,1.048-1.571
	c0.278,0.488,0.278,1.361,0,2.618c-0.212,1.188-0.523,1.956-0.942,2.306c-0.488,0.42-2.199,0.455-5.132,0.105
	c0.212-0.35,0.909-0.662,2.095-0.942C313.927,573.212,314.417,572.688,314.487,571.85z"/>
<path fill="#704326" d="M316.582,563.577l0.628,0.523h1.048c0.211,1.328-0.105,2.165-0.943,2.514
	c-0.485,0.211-1.43,0.28-2.827,0.211c0.21-0.28,0.662-0.805,1.361-1.571C316.408,564.624,316.651,564.064,316.582,563.577
	L316.582,563.577z"/>
<path fill="#704326" d="M260.34,573.107v-0.314c-0.628,0.28-1.606,1.012-2.933,2.199c-1.186,1.048-2.164,1.641-2.933,1.783
	l0.21-0.419c-0.769,0.764-2.2,1.149-4.294,1.149c0.209-0.068,0.664-0.242,1.361-0.523c0.698-0.35,1.188-0.662,1.467-0.942
	c2.583-1.048,5.934-3.037,10.054-5.97c4.539-3.142,9.288-4.608,14.244-4.401c0.138,0,2.444-0.559,6.913-1.676
	c2.723-0.628,4.992-1.012,6.808-1.151c-0.769,0.487-1.64,0.732-2.619,0.732c-1.606,0.141-2.792,0.524-3.561,1.154
	c-0.35,0.279-0.769,0.488-1.257,0.629c-0.769,0.138-1.257,0.242-1.466,0.312c-1.745,0.77-2.723,1.188-2.933,1.26l-1.676,0.312
	c-0.628,0.211-1.119,0.562-1.466,1.047c-0.488,0.562-0.909,1.013-1.257,1.362c-0.209-0.419-0.35-0.733-0.419-0.943
	c0.488-0.347,0.662-0.835,0.524-1.466c-0.628,0.071-1.397,0.35-2.304,0.838c-1.119,0.559-1.85,0.909-2.2,1.047l0.21-0.209
	c-2.164,0.278-3.875,1.012-5.132,2.199c-0.071,0.069-0.488,0.662-1.257,1.78c-0.278,0.351-0.733,0.7-1.361,1.048
	c-0.698,0.35-1.188,0.593-1.466,0.735c-0.909,0.835-1.571,1.221-1.99,1.151c0-0.35,0.28-0.769,0.838-1.259
	c0.697-0.628,1.116-1.047,1.257-1.257c0.14-0.138,0.209-0.385,0.209-0.732L260.34,573.107L260.34,573.107z"/>
<path fill="#704326" d="M276.574,573.422c-1.397-0.069-1.536-0.488-0.419-1.257c0.559-0.35,1.431-0.874,2.618-1.571l-2.409,0.209
	c2.095-1.813,4.225-3.037,6.389-3.665h0.104c1.885,0,2.864,0.386,2.933,1.152c0,0.35-0.278,0.664-0.838,0.942
	c-0.628,0.28-0.976,0.454-1.047,0.523c-0.138,0.28-0.138,0.805,0,1.571c0.209,0.699,0.209,1.188,0,1.466
	c-0.209,0.28-0.802,0.419-1.78,0.419c-1.047,0.069-1.711,0.104-1.99,0.104C279.016,573.526,277.831,573.561,276.574,573.422
	L276.574,573.422z"/>
<path fill="#704326" d="M286.157,569.966h2.042c0.139,1.047-0.559,1.501-2.094,1.359
	C284.73,571.265,284.747,570.811,286.157,569.966z"/>
<path fill="#704326" d="M272.594,569.651l-0.419,0.314h0.733c0.488,1.606-0.662,2.268-3.456,1.987l0.209-0.312
	c-0.838,0.138-1.466,0.174-1.885,0.104c0.488-0.279,1.257-0.767,2.304-1.467C270.987,569.79,271.825,569.582,272.594,569.651
	L272.594,569.651z"/>
<path fill="#704326" d="M268.3,572.793l0.733,0.838c0.071,0.069,0.174,0.105,0.314,0.105c-0.35,1.047-1.607,1.325-3.771,0.835
	C266.345,573.804,267.252,573.212,268.3,572.793z"/>
<path fill="#704326" d="M257.722,576.773l0.733,0.732c-0.35,1.397-2.409,1.957-6.179,1.676
	C254.58,578.623,256.396,577.82,257.722,576.773L257.722,576.773z"/>
<path fill="#704326" d="M251.228,580.229v0.419l1.047,0.104c-0.069,0.419-0.383,0.628-0.942,0.628
	c-0.628,0.071-1.083-0.035-1.362-0.312C250.112,580.857,250.531,580.579,251.228,580.229L251.228,580.229z"/>
<path fill="#704326" d="M265.367,576.144h-1.047c0.35-0.278,0.769-0.348,1.257-0.21c0.628,0.139,0.838,0.455,0.628,0.943
	c-0.141,0.35-0.455,0.523-0.943,0.523c-0.488,0-0.802-0.174-0.942-0.523h-0.838C263.83,576.528,264.46,576.285,265.367,576.144
	L265.367,576.144z"/>
<path fill="#704326" d="M263.691,574.783h-1.361c0.069-0.56,0.733-0.697,1.99-0.419c0.071,0.488-0.069,0.804-0.419,0.942
	c-0.278,0.139-0.595,0.069-0.943-0.212C263.029,575.026,263.272,574.924,263.691,574.783L263.691,574.783z"/>
<path fill="#704326" d="M261.387,576.144l0.943-0.523c0.138-0.139,0.245-0.174,0.314-0.104c0.209,0.559,0.036,0.942-0.524,1.151
	c-0.628,0.281-1.116,0.281-1.466,0C260.723,576.459,260.968,576.285,261.387,576.144z"/>
<path fill="#704326" d="M272.175,574.259l-1.257-0.104c0.209-0.14,0.943-0.211,2.199-0.211c0.069,0.628,0,1.151-0.209,1.57
	c-0.278,0.56-0.662,0.77-1.152,0.629l0.105-0.417c-0.488,0-0.907-0.106-1.257-0.313
	C270.813,574.783,271.337,574.399,272.175,574.259L272.175,574.259z"/>
<path fill="#704326" d="M264.634,582.742l-0.838-1.256c1.607-0.069,2.654-0.036,3.142,0.104c1.119,0.278,1.433,1.083,0.943,2.406
	c-0.139,0.42-0.524,1.085-1.152,1.99c-0.559,0.77-0.874,1.502-0.942,2.2l-1.362,0.522c-1.816,0.7-3.456,1.224-4.922,1.571
	c-1.745,0.35-2.756,0.419-3.037,0.212c0.281-0.488,0.874-1.152,1.78-1.99c-0.35-0.139-0.976-0.174-1.885-0.104s-1.535,0-1.885-0.211
	c0.279-0.418,1.326-1.187,3.142-2.305c-0.419-0.139-0.978-0.174-1.676-0.104c-0.767,0.069-1.326,0.104-1.676,0.104
	C257.198,584.768,260.654,583.72,264.634,582.742L264.634,582.742z"/>
<path fill="#704326" d="M267.147,586.932v0.209c0.036-0.174,0.105-0.313,0.209-0.417c0.138-0.35,0.385-0.419,0.733-0.212
	c-0.488,1.536-1.083,2.271-1.781,2.2C266.31,588.084,266.588,587.491,267.147,586.932L267.147,586.932z"/>
<path fill="#704326" d="M279.192,581.172c0,0.28-0.105,0.56-0.314,0.838l-0.628,0.628c0,0.56-0.105,0.943-0.314,1.152
	c-0.069,0.139-0.279,0.21-0.628,0.21c-0.278,0-0.488,0.037-0.628,0.106c-0.28,0.767-0.523,1.326-0.733,1.676
	c-0.419,0.697-1.119,1.326-2.095,1.883c-0.979,0.562-1.85,0.874-2.619,0.943c0.209-0.279,0.419-0.733,0.629-1.36
	c0.163-0.242,0.389-0.54,0.681-0.892c-0.011-0.711,0.285-1.216,0.89-1.519c0.419-0.21,1.083-0.524,1.99-0.942
	C277.028,582.428,278.285,581.521,279.192,581.172z"/>
<path fill="#704326" d="M273.955,588.713h-0.523c0.278-0.417,0.874-0.486,1.78-0.21c0.138,0.697-0.138,1.186-0.838,1.467
	c-0.628,0.278-1.152,0.278-1.571,0C272.943,589.481,273.327,589.062,273.955,588.713L273.955,588.713z"/>
<path fill="#704326" d="M279.715,586.199c0.279-0.631,0.802-1.188,1.571-1.678c0.769-0.486,1.466-0.698,2.095-0.629v0.314
	c0.909-0.139,1.502,0.069,1.78,0.629c0.35,0.628,0.209,1.327-0.419,2.094c-0.559,0.629-1.571,1.048-3.037,1.258
	c-1.536,0.211-2.514-0.069-2.933-0.836c0.419-0.419,1.083-0.805,1.99-1.152H279.715L279.715,586.199z"/>
<path fill="#704326" d="M280.449,588.713l1.152,0.211c0.698-0.069,0.979,0.139,0.838,0.629c-0.209,0.419-0.595,0.662-1.152,0.732
	c-0.559,0-0.942-0.138-1.152-0.416C279.925,589.586,280.03,589.2,280.449,588.713L280.449,588.713z"/>
<path fill="#704326" d="M287.57,580.544l-0.314,0.104c1.397,0,2.199,0.245,2.409,0.732c-0.698,0.351-1.5,0.488-2.409,0.419
	c-0.909-0.138-1.64-0.454-2.199-0.942C285.476,580.438,286.314,580.334,287.57,580.544z"/>
<path fill="#704326" d="M292.074,580.229l0.628-0.419h1.78c0.767,0.14,1.186,0.488,1.257,1.047
	c-0.628,0.488-1.466,0.769-2.514,0.838c-1.188,0.069-2.025-0.174-2.514-0.733C291.06,580.334,291.515,580.089,292.074,580.229
	L292.074,580.229z"/>
<path fill="#704326" d="M294.378,583.162l0.314,0.209c0.559-0.488,1.642-0.662,3.247-0.523c0.069,0.838-0.559,1.292-1.885,1.361
	c-1.256,0.069-2.166-0.104-2.723-0.523C293.541,583.197,293.89,583.023,294.378,583.162z"/>
<path fill="#704326" d="M291.865,582.481l-0.419-0.157h0.419C291.873,582.37,291.873,582.423,291.865,582.481z M291.865,582.533
	c0.04,0.714-0.52,1.169-1.676,1.359c-1.257,0.212-2.095,0.104-2.514-0.312C288.083,582.696,289.481,582.348,291.865,582.533z"/>
<path fill="#704326" d="M284.848,582.324l1.78-0.313c0,0.767-0.664,1.048-1.99,0.836
	C284.638,582.778,284.707,582.604,284.848,582.324L284.848,582.324z"/>
<path fill="#704326" d="M314.487,576.354c0.419,0,0.662,0.138,0.733,0.419c-0.348,0.278-1.117,0.347-2.304,0.209
	c0-0.209,0.174-0.488,0.522-0.838L314.487,576.354z"/>
<path fill="#704326" d="M300.138,586.199l1.152,1.57c0.069,1.117-1.433,1.71-4.503,1.781c-3.28-0.21-5.096-0.314-5.446-0.314
	l0.209-0.417c-0.976-0.141-1.64-0.56-1.99-1.259c0.35-0.628,2.478-0.767,6.389-0.419
	C297.344,586.932,298.742,586.618,300.138,586.199L300.138,586.199z"/>
<path fill="#704326" d="M305.375,587.718l-2.095-0.472c0.348,0,1.01-0.035,1.987-0.106c0.909-0.069,1.536,0.071,1.886,0.419
	c-0.209,0.35-0.56,0.56-1.047,0.629c-0.419,0.07-0.77-0.036-1.048-0.313C305.178,587.805,305.281,587.753,305.375,587.718
	L305.375,587.718z"/>
<path fill="#704326" d="M295.844,585.047l2.304,0.523c0.279,0.631-0.418,0.979-2.094,1.048c-1.676,0-2.723-0.243-3.142-0.733
	c0.209-0.419,0.662-0.593,1.361-0.523C295.042,585.43,295.566,585.326,295.844,585.047z"/>
<path fill="#704326" d="M290.503,585.361l1.047-0.104c0.628-0.212,1.083-0.069,1.362,0.419c-0.35,0.348-1.012,0.523-1.99,0.523
	c-0.909,0-1.535-0.176-1.885-0.523C289.387,585.466,289.875,585.361,290.503,585.361z"/>
<path fill="#704326" d="M287.675,586.094l0.209,1.26c0.071,0.488-0.104,0.802-0.524,0.942c-0.35,0.068-0.697,0.035-1.047-0.107
	C286.314,587.213,286.768,586.512,287.675,586.094z"/>
<path fill="#704326" d="M286.418,589.236l1.78-0.628c0.209,0.14,0.279,0.35,0.209,0.628
	C287.78,589.586,287.118,589.586,286.418,589.236L286.418,589.236z"/>
<path fill="#704326" d="M251.647,587.037l-1.99-0.314c2.514-0.769,4.225-0.942,5.132-0.523c0.209,1.606-1.606,2.232-5.446,1.883
	v-0.313C249.831,587.282,250.6,587.037,251.647,587.037z"/>
<path fill="#704326" d="M251.647,589.236c0.209-0.348,0.733-0.452,1.571-0.313c0.138,0.56-0.138,0.874-0.838,0.943
	c-0.7,0.068-1.152-0.069-1.362-0.419C251.082,589.318,251.293,589.247,251.647,589.236L251.647,589.236z"/>
<path fill="#704326" d="M253.847,589.445l1.047-0.418c0.769-0.069,0.838,0.28,0.209,1.047c-0.488,0.629-0.942,0.523-1.361-0.314
	C253.742,589.551,253.777,589.445,253.847,589.445L253.847,589.445z"/>
<path fill="#704326" d="M256.15,581.695l0.733,0.524c-0.628,0.837-1.709,1.011-3.247,0.522
	C254.404,582.255,255.244,581.905,256.15,581.695z"/>
<path fill="#704326" d="M285.162,593.635l-0.419,0.313c0.559-0.21,1.188-0.243,1.885-0.104c0.069,0.838-0.488,1.361-1.676,1.57
	c-1.186,0.281-2.023,0.177-2.514-0.312C283.346,594.332,284.252,593.844,285.162,593.635z"/>
<path fill="#704326" d="M293.278,596.253c0.467,0.007,0.903,0.111,1.31,0.313c0.488,0.281,0.523,0.7,0.104,1.259
	c-0.279,0.35-0.874,0.454-1.78,0.313c-0.978-0.069-1.607-0.279-1.885-0.629C291.829,596.955,292.579,596.536,293.278,596.253z"/>
<path fill="#704326" d="M294.168,593.949c0.157-0.222,0.4-0.362,0.733-0.417c0.488-0.068,0.769,0.104,0.838,0.523
	c0.141,0.488-0.138,0.733-0.838,0.733c-0.559,0.069-1.012,0-1.361-0.209C293.541,594.215,293.75,594.006,294.168,593.949z"/>
<path fill="#704326" d="M297.52,593.635h-0.209c0.488-0.35,0.909-0.313,1.257,0.105c-0.35,0.35-0.803,0.454-1.362,0.313
	C297.137,593.914,297.242,593.775,297.52,593.635z"/>
<path fill="#704326" d="M300.138,595.835l0.42,0.313c0.35-0.211,0.628-0.245,0.838-0.106c0.138,0.769-0.351,1.085-1.467,0.942
	L300.138,595.835L300.138,595.835z"/>
<path fill="#704326" d="M308.204,592.588h-0.104c0.209,0.278,0.173,0.488-0.105,0.628c-0.28,0.139-0.523,0.105-0.735-0.104
	C307.401,592.623,307.714,592.449,308.204,592.588L308.204,592.588z"/>
<path fill="#704326" d="M336.795,569.546c0.665-0.242,1.731-0.436,3.192-0.575l-2.041,0.156c0.35-0.278,1.152-0.385,2.407-0.313
	c1.328,0,1.956,0.313,1.886,0.942C339.796,569.896,337.983,569.825,336.795,569.546L336.795,569.546z"/>
<path fill="#704326" d="M341.508,570.489l1.151-0.212c0.35-0.487,0.803-0.56,1.359-0.209c0.489,0.278,0.805,0.732,0.943,1.359
	c0,0.07-0.105,0.942-0.313,2.618l-0.419,2.725c-0.068,0.279-0.104,0.594-0.104,0.94c-0.068,0.212-0.245,0.419-0.523,0.631
	c-0.212,0.209-0.734,0.278-1.57,0.209c-0.77-0.068-1.362-0.209-1.783-0.418c0.069-0.069,0.174-0.21,0.313-0.419
	c-0.28,0.071-1.64,0.106-4.084,0.106c-0.909,0.139-1.676,0.209-2.304,0.209c-1.117,0.069-1.783-0.104-1.99-0.523
	c0.56-0.138,1.709-0.278,3.454-0.419c1.397-0.138,2.513-0.383,3.354-0.732c0-0.42-0.174-0.629-0.524-0.629
	c-0.35,0-0.628-0.036-0.837-0.106c0.069-0.697,0.628-1.186,1.675-1.465c1.048-0.211,1.502-0.699,1.361-1.466
	c0-0.212-0.138-0.419-0.418-0.628c-0.209-0.141-0.279-0.351-0.209-0.631C340.111,570.663,340.601,570.348,341.508,570.489
	L341.508,570.489z"/>
<path fill="#704326" d="M346.378,576.982c0.35-0.101,0.716-0.031,1.1,0.21c0.139,0.487-0.035,0.908-0.523,1.258
	c-0.42,0.279-0.803,0.244-1.152-0.104c-0.418-0.28-0.523-0.63-0.314-1.047C345.622,576.961,345.919,576.854,346.378,576.982z"/>
<path fill="#704326" d="M340.67,580.019l-0.942-0.523c0.559-0.069,1.047,0,1.467,0.209c0.418,0.212,0.349,0.524-0.211,0.943
	c-0.418,0.28-1.085,0.35-1.989,0.209c-0.978-0.138-1.571-0.417-1.782-0.836h3.458V580.019z"/>
<path fill="#704326" d="M335.119,583.056l-2.513,0.314c0.417-0.488,1.396-0.697,2.931-0.629c0.908,0.069,1.99,0.175,3.246,0.314
	c0.07,0.836-0.871,1.326-2.828,1.465h-3.352c0-0.417,0.384-0.767,1.152-1.048C334.108,583.336,334.56,583.197,335.119,583.056
	L335.119,583.056z"/>
<path fill="#704326" d="M340.251,584.732l0.523,0.313c1.117-0.139,1.64,0.106,1.571,0.735c-0.767,0.278-1.745,0.209-2.931-0.212
	C339.414,585.011,339.692,584.732,340.251,584.732z"/>
<path fill="#704326" d="M320.038,584.418h0.628c0.42-0.278,1.398-0.418,2.932-0.418c1.608,0,2.479,0.245,2.618,0.735
	c0.14,0.278,0,0.592-0.417,0.942c-0.351,0.278-0.699,0.454-1.048,0.523c-0.487,0.21-2.06,0.21-4.713,0
	c-2.655-0.28-3.979-0.593-3.979-0.942C318.363,584.699,319.689,584.418,320.038,584.418L320.038,584.418z"/>
<path fill="#704326" d="M322.97,588.188l-0.105,0.42h1.677c0.212,0.909-0.419,1.432-1.884,1.57
	c-1.607-0.069-2.584-0.104-2.934-0.104c0.138-0.419,0.628-0.767,1.466-1.047C322.167,588.608,322.761,588.329,322.97,588.188
	L322.97,588.188z"/>
<path fill="#704326" d="M325.484,588.608h0.314c0.139-0.42,0.629-0.594,1.465-0.524c0.837,0,1.188,0.314,1.046,0.943
	c-1.675,0.209-2.723,0.104-3.142-0.314C325.31,588.572,325.415,588.539,325.484,588.608z"/>
<path fill="#704326" d="M357.218,594.368c-0.42,0.35-0.594,0.769-0.523,1.259c0.068,0.698,0.068,1.152,0,1.359
	c-0.211,0.56-0.805,0.874-1.783,0.942c-1.047-0.068-1.744-0.104-2.095-0.104c-2.304,0-4.398-0.28-6.283-0.838
	c-1.884-0.348-3.038-0.871-3.454-1.57l1.464-1.467c0.63,0.488,1.608,0.838,2.933,1.047c1.256,0.141,2.305,0.107,3.142-0.104
	c-0.209-0.419-0.351-0.661-0.419-0.732c0.068,0,0.593,0.035,1.571,0.104c0.838,0.068,1.328,0,1.467-0.21
	c0.209-0.28,0.278-0.559,0.209-0.838c-0.069-0.35-0.104-0.661-0.104-0.942c1.115-0.419,2.268-0.56,3.456-0.419
	c0.488,0.141,0.767,0.28,0.835,0.419c-0.416,0.212-0.732,0.56-0.939,1.048C356.416,593.949,356.589,594.299,357.218,594.368z"/>
<path fill="#704326" d="M299.196,573.316c0.069-0.278,0.662-0.419,1.78-0.419c0.56,0.069,1.258,0.141,2.096,0.212l-0.105,0.207
	c1.117-0.138,1.676,0.314,1.676,1.362c0,1.116-0.559,1.464-1.676,1.047l-1.047-0.523c-0.488,0.069-0.874,0.035-1.152-0.107
	c-0.071,0-0.35-0.242-0.838-0.732C299.37,573.945,299.126,573.597,299.196,573.316z"/>
<path fill="#704326" d="M306.422,575.202l-0.212,0.104c0.35-0.35,0.979-0.454,1.885-0.314c1.049,0.069,1.467,0.42,1.258,1.048
	c-2.304,0-4.016,0.559-5.132,1.676c0.212-0.767,0.664-1.431,1.362-1.988C305.794,575.585,306.074,575.412,306.422,575.202
	L306.422,575.202z"/>
<path fill="#704326" d="M300.558,580.438l-0.105-0.209c0.419,0.14,0.629,0.35,0.629,0.628c-0.35,0-0.698-0.068-1.048-0.209
	c-0.56-0.21-0.802-0.455-0.733-0.733c0.21,0,0.42,0.069,0.629,0.21C300.21,580.334,300.417,580.438,300.558,580.438L300.558,580.438
	z"/>
<path fill="#704326" d="M300.558,579.496l0.104-0.104c0.351,0.138,0.351,0.348,0,0.628c-0.35,0.35-0.451,0.21-0.313-0.419
	L300.558,579.496L300.558,579.496z"/>
<path fill="#704326" d="M311.451,576.144l-0.211,0.419c-0.068-0.56,0.313-0.979,1.152-1.257c0.769-0.28,1.361-0.314,1.781-0.104
	c-0.418,0.069-0.941,0.487-1.572,1.257c-0.209,0.209-0.416,0.28-0.627,0.209c-0.279-0.138-0.488-0.209-0.629-0.209L311.451,576.144z
	"/>
<path fill="#875636" d="M307.888,575.725l-0.209-0.212c0.35-0.068,0.593,0,0.733,0.212c0.212,0.209,0.106,0.417-0.313,0.629
	c-0.069,0.068-0.523,0.104-1.361,0.104l-1.36,0.104c0.139-0.348,0.524-0.629,1.153-0.836
	C307.086,575.516,307.541,575.516,307.888,575.725z"/>
<g>
	<path fill="#5C371E" d="M317.838,563.577v-0.314c0.562-1.397,1.571-1.745,3.038-1.048c0.627,0.278,1.605,1.048,2.932,2.305
		c2.164,1.815,3.352,2.898,3.561,3.246c1.049,1.397,0.629,2.55-1.258,3.456c0.979,0.56,1.396,1.434,1.258,2.619
		c-0.279,1.815-0.385,2.827-0.313,3.037c-2.374,0.138-4.12,0.312-5.236,0.523c0.419,1.116,2.059,2.13,4.922,3.037
		c-0.56,0.278-1.709,0.384-3.454,0.313c-1.816-0.069-2.863-0.104-3.142-0.104c-2.163,0.068-3.807,0.104-4.925,0.104
		c-1.955,0.069-3.597,0.035-4.923-0.104l2.199-0.314h-14.453l0.628-0.105c-0.909-0.418-2.304-0.661-4.189-0.732
		c-2.514-0.069-3.98-0.139-4.399-0.212c1.676-0.836,4.958-1.116,9.845-0.836c4.4,0.21,7.472-0.385,9.217-1.782l-0.629-0.104
		c0.836-0.279,1.676-0.488,2.512-0.629l-1.048-0.942c2.864,0,4.471-0.035,4.821-0.104c0.347,1.116,1.082,1.676,2.198,1.676h0.313
		c0.837,0.35,1.64,0.28,2.409-0.21c0.769-0.559,1.151-1.396,1.151-2.513v-0.101c0-0.909-0.278-1.641-0.836-2.2
		c-0.487-0.56-1.085-0.804-1.782-0.735l-0.941-0.835c0.351-0.141,0.736-0.42,1.154-0.839c-2.094-0.559-3.629-1.116-4.607-1.676
		c0.559-0.211,1.99-0.418,4.294-0.628c-0.419-0.419-0.56-0.873-0.419-1.361c0.141-0.419,0.523-0.767,1.152-1.048
		C318.814,564.135,318.467,563.855,317.838,563.577L317.838,563.577z"/>
	<path fill="#5C371E" d="M344.231,570.908l0.313-0.629c0.909-0.628,1.747-0.523,2.514,0.314c0.487,0.488,1.116,1.326,1.886,2.514
		c0.349,0.348,0.942,0.871,1.779,1.571c0.56,0.697,0.56,1.359,0,1.987c0.488,0.35,1.26,0.769,2.307,1.259
		c0.278,1.956-1.259,2.931-4.608,2.931c-3.212,0-5.306-0.523-6.283-1.571l3.142-0.104c1.745-0.069,2.688-0.384,2.828-0.942
		c0.279-0.836-0.351-1.359-1.884-1.571c-1.747,0-2.759-0.035-3.036-0.104c0.277-0.069,0.697-0.348,1.256-0.836
		c-0.35-0.28-0.559-0.559-0.629-0.838c-0.068-0.139-0.104-0.56-0.104-1.257c0.834,0.069,1.289-0.245,1.358-0.942
		C345.138,572.06,344.86,571.467,344.231,570.908L344.231,570.908z"/>
	<path fill="#5C371E" d="M358.213,573.945c0.436,0.079,1.083,0.148,1.937,0.212c0.77,0.138,1.188,0.523,1.26,1.151
		c-0.84,0.067-1.469,0.104-1.887,0.104c-0.839-0.069-1.503-0.244-1.99-0.524C357.732,574.494,357.958,574.177,358.213,573.945
		c-0.054,0.011-0.104,0.011-0.157,0l0.419-0.157C358.382,573.834,358.296,573.886,358.213,573.945z"/>
	<path fill="#5C371E" d="M271.861,585.989c0.14,0.35,0.173,0.909,0.104,1.676c-0.488,0.488-1.152,0.838-1.99,1.048
		c-1.397,0.419-2.13,0.63-2.2,0.63c0.35-0.699,0.56-1.433,0.628-2.201l0.419-0.104c0.069-0.907,0.35-1.606,0.838-2.095l-0.523-0.524
		c0.35-0.418,0.523-0.978,0.523-1.676c-0.559-0.209-1.326-0.385-2.304-0.522c-1.326-0.139-2.13-0.243-2.409-0.314
		c0.559-0.349,1.397-0.56,2.514-0.629c1.188-0.069,2.025-0.242,2.514-0.523c-0.838-0.209-2.095-0.384-3.771-0.523
		c0.838-0.279,1.99-0.419,3.456-0.419c0.769,0.07,1.921,0.14,3.456,0.211l-0.314-0.313c0.35-0.488,0.419-0.943,0.209-1.359
		c-0.281-0.42-0.698-0.664-1.257-0.735c1.326,0,2.723,0.419,4.189,1.259c1.535,0.978,2.828,1.502,3.875,1.571
		c-0.35,0.487-0.943,0.835-1.781,1.047c-1.118,0.348-1.78,0.56-1.99,0.629c0.141,0.209,0.279,1.047,0.419,2.513
		c-1.047-0.699-1.816-0.699-2.304,0C273.467,585.606,272.699,586.058,271.861,585.989L271.861,585.989z"/>
	<path fill="#5C371E" d="M291.027,563.577l1.361,0.942c-0.488,1.606-1.397,2.306-2.723,2.095c-0.35-0.069-0.629-0.313-0.838-0.733
		c-0.279-0.419-0.488-0.662-0.629-0.735c-0.35-0.069-0.838-0.069-1.466,0c-0.979,0.071-1.502,0.107-1.571,0.107
		c0.698-0.488,1.676-0.839,2.933-1.048C289.629,563.927,290.608,563.717,291.027,563.577L291.027,563.577z"/>
	<path fill="#5C371E" d="M328.941,586.827c0.416-0.069,1.082-0.314,1.987-0.735c0.837-0.416,1.501-0.661,1.99-0.732h-0.313
		c-1.327,0.209-2.618-0.21-3.877-1.257c0.838-0.069,2.583,0.035,5.235,0.312c0.629,0.069,1.572-0.035,2.831-0.312
		c1.185-0.281,2.095-0.386,2.723-0.314c-1.396,1.257-1.501,2.199-0.313,2.828c0.627,0.28,1.64,0.523,3.037,0.735
		c0.697,0.209,2.025,1.221,3.979,3.037c-1.188-0.141-2.095,0.348-2.726,1.464c-0.627,1.118-0.209,1.885,1.26,2.307
		c-1.048-0.139-2.164-0.662-3.354-1.571c-1.326-1.186-2.305-2.025-2.932-2.514c-0.625-0.488-1.501-0.838-2.617-1.047
		c-1.677-0.279-2.654-0.455-2.934-0.524C331.106,587.594,329.779,587.037,328.941,586.827L328.941,586.827z"/>
	<path fill="#704326" d="M317.105,574.05v0.104c0.56,0.56,0.838,0.872,0.838,0.94v0.631c0.069,0.139,0.174,0.313,0.313,0.523
		c0.068,0.21,0.068,0.384,0,0.524c-0.139,0.138-0.243,0.174-0.313,0.104c-0.14-0.139-0.244-0.245-0.313-0.314l-1.048-0.733
		l-0.209-0.313l-0.42-0.21c0-0.35-0.14-0.593-0.418-0.735C315.603,574.225,316.126,574.05,317.105,574.05L317.105,574.05z"/>
</g>
<path fill="#875636" d="M302.128,573.736l-0.104,0.312c0.21,0.071,0.28,0.211,0.21,0.419c-0.139,0.141-0.279,0.245-0.42,0.314
	c-0.628-0.069-1.012,0.104-1.152,0.523v0.523l-0.418,0.942v0.629c0,0.139-0.281,0.386-0.838,0.733
	c-0.069,0.068-0.662,0.176-1.781,0.313c-0.209,0.139-0.35,0.21-0.419,0.21c-0.069,0-0.138-0.105-0.209-0.313
	c-0.069-0.28,0.036-0.523,0.314-0.735c0.071-0.068,0.245-0.209,0.523-0.419h-0.838c0.14-0.278,0.628-0.628,1.466-1.047
	c0.069-0.069,0.139-0.209,0.21-0.417l1.257-0.419c0-0.069-0.314-0.212-0.943-0.419C299.755,574.121,300.802,573.736,302.128,573.736
	L302.128,573.736z"/>
<path fill="#875636" d="M315.325,574.364l-0.313,0.104c-0.069-0.56,0.138-1.012,0.628-1.359l-0.628-0.106
	c1.047-0.836,1.92-1.048,2.618-0.629l-0.21,0.212h1.048c0.347,0.069,0.485,0.383,0.416,0.94c-0.209-0.069-0.593-0.035-1.151,0.106
	l-1.048-0.106c-0.56,0.631-0.978,1.047-1.257,1.259L315.325,574.364L315.325,574.364z"/>
<path fill="#875636" d="M316.058,571.327l-0.419-0.21l0.628,0.104c0.07,0.281-0.138,0.488-0.628,0.629
	c-0.488,0.069-0.802,0.104-0.942,0.104C314.765,571.327,315.22,571.117,316.058,571.327L316.058,571.327z"/>
<path fill="#875636" d="M303.385,571.955l-0.733,0.105c1.047-0.069,1.221,0.104,0.523,0.523c-0.628,0.417-1.151,0.383-1.57-0.107
	C301.883,572.131,302.478,571.955,303.385,571.955z"/>
<path fill="#875636" d="M317.525,574.573l-0.212-0.209c0.351-0.069,0.769,0,1.259,0.209c-0.069,0.562-0.769,0.664-2.095,0.314
	C316.546,574.538,316.896,574.433,317.525,574.573z"/>
<g>
	<path fill="#57351D" d="M306.737,581.172c0.069-0.278,0.036-0.733-0.104-1.361c0.139,0.07,0.385,0.07,0.732,0v-0.942l0.314,0.209
		h-0.209c0.485,0.209,0.767,0.386,0.836,0.523c0.068,0,0.174,0.386,0.313,1.152c0.069,0.141,0.351,0.628,0.836,1.467
		c0.419,0.768,0.386,1.116-0.104,1.047c0.281,0.28,0.385,0.593,0.314,0.942c-0.488,0.069-1.048,0-1.676-0.212
		c-0.979-0.347-1.502-0.523-1.57-0.523h-2.406l-0.104,0.316c-0.142,0.21-0.524,0.314-1.152,0.314
		c-0.698-0.069-1.152-0.107-1.361-0.107c-1.326-0.347-2.305-0.559-2.934-0.628c-0.769-0.069-1.326-0.139-1.675-0.209
		c-0.628-0.212-1.152-0.524-1.571-0.943l-0.523-1.047c-0.697,0-1.186-0.104-1.466-0.314c-0.279-0.486-0.664-0.802-1.152-0.94
		c-1.186,0.139-2.095,0.139-2.723,0c-0.978,0-1.502-0.314-1.571-0.942l3.77-0.314c-0.628-0.348-0.802-0.697-0.523-1.048
		c0.419-0.418,1.502-0.767,3.247-1.047c0.069,0.7,0.419,1.152,1.047,1.361c1.047,0.419,1.606,0.662,1.676,0.733l0.104,0.523
		l0.838,0.838c0.138-0.211,0.629-0.314,1.467-0.314c0-0.697,0.209-1.082,0.628-1.151c0.56,0,0.942-0.104,1.152-0.314l0.628-1.047
		c0.21-0.418,0.56-0.594,1.047-0.524l0.105,0.314c0.278,0.56,0,1.328-0.838,2.304c-0.629,0.631-0.979,1.086-1.047,1.362
		c-0.072,0.419,0.035,0.732,0.314,0.942c0.138,0.069,0.35,0.243,0.628,0.523h-0.628l0.104,0.21l0.629,0.211
		c0.139,0.069,0.419,0.105,0.838,0.105c0.419,0.138,0.697,0.278,0.838,0.419c1.814-0.141,2.723-0.524,2.723-1.154h-0.629
		C306.387,581.695,306.667,581.452,306.737,581.172L306.737,581.172z"/>
	<path fill="#57351D" d="M316.477,574.887l0.104,0.104c1.048,0,1.676,0.036,1.886,0.105l0.837,0.523c0.213,0.071,0.56,0.071,1.048,0
		l0.524,0.523l0.211,0.523c0.209,0.212,0.836,0.314,1.883,0.314h2.514c1.535,0.138,2.305,0.523,2.305,1.152
		c-1.884-0.069-3.212,0.035-3.979,0.314l0.42-0.105c2.58,0,3.838,0.348,3.77,1.048c-0.068,0.697-0.873,1.047-2.408,1.047
		c-1.884,0.069-2.861,0.105-2.931,0.105c1.534,0.209,2.511,0.628,2.931,1.256c-0.279,0.42-1.187,0.735-2.723,0.942
		c-0.139,0.77-0.455,1.362-0.943,1.781c0.419,0.35,1.641,0.873,3.666,1.57c1.605,0.563,2.654,1.328,3.141,2.307
		c-0.697,0.069-1.744,0.909-3.141,2.514c-1.467,1.676-2.27,2.931-2.408,3.771c-0.768,0.628-1.328,1.047-1.677,1.257
		c-0.628,0.35-1.29,0.454-1.988,0.314c0.278-1.606,0.524-2.757,0.733-3.457c-2.514-0.835-4.016-1.535-4.504-2.095
		c1.467-0.138,3.666-0.174,6.598-0.104c-0.208-0.35-0.768-0.873-1.675-1.571c-0.697-0.559-1.083-1.221-1.152-1.989
		c0.21-0.069,0.417-0.069,0.629,0c-0.489-0.139-0.978-0.488-1.466-1.048c-0.56-0.697-0.943-1.116-1.153-1.256l-0.214,0.103
		c-0.977,0.697-1.849,0.978-2.617,0.838c-0.486-0.069-1.258-0.419-2.305-1.048c-0.908-0.56-1.676-0.805-2.304-0.735
		c0.069-0.209,0.312-0.383,0.733-0.523c0.278-0.139,0.385-0.419,0.313-0.836l0.629,0.104c-0.28-0.28-0.419-0.559-0.419-0.838
		l1.047-0.209c-0.138-0.697-0.104-1.116,0.104-1.259c0.069-0.069,0.455-0.174,1.152-0.313l-1.048-0.523
		c-0.068-0.419,0.177-0.662,0.736-0.735c0.222,0,0.469,0.019,0.732,0.053c-0.258-0.084-0.432-0.241-0.523-0.472
		c0.488-0.35,0.873-0.386,1.152-0.106c0.562,0.28,1.085,0.664,1.57,1.154c0.42,0.416,0.664,0.628,0.736,0.628l0.309-0.207
		l-0.416-0.105c-0.141-0.419-0.281-0.661-0.42-0.732c-0.559-0.281-0.941-0.488-1.15-0.629c-0.351-0.211-0.455-0.664-0.315-1.361
		c0.139-1.186,0.56-1.676,1.257-1.466C316.408,575.237,316.477,575.026,316.477,574.887L316.477,574.887z"/>
</g>
<path fill="#4F301A" d="M321.294,576.982c0.488,0.488,0.662,1.047,0.524,1.676c-0.069,0.28-0.315,0.593-0.733,0.942
	c-0.069,0.21-0.039,0.629,0.104,1.257l-1.361,0.419l-0.629,0.629c0.069,0.071,0.069,0.211,0,0.419l-1.361,0.523
	c-0.069,0.28-0.174,0.454-0.312,0.523c-0.141,0.069-0.664,0.104-1.572,0.104h-2.723c0.21-0.068,0.803-0.174,1.78-0.312
	c0.769-0.281,0.909-0.735,0.42-1.362c0.209-0.278,0.56-0.418,1.046-0.418v-0.735c1.117,0.209,1.711,0.313,1.781,0.313
	c-0.138-0.487-0.242-0.873-0.312-1.153c0.138,0.071,0.383,0.071,0.733,0c0.068-0.417-0.174-0.907-0.733-1.465
	c0.209,0.069,0.485,0.036,0.835-0.106c-0.488-0.139-0.906-0.417-1.256-0.836c0.35-0.069,0.873-0.138,1.57-0.212l-1.361-0.732h0.838
	c0.279-0.21,0.766-0.243,1.467-0.104C320.666,576.494,321.085,576.704,321.294,576.982L321.294,576.982z"/>
<path fill="#4F301A" d="M302.128,578.135l0.419,0.104c-0.838,0.488-1.326,1.154-1.466,1.99c-0.141,0.487,0,0.978,0.418,1.466
	c0.42,0.56,0.596,1.012,0.524,1.361c-0.488,0.069-1.048,0-1.676-0.211c-0.628-0.21-1.116-0.384-1.466-0.524l-1.257-0.104
	l-0.733-0.419c-0.418-0.138-0.802-0.419-1.152-0.836c-0.488-0.559-0.697-1.082-0.628-1.57c1.117,0.978,2.549,1.325,4.294,1.047
	c-0.069-0.35,0.035-0.593,0.314-0.734c0.138-0.069,0.35-0.175,0.628-0.313c0.069-0.069,0.21-0.281,0.419-0.631
	C301.045,578.553,301.5,578.344,302.128,578.135L302.128,578.135z"/>
<path fill="#4F301A" d="M308.099,580.753l-0.213-0.419c0.42-0.069,0.873,0.28,1.362,1.047c0.559,0.839,0.662,1.502,0.313,1.99
	c-0.141,0.212-0.487,0.245-1.047,0.104c-0.561-0.138-0.908-0.348-1.047-0.628c-0.07-0.278,0.035-0.593,0.313-0.942
	C308.065,581.486,308.167,581.102,308.099,580.753L308.099,580.753z"/>
<path fill="#4A2C1C" d="M308.832,581.276c0.35,0.069,0.592,0.28,0.734,0.629c0.139,0.419,0.036,0.735-0.313,0.942
	c-0.42,0.28-0.698,0.104-0.84-0.523C308.272,581.695,308.413,581.345,308.832,581.276L308.832,581.276z"/>
<path fill="#4A2C1C" d="M300.244,580.648l0.418-0.419c0.21-0.419,0.524-0.629,0.943-0.629c-0.77,0.769-1.047,1.328-0.838,1.676
	c0.068,0.141,0.35,0.28,0.838,0.419c0.35,0.069,0.452,0.35,0.314,0.838c-2.445,0.209-3.911-0.245-4.399-1.361l2.724-0.21V580.648
	L300.244,580.648z"/>
<path fill="#704326" d="M310.716,578.449l-0.419,0.104c0.21,0,0.663-0.036,1.362-0.104c0.628,0.068,0.94,0.35,0.94,0.835
	c0.068,0.281,0.038,0.488-0.104,0.631c-0.211,0.139-0.385,0.278-0.524,0.417c-0.278,0.35-0.56,0.562-0.836,0.63
	c-0.838,0.139-1.361-0.245-1.57-1.153c-0.069-0.417-0.038-0.733,0.104-0.94C309.878,578.589,310.229,578.449,310.716,578.449
	L310.716,578.449z"/>
<path fill="#704326" d="M310.716,581.276v0.21l0.21,0.104c0.069,0.35,0,0.629-0.21,0.836c-0.211,0.211-0.385,0.176-0.523-0.105
	C309.912,581.764,310.088,581.417,310.716,581.276z"/>
<path fill="#875636" d="M310.297,578.658h0.104c0.838,0,1.293,0.141,1.362,0.419c0.21,0.35,0.104,0.733-0.313,1.152
	c-0.139,0.069-0.455,0.035-0.943-0.104h-0.419c-0.069,0-0.141-0.139-0.212-0.42c-0.138-0.278-0.174-0.559-0.104-0.835
	L310.297,578.658L310.297,578.658z"/>
<path fill="#875636" d="M314.802,577.506c0.193,0.032,0.403,0.135,0.627,0.314c0.35,0.278,0.488,0.593,0.419,0.94
	C315.5,578.903,315.149,578.484,314.802,577.506z"/>
<path fill="#4A2C1C" d="M323.494,577.716v0.313l0.419,0.105l0.315,0.523c0.137,0.141,0.485,0.314,1.047,0.523
	c0.485,0.281,0.416,0.523-0.213,0.735c-0.418,0.069-0.732,0.139-0.941,0.209c-0.348,0.069-0.629,0.21-0.836,0.42
	c-0.141,0.278-0.281,0.523-0.42,0.732c-0.418,0.212-0.697,0.419-0.837,0.629c-0.141,0.138-0.209,0.348-0.209,0.626l-0.104,0.313
	c0,0.069-0.351,0.211-1.049,0.419c-0.697,0-1.082,0.104-1.15,0.313L319.41,584c-0.07,0.071-0.279,0.106-0.629,0.106h-2.617
	c-0.07,0-0.211,0.104-0.42,0.312c-0.278,0.141-0.628,0.177-1.047,0.105c-0.561-0.069-0.941-0.105-1.152-0.105l-4.398-0.209
	c-0.909,0-1.536-0.069-1.885-0.212l-0.42-0.154c0.496,0.136,1.231,0.084,2.201-0.157c0.211,0,0.523,0.104,0.941,0.312
	c0.631-0.209,0.978-0.312,1.047-0.312c1.816,0.138,3.072,0.104,3.772-0.104l1.36-0.733h0.313l1.257-0.419l1.047-1.048l0.212-0.416
	l0.628-0.735c0.139-0.21,0.174-0.56,0.105-1.048c-0.069-0.419-0.105-0.732-0.105-0.942c0-0.348,0.139-0.523,0.42-0.523h0.104
	c-0.069-0.697,0.454-0.977,1.57-0.836C322.761,577.018,323.354,577.297,323.494,577.716L323.494,577.716z"/>
<path fill="#3B2316" d="M300.034,581.591l0.104-0.104c0.21-0.069,0.386,0,0.523,0.209c0.072,0.21,0,0.35-0.209,0.419
	c-0.209,0.139-0.419,0.105-0.629-0.104C299.686,581.8,299.755,581.66,300.034,581.591z"/>
<path fill="#3B2316" d="M309.041,581.8v-0.104c0.139,0,0.209,0.174,0.209,0.524h-0.418C308.832,581.94,308.901,581.8,309.041,581.8z
	"/>
<path fill="#3B2316" d="M317.419,576.459c0.068,0.139,0.21,0.28,0.417,0.419c0.141,0.138,0.245,0.312,0.313,0.523
	c0.069,0.278,0.069,0.697,0,1.257c1.117,0,1.746,0.069,1.886,0.212c0.069,0.068,0.104,0.383,0.104,0.94
	c0,0.419-0.035,0.699-0.104,0.838l-0.837,0.838c0,0.209-0.07,0.383-0.211,0.523c-0.418,0.56-0.873,0.767-1.361,0.628h-0.418
	c0.068-0.138,0.068-0.28,0-0.418c-0.069-0.488-0.139-0.768-0.209-0.839l-0.627-0.313c-0.281-0.351-0.488-0.593-0.631-0.735
	c-0.209-0.21-0.454-0.243-0.732-0.105c-0.279-0.628-0.629-0.978-1.048-1.047v0.314c-1.466-0.56-2.341-0.838-2.618-0.838
	c-0.909,0.212-1.607,0.35-2.095,0.419l1.989-0.733c0.907-0.56,1.883-0.631,2.931-0.212c0.489,0.212,1.328,0.77,2.515,1.676
	l0.627-0.312c0-0.35-0.209-0.523-0.627-0.523c0.349-0.139,0.486-0.488,0.418-1.048c-0.069-0.559-0.35-0.838-0.838-0.838
	c0-0.348-0.174-0.523-0.523-0.523c-0.348-0.069-0.629-0.036-0.836,0.104h-0.419c0.139-0.836,0.698-1.29,1.676-1.359
	c0.837-0.069,1.571,0.069,2.2,0.419c-0.07,0.209-0.211,0.384-0.418,0.523C317.734,576.32,317.56,576.389,317.419,576.459z"/>
<path fill="#3B2316" d="M306.632,583.685l-0.21,0.104c0.069,0.419-0.106,0.593-0.524,0.523c-0.418-0.138-0.699-0.242-0.837-0.313
	c-0.698-0.069-1.222-0.139-1.571-0.21c-0.629-0.139-1.082-0.419-1.361-0.838c0.278,0.141,0.593,0.245,0.943,0.314h0.941
	C304.642,583.266,305.515,583.405,306.632,583.685L306.632,583.685z"/>
<path fill="#8FAD43" d="M290.503,529.852l-0.523,0.419c0.209-0.141,0.488-0.141,0.838,0c0,0.35-0.314,0.697-0.943,1.048
	c-0.559,0.35-1.012,0.487-1.361,0.418C288.723,531.25,289.387,530.621,290.503,529.852z"/>
<path fill="#3B2316" d="M322.97,579.286l-0.209,0.419c0.209,0.42,0.174,0.77-0.105,1.048c-0.418,0.419-0.63,0.664-0.63,0.735v0.628
	c-0.069,0.139-0.278,0.21-0.629,0.21s-0.559,0.069-0.628,0.212c0,0.068-0.035,0.173-0.104,0.312c0,0.069-0.104,0.141-0.315,0.212
	l-0.732,0.104l-0.104,0.209c-0.141,0.069-0.351,0.105-0.631,0.105h-0.628l-1.258,0.63c-0.211,0.069-0.734,0.104-1.57,0.104
	c-1.259,0-2.164-0.068-2.723-0.211c0.979,0,1.744-0.069,2.304-0.21c0.351-0.068,0.874-0.138,1.571-0.209
	c0.418-0.212,0.662-0.314,0.732-0.314l0.839-0.104c0.56-0.212,1.046-0.524,1.466-0.942l0.732-0.838
	c0.351-0.21,0.56-0.417,0.629-0.629v-0.419c0-0.485,0.176-0.733,0.524-0.733l0.419-0.104c0.141-0.068,0.174-0.245,0.104-0.523
	l-0.104-0.104l0.104-0.631c0.07-0.068,0.246,0.038,0.523,0.314C322.902,578.903,323.041,579.146,322.97,579.286L322.97,579.286z"/>
</svg>
