<?xml version="1.0" encoding="UTF-8"?>
<!DOCTYPE svg  PUBLIC '-//W3C//DTD SVG 1.1//EN'  'http://www.w3.org/Graphics/SVG/1.1/DTD/svg11.dtd'>
<svg enable-background="new 0 0 128.3 64.1" version="1.1" viewBox="0 0 128.3 64.1" xml:space="preserve" xmlns="http://www.w3.org/2000/svg">
		<linearGradient id="a" x1="20.8" x2="113.25" y1="51.915" y2="51.915" gradientUnits="userSpaceOnUse">
			<stop stop-opacity=".4" offset="0"/>
			<stop stop-opacity=".4" offset="1"/>
		</linearGradient>
		<path d="m88.6 42.05c1-0.233 2.801-0.383 5.4-0.45 0.8 0 2-0.017 3.6-0.05 1.4 0 2.584 0.05 3.551 0.15 0.699 0.1 1.783 0.217 3.25 0.35 0.333 0.033 0.699 0.184 1.1 0.45 0.233 0.134 0.566 0.35 1 0.65 0.566 0.3 1.467 0.433 2.7 0.399 0.566 0.066 1.45 0.267 2.649 0.601l-0.05 0.399c0.167 0.066 0.5 0.184 1 0.351 0.4 0.233 0.533 0.5 0.4 0.8-0.101 0.2-0.4 0.35-0.9 0.45-0.533 0.066-0.85 0.183-0.95 0.35-0.066 0.1-0.083 0.233-0.05 0.4 0.066 0.199 0.084 0.366 0.05 0.5-0.199 0.1-0.566 0.216-1.1 0.35-0.5 0.066-0.85 0.167-1.05 0.3 0.166-0.033 0.3 0.05 0.399 0.25 0.067 0.167 0.067 0.351 0 0.55-0.066 0.167-0.166 0.284-0.3 0.351h-0.5c-0.566 0.033-1 0.066-1.3 0.1-0.566 0.066-1 0.167-1.3 0.3 0 0.733-0.033 1.15-0.101 1.25-0.133 0.301-0.35 0.434-0.649 0.4-0.4 0-0.65 0.033-0.75 0.1 0.066 0.167 0.066 0.334 0 0.5-0.101 0.167-0.15 0.284-0.15 0.351 0 0.2-0.2 0.383-0.6 0.55-0.334 0.1-0.417 0.2-0.25 0.3 0.366 0.2 0.316 0.483-0.15 0.851-0.6 0.399-1 0.649-1.2 0.75-0.533 0.366-0.916 0.517-1.149 0.449-0.533-0.133-0.983-0.183-1.351-0.149 0.067 0.333-0.083 0.566-0.449 0.7-0.434 0.1-0.717 0.183-0.851 0.25-0.233 0.1-0.366 0.216-0.399 0.35-0.101 0.233-0.184 0.4-0.25 0.5-0.101 0.1-0.384 0.184-0.851 0.25-0.366 0.033-0.566 0.267-0.6 0.7-0.733 0.233-1.517 0.434-2.351 0.6-0.3 0.066-0.5 0.167-0.6 0.3-0.233 0.301-0.366 0.467-0.4 0.5-0.166 0.134-0.649 0.2-1.449 0.2-0.267 0-0.75-0.066-1.45-0.2-0.601-0.133-1.084-0.166-1.45-0.1-1 0.066-1.717 0.184-2.15 0.35-0.566 0.167-0.916 0.233-1.05 0.2-0.3-0.233-0.533-0.366-0.7-0.399-0.267-0.101-0.616-0.117-1.05-0.051-0.566 0.067-0.916 0.101-1.05 0.101l-1.95-0.3c-0.2-0.034-0.583-0.051-1.149-0.051-0.467 0-0.834-0.05-1.101-0.149-0.333-0.233-0.6-0.367-0.8-0.4h-0.9v-0.1l-0.05 0.05c-0.566 0.134-0.967 0.233-1.2 0.3-0.333 0.267-0.616 0.467-0.85 0.601-0.167 0.066-0.384 0.1-0.65 0.1-0.366-0.033-0.583-0.05-0.649-0.05-0.3 0.133-0.566 0.25-0.8 0.35-0.601 0.334-1.467 0.467-2.601 0.4-0.6-0.434-1.583-0.417-2.95 0.05l-0.149 0.25c-0.767 1.033-2.25 1.4-4.45 1.1-0.533-0.166-0.917-0.233-1.15-0.199-0.233 0.1-0.417 0.166-0.55 0.199-0.333 0-0.55 0.067-0.65 0.2-0.033 0.3-0.1 0.483-0.2 0.55-0.233 0.2-0.667 0.233-1.3 0.101-0.6-0.134-1.017-0.316-1.25-0.55l0.1-0.45-1.35-0.05c-1.433 0-2.4-0.134-2.9-0.4-0.333-0.167-0.467-0.316-0.4-0.45 0.133-0.399 0.2-0.616 0.2-0.649-1-0.233-1.167-0.483-0.5-0.75-0.5-0.267-1.267-0.334-2.3-0.2-1.133 0.133-1.933 0.116-2.4-0.05-0.367-0.174-0.55-0.357-0.55-0.557-0.066-0.533-0.117-0.833-0.15-0.899-0.066-0.167-0.283-0.334-0.65-0.5-0.433-0.2-0.717-0.367-0.85-0.5-0.133-0.134-0.267-0.417-0.4-0.851-0.133-0.366-0.267-0.6-0.4-0.699-0.2-0.101-0.533-0.101-1 0-0.6 0.133-0.934 0.199-1 0.199-0.4 0.034-0.733 0.051-1 0.051-0.467 0-0.767-0.067-0.9-0.2-0.233-0.233-0.233-0.434 0-0.601 0.167-0.066 0.417-0.183 0.75-0.35 0-0.333-0.367-0.667-1.1-1-0.6-0.3-1.117-0.467-1.55-0.5-0.5 0-0.883-0.017-1.15-0.05-0.433 0-0.816-0.066-1.15-0.2v-0.9c-0.233 0-0.6-0.083-1.1-0.25-0.433-0.166-0.8-0.233-1.1-0.199-1.267 0.333-2.216 0.5-2.85 0.5-0.6 0-1.5-0.167-2.7-0.5-0.633-0.134-1.033-0.233-1.2-0.301-0.367-0.233-0.417-0.6-0.15-1.1-0.967-0.066-1.633-0.2-2-0.4-0.066-0.033-0.3-0.183-0.7-0.449-0.2-0.167-0.434-0.25-0.7-0.25-1.067 0.066-1.667 0.083-1.8 0.05-0.733-0.066-1.284-0.334-1.65-0.8 0.1-0.2 0.3-0.301 0.6-0.301 0.167-0.033 0.417-0.05 0.75-0.05 1.167-0.133 1.983-0.316 2.45-0.55l14.6-0.6c0.566 0 2.35 0.166 5.35 0.5 0.9 0.1 2.333 0.216 4.3 0.35 1.733 0.2 3.117 0.65 4.15 1.35 1.2 0.801 2.3 1.834 3.3 3.101 1.034 1.366 1.8 2.75 2.3 4.149l0.25 0.95c0.367-0.133 1.1-0.2 2.2-0.2 0.034 0 1.9-0.05 5.601-0.149 2.267-0.033 4.133-0.033 5.6 0 0.4 0.033 0.967 0.033 1.7 0 0.7 0 1.267 0.066 1.7 0.2l1 0.25-1-8.101c0.233-0.2 1.183-0.783 2.85-1.75 2.233-1.267 4.4-2.333 6.5-3.2 2.032-0.8 3.232-1.234 3.599-1.3z" clip-rule="evenodd" fill="url(#a)" fill-rule="evenodd"/>
		<g clip-rule="evenodd" fill-rule="evenodd">
			<path d="m93.9 39.1c0.967-0.166 1.833-0.033 2.6 0.4 0.267 0.134 0.617 0.417 1.05 0.85 1.934-0.1 2.833 0.384 2.7 1.45 0.3-0.033 0.7 0.017 1.2 0.15 0.267 0.066 0.649 0.167 1.149 0.3 0.033 0 0.417 0.033 1.15 0.1 0.467 0.034 0.833 0.101 1.1 0.2l0.551 0.2c0.133 0.1 0.183 0.35 0.149 0.75 0.434 0.1 1.134 0.117 2.101 0.05 0.6 0 0.982 0.05 1.149 0.15 0.134 0.1 0.233 0.233 0.3 0.399 0.101 0.167 0.184 0.268 0.25 0.301 0.134 0.066 0.367 0.1 0.7 0.1 0.3 0.066 0.384 0.316 0.25 0.75-0.1 0.367-0.616 0.6-1.55 0.7 0 0.533-0.083 0.883-0.25 1.05s-0.483 0.25-0.95 0.25l-1.5-0.05c0.5 0.167 0.684 0.517 0.55 1.05-0.066 0.267-0.183 0.417-0.35 0.45h-0.55c-0.9 0-1.567 0.05-2 0.149 0.033 0.534-0.117 0.95-0.45 1.25-0.3 0.268-0.633 0.4-1 0.4l0.05 0.15c0.134 1.1-0.333 1.683-1.399 1.75-1.301-0.101-2.117-0.15-2.45-0.15 0.167 0.634 0.066 1-0.3 1.1-0.033 0-0.4-0.017-1.101-0.05 0.101 0.267 0.15 0.567 0.15 0.9 0.033 0.7-0.233 1.133-0.8 1.3-0.533 0.134-0.801 0.417-0.801 0.85-0.133 0.167-0.316 0.25-0.55 0.25-0.333 0.034-0.533 0.067-0.6 0.101-0.2 0.033-0.384 0.133-0.55 0.3-0.233 0.2-0.434 0.367-0.601 0.5-0.167 0.134-0.433 0.217-0.8 0.25-0.4 0.033-0.667 0.1-0.8 0.2-0.101 0.066-0.283 0.267-0.55 0.6-0.167 0.2-0.367 0.334-0.601 0.4-0.366 0.133-0.883 0.1-1.55-0.101-0.767-0.232-1.3-0.333-1.6-0.3-1.2 0.067-2.018-0.05-2.45-0.35 0 1-0.4 1.417-1.2 1.25-0.566-0.134-1.167-0.483-1.8-1.05 0.033 0.699-0.434 0.983-1.4 0.85-0.967-0.167-1.383-0.667-1.25-1.5-0.2 0.367-0.667 0.617-1.399 0.75-0.768 0.1-1.167-0.116-1.2-0.65-1.2 0.334-1.684 0.167-1.45-0.5-0.367-0.166-0.684-0.199-0.95-0.1-0.1 0.033-0.366 0.217-0.8 0.55-0.167 0.367-0.35 0.601-0.55 0.7-0.134 0.066-0.3 0.083-0.5 0.05-0.267-0.033-0.45-0.033-0.55 0-0.167 0.033-0.417 0.184-0.75 0.45-0.334 0.2-0.617 0.333-0.851 0.4-0.333 0.066-0.917 0-1.75-0.2-0.7-0.134-1.3-0.101-1.8 0.1-0.1 0.033-0.25 0.15-0.45 0.351-0.196 0.2-0.396 0.317-0.596 0.35l-0.45-0.05c0 0.333-0.066 0.583-0.2 0.75-0.433 0.667-1.667 0.616-3.7-0.15l-0.1 0.4c-0.367 0-0.6-0.033-0.7-0.101-0.366 0.967-1.083 1.417-2.15 1.351-1.1-0.033-1.583-0.684-1.45-1.95-0.367 0.033-0.95 0.134-1.75 0.3-0.767 0.2-1.367 0.3-1.8 0.3-0.5-0.033-0.883-0.149-1.15-0.35-0.367-0.233-0.25-0.55 0.35-0.95-0.333-0.066-0.583-0.133-0.75-0.2-0.3-0.133-0.467-0.35-0.5-0.649 0.333-0.267 0.466-0.601 0.4-1-0.3-0.033-1.15 0.184-2.55 0.649-1.167 0.367-1.983 0.334-2.45-0.1-0.2-0.2-0.434-0.85-0.7-1.95-0.466 0.467-0.9 0.334-1.3-0.399-0.367-0.901-0.65-1.434-0.85-1.601-0.133-0.1-0.267-0.1-0.4 0-0.2 0.167-0.333 0.25-0.4 0.25-0.6 0.101-1.1 0.15-1.5 0.15-0.767 0.033-1.25-0.117-1.45-0.45-0.066-0.133-0.083-0.316-0.05-0.55 0.033-0.233 0.033-0.384 0-0.45-0.067-0.1-0.167-0.15-0.3-0.15-0.167-0.033-0.267-0.083-0.3-0.149l-0.4-0.4v-0.3l-0.3-0.45c-0.1-0.1-0.6-0.066-1.5 0.101-0.667 0.1-0.983-0.301-0.95-1.2-0.567 0-0.917-0.066-1.05-0.2 0.034-0.333-0.066-0.55-0.3-0.65l-0.6-0.05c-0.233 0.033-0.533 0.15-0.9 0.351-0.467 0.199-0.783 0.333-0.95 0.399-0.4 0.101-0.866 0.117-1.4 0.05-0.6-0.1-1.05-0.166-1.35-0.199-0.7 0.066-1.267 0.083-1.7 0.05-0.767-0.134-1.05-0.634-0.85-1.5l0.15-0.3c-1.633 0.366-2.533 0.017-2.7-1.051-0.6 0.167-1.25 0.25-1.95 0.25-0.833 0-1.483-0.166-1.95-0.5-0.133-0.899 0.25-1.316 1.15-1.25-0.034-0.066-0.017-0.399 0.05-1 0.133 0 0.867-0.183 2.2-0.55 0-0.2 0.116-0.399 0.35-0.6 0.267-0.167 0.583-0.267 0.95-0.3-0.033-0.434 0-0.733 0.1-0.9 0.1-0.1 0.283-0.217 0.55-0.35 0.333-0.134 0.867-0.134 1.6 0 0.733 0.166 1.25 0.166 1.55 0 0.167-0.101 0.35-0.267 0.55-0.5 0.233-0.167 0.6-0.334 1.1-0.5 0.233-0.101 0.566-0.351 1-0.75 0.333-0.167 0.833-0.134 1.5 0.1 0.667 0.2 1.15 0.184 1.45-0.05 0.133-0.101 0.383-0.467 0.75-1.101 0.333-0.466 0.633-0.399 0.9 0.2 0.1-0.3 0.4-0.416 0.9-0.35 0.6 0.066 0.983 0.033 1.15-0.101 0.2-0.133 0.5-0.5 0.9-1.1 0.367-0.4 0.717-0.3 1.05 0.3 0.167-0.467 0.467-0.783 0.9-0.95l1.1-0.35c0.1-0.066 0.267-0.233 0.5-0.5 0.2-0.2 0.4-0.316 0.6-0.35 0.1-0.033 0.333-0.033 0.7 0 0.3 0 0.517-0.051 0.65-0.15l5.95 2.65c7.833 0.7 12.55 4.416 14.15 11.15 0.134 0.533 0.233 1.267 0.301 2.2 1.5-0.8 2.816-1.267 3.949-1.4 4.5-0.566 8.283-0.232 11.351 1l0.549 0.15c0.6-0.233 1.833-0.5 3.7-0.8 0.333-0.333 0.833-0.733 1.5-1.2 0.633-0.4 1.433-0.717 2.399-0.95 0.567-0.133 1.384-0.316 2.45-0.55 0.7-0.233 1.5-0.4 2.4-0.5l-0.05-0.3c0.767-0.533 1.717-0.9 2.85-1.101-2.367-0.066-4.267-0.633-5.7-1.699-0.8-0.667-1.167-1.417-1.1-2.25 0.1-0.767 0.433-1.384 1-1.851 0.401-0.766 1.468-1.332 3.201-1.699z" fill="#6E4325"/>
			<g fill="#5E3C22">
				<path d="m30.3 45.3c0.733-0.133 1.267-0.2 1.6-0.2 0.867 0 1.867 0.483 3 1.45 0.1 0.101 0.317 0.217 0.65 0.351 0.3 0.133 0.5 0.267 0.6 0.399 0.133 0.134 0.217 0.351 0.25 0.65 0.1 0.133 0.25 0.267 0.45 0.399 0.167 0.134 0.25 0.384 0.25 0.75 0.033 0.434-0.15 0.851-0.55 1.25l-0.35 0.351c-0.467 0-0.767-0.066-0.9-0.2 0.034-0.333-0.066-0.55-0.3-0.65l-0.6-0.05c-0.233 0.033-0.533 0.15-0.9 0.351-0.467 0.199-0.783 0.333-0.95 0.399-0.4 0.101-0.866 0.117-1.4 0.05-0.6-0.1-1.05-0.166-1.35-0.199-0.7 0.066-1.267 0.083-1.7 0.05-0.767-0.134-1.05-0.634-0.85-1.5l0.15-0.3c-1.633 0.366-2.533 0.017-2.7-1.051-0.6 0.167-1.25 0.25-1.95 0.25-0.833 0-1.483-0.166-1.95-0.5-0.1-0.6 0-0.966 0.3-1.1-0.133 0.767 0.4 1.15 1.6 1.15 0.4 0 0.616-0.017 0.65-0.051 0.233-0.066 0.333-0.283 0.3-0.649 0-0.3-0.083-0.483-0.25-0.55-0.2-0.067-0.367-0.117-0.5-0.15l0.5-0.35c0.167 0 0.4 0.066 0.7 0.199h0.3c0.034-0.066 0.083-0.199 0.15-0.399 0.1-0.134 0.15-0.333 0.15-0.601 0.133 0.534 0.45 0.768 0.95 0.7 0.667-0.066 1.067-0.05 1.2 0.05-0.067 0.167-0.233 0.4-0.5 0.7-0.167 0.334-0.184 0.667-0.05 1 0.134 0.3 0.417 0.483 0.85 0.55 0.434 0.034 0.767-0.05 1-0.25-0.033 0.134-0.167 0.351-0.4 0.65-0.2 0.3-0.3 0.517-0.3 0.65-0.034 0.6 0.267 0.899 0.9 0.899l1.2-0.3c0.2-0.167 0.25-0.434 0.15-0.8l-0.2-0.8c0.167-0.101 0.434-0.167 0.8-0.2-0.333 0.934-0.05 1.483 0.85 1.649 0.934 0.2 1.267-0.216 1-1.25 0.2-0.133 0.333-0.116 0.4 0.051 0.034 0.066 0.067 0.199 0.1 0.399 0.1 0.101 0.2 0.2 0.3 0.3 0.033 0.034 0.167 0.051 0.4 0.051 0.933 0 1.267-0.417 1-1.25-0.1-0.267-0.284-0.434-0.55-0.5-0.3 0-0.517-0.017-0.65-0.051-0.2-0.033-0.417-0.183-0.65-0.449-0.2-0.2-0.417-0.301-0.65-0.301 0.033-0.433-0.367-0.683-1.2-0.75-0.9 0-1.417-0.033-1.55-0.1 0.033-0.03 0.433-0.097 1.2-0.197z"/>
				<path d="m45.4 55.3c0.333-0.5 0.6-0.75 0.8-0.75l-0.1 0.3c0.3-0.3 0.633-0.5 1-0.6-0.034 0.1-0.184 0.333-0.45 0.7-0.2 0.3-0.333 0.55-0.4 0.75-0.1 0.5 0.017 1.05 0.35 1.649l0.05-0.1c0.1 0.066 0.25 0.117 0.45 0.15v-0.25c0.466 0.133 1.033 0.083 1.7-0.15l1-0.15c0.1 0 0.267 0.018 0.5 0.051 0.233-0.033 0.333-0.184 0.3-0.45l-0.55-0.101-0.05-0.449c0.2 0.033 0.383-0.084 0.55-0.351 0.467-0.066 0.833-0.083 1.1-0.05-0.333 0.5-0.5 0.867-0.5 1.1 0.167 0.034 0.434 0.051 0.8 0.051v1l-0.25 0.05c-0.267-0.033-1.117 0.184-2.55 0.649-1.167 0.367-1.966 0.334-2.4-0.1-0.2-0.2-0.434-0.85-0.7-1.95-0.466 0.467-0.9 0.334-1.3-0.399-0.367-0.9-0.65-1.433-0.85-1.6-0.133-0.1-0.267-0.1-0.4 0-0.2 0.167-0.333 0.25-0.4 0.25-0.6 0.101-1.1 0.15-1.5 0.15-0.767 0.033-1.25-0.117-1.45-0.45-0.066-0.133-0.083-0.316-0.05-0.55 0.033-0.233 0.033-0.384 0-0.45-0.034-0.033-0.184-0.1-0.45-0.2l0.1-0.1c0.2-0.167 0.517-0.316 0.95-0.45-0.4 0.367-0.583 0.717-0.55 1.05 0 0.3 0.217 0.434 0.65 0.4 0.733-0.066 1.117-0.101 1.15-0.101 0.333 0.101 0.75 0 1.25-0.3l-0.15-0.35c0.534 0 0.85 0.066 0.95 0.2l0.1 0.6c0.066 0.2 0.25 0.467 0.55 0.8 0.3 0.601 0.55 0.767 0.75 0.501z"/>
				<path d="m57.9 58.15c-0.066 0.1-0.183 0.233-0.35 0.399-0.133 0.167-0.233 0.317-0.3 0.45-0.066 0.434-0.15 0.75-0.25 0.95l-0.15 0.35c-0.367 0-0.934 0.101-1.7 0.3-0.733 0.167-1.316 0.25-1.75 0.25-1.329-0.1-1.695-0.449-1.1-1.05-0.064 0.07-0.064 0.153 0 0.25 0.333 0.2 0.784 0.25 1.35 0.15 0.034 0 0.467-0.134 1.3-0.4 0.066 0 0.2 0.017 0.4 0.05 0.1-0.066 0.2-0.199 0.3-0.399 0.133-0.033 0.317-0.017 0.55 0.05 0.2-0.066 0.383-0.283 0.55-0.65 0.1-0.166 0.25-0.45 0.45-0.85l-0.05 0.4 0.75-0.25z"/>
				<path d="m53.85 58.4c0.433-0.301 0.733-0.45 0.9-0.45-0.5 0.533-0.867 0.917-1.1 1.149-0.466 0.4-0.9 0.601-1.3 0.601l0.25-0.15c-0.333-0.066-0.583-0.133-0.75-0.2-0.3-0.133-0.467-0.35-0.5-0.649l0.15-0.2 0.1 0.15c0.333 0.199 0.883 0.066 1.65-0.4l-0.2 0.4c0.134 0.099 0.4 0.016 0.8-0.251z"/>
				<path d="m38.95 51.55c0.333 0.067 0.616 0.05 0.85-0.05-0.267 0.167-0.5 0.4-0.7 0.7l-0.3-0.4c-0.133-0.133-0.55-0.116-1.25 0.05-0.633 0.134-1.017-0.017-1.15-0.449 0.367 0.066 0.667 0.05 0.9-0.051 0.567-0.199 1.117-0.3 1.65-0.3v0.5z"/>
				<path d="m65.8 57.45c-0.467-0.167-0.733-0.283-0.8-0.351 0.633-0.033 1.566-0.083 2.8-0.149 1.067-0.101 1.983-0.267 2.75-0.5-0.066 0.1-0.35 0.35-0.85 0.75 0.399-0.033 1-0.15 1.8-0.351-0.167 0.2-0.4 0.351-0.7 0.45l-0.8 0.301c0.233 0.101 0.55 0.084 0.95-0.05 0.533-0.233 0.866-0.35 1-0.35-0.2 0.7-1.134 1-2.8 0.899l0.15 0.051c-0.366 0-0.616 0.05-0.75 0.149 0.3 0.467 0.733 0.584 1.3 0.351 0.301-0.134 0.75-0.367 1.351-0.7 0.133-0.033 0.35-0.033 0.649 0 0.268 0.033 0.467 0.017 0.601-0.05 0.166-0.1 0.316-0.3 0.449-0.6 0.166-0.2 0.449-0.3 0.85-0.3-0.333-0.133-0.7-0.233-1.1-0.3 0.166-0.101 0.399-0.15 0.699-0.15 0.334 0 0.551-0.017 0.65-0.05 0.133-0.033 0.316-0.15 0.55-0.35h1.2c-0.3 0.199-0.417 0.666-0.35 1.399 0.267 0.067 0.533 0.05 0.8-0.05 0.333-0.133 0.5-0.383 0.5-0.75-0.167-0.1-0.3-0.15-0.4-0.15 0-0.1 0.15-0.232 0.45-0.399 0.267-0.167 0.45-0.25 0.55-0.25-0.066 0.167-0.2 0.45-0.399 0.85-0.134 0.367-0.117 0.667 0.05 0.9 0.133 0.2 0.366 0.267 0.7 0.2 0.3-0.067 0.5-0.2 0.6-0.4h-0.65c0.134-0.2 0.301-0.333 0.5-0.4-0.1-0.066-0.083-0.149 0.051-0.25 0.1-0.066 0.199-0.1 0.3-0.1 0.1 0.2 0.316 0.233 0.649 0.1-0.066 0.134-0.05 0.483 0.051 1.051-0.334 0.333-0.801 0.533-1.4 0.6-0.667 0.066-1.017-0.15-1.05-0.65-1.2 0.334-1.684 0.167-1.45-0.5-0.367-0.166-0.684-0.199-0.95-0.1-0.1 0.033-0.366 0.217-0.8 0.55-0.167 0.367-0.35 0.601-0.55 0.7-0.134 0.066-0.3 0.083-0.5 0.05-0.267-0.033-0.45-0.033-0.55 0-0.167 0.033-0.417 0.184-0.75 0.45-0.334 0.2-0.617 0.333-0.851 0.4-0.333 0.066-0.917 0-1.75-0.2-0.7-0.134-1.3-0.101-1.8 0.1-0.1 0.033-0.25 0.15-0.45 0.351-0.2 0.198-0.4 0.315-0.6 0.348l-0.45-0.05c0 0.333-0.066 0.583-0.2 0.75-0.433 0.667-1.667 0.616-3.7-0.15l-0.1 0.4c-0.367 0-0.6-0.033-0.7-0.101-0.267 0.667-0.783 1.101-1.55 1.301-0.767 0.199-1.35 0.05-1.75-0.45 0.3 0 0.467-0.184 0.5-0.55h1.2c0.533-0.067 0.783-0.434 0.75-1.101 0.4 0.2 0.667 0.25 0.8 0.15 0.1-0.066 0.25-0.367 0.45-0.9 0.2 0.367 0.517 0.567 0.95 0.601 0.267 0.033 0.633 0 1.1-0.101h0.6c0.2 0 0.367-0.1 0.5-0.3 0.467-0.566 0.417-1.066-0.149-1.5 0.2-0.066 0.55 0.117 1.05 0.55 0.033-0.267 0.033-0.45 0-0.55 0.3-0.033 0.733-0.017 1.3 0.05-0.034-0.299-0.201-0.499-0.501-0.599z"/>
				<path d="m108 45.45v-0.15c-0.2-0.166-0.517-0.233-0.95-0.2-0.667 0.067-1.017 0.101-1.05 0.101 0.033-0.267 0.333-0.4 0.9-0.4-0.268-0.3-0.851-0.416-1.75-0.35-0.934 0.066-1.467 0.283-1.601 0.649 0.2-0.066 0.367-0.033 0.5 0.101-0.1 0.033-0.217 0.167-0.35 0.399-0.101 0.2-0.217 0.284-0.351 0.25 0.2 0.268 0.417 0.434 0.65 0.5 0.3 0.101 0.783 0.167 1.45 0.2l0.6 0.25 0.5-0.1h0.5c0.233 0 0.384-0.033 0.45-0.101 0.3-0.3 0.3-0.517 0-0.649-0.4-0.134-0.633-0.233-0.7-0.3 0.23-0.133 0.63-0.2 1.2-0.2zm-11.9 4.3c-0.399 0.566-0.717 0.95-0.949 1.15-0.834 0.666-1.95 1.35-3.351 2.05-0.566 0.3-1.066 0.366-1.5 0.2 0.134-0.834 0.634-1.7 1.5-2.601 0.5-0.5 1.184-1.116 2.05-1.85 0.967-0.967 1.7-1.566 2.2-1.8 0.3-0.134 0.917-0.317 1.851-0.551 0.767-0.166 1.366-0.399 1.8-0.699l-0.101 0.051c0.601-0.733 1.184-1.167 1.75-1.3l0.65-0.05c0.233-0.199 0.583-0.466 1.05-0.8-0.433 0-0.75-0.033-0.95-0.1 0.033-0.033 0.101-0.117 0.2-0.25-0.2-0.101-0.5-0.184-0.899-0.25-0.434-0.033-0.75-0.117-0.95-0.25l0.25-0.15-0.7-0.25c0.066-0.399 0.017-0.666-0.15-0.8-0.267-0.1-0.5-0.2-0.699-0.3 0.033-0.434-0.467-0.717-1.5-0.851 1.899-0.1 2.767 0.384 2.6 1.45 0.3-0.033 0.7 0.017 1.2 0.15 0.267 0.066 0.649 0.167 1.149 0.3 0.033 0 0.417 0.033 1.15 0.1 0.467 0.034 0.833 0.101 1.1 0.2l0.551 0.2c0.133 0.1 0.183 0.35 0.149 0.75 0.434 0.1 1.134 0.117 2.101 0.05 0.6 0 0.982 0.05 1.149 0.15 0.134 0.1 0.233 0.233 0.3 0.399 0.101 0.167 0.184 0.268 0.25 0.301 0.134 0.066 0.367 0.1 0.7 0.1 0.3 0.066 0.384 0.316 0.25 0.75-0.1 0.367-0.616 0.6-1.55 0.7 0 0.533-0.083 0.883-0.25 1.05s-0.483 0.25-0.95 0.25h-1.05l-0.45-0.05c0.5 0.167 0.684 0.517 0.55 1.05v0.05c-0.066 0.2-0.183 0.317-0.35 0.351-0.233 0.033-0.417 0.05-0.55 0.05-0.9 0-1.567 0.05-2 0.149 0.033 0.534-0.117 0.95-0.45 1.25-0.3 0.268-0.633 0.4-1 0.4l0.05 0.15c0.134 1.1-0.333 1.683-1.399 1.75-1.301-0.101-2.117-0.15-2.45-0.15 0.167 0.634 0.066 1-0.3 1.1-0.033 0-0.4-0.017-1.101-0.05 0.101 0.267 0.15 0.567 0.15 0.9 0.033 0.7-0.233 1.133-0.8 1.3-0.533 0.134-0.801 0.417-0.801 0.85-0.133 0.167-0.316 0.25-0.55 0.25-0.333 0.034-0.533 0.067-0.6 0.101-0.2 0.033-0.384 0.133-0.55 0.3-0.233 0.2-0.434 0.367-0.601 0.5-0.167 0.134-0.433 0.217-0.8 0.25-0.4 0.033-0.667 0.1-0.8 0.2-0.101 0.066-0.283 0.267-0.55 0.6-0.167 0.2-0.367 0.334-0.601 0.4-0.366 0.133-0.883 0.1-1.55-0.101-0.767-0.232-1.3-0.333-1.6-0.3-1.2 0.067-2.018-0.05-2.45-0.35 0 1-0.4 1.417-1.2 1.25-0.566-0.134-1.167-0.483-1.8-1.05 0.033 0.633-0.367 0.933-1.2 0.899-0.833-0.066-1.316-0.433-1.45-1.1 0.033 0.033 0.167 0.083 0.4 0.149 0.133 0.034 0.217 0.117 0.25 0.25 1.2 0.134 1.75-0.133 1.649-0.8-0.133-0.033-0.25-0.133-0.35-0.3-0.1 0-0.184-0.033-0.25-0.1 0.1-0.067 0.233-0.167 0.4-0.301-0.4 0-0.617-0.05-0.65-0.149l0.75-0.15c-0.3-0.1-0.783-0.149-1.45-0.149 0.333-0.134 0.75-0.217 1.25-0.25 0.5 0 0.9 0.066 1.2 0.199l-0.695 0.403c0.101 0 0.184 0.1 0.25 0.3 0.101 0.2 0.167 0.351 0.2 0.45 0.233 0.3 0.6 0.5 1.1 0.6 0.4 0.101 0.717 0.051 0.95-0.149 0.3-0.267 0.384-0.65 0.25-1.15 0.167-0.066 0.25-0.033 0.25 0.101 0 0.166 0.017 0.267 0.05 0.3 0.2 0.133 0.483 0.217 0.851 0.25 0.399 0.033 0.683 0.1 0.85 0.2l-0.2 0.149c0.233 0.067 0.518-0.066 0.851-0.399 0.333-0.334 0.6-0.483 0.8-0.45l-0.15 0.25 0.65 0.05c-0.1 0.1-0.3 0.184-0.6 0.25 0.3 0.2 0.767 0.316 1.399 0.35 0.7 0.034 1.134-0.083 1.3-0.35l-0.151-0.052c0.133-0.367 0.233-0.583 0.3-0.65l-1.05 0.05 1.25-0.55c0.467 0 1.1-0.1 1.899-0.3l0.5-0.3c0.033 0 0.067-0.05 0.101-0.15 0.033-0.1 0.1-0.133 0.2-0.1l0.05 0.3c0.267 0.066 0.533 0.066 0.8 0 0.367-0.066 0.566-0.283 0.6-0.65l-0.3 0.05c0.134-0.2 0.4-0.334 0.8-0.4 0.367-0.033 0.601-0.217 0.7-0.55 0.2-0.566 0.134-1.017-0.2-1.351 0.067 0.034 0.167 0.018 0.301-0.05 0.033-0.3-0.084-0.533-0.351-0.7 0.3-0.1 0.517-0.133 0.65-0.1 0.1 0.033 0.2 0.134 0.3 0.3 0.1 0.134 0.184 0.217 0.25 0.25 0.267 0.167 0.517 0.15 0.75-0.05 0.2-0.233 0.283-0.55 0.25-0.95 0.2-0.033 0.733 0 1.6 0.101 0.834 0.033 1.367-0.117 1.601-0.45 0.399-0.634 0.217-1.083-0.55-1.351-0.233-0.066-0.768-0.149-1.601-0.25 0.167-0.066 0.267-0.216 0.3-0.449-0.967-0.101-1.566-0.15-1.8-0.15-0.733 0-1.299 0.167-1.699 0.5z"/>
				<path d="m96.75 39.65l0.8 0.699-1.35-0.1c0.033-0.2 0.083-0.333 0.149-0.4 0.067-0.033 0.184-0.1 0.351-0.199h0.05z"/>
			</g>
			<path d="m27.75 42.6c0.667 0.301 0.816 0.601 0.45 0.9 0.133 0.033 0.333 0.083 0.6 0.15 0.233 0.066 0.384 0.199 0.45 0.399-0.467-0.1-0.85-0.166-1.15-0.2-0.534-0.033-0.817 0.117-0.85 0.45-0.4-0.066-0.667-0.083-0.8-0.05 0 0.167-0.067 0.267-0.2 0.3-0.133-0.033-0.25-0.033-0.35 0l-0.8 0.4c-0.067-0.733 0.167-1.101 0.7-1.101 0.034-0.1 0.1-0.232 0.2-0.399-0.233-0.233-0.217-0.45 0.05-0.65 0.2-0.133 0.417-0.2 0.65-0.2l-0.2-0.05c0.133-0.266 0.55-0.249 1.25 0.051z" fill="#7D4F29"/>
			<path d="m32.5 41.05l0.15 0.25c0.167 0.033 0.317 0.15 0.45 0.351 0.133 0.199 0.183 0.399 0.15 0.6s-0.117 0.333-0.25 0.4c0 0.033-0.133 0.1-0.4 0.199-0.767 0.4-1.5 0.567-2.2 0.5 0.067-0.166 0.217-0.283 0.45-0.35 0.233-0.033 0.383-0.1 0.45-0.2 0.067-0.066 0.067-0.217 0-0.45 0.067-0.066 0.184-0.166 0.35-0.3 0.067-0.433 0.133-0.7 0.2-0.8 0.067-0.167 0.283-0.233 0.65-0.2z" fill="#7D4F29"/>
			<path d="m30.1 42.3h0.35c0.033 0.134 0.017 0.3-0.05 0.5-0.233 0.067-0.4 0.017-0.5-0.149-0.133-0.201-0.067-0.318 0.2-0.351z" fill="#7D4F29"/>
			<path d="m28.85 45.9l-0.2 0.149c0.067 0 0.25-0.017 0.55-0.05 0.267 0 0.433 0.066 0.5 0.2 0.1 0.233 0.066 0.383-0.1 0.45-0.233 0.033-0.383 0.066-0.45 0.1-0.367 0.167-0.633 0.267-0.8 0.3-0.467 0-0.8 0.033-1 0.101 0-0.367 0.117-0.601 0.35-0.7-0.034-0.333 0.1-0.517 0.4-0.55 0.167-0.033 0.417-0.033 0.75 0z" fill="#7D4F29"/>
			<path d="m28.65 47.55l-0.3 0.351h0.9c0.033 0.199-0.133 0.416-0.5 0.649-0.333 0.267-0.517 0.217-0.55-0.149-0.233-0.033-0.417 0.133-0.55 0.5-0.066-0.434 0.017-0.733 0.25-0.9 0.133-0.101 0.383-0.251 0.75-0.451z" fill="#7D4F29"/>
			<path d="m31.55 47.25l-0.15-0.1c0.233-0.033 0.383 0.05 0.45 0.25 0.033 0.166-0.034 0.333-0.2 0.5-0.033 0.033-0.1 0.033-0.2 0h-0.25l-0.6 0.449v-0.349c-0.233 0.167-0.417 0.283-0.55 0.35-0.1-0.733 0.4-1.1 1.5-1.1z" fill="#7D4F29"/>
			<path d="m32.85 47.3l-0.25-0.05c0.2-0.133 0.483-0.1 0.85 0.1 0.333 0.233 0.3 0.467-0.1 0.7-0.2 0.134-0.417 0.15-0.65 0.05-0.267-0.133-0.367-0.333-0.3-0.6l0.45-0.2z" fill="#7D4F29"/>
			<path d="m37.4 50.9h-0.75c-0.1-0.467-0.033-0.767 0.2-0.9 0.133-0.066 0.316-0.083 0.55-0.05 0.233 0.066 0.367 0.167 0.4 0.3l-0.5 0.15 0.1 0.5z" fill="#7D4F29"/>
			<path d="m40.45 51.25v0.35c0.333-0.1 0.45-0.017 0.35 0.25-0.066 0.233-0.216 0.4-0.45 0.5-0.733 0.301-1.133 0.268-1.2-0.1-0.066-0.267 0.083-0.5 0.45-0.7 0.267-0.166 0.55-0.267 0.85-0.3z" fill="#7D4F29"/>
			<path d="m41 52.1l-0.15-0.1c0.167-0.233 0.333-0.333 0.5-0.3 0.2 0 0.3 0.149 0.3 0.45l0.25 0.05v0.3c-0.167 0.033-0.3 0.033-0.4 0 0.1 0.233-0.033 0.45-0.4 0.65-0.367 0.199-0.65 0.267-0.85 0.199 0-0.267 0.1-0.5 0.3-0.699 0.1-0.133 0.25-0.317 0.45-0.55z" fill="#7D4F29"/>
			<path d="m44.95 53l0.15 0.1c0.233 0.067 0.316 0.367 0.25 0.9-0.434-0.167-0.633-0.05-0.6 0.35-0.267-0.033-0.4-0.283-0.4-0.75 0.033-0.5 0.233-0.7 0.6-0.6z" fill="#7D4F29"/>
			<path d="m44.9 54.775c0.067-0.039 0.133-0.048 0.2-0.025 0.133 0.066 0.183 0.184 0.15 0.35h-0.35v-0.325z" fill="#7D4F29"/>
			<path d="m46.4 56.6c-0.066-0.466-0.017-0.982 0.15-1.55 0.2-0.666 0.517-0.95 0.95-0.85v0.05c0.3-0.2 0.684-0.25 1.15-0.15 0.633 0.167 1.034 0.25 1.2 0.25-0.1 0.167-0.3 0.268-0.6 0.301-0.367 0-0.6 0.05-0.7 0.149 0.034 0.134 0.15 0.25 0.35 0.351 0.1 0.033 0.25 0.083 0.45 0.149-0.067 0.033-0.35 0.05-0.85 0.05l-0.05 0.35c-0.333 0.066-0.6 0.1-0.8 0.1-0.367 0.033-0.533-0.066-0.5-0.3-0.334 0.333-0.584 0.7-0.75 1.1z" fill="#7D4F29"/>
			<path d="m52.6 54.75l-0.1 0.25 0.65 0.25v0.95c-0.3-0.066-0.5 0.083-0.6 0.45-0.167 0.433-0.333 0.666-0.5 0.699 0.233-0.466 0.25-0.899 0.05-1.3 0-0.033-0.067-0.066-0.2-0.1-0.133-0.066-0.216-0.167-0.25-0.3-0.1-0.267 0.017-0.4 0.35-0.4-0.1-0.066-0.184-0.217-0.25-0.45 0.167-0.032 0.45-0.049 0.85-0.049z" fill="#7D4F29"/>
			<path d="m57.3 56.3c0.534 0 0.817 0.134 0.85 0.4 0.034 0.333-0.167 0.5-0.6 0.5-0.5-0.033-0.8-0.033-0.9 0-0.2 0.066-0.667 0.417-1.4 1.05-0.667 0.533-1.066 0.767-1.2 0.7 0.233-0.167 0.517-0.467 0.85-0.9 0.333-0.399 0.633-0.7 0.9-0.899l-0.1-0.301c0.333-0.166 0.633-0.25 0.9-0.25l-0.4-0.149c0.333-0.101 0.7-0.151 1.1-0.151z" fill="#7D4F29"/>
			<path d="m59.95 57.2l0.2 0.35c0.034 0.533-0.167 0.9-0.6 1.101-0.667 0.267-1.033 0.449-1.1 0.55 0.767 0.366 0.716 0.75-0.15 1.149-0.767 0.334-1.05-0.05-0.85-1.149 0.066-0.533 0.3-0.95 0.7-1.25 0.2-0.167 0.5-0.3 0.9-0.4 0.433-0.101 0.733-0.218 0.9-0.351z" fill="#7D4F29"/>
			<path d="m62.025 57.625c0.696-0.027 1.104 0.231 1.225 0.775 0.167 0.6-0.15 0.949-0.95 1.05-0.933 0.133-1.333-0.066-1.2-0.601 0.114-0.369 0.422-0.777 0.925-1.224z" fill="#7D4F29"/>
			<path d="m63.5 57.3c0.566-0.133 0.8 0.017 0.7 0.45-0.5 0.2-0.75 0.05-0.75-0.45h0.05z" fill="#7D4F29"/>
			<path d="m79.7 56.2c0.368 0.052 0.585 0.335 0.649 0.85 0.067 0.533-0.1 0.733-0.5 0.601-0.232-0.067-0.35-0.283-0.35-0.65 1e-3 -0.292 0.067-0.559 0.201-0.801z" fill="#7D4F29"/>
			<path d="m83.6 56.2c0.107 0.047 0.19 0.13 0.25 0.25 0.101 0.267 0.018 0.517-0.25 0.75-0.267 0.167-0.732 0.116-1.399-0.15-0.101-0.467 0.032-0.75 0.399-0.85h1z" fill="#7D4F29"/>
			<path d="m85.9 56.45l0.1-0.1h0.85c0.301 0.067 0.4 0.301 0.301 0.7-0.301 0.167-0.601 0.233-0.9 0.2-0.367-0.033-0.55-0.217-0.55-0.55-0.134 0.033-0.367 0-0.7-0.101 0.132-0.099 0.433-0.149 0.899-0.149z" fill="#7D4F29"/>
			<path d="m89.15 56.2l-0.4 0.25c0.467 0 0.816 0.033 1.05 0.1-0.066 0.167-0.183 0.3-0.35 0.4-0.467-0.066-0.8-0.184-1-0.351 0.1-0.399 0.333-0.533 0.7-0.399z" fill="#7D4F29"/>
			<path d="m90.6 55.25l-0.5-0.1c0.2-0.033 0.75-0.15 1.65-0.351 0.833-0.066 1.184 0.2 1.05 0.8-0.566 0.233-1.399 0.317-2.5 0.25-0.067-0.232 0.033-0.432 0.3-0.599z" fill="#7D4F29"/>
		</g>
				<path d="m88.8 38.4c1.467 0.066 2.95 0.366 4.45 0.899 1.733 0.634 3.066 1.467 4 2.5 0.833 0.9 1.783 1.65 2.85 2.25 1.233 0.667 2.384 0.983 3.45 0.95-0.3 0.134-0.667 0.483-1.1 1.05-0.533 0.7-0.934 1.15-1.2 1.351-0.3 0.267-0.667 0.433-1.1 0.5-0.567 0.133-0.934 0.233-1.101 0.3-0.533 0.3-1.233 0.783-2.1 1.45-1.033 0.8-1.733 1.316-2.101 1.55l-0.35 0.25 0.35 0.05c-0.3 0.2-0.633 0.367-1 0.5l-1.5 1.2c-0.133 0.3-0.217 0.667-0.25 1.1-2.199 0.601-3.883 1-5.05 1.2-0.967 0.2-2.033 0.233-3.2 0.1-1.331-0.2-2.398-0.333-3.198-0.4-1.834-0.101-3.75-0.033-5.75 0.2-1.301 0.166-3.15 0.5-5.551 1-1.833 0.366-4.366 0.35-7.6-0.051-0.333-0.033-0.867-0.05-1.6-0.05-0.7 0-1.233-0.033-1.6-0.1-0.6-0.066-1.233-0.333-1.9-0.8-0.866-0.599-1.416-0.949-1.649-1.049-0.733-0.3-1.733-0.5-3-0.6-1.733-0.167-2.733-0.267-3-0.3-0.4-0.066-0.917-0.233-1.55-0.5-0.667-0.3-1.15-0.483-1.45-0.55-1.066 0.1-1.9 0.133-2.5 0.1-1.167 0-1.733-0.467-1.7-1.4-2.133-0.666-3.683-0.966-4.65-0.899l-0.05-0.8c-0.6 0.166-0.983 0.066-1.15-0.301-0.134-0.466-0.317-0.816-0.55-1.05-0.267-0.233-0.833-0.45-1.7-0.649-0.634-0.167-1.05-0.567-1.25-1.2l-1.35-0.351c-0.5-0.567-0.916-0.85-1.25-0.85 2.566-0.9 4.417-1.684 5.55-2.35 0.3-0.167 0.934-0.4 1.9-0.7 0.867-0.333 1.35-0.733 1.45-1.2 1-0.2 2.083-0.616 3.25-1.25 0.533-0.333 1.55-1.017 3.05-2.05 2.167-1.5 4.434-2.2 6.8-2.101 0.1 0 1.267-0.267 3.5-0.8 1.4-0.333 2.55-0.517 3.45-0.55 0.567-0.566 1.034-0.9 1.4-1 0.6-0.133 1.433-0.117 2.5 0.05 0.6 0.101 1.433 0.233 2.5 0.4 0.6 0.066 1.7 0 3.3-0.2 1.4-0.2 2.45-0.2 3.15 0 0.633 0.2 1.066 0.483 1.3 0.85l0.45 0.101c0.566 0.2 1.316 0.6 2.25 1.2 0.899-0.134 1.467-0.184 1.699-0.15 0.434 0.066 1.067 0.233 1.9 0.5 0.9 0.3 1.55 0.483 1.95 0.55 0.066 0.033 0.667 0.134 1.8 0.3 0.767 0.134 1.367 0.284 1.8 0.45 0.233 0.134 0.533 0.4 0.9 0.8 0.333 0.4 0.633 0.667 0.899 0.801 0.268 0.133 0.634 0.133 1.101 0 0.601-0.168 0.968-0.251 1.101-0.251z" clip-rule="evenodd" fill="#633B21" fill-rule="evenodd"/>
				<g clip-rule="evenodd" fill="#57351D" fill-rule="evenodd">
					<path d="m72 51.75c0.934 0.267 1.316 0.4 1.15 0.4 0.433 0.133 1.116 0.333 2.05 0.6 0.833 0.267 1.517 0.417 2.05 0.45-0.066-0.4-0.167-0.667-0.3-0.8 0.333 0.133 0.883 0.433 1.649 0.899 0.7 0.367 1.268 0.483 1.7 0.351-0.1-0.367-0.35-0.801-0.75-1.301-0.467-0.6-0.767-1.017-0.899-1.25 0.399-0.133 1.517 0.351 3.35 1.45 1.633 0.8 2.533 1.05 2.7 0.75-0.2-0.366-0.8-1.583-1.8-3.649 0.833 0.2 2.067 0.65 3.7 1.35 1.4 0.4 2.184 0.617 2.351 0.65 1.1 0.233 1.899 0.199 2.399-0.101-0.1-1.066-0.267-1.733-0.5-2 0.067 0 0.217-0.017 0.45-0.05 0.033-0.366-0.183-0.75-0.649-1.15 0.199-0.066 0.467-0.1 0.8-0.1 0.167 0 0.433 0.017 0.8 0.05-0.167-0.333-0.583-0.767-1.25-1.3-0.478-0.358-0.836-0.633-1.075-0.825 0.361 0.307-0.063-2e-3 -1.274-0.925-0.801-0.6-1.2-0.967-1.2-1.1 0.066 0.033 1.3 0.483 3.7 1.35 1.533 0.533 2.816 0.816 3.85 0.85-0.467-0.633-1.167-1.183-2.1-1.649-1-0.434-1.75-0.8-2.25-1.101 0.267-0.1 0.616-0.149 1.05-0.149 0.566 0.033 0.917 0.033 1.05 0-0.167-0.467-0.717-0.884-1.65-1.25-1-0.367-1.649-0.617-1.949-0.75 0.899-0.101 1.949 0 3.149 0.3 1.134 0.267 2.117 0.65 2.95 1.15l-1.55-1c0.533-0.033 1.066 0.083 1.6 0.35 0.134 0.1 0.601 0.417 1.4 0.95-0.101-0.333-0.483-0.833-1.15-1.5 0.5-0.167 1.15-0.033 1.95 0.399 0.833 0.834 1.767 1.518 2.8 2.051 1.167 0.6 2.25 0.883 3.25 0.85-0.3 0.134-0.667 0.483-1.1 1.05-0.533 0.7-0.934 1.15-1.2 1.351-0.3 0.267-0.667 0.433-1.1 0.5-0.567 0.133-0.934 0.233-1.101 0.3-0.533 0.3-1.233 0.783-2.1 1.45-1.033 0.8-1.733 1.316-2.101 1.55l-0.35 0.25 0.35 0.05c-0.3 0.2-0.633 0.367-1 0.5l-1.5 1.2c-0.133 0.3-0.217 0.667-0.25 1.1-2.199 0.601-3.883 1-5.05 1.2-0.967 0.2-2.033 0.233-3.2 0.1-1.331-0.201-2.398-0.334-3.198-0.401-1.834-0.101-3.75-0.033-5.75 0.2-1.301 0.166-3.15 0.5-5.551 1-1.833 0.366-4.366 0.35-7.6-0.051-0.333-0.033-0.867-0.05-1.6-0.05-0.7 0-1.233-0.033-1.6-0.1-0.6-0.066-1.233-0.333-1.9-0.8-0.866-0.599-1.416-0.949-1.649-1.049-0.733-0.3-1.733-0.5-3-0.6-1.733-0.167-2.733-0.267-3-0.3-0.4-0.066-0.917-0.233-1.55-0.5-0.667-0.3-1.15-0.483-1.45-0.55-1.066 0.1-1.9 0.133-2.5 0.1-1.167 0-1.733-0.467-1.7-1.4-2.133-0.666-3.683-0.966-4.65-0.899l-0.05-0.8c-0.6 0.166-0.983 0.066-1.15-0.301-0.134-0.466-0.317-0.816-0.55-1.05-0.267-0.233-0.833-0.45-1.7-0.649-0.634-0.167-1.05-0.567-1.25-1.2l-1.35-0.351c-0.5-0.567-0.916-0.85-1.25-0.85 2.566-0.9 4.417-1.684 5.55-2.35 0.067-0.033 0.633-0.25 1.7-0.65 0.8-0.267 1.3-0.583 1.5-0.95l0.35 0.05c-0.233 0.268-0.684 0.567-1.35 0.9-0.633 0.3-1.05 0.583-1.25 0.85 0.767-0.1 1.25-0.133 1.45-0.1-0.167 0.233-0.45 0.45-0.85 0.65-0.534 0.233-0.85 0.383-0.95 0.449 0.4 0.134 0.917 0.101 1.55-0.1 0.767-0.267 1.284-0.4 1.55-0.4-0.233 0.268-0.467 0.467-0.7 0.601l-0.55 0.2c-0.133 0.033-0.3 0.149-0.5 0.35-0.467 0.267-0.8 0.517-1 0.75l0.65 0.1c-0.133 0.601 0.05 1.067 0.55 1.4 0.667 0.5 1.5 0.75 2.5 0.75l0.1 0.7c0.2 0.767 0.583 1.116 1.15 1.05 2.467-0.133 4.817-0.934 7.05-2.4-0.067 0.601-0.217 1.467-0.45 2.601l1.55 0.05c-0.034 0.134-0.017 0.367 0.05 0.7 0.267 0 0.717-0.033 1.35-0.101 0.6-0.1 1.05-0.133 1.35-0.1-0.2 0.767 0.1 1.066 0.9 0.9 1.066-0.267 1.65-0.367 1.75-0.301 0.133 0.101 0.267 0.317 0.4 0.65 0.1 0.3 0.283 0.483 0.55 0.55 0.3 0.067 0.767-0.183 1.4-0.75 0.133 0.134 0.333 0.601 0.6 1.4 0.2 0.633 0.483 0.95 0.85 0.95 0.233 0.033 0.6-0.351 1.1-1.15 0.5-0.767 0.9-1.133 1.2-1.1 0.267 0.033 0.466 0.183 0.6 0.449 0.167 0.467 0.3 0.768 0.4 0.9 0.4 0.533 0.683 0.717 0.85 0.55 0.134-0.1 0.333-0.433 0.6-1 0.4-0.6 0.85-0.75 1.35-0.45 0.3 0.2 0.783 0.534 1.45 1 0.066-0.366 0.1-0.616 0.1-0.75 0.467-0.166 1.15 0 2.05 0.5 0.967 0.5 1.684 0.7 2.15 0.601 0.033-0.3 0.017-0.767-0.05-1.4 0.2-0.132 0.717-0.066 1.55 0.201z"/>
					<path d="m38.75 40.75l1.3-0.35c-0.233 0.133-0.683 0.316-1.35 0.55l0.05-0.2z"/>
				</g>
				<path d="m61.75 56.35c-0.333-0.033-0.867-0.05-1.6-0.05-0.7 0-1.233-0.033-1.6-0.1-0.6-0.066-1.233-0.333-1.9-0.8-0.867-0.6-1.417-0.95-1.65-1.05-0.733-0.3-1.733-0.5-3-0.6-1.733-0.167-2.733-0.267-3-0.3-0.4-0.066-0.917-0.233-1.55-0.5-0.667-0.3-1.15-0.483-1.45-0.55-1.066 0.1-1.9 0.133-2.5 0.1-1.167 0-1.733-0.467-1.7-1.4-2.133-0.666-3.683-0.966-4.65-0.899l-0.05-0.8c-0.6 0.166-0.983 0.066-1.15-0.301-0.134-0.466-0.317-0.816-0.55-1.05-0.267-0.233-0.833-0.45-1.7-0.649-0.634-0.167-1.05-0.567-1.25-1.2l-1.35-0.351c-0.5-0.567-0.916-0.85-1.25-0.85 1-0.333 2.25-0.833 3.75-1.5l-0.1 0.25 0.3 0.1c-0.033 0.2-0.066 0.518-0.1 0.95 0.733 0 1.167 0.017 1.3 0.05 0 0.167-0.066 0.384-0.2 0.65-0.133 0.233-0.2 0.434-0.2 0.6 0.433 0.667 0.633 1 0.6 1 0.3 0.334 0.716 0.5 1.25 0.5 0.633 0 1.083 0.067 1.35 0.2-0.133 0.601 0.117 1.05 0.75 1.351 0.367 0.133 0.867 0.267 1.5 0.399 0.1 0.067 0.25 0.233 0.45 0.5 0.167 0.067 0.4 0.101 0.7 0.101 0.167 0 0.4-0.017 0.7-0.051l1.95-0.149c0.167 0 0.466 0.033 0.9 0.1 0.4 0 0.7-0.083 0.9-0.25 0.1-0.066 0.217-0.267 0.35-0.6 0.1-0.267 0.25-0.417 0.45-0.45 0.267-0.033 0.417 0.1 0.45 0.4v0.8c0 0.7 0.15 1.116 0.45 1.25 0.2 0.1 0.65 0.233 1.35 0.399 0.1 0.034 0.333 0.15 0.7 0.351 0.267 0.167 0.5 0.267 0.7 0.3 0.367 0.1 0.816 0.267 1.35 0.5 0.133 0.033 0.333-0.017 0.6-0.15 0.134 0.034 0.3 0.134 0.5 0.301 0.2 0.166 0.35 0.267 0.45 0.3 0.2 0.066 0.434 0.05 0.7-0.05 0.333-0.134 0.566-0.2 0.7-0.2 0.467 0.033 1.133 0.434 2 1.2 0.833 0.733 1.534 1.1 2.1 1.1 1.3 0 2.066-0.4 2.3-1.2 0.167 0.067 0.55 0.233 1.15 0.5 0.466 0.2 0.866 0.317 1.2 0.351 0.267 0.033 1 0.133 2.2 0.3 1.101 0.066 1.684-0.117 1.75-0.55 0.268-0.033 0.7 0 1.301 0.1 0.5 0.066 0.899 0.05 1.199-0.05 0.2-0.066 0.483-0.2 0.851-0.4 0.233-0.066 0.533-0.083 0.899-0.05 0.2 0 0.5 0.017 0.9 0.05 0.467 0 1.367-0.033 2.7-0.1 1.133-0.066 2.033-0.083 2.7-0.05 0.232 0.033 0.566 0.083 1 0.149 0.399 0.033 0.732 0.033 1 0 0.133-0.033 0.366-0.033 0.699 0 0.067-0.033 0.101-0.149 0.101-0.35 0.033-0.2 0.1-0.333 0.2-0.4 0.333-0.166 0.75 0 1.25 0.5l1.1 1.098c0.4 0.233 0.967 0.35 1.7 0.35 0.2 0 0.8-0.05 1.8-0.15 0.1-0.232 0.083-0.616-0.05-1.149-0.134-0.5-0.15-0.816-0.05-0.95 0.166-0.233 0.467-0.283 0.899-0.15 0.233 0.067 0.533 0.184 0.9 0.351 0.467 0.133 1.017 0.167 1.649 0.1v-0.6c0.667 0.033 1.101 0.017 1.301-0.05 0.433-0.167 0.616-0.584 0.55-1.25 0.233 0 0.45-0.017 0.649-0.051 0.134 0 0.283-0.116 0.45-0.35 0.101-0.167 0.184-0.483 0.25-0.95 0.067-0.433 0.067-0.75 0-0.95-0.1-0.3-0.399-0.699-0.899-1.199-0.467-0.5-0.768-0.934-0.9-1.301 0.5 0 1.6 0.45 3.3 1.351 0.134 0.066 0.317 0.184 0.55 0.35 0.233 0.167 0.45 0.233 0.65 0.2 0.4 0 0.783-0.116 1.15-0.35 0.467-0.301 0.649-0.667 0.55-1.101-0.033-0.166-0.283-0.416-0.75-0.75-0.5-0.333-0.8-0.55-0.9-0.649l0.2 0.35h-0.45c0.2-0.267-0.149-0.783-1.05-1.55 0.233 0.066 0.667 0.217 1.3 0.45 0.533 0.199 0.967 0.333 1.3 0.399-0.199-0.533-0.783-1.017-1.75-1.45 0.934-0.1 2.051 0.317 3.351 1.25-0.5-0.433-0.733-0.85-0.7-1.25 0.2-0.066 0.533 0.034 1 0.301 0.267 0.133 0.6 0.316 1 0.55 0.133 0.066 0.283 0.116 0.45 0.149 0.133 0.101 0.167 0.301 0.1 0.601 0.2 0.1 0.517 0.017 0.95-0.25 0.533-0.3 0.883-0.467 1.05-0.5h0.05c0.2 0.033 0.518 0.05 0.95 0.05-0.3 0.134-0.667 0.483-1.1 1.05-0.533 0.7-0.934 1.15-1.2 1.351-0.3 0.267-0.667 0.433-1.1 0.5-0.567 0.133-0.934 0.233-1.101 0.3-0.533 0.3-1.233 0.783-2.1 1.45-1.033 0.8-1.733 1.316-2.101 1.55l-0.35 0.25 0.35 0.05c-0.3 0.2-0.633 0.367-1 0.5l-1.5 1.2c-0.133 0.3-0.217 0.667-0.25 1.1-2.199 0.601-3.883 1-5.05 1.2-0.967 0.2-2.033 0.233-3.2 0.1-1.331-0.203-2.398-0.336-3.198-0.403-1.834-0.101-3.75-0.033-5.75 0.2-1.301 0.166-3.15 0.5-5.551 1-1.832 0.367-4.366 0.35-7.599-0.05z" clip-rule="evenodd" fill="#4F301A" fill-rule="evenodd"/>
				<path d="m65.5 56.15c0.6 0.066 1.033 0.017 1.3-0.15 0.101-0.066 0.217-0.217 0.351-0.45 0.133-0.233 0.267-0.366 0.399-0.399 0.267-0.067 0.583 0.1 0.95 0.5 0.1 0.033 0.467 0.05 1.1 0.05 0.301 0 0.601-0.117 0.9-0.351 0.367-0.133 1.05-0.166 2.05-0.1 0.5-0.033 1.267-0.133 2.3-0.3 0.467-0.033 1.184-0.066 2.15-0.101 0.434-0.033 1.066-0.116 1.9-0.25 0.732-0.066 1.366-0.033 1.899 0.101 1.9 0.399 3.417 0.616 4.55 0.649 0.134 0 0.4 0.034 0.801 0.101 0.399 0 0.649-0.083 0.75-0.25 0.1-0.134 0.116-0.417 0.05-0.851-0.067-0.466-0.083-0.767-0.05-0.899 0.199-0.066 0.482 0.083 0.85 0.45 0.333 0.366 0.6 0.55 0.8 0.55 0.033 0 0.2-0.05 0.5-0.15 0.033 0 0.45-0.05 1.25-0.149l0.3-0.051c0.267-0.2 0.4-0.4 0.4-0.6 0.233 0.033 0.367-0.033 0.4-0.2 0.066-0.267 0.1-0.416 0.1-0.45 0.1-0.199 0.25-0.35 0.45-0.449 0.3-0.134 0.5-0.25 0.6-0.351 0.134-0.1 0.367-0.316 0.7-0.649 0.333-0.267 0.533-0.5 0.6-0.7 0.101-0.3 0.101-0.667 0-1.101-0.166-0.466-0.283-0.816-0.35-1.05 0.066 0 0.533 0.267 1.4 0.8 0.566 0.334 1 0.334 1.3 0 0.066-0.1 0.167-0.316 0.3-0.649 0.1-0.333 0.233-0.566 0.4-0.7 0.166-0.1 0.433-0.167 0.8-0.2 0.866-0.233 1.017-0.633 0.45-1.2 0.199-0.033 0.399-0.033 0.6 0 0-0.3-0.017-0.482-0.05-0.55 0.267-0.033 0.649 0.033 1.149 0.2 0.5 0.134 0.867 0.184 1.101 0.15 0.267-0.067 0.483-0.184 0.649-0.351 0.067-0.1 0.217-0.3 0.45-0.6 0.233-0.233 0.483-0.4 0.75-0.5l0.75 0.05c-0.3 0.134-0.667 0.483-1.1 1.05-0.533 0.7-0.934 1.15-1.2 1.351-0.3 0.267-0.667 0.433-1.1 0.5-0.567 0.133-0.934 0.233-1.101 0.3-0.533 0.3-1.233 0.783-2.1 1.45-1.033 0.8-1.733 1.316-2.101 1.55l-0.35 0.25 0.35 0.05c-0.3 0.2-0.633 0.367-1 0.5l-1.5 1.2c-0.133 0.3-0.217 0.667-0.25 1.1l-1.8 0.4c-1.333 0.399-2.417 0.667-3.25 0.8-0.967 0.2-2.033 0.233-3.2 0.1-1.331-0.201-2.398-0.334-3.198-0.401-1.834-0.101-3.75-0.033-5.75 0.2-1.301 0.166-3.15 0.5-5.551 1-1.833 0.366-4.366 0.35-7.6-0.051-0.333-0.033-0.867-0.05-1.6-0.05-0.7 0-1.233-0.033-1.6-0.1-0.6-0.066-1.233-0.333-1.9-0.8-0.866-0.599-1.416-0.949-1.649-1.049-0.733-0.3-1.733-0.5-3-0.6-1.733-0.167-2.733-0.267-3-0.3-0.4-0.066-0.917-0.233-1.55-0.5-0.667-0.3-1.15-0.483-1.45-0.55-1.066 0.1-1.9 0.133-2.5 0.1-1.167 0-1.733-0.467-1.7-1.4-2.133-0.666-3.683-0.966-4.65-0.899l-0.05-0.8c-0.6 0.166-0.983 0.066-1.15-0.301-0.134-0.466-0.317-0.816-0.55-1.05-0.267-0.233-0.833-0.45-1.7-0.649-0.634-0.167-1.05-0.567-1.25-1.2l-1.35-0.351c-0.5-0.567-0.916-0.85-1.25-0.85l1.75-0.7-0.4 0.4c0.133 0.1 0.433 0.149 0.9 0.149v0.351c0.133 0.066 0.367 0.1 0.7 0.1 0.134 0.134 0.184 0.351 0.15 0.65 0.033 0.2 0.066 0.35 0.1 0.45 0 0.066 0.117 0.149 0.35 0.25l1.35 0.699c0.367 0.134 0.816 0.417 1.35 0.851 0.033 0.033 0.1 0.116 0.2 0.25h0.25c0.1-0.033 0.184-0.033 0.25 0 0.067 0.066 0.167 0.217 0.3 0.45 0.066 0.233 0.2 0.383 0.4 0.449 0.4 0.101 0.95 0.284 1.65 0.551l1.2 0.449c0.167 0.067 0.4 0.101 0.7 0.101 0.3 0.033 0.517 0.066 0.65 0.1 0.2 0.067 0.45 0.267 0.75 0.601 0.3 0.166 0.783 0.199 1.45 0.1 0.5-0.066 1.184-0.283 2.05-0.65 0.1 0.5 0 0.9-0.3 1.2 0.167 0.067 0.4 0.101 0.7 0.101 0.1 0.033 0.333 0.199 0.7 0.5 0.3 0.233 0.884 0.383 1.75 0.449 0.5 0.033 1.2 0.149 2.1 0.349 0.133 0 0.65 0.083 1.55 0.25 0.6 0.1 1.1 0.133 1.5 0.1 0.366 0 0.716 0.084 1.05 0.25 0.233 0.101 0.566 0.283 1 0.55 1.133 0.667 1.9 1.018 2.3 1.051 0.867 0.166 1.417 0.233 1.65 0.199 0.066-0.033 0.25-0.116 0.55-0.25 0.2-0.1 0.383-0.133 0.55-0.1s0.384 0.134 0.65 0.3c0.3 0.2 0.533 0.317 0.7 0.351 0.367 0.066 0.95 0.066 1.75 0 0.267 0.033 0.717 0.116 1.35 0.249z" clip-rule="evenodd" fill="#4A2C1C" fill-rule="evenodd"/>
					<path d="m62.7 33.05c0.6 0.101 1.433 0.233 2.5 0.4 0.633 0.066 1.667 0 3.1-0.2 1.367-0.167 2.367-0.184 3-0.05-0.1 0.233-0.45 0.399-1.05 0.5-0.733 0.133-1.15 0.234-1.25 0.3-0.533 0.134-0.967 0.316-1.3 0.55l0.25-0.05c-1.233 0.333-2.15 0.634-2.75 0.9-0.733 0.433-1.267 0.649-1.6 0.649 0.367-0.333 0.983-0.783 1.85-1.35-1.233 0.2-2.134 0.316-2.7 0.35 0.434-0.2 0.75-0.433 0.95-0.7-0.667 0.034-1.167 0.018-1.5-0.05l0.35-0.2c-0.966-0.066-1.816 0.067-2.55 0.4 0.2 0.367 0.283 0.7 0.25 1-0.566 0.066-0.883 0.384-0.95 0.95-0.3-0.434-0.483-0.783-0.55-1.05-0.033-0.067-0.017-0.233 0.05-0.5 0.034-0.2-0.017-0.384-0.15-0.551v-0.348h0.15c0.567-0.566 1.034-0.9 1.4-1 0.6-0.133 1.433-0.117 2.5 0.05z" clip-rule="evenodd" fill="#704326" fill-rule="evenodd"/>
				<path d="m67.35 36.75c-0.232 0.367-0.467 0.617-0.699 0.75-0.334 0.167-0.801 0.283-1.4 0.35-0.6 0.067-1.05 0.034-1.35-0.1 0.867-0.267 1.433-0.55 1.7-0.85-0.433 0-0.75-0.017-0.949-0.051 0.3-0.333 0.8-0.616 1.5-0.85 0.666-0.233 1.25-0.35 1.75-0.35l0.5-0.101c0.198 0.169 0.164 0.452-0.102 0.852-0.133 0.166-0.283 0.25-0.45 0.25-0.233 0.034-0.4 0.067-0.5 0.1z" clip-rule="evenodd" fill="#704326" fill-rule="evenodd"/>
				<path d="m62.2 37.25v0.1h0.6c-0.066 0.367-0.466 0.584-1.2 0.65-0.7 0.066-1.15-0.017-1.35-0.25 1.133-0.267 1.783-0.434 1.95-0.5z" clip-rule="evenodd" fill="#704326" fill-rule="evenodd"/>
				<path d="m62.35 38.25l-0.15 0.2h0.9c0 0.333-0.2 0.517-0.6 0.55-0.066 0-0.367-0.033-0.9-0.1 0.033-0.2 0.15-0.334 0.35-0.4 0.208-0.104 0.341-0.187 0.4-0.25z" clip-rule="evenodd" fill="#704326" fill-rule="evenodd"/>
				<path d="m60.05 37.95l-0.2 0.1c0.5-0.033 0.85 0.067 1.05 0.3 0.233 0.268 0.1 0.567-0.4 0.9-0.2 0.134-0.6 0.25-1.2 0.35-0.566 0.067-0.983 0.067-1.25 0l0.15-0.3c-0.567 0.101-1 0.117-1.3 0.05 0.333-0.066 0.733-0.232 1.2-0.5 0.533-0.3 0.767-0.566 0.7-0.8 0.7-0.1 1.117-0.133 1.25-0.1z" clip-rule="evenodd" fill="#704326" fill-rule="evenodd"/>
				<path d="m56.4 40.1h0.4c0.267 0 0.417 0.034 0.45 0.101-0.267 0.533-0.783 0.733-1.55 0.6 0.033-0.167 0.267-0.401 0.7-0.701z" clip-rule="evenodd" fill="#704326" fill-rule="evenodd"/>
				<path d="m58.25 40.25l0.1 0.35h0.6v0.351c-0.3 0.066-0.55 0.033-0.75-0.101-0.2-0.133-0.183-0.333 0.05-0.6z" clip-rule="evenodd" fill="#704326" fill-rule="evenodd"/>
				<path d="m68.9 37.1h-0.6c0.167-0.366 0.5-0.533 1-0.5 0.267 0.034 0.667 0.084 1.2 0.15 0.066 0.8-0.233 1.184-0.9 1.15-0.232 0-0.732-0.15-1.5-0.45l0.8-0.35z" clip-rule="evenodd" fill="#704326" fill-rule="evenodd"/>
				<path d="m69.5 38.3v0.15c0.2-0.066 0.434-0.267 0.7-0.601 0.133-0.166 0.3-0.416 0.5-0.75 0.133 0.233 0.133 0.65 0 1.25-0.101 0.567-0.25 0.934-0.45 1.101-0.233 0.2-1.05 0.217-2.45 0.05 0.101-0.167 0.434-0.316 1-0.45 0.433-0.1 0.667-0.35 0.7-0.75z" clip-rule="evenodd" fill="#704326" fill-rule="evenodd"/>
				<path d="m70.5 34.35l0.3 0.25h0.5c0.101 0.634-0.05 1.034-0.45 1.2-0.232 0.101-0.683 0.134-1.35 0.101 0.1-0.134 0.316-0.384 0.65-0.75 0.267-0.301 0.383-0.568 0.35-0.801z" clip-rule="evenodd" fill="#704326" fill-rule="evenodd"/>
				<path d="m43.65 38.9v-0.15c-0.3 0.134-0.767 0.483-1.4 1.05-0.566 0.5-1.033 0.783-1.4 0.851l0.1-0.2c-0.367 0.365-1.05 0.549-2.05 0.549 0.1-0.033 0.317-0.116 0.65-0.25 0.333-0.167 0.567-0.316 0.7-0.45 1.233-0.5 2.833-1.45 4.8-2.85 2.167-1.5 4.434-2.2 6.8-2.101 0.066 0 1.167-0.267 3.3-0.8 1.3-0.3 2.383-0.483 3.25-0.55-0.367 0.233-0.783 0.35-1.25 0.35-0.767 0.067-1.333 0.25-1.7 0.551-0.167 0.133-0.367 0.233-0.6 0.3-0.367 0.066-0.6 0.116-0.7 0.149-0.833 0.367-1.3 0.567-1.4 0.601l-0.8 0.149c-0.3 0.101-0.534 0.268-0.7 0.5-0.233 0.268-0.434 0.483-0.6 0.65-0.1-0.2-0.167-0.35-0.2-0.45 0.233-0.166 0.316-0.399 0.25-0.7-0.3 0.034-0.667 0.167-1.1 0.4-0.534 0.267-0.883 0.434-1.05 0.5l0.1-0.1c-1.033 0.133-1.85 0.483-2.45 1.05-0.034 0.033-0.233 0.316-0.6 0.85-0.133 0.167-0.35 0.334-0.65 0.5-0.333 0.167-0.567 0.283-0.7 0.351-0.434 0.399-0.75 0.583-0.95 0.55 0-0.167 0.134-0.367 0.4-0.601 0.333-0.3 0.533-0.5 0.6-0.6 0.067-0.066 0.1-0.184 0.1-0.35l-0.75 0.251z" clip-rule="evenodd" fill="#704326" fill-rule="evenodd"/>
				<path d="m51.4 39.05c-0.667-0.033-0.733-0.233-0.2-0.6 0.267-0.167 0.683-0.417 1.25-0.75l-1.15 0.1c1-0.866 2.017-1.45 3.05-1.75h0.05c0.9 0 1.367 0.184 1.4 0.55 0 0.167-0.133 0.317-0.4 0.45-0.3 0.134-0.466 0.217-0.5 0.25-0.066 0.134-0.066 0.384 0 0.75 0.1 0.334 0.1 0.567 0 0.7-0.1 0.134-0.383 0.2-0.85 0.2-0.5 0.033-0.817 0.05-0.95 0.05-0.534 0.1-1.1 0.117-1.7 0.05z" clip-rule="evenodd" fill="#704326" fill-rule="evenodd"/>
				<path d="m55.975 37.4h0.975c0.066 0.5-0.267 0.717-1 0.649-0.656-0.028-0.648-0.245 0.025-0.649z" clip-rule="evenodd" fill="#704326" fill-rule="evenodd"/>
				<path d="m49.5 37.25l-0.2 0.15h0.35c0.233 0.767-0.316 1.083-1.65 0.949l0.1-0.149c-0.4 0.066-0.7 0.083-0.9 0.05 0.233-0.133 0.6-0.366 1.1-0.7 0.433-0.234 0.833-0.333 1.2-0.3z" clip-rule="evenodd" fill="#704326" fill-rule="evenodd"/>
				<path d="m47.45 38.75l0.35 0.4c0.034 0.033 0.083 0.05 0.15 0.05-0.167 0.5-0.767 0.633-1.8 0.399 0.367-0.366 0.8-0.649 1.3-0.849z" clip-rule="evenodd" fill="#704326" fill-rule="evenodd"/>
				<path d="m42.4 40.65l0.35 0.35c-0.167 0.667-1.15 0.934-2.95 0.8 1.1-0.267 1.967-0.65 2.6-1.15z" clip-rule="evenodd" fill="#704326" fill-rule="evenodd"/>
				<path d="m39.3 42.3v0.2l0.5 0.05c-0.033 0.2-0.183 0.3-0.45 0.3-0.3 0.034-0.517-0.017-0.65-0.149 0.067-0.101 0.267-0.234 0.6-0.401z" clip-rule="evenodd" fill="#704326" fill-rule="evenodd"/>
				<path d="m46.05 40.35h-0.5c0.167-0.133 0.367-0.166 0.6-0.1 0.3 0.066 0.4 0.217 0.3 0.45-0.067 0.167-0.217 0.25-0.45 0.25s-0.383-0.083-0.45-0.25h-0.4c0.166-0.167 0.467-0.283 0.9-0.35z" clip-rule="evenodd" fill="#704326" fill-rule="evenodd"/>
				<path d="m45.25 39.7h-0.65c0.033-0.267 0.35-0.333 0.95-0.2 0.034 0.233-0.033 0.384-0.2 0.45-0.133 0.066-0.284 0.033-0.45-0.101 0.034-0.033 0.15-0.082 0.35-0.149z" clip-rule="evenodd" fill="#704326" fill-rule="evenodd"/>
				<path d="m44.15 40.35l0.45-0.25c0.066-0.066 0.117-0.083 0.15-0.05 0.1 0.267 0.017 0.45-0.25 0.55-0.3 0.134-0.533 0.134-0.7 0 0.033-0.1 0.15-0.183 0.35-0.25z" clip-rule="evenodd" fill="#704326" fill-rule="evenodd"/>
				<path d="m49.3 39.45l-0.6-0.05c0.1-0.067 0.45-0.101 1.05-0.101 0.033 0.3 0 0.55-0.1 0.75-0.133 0.267-0.316 0.367-0.55 0.3l0.05-0.199c-0.233 0-0.433-0.051-0.6-0.15 0.1-0.3 0.35-0.483 0.75-0.55z" clip-rule="evenodd" fill="#704326" fill-rule="evenodd"/>
				<path d="m45.7 43.5l-0.4-0.6c0.767-0.033 1.267-0.017 1.5 0.05 0.534 0.133 0.684 0.517 0.45 1.149-0.066 0.2-0.25 0.518-0.55 0.95-0.267 0.367-0.417 0.717-0.45 1.05l-0.65 0.25c-0.867 0.334-1.65 0.584-2.35 0.75-0.833 0.167-1.316 0.2-1.45 0.101 0.134-0.233 0.417-0.55 0.85-0.95-0.167-0.066-0.466-0.083-0.9-0.05s-0.733 0-0.9-0.101c0.133-0.199 0.633-0.566 1.5-1.1-0.2-0.066-0.467-0.083-0.8-0.05-0.366 0.033-0.633 0.05-0.8 0.05 1.4-0.532 3.05-1.032 4.95-1.499z" clip-rule="evenodd" fill="#704326" fill-rule="evenodd"/>
				<path d="m46.9 45.5v0.1c0.017-0.083 0.05-0.149 0.1-0.199 0.066-0.167 0.184-0.2 0.35-0.101-0.233 0.733-0.517 1.084-0.85 1.05 0-0.3 0.133-0.583 0.4-0.85z" clip-rule="evenodd" fill="#704326" fill-rule="evenodd"/>
				<path d="m52.65 42.75c0 0.134-0.05 0.267-0.15 0.4l-0.3 0.3c0 0.267-0.05 0.45-0.15 0.55-0.033 0.066-0.133 0.1-0.3 0.1-0.133 0-0.233 0.018-0.3 0.051-0.134 0.366-0.25 0.633-0.35 0.8-0.2 0.333-0.534 0.633-1 0.899-0.467 0.268-0.883 0.417-1.25 0.45 0.1-0.133 0.2-0.35 0.3-0.649 0.078-0.116 0.186-0.258 0.325-0.426-5e-3 -0.339 0.136-0.58 0.425-0.725 0.2-0.1 0.517-0.25 0.95-0.45 0.767-0.7 1.367-1.133 1.8-1.3z" clip-rule="evenodd" fill="#704326" fill-rule="evenodd"/>
				<path d="m50.15 46.35h-0.25c0.133-0.199 0.417-0.232 0.85-0.1 0.066 0.333-0.066 0.566-0.4 0.7-0.3 0.133-0.55 0.133-0.75 0 0.067-0.233 0.25-0.433 0.55-0.6z" clip-rule="evenodd" fill="#704326" fill-rule="evenodd"/>
				<path d="m52.9 45.15c0.133-0.301 0.383-0.567 0.75-0.801 0.367-0.232 0.7-0.333 1-0.3v0.15c0.434-0.066 0.717 0.033 0.85 0.3 0.167 0.3 0.1 0.634-0.2 1-0.267 0.3-0.75 0.5-1.45 0.6-0.733 0.101-1.2-0.033-1.4-0.399 0.2-0.2 0.517-0.384 0.95-0.55h-0.5z" clip-rule="evenodd" fill="#704326" fill-rule="evenodd"/>
				<path d="m53.25 46.35l0.55 0.101c0.333-0.033 0.467 0.066 0.4 0.3-0.1 0.2-0.284 0.316-0.55 0.35-0.267 0-0.45-0.066-0.55-0.199-0.1-0.135-0.05-0.319 0.15-0.552z" clip-rule="evenodd" fill="#704326" fill-rule="evenodd"/>
				<path d="m56.65 42.45l-0.15 0.05c0.667 0 1.05 0.117 1.15 0.35-0.333 0.167-0.716 0.233-1.15 0.2-0.434-0.066-0.783-0.217-1.05-0.45 0.2-0.2 0.6-0.25 1.2-0.15z" clip-rule="evenodd" fill="#704326" fill-rule="evenodd"/>
				<path d="m58.8 42.3l0.3-0.2h0.85c0.366 0.067 0.566 0.233 0.6 0.5-0.3 0.233-0.7 0.367-1.2 0.4-0.567 0.033-0.967-0.083-1.2-0.35 0.166-0.3 0.383-0.417 0.65-0.35z" clip-rule="evenodd" fill="#704326" fill-rule="evenodd"/>
				<path d="m59.9 43.7l0.15 0.1c0.267-0.233 0.784-0.316 1.55-0.25 0.033 0.4-0.267 0.617-0.9 0.65-0.6 0.033-1.034-0.05-1.3-0.25 0.1-0.233 0.267-0.316 0.5-0.25z" clip-rule="evenodd" fill="#704326" fill-rule="evenodd"/>
				<path d="m58.7 43.375l-0.2-0.075h0.2c4e-3 0.022 4e-3 0.047 0 0.075zm0 0.025c0.019 0.341-0.248 0.558-0.8 0.649-0.6 0.101-1 0.05-1.2-0.149 0.195-0.422 0.862-0.588 2-0.5z" clip-rule="evenodd" fill="#704326" fill-rule="evenodd"/>
				<path d="m55.35 43.3l0.85-0.149c0 0.366-0.317 0.5-0.95 0.399 0-0.033 0.033-0.116 0.1-0.25z" clip-rule="evenodd" fill="#704326" fill-rule="evenodd"/>
				<path d="m69.5 40.45c0.2 0 0.316 0.066 0.35 0.2-0.166 0.133-0.533 0.166-1.1 0.1 0-0.1 0.083-0.233 0.25-0.4l0.5 0.1z" clip-rule="evenodd" fill="#704326" fill-rule="evenodd"/>
				<path d="m62.65 45.15l0.55 0.75c0.033 0.533-0.684 0.816-2.15 0.85-1.566-0.1-2.433-0.15-2.6-0.15l0.1-0.199c-0.466-0.067-0.783-0.267-0.95-0.601 0.167-0.3 1.183-0.366 3.05-0.2 0.666-0.1 1.333-0.25 2-0.45z" clip-rule="evenodd" fill="#704326" fill-rule="evenodd"/>
				<path d="m65.15 45.875l-1-0.225c0.166 0 0.482-0.017 0.949-0.051 0.434-0.033 0.733 0.034 0.9 0.2-0.1 0.167-0.267 0.267-0.5 0.3-0.2 0.034-0.367-0.017-0.5-0.149 0.057-0.033 0.106-0.058 0.151-0.075z" clip-rule="evenodd" fill="#704326" fill-rule="evenodd"/>
				<path d="m60.6 44.6l1.1 0.25c0.133 0.301-0.2 0.467-1 0.5-0.8 0-1.3-0.116-1.5-0.35 0.1-0.2 0.316-0.283 0.65-0.25 0.367 0.033 0.617-0.017 0.75-0.15z" clip-rule="evenodd" fill="#704326" fill-rule="evenodd"/>
				<path d="m58.05 44.75l0.5-0.05c0.3-0.101 0.517-0.033 0.65 0.2-0.167 0.166-0.483 0.25-0.95 0.25-0.434 0-0.733-0.084-0.9-0.25 0.167-0.1 0.4-0.15 0.7-0.15z" clip-rule="evenodd" fill="#704326" fill-rule="evenodd"/>
				<path d="m56.7 45.1l0.1 0.601c0.034 0.233-0.05 0.383-0.25 0.45-0.167 0.033-0.333 0.017-0.5-0.051 0-0.466 0.217-0.8 0.65-1z" clip-rule="evenodd" fill="#704326" fill-rule="evenodd"/>
				<path d="m56.1 46.6l0.85-0.3c0.1 0.067 0.133 0.167 0.1 0.3-0.3 0.167-0.616 0.167-0.95 0z" clip-rule="evenodd" fill="#704326" fill-rule="evenodd"/>
				<path d="m39.5 45.55l-0.95-0.15c1.2-0.367 2.017-0.45 2.45-0.25 0.1 0.767-0.767 1.066-2.6 0.899v-0.149c0.233-0.233 0.6-0.35 1.1-0.35z" clip-rule="evenodd" fill="#704326" fill-rule="evenodd"/>
				<path d="m39.5 46.6c0.1-0.166 0.35-0.216 0.75-0.149 0.066 0.267-0.066 0.417-0.4 0.45s-0.55-0.033-0.65-0.2c0.03-0.062 0.131-0.096 0.3-0.101z" clip-rule="evenodd" fill="#704326" fill-rule="evenodd"/>
				<path d="m40.55 46.7l0.5-0.2c0.367-0.033 0.4 0.134 0.1 0.5-0.233 0.3-0.45 0.25-0.65-0.15 0-0.1 0.017-0.15 0.05-0.15z" clip-rule="evenodd" fill="#704326" fill-rule="evenodd"/>
				<path d="m41.65 43l0.35 0.25c-0.3 0.4-0.816 0.483-1.55 0.25 0.366-0.233 0.767-0.4 1.2-0.5z" clip-rule="evenodd" fill="#704326" fill-rule="evenodd"/>
				<path d="m55.5 48.7l-0.2 0.149c0.267-0.1 0.567-0.116 0.9-0.05 0.033 0.4-0.233 0.65-0.8 0.75-0.566 0.134-0.966 0.084-1.2-0.149 0.433-0.367 0.866-0.6 1.3-0.7z" clip-rule="evenodd" fill="#704326" fill-rule="evenodd"/>
				<path d="m59.375 49.95c0.223 3e-3 0.431 0.053 0.625 0.149 0.233 0.134 0.25 0.334 0.05 0.601-0.133 0.167-0.417 0.217-0.85 0.149-0.467-0.033-0.767-0.133-0.9-0.3 0.383-0.264 0.741-0.464 1.075-0.599z" clip-rule="evenodd" fill="#704326" fill-rule="evenodd"/>
				<path d="m59.8 48.85c0.075-0.106 0.191-0.173 0.35-0.199 0.233-0.033 0.367 0.05 0.4 0.25 0.067 0.233-0.066 0.35-0.4 0.35-0.267 0.033-0.483 0-0.65-0.1 0-0.174 0.1-0.274 0.3-0.301z" clip-rule="evenodd" fill="#704326" fill-rule="evenodd"/>
				<path d="m61.4 48.7h-0.1c0.233-0.167 0.434-0.15 0.6 0.05-0.167 0.167-0.383 0.217-0.65 0.15-0.033-0.067 0.017-0.133 0.15-0.2z" clip-rule="evenodd" fill="#704326" fill-rule="evenodd"/>
				<path d="m62.65 49.75l0.2 0.15c0.167-0.101 0.3-0.117 0.4-0.051 0.066 0.367-0.167 0.518-0.7 0.45l0.1-0.549z" clip-rule="evenodd" fill="#704326" fill-rule="evenodd"/>
				<path d="m66.5 48.2h-0.05c0.1 0.133 0.083 0.233-0.05 0.3-0.134 0.066-0.25 0.05-0.351-0.05 0.068-0.233 0.218-0.316 0.451-0.25z" clip-rule="evenodd" fill="#704326" fill-rule="evenodd"/>
				<path d="m80.15 37.2c0.318-0.116 0.827-0.208 1.524-0.275l-0.974 0.075c0.167-0.133 0.55-0.184 1.149-0.15 0.634 0 0.934 0.15 0.9 0.45-1.166 0.067-2.032 0.033-2.599-0.1z" clip-rule="evenodd" fill="#704326" fill-rule="evenodd"/>
				<path d="m82.4 37.65l0.55-0.101c0.167-0.233 0.383-0.267 0.649-0.1 0.233 0.133 0.384 0.35 0.45 0.649 0 0.034-0.05 0.45-0.149 1.25l-0.2 1.301c-0.033 0.133-0.05 0.283-0.05 0.449-0.033 0.101-0.117 0.2-0.25 0.301-0.101 0.1-0.351 0.133-0.75 0.1-0.367-0.033-0.65-0.1-0.851-0.2 0.033-0.033 0.083-0.1 0.15-0.2-0.134 0.034-0.783 0.051-1.95 0.051-0.434 0.066-0.8 0.1-1.1 0.1-0.533 0.033-0.851-0.05-0.95-0.25 0.267-0.066 0.816-0.133 1.649-0.2 0.667-0.066 1.2-0.183 1.601-0.35 0-0.2-0.083-0.3-0.25-0.3s-0.3-0.017-0.4-0.051c0.033-0.333 0.3-0.566 0.8-0.699 0.5-0.101 0.717-0.334 0.65-0.7 0-0.101-0.066-0.2-0.2-0.3-0.1-0.067-0.133-0.167-0.1-0.301 0.034-0.366 0.268-0.516 0.701-0.449z" clip-rule="evenodd" fill="#704326" fill-rule="evenodd"/>
				<path d="m84.725 40.75c0.167-0.048 0.342-0.015 0.525 0.1 0.066 0.233-0.017 0.434-0.25 0.601-0.2 0.133-0.383 0.116-0.55-0.05-0.2-0.134-0.25-0.301-0.15-0.5 0.064-0.161 0.206-0.212 0.425-0.151z" clip-rule="evenodd" fill="#704326" fill-rule="evenodd"/>
				<path d="m82 42.2l-0.45-0.25c0.267-0.033 0.5 0 0.7 0.1 0.2 0.101 0.167 0.25-0.1 0.45-0.2 0.134-0.518 0.167-0.95 0.1-0.467-0.066-0.75-0.199-0.851-0.399h1.651z" clip-rule="evenodd" fill="#704326" fill-rule="evenodd"/>
				<path d="m79.35 43.65l-1.2 0.15c0.199-0.233 0.666-0.333 1.399-0.3 0.434 0.033 0.95 0.083 1.55 0.15 0.033 0.399-0.416 0.633-1.35 0.699h-1.6c0-0.199 0.183-0.366 0.55-0.5 0.168-0.066 0.384-0.132 0.651-0.199z" clip-rule="evenodd" fill="#704326" fill-rule="evenodd"/>
				<path d="m81.8 44.45l0.25 0.149c0.533-0.066 0.783 0.051 0.75 0.351-0.366 0.133-0.833 0.1-1.399-0.101-1e-3 -0.266 0.132-0.399 0.399-0.399z" clip-rule="evenodd" fill="#704326" fill-rule="evenodd"/>
				<path d="m72.15 44.3h0.3c0.2-0.133 0.667-0.2 1.399-0.2 0.768 0 1.184 0.117 1.25 0.351 0.067 0.133 0 0.283-0.199 0.45-0.167 0.133-0.334 0.217-0.5 0.25-0.233 0.1-0.983 0.1-2.25 0-1.268-0.134-1.9-0.283-1.9-0.45 1.1-0.267 1.733-0.401 1.9-0.401z" clip-rule="evenodd" fill="#704326" fill-rule="evenodd"/>
				<path d="m73.55 46.1l-0.05 0.2h0.8c0.101 0.434-0.2 0.684-0.899 0.75-0.768-0.033-1.234-0.05-1.401-0.05 0.066-0.2 0.3-0.366 0.7-0.5 0.467-0.2 0.75-0.333 0.85-0.4z" clip-rule="evenodd" fill="#704326" fill-rule="evenodd"/>
				<path d="m74.75 46.3h0.15c0.066-0.2 0.3-0.283 0.699-0.25 0.4 0 0.567 0.15 0.5 0.45-0.8 0.1-1.3 0.05-1.5-0.15 0.068-0.067 0.118-0.083 0.151-0.05z" clip-rule="evenodd" fill="#704326" fill-rule="evenodd"/>
				<path d="m89.9 49.05c-0.2 0.167-0.283 0.367-0.25 0.601 0.033 0.333 0.033 0.55 0 0.649-0.101 0.267-0.384 0.417-0.851 0.45-0.5-0.033-0.833-0.05-1-0.05-1.1 0-2.1-0.134-3-0.4-0.899-0.166-1.45-0.416-1.649-0.75l0.699-0.7c0.301 0.233 0.768 0.4 1.4 0.5 0.6 0.067 1.1 0.051 1.5-0.05-0.1-0.2-0.167-0.316-0.2-0.35 0.033 0 0.283 0.017 0.75 0.05 0.4 0.033 0.634 0 0.7-0.1 0.1-0.134 0.133-0.267 0.1-0.4-0.033-0.167-0.05-0.316-0.05-0.45 0.533-0.2 1.083-0.267 1.65-0.2 0.233 0.067 0.366 0.134 0.399 0.2-0.199 0.101-0.35 0.267-0.449 0.5-0.132 0.3-0.049 0.467 0.251 0.5z" clip-rule="evenodd" fill="#704326" fill-rule="evenodd"/>
				<path d="m62.2 39c0.033-0.133 0.316-0.2 0.85-0.2 0.267 0.033 0.6 0.067 1 0.101l-0.05 0.099c0.533-0.066 0.8 0.15 0.8 0.65 0 0.533-0.267 0.699-0.8 0.5l-0.5-0.25c-0.233 0.033-0.417 0.017-0.55-0.051-0.034 0-0.167-0.116-0.4-0.35-0.267-0.199-0.383-0.365-0.35-0.499z" clip-rule="evenodd" fill="#704326" fill-rule="evenodd"/>
				<path d="m65.65 39.9l-0.101 0.05c0.167-0.167 0.467-0.217 0.9-0.15 0.5 0.033 0.7 0.2 0.6 0.5-1.1 0-1.917 0.267-2.45 0.8 0.101-0.366 0.317-0.683 0.65-0.949 0.101-0.068 0.234-0.151 0.401-0.251z" clip-rule="evenodd" fill="#704326" fill-rule="evenodd"/>
				<path d="m62.85 42.4l-0.05-0.1c0.2 0.067 0.3 0.167 0.3 0.3-0.167 0-0.333-0.033-0.5-0.1-0.267-0.1-0.383-0.217-0.35-0.35 0.1 0 0.2 0.033 0.3 0.1 0.134 0.1 0.233 0.15 0.3 0.15z" clip-rule="evenodd" fill="#704326" fill-rule="evenodd"/>
				<path d="m62.85 41.95l0.05-0.05c0.167 0.066 0.167 0.166 0 0.3-0.167 0.167-0.216 0.1-0.15-0.2l0.1-0.05z" clip-rule="evenodd" fill="#704326" fill-rule="evenodd"/>
				<path d="m68.05 40.35l-0.1 0.2c-0.033-0.267 0.149-0.467 0.55-0.6 0.367-0.134 0.65-0.15 0.85-0.05-0.199 0.033-0.449 0.233-0.75 0.6-0.1 0.1-0.199 0.134-0.3 0.1-0.133-0.066-0.233-0.1-0.3-0.1l0.05-0.15z" clip-rule="evenodd" fill="#704326" fill-rule="evenodd"/>
				<path d="m66.35 40.15l-0.1-0.101c0.167-0.033 0.283 0 0.35 0.101 0.101 0.1 0.051 0.199-0.149 0.3-0.033 0.033-0.25 0.05-0.65 0.05l-0.649 0.05c0.066-0.166 0.25-0.3 0.55-0.399 0.265-0.101 0.482-0.101 0.648-1e-3z" clip-rule="evenodd" fill="#875636" fill-rule="evenodd"/>
			<g clip-rule="evenodd" fill-rule="evenodd">
				<path d="m71.1 34.35v-0.15c0.268-0.667 0.75-0.833 1.45-0.5 0.3 0.133 0.767 0.5 1.4 1.1 1.033 0.867 1.6 1.384 1.7 1.55 0.5 0.667 0.3 1.217-0.601 1.65 0.467 0.267 0.667 0.684 0.601 1.25-0.134 0.867-0.184 1.35-0.15 1.45-1.133 0.066-1.967 0.149-2.5 0.25 0.2 0.533 0.983 1.017 2.35 1.45-0.267 0.133-0.816 0.183-1.649 0.149-0.867-0.033-1.367-0.05-1.5-0.05-1.033 0.033-1.817 0.05-2.351 0.05-0.933 0.033-1.717 0.017-2.35-0.05l1.05-0.15h-6.9l0.3-0.05c-0.434-0.2-1.1-0.316-2-0.35-1.2-0.033-1.9-0.066-2.1-0.101 0.8-0.399 2.367-0.533 4.7-0.399 2.101 0.1 3.567-0.184 4.4-0.851l-0.3-0.05c0.399-0.133 0.8-0.233 1.199-0.3l-0.5-0.45c1.367 0 2.134-0.017 2.301-0.05 0.166 0.533 0.517 0.8 1.05 0.8h0.149c0.4 0.167 0.783 0.134 1.15-0.1 0.367-0.267 0.55-0.667 0.55-1.2v-0.048c0-0.434-0.133-0.783-0.399-1.05-0.233-0.267-0.518-0.384-0.851-0.351l-0.449-0.399c0.167-0.067 0.351-0.2 0.551-0.4-1-0.267-1.733-0.533-2.2-0.8 0.267-0.101 0.95-0.2 2.05-0.3-0.2-0.2-0.267-0.417-0.2-0.65 0.067-0.2 0.25-0.366 0.55-0.5-0.035-0.133-0.201-0.267-0.501-0.4z" fill="#5C371E"/>
				<path d="m83.7 37.85l0.149-0.3c0.434-0.3 0.834-0.25 1.2 0.15 0.233 0.233 0.533 0.633 0.9 1.2 0.167 0.166 0.45 0.416 0.85 0.75 0.267 0.333 0.267 0.649 0 0.949 0.233 0.167 0.601 0.367 1.101 0.601 0.133 0.934-0.601 1.399-2.2 1.399-1.533 0-2.533-0.25-3-0.75l1.5-0.05c0.833-0.033 1.283-0.183 1.35-0.45 0.134-0.399-0.167-0.649-0.899-0.75-0.834 0-1.317-0.017-1.45-0.05 0.133-0.033 0.333-0.166 0.6-0.399-0.167-0.134-0.267-0.267-0.3-0.4-0.033-0.066-0.05-0.267-0.05-0.6 0.399 0.033 0.616-0.117 0.649-0.45 0.033-0.3-0.1-0.583-0.4-0.85z" fill="#5C371E"/>
				<path d="m90.375 39.3c0.208 0.038 0.517 0.071 0.925 0.101 0.367 0.066 0.567 0.25 0.601 0.55-0.401 0.032-0.701 0.049-0.901 0.049-0.4-0.033-0.717-0.116-0.95-0.25 0.095-0.188 0.203-0.339 0.325-0.45-0.025 5e-3 -0.05 5e-3 -0.075 0l0.2-0.075c-0.044 0.022-0.085 0.047-0.125 0.075z" fill="#5C371E"/>
				<path d="m49.15 45.05c0.067 0.167 0.083 0.434 0.05 0.8-0.233 0.233-0.55 0.4-0.95 0.5-0.667 0.2-1.017 0.301-1.05 0.301 0.167-0.334 0.267-0.684 0.3-1.051l0.2-0.05c0.033-0.433 0.167-0.767 0.4-1l-0.25-0.25c0.167-0.2 0.25-0.467 0.25-0.8-0.267-0.1-0.633-0.184-1.1-0.25-0.633-0.066-1.017-0.116-1.15-0.15 0.267-0.166 0.667-0.267 1.2-0.3 0.567-0.033 0.967-0.116 1.2-0.25-0.4-0.1-1-0.183-1.8-0.25 0.4-0.133 0.95-0.2 1.65-0.2 0.367 0.034 0.917 0.067 1.65 0.101l-0.15-0.15c0.167-0.233 0.2-0.45 0.1-0.649-0.134-0.2-0.333-0.317-0.6-0.351 0.633 0 1.3 0.2 2 0.601 0.733 0.467 1.35 0.717 1.85 0.75-0.167 0.233-0.45 0.399-0.85 0.5-0.534 0.166-0.85 0.267-0.95 0.3 0.067 0.1 0.133 0.5 0.2 1.2-0.5-0.334-0.867-0.334-1.1 0-0.333 0.465-0.7 0.681-1.1 0.648z" fill="#5C371E"/>
				<path d="m58.3 34.35l0.65 0.45c-0.233 0.767-0.667 1.101-1.3 1-0.167-0.033-0.3-0.149-0.4-0.35-0.133-0.2-0.233-0.316-0.3-0.351-0.167-0.033-0.4-0.033-0.7 0-0.467 0.034-0.717 0.051-0.75 0.051 0.333-0.233 0.8-0.4 1.4-0.5 0.733-0.133 1.2-0.233 1.4-0.3z" fill="#5C371E"/>
				<path d="m76.4 45.45c0.199-0.033 0.517-0.15 0.949-0.351 0.4-0.199 0.717-0.316 0.95-0.35h-0.149c-0.634 0.1-1.25-0.1-1.851-0.6 0.4-0.033 1.233 0.017 2.5 0.149 0.3 0.033 0.75-0.017 1.351-0.149 0.566-0.134 1-0.184 1.3-0.15-0.667 0.6-0.717 1.05-0.15 1.35 0.3 0.134 0.783 0.25 1.45 0.351 0.333 0.1 0.967 0.583 1.9 1.45-0.567-0.067-1 0.166-1.301 0.699-0.3 0.534-0.1 0.9 0.601 1.101-0.5-0.066-1.033-0.316-1.601-0.75-0.633-0.566-1.1-0.967-1.399-1.2s-0.717-0.4-1.25-0.5c-0.8-0.133-1.267-0.217-1.4-0.25-0.866-0.434-1.5-0.7-1.9-0.8z" fill="#5C371E"/>
				<path d="m70.75 39.35v0.05c0.267 0.267 0.4 0.416 0.4 0.449v0.301c0.033 0.066 0.083 0.149 0.149 0.25 0.033 0.1 0.033 0.183 0 0.25-0.066 0.066-0.116 0.083-0.149 0.05-0.067-0.066-0.117-0.117-0.15-0.15l-0.5-0.35-0.1-0.15-0.2-0.1c0-0.167-0.067-0.283-0.2-0.351 0.033-0.165 0.283-0.249 0.75-0.249z" fill="#704326"/>
			</g>
		<path d="m63.6 39.2l-0.05 0.149c0.1 0.034 0.134 0.101 0.1 0.2-0.066 0.067-0.133 0.117-0.2 0.15-0.3-0.033-0.483 0.05-0.55 0.25v0.25l-0.2 0.45v0.3c0 0.066-0.134 0.184-0.4 0.35-0.033 0.033-0.316 0.084-0.85 0.15-0.1 0.066-0.167 0.1-0.2 0.1s-0.066-0.05-0.1-0.149c-0.033-0.134 0.017-0.25 0.15-0.351 0.034-0.033 0.117-0.1 0.25-0.2h-0.4c0.067-0.133 0.3-0.3 0.7-0.5 0.033-0.033 0.066-0.1 0.1-0.199l0.6-0.2c0-0.033-0.15-0.101-0.45-0.2 0.367-0.366 0.867-0.55 1.5-0.55z" clip-rule="evenodd" fill="#875636" fill-rule="evenodd"/>
		<path d="m69.9 39.5l-0.15 0.05c-0.033-0.267 0.066-0.483 0.3-0.649l-0.3-0.051c0.5-0.399 0.917-0.5 1.25-0.3l-0.1 0.101h0.5c0.166 0.033 0.232 0.183 0.199 0.449-0.1-0.033-0.283-0.017-0.55 0.051l-0.5-0.051c-0.267 0.301-0.467 0.5-0.6 0.601l-0.049-0.201z" clip-rule="evenodd" fill="#875636" fill-rule="evenodd"/>
		<path d="m70.25 38.05l-0.2-0.1 0.3 0.05c0.033 0.134-0.066 0.233-0.3 0.3-0.233 0.033-0.383 0.05-0.45 0.05 0.033-0.3 0.25-0.4 0.65-0.3z" clip-rule="evenodd" fill="#875636" fill-rule="evenodd"/>
		<path d="m64.2 38.35l-0.35 0.05c0.5-0.033 0.583 0.05 0.25 0.25-0.3 0.199-0.55 0.183-0.75-0.051 0.133-0.165 0.417-0.249 0.85-0.249z" clip-rule="evenodd" fill="#875636" fill-rule="evenodd"/>
		<path d="m70.95 39.6l-0.101-0.1c0.167-0.033 0.367 0 0.601 0.1-0.033 0.268-0.367 0.317-1 0.15 0.033-0.167 0.2-0.217 0.5-0.15z" clip-rule="evenodd" fill="#875636" fill-rule="evenodd"/>
		<g clip-rule="evenodd" fill="#57351D" fill-rule="evenodd">
			<path d="m65.8 42.75c0.033-0.133 0.017-0.35-0.05-0.65 0.066 0.034 0.184 0.034 0.35 0v-0.45l0.15 0.1h-0.1c0.232 0.1 0.366 0.184 0.399 0.25 0.033 0 0.083 0.184 0.15 0.55 0.033 0.067 0.167 0.3 0.399 0.7 0.2 0.367 0.184 0.533-0.05 0.5 0.134 0.134 0.184 0.283 0.15 0.45-0.233 0.033-0.5 0-0.8-0.101-0.467-0.166-0.717-0.25-0.75-0.25h-1.148l-0.05 0.151c-0.067 0.1-0.25 0.15-0.55 0.15-0.333-0.033-0.55-0.051-0.65-0.051-0.633-0.166-1.1-0.267-1.4-0.3-0.367-0.033-0.633-0.066-0.8-0.1-0.3-0.101-0.55-0.25-0.75-0.45l-0.25-0.5c-0.333 0-0.566-0.05-0.7-0.15-0.133-0.232-0.317-0.383-0.55-0.449-0.566 0.066-1 0.066-1.3 0-0.467 0-0.717-0.15-0.75-0.45l1.8-0.15c-0.3-0.166-0.383-0.333-0.25-0.5 0.2-0.2 0.717-0.366 1.55-0.5 0.033 0.334 0.2 0.55 0.5 0.65 0.5 0.2 0.767 0.316 0.8 0.35l0.05 0.25 0.4 0.4c0.066-0.101 0.3-0.15 0.7-0.15 0-0.333 0.1-0.517 0.3-0.55 0.267 0 0.45-0.05 0.55-0.15l0.3-0.5c0.1-0.199 0.267-0.283 0.5-0.25l0.05 0.15c0.133 0.267 0 0.634-0.4 1.1-0.3 0.301-0.467 0.518-0.5 0.65-0.034 0.2 0.017 0.35 0.15 0.45 0.066 0.033 0.167 0.116 0.3 0.25h-0.3l0.05 0.1 0.3 0.101c0.066 0.033 0.2 0.05 0.4 0.05 0.2 0.066 0.333 0.133 0.4 0.2 0.866-0.067 1.3-0.25 1.3-0.551h-0.3c0.233-0.1 0.367-0.216 0.4-0.35z"/>
			<path d="m70.45 39.75l0.05 0.05c0.5 0 0.8 0.017 0.9 0.05l0.4 0.25c0.101 0.034 0.267 0.034 0.5 0l0.25 0.25 0.101 0.25c0.1 0.101 0.399 0.15 0.899 0.15h1.2c0.733 0.066 1.1 0.25 1.1 0.55-0.899-0.033-1.533 0.017-1.899 0.15l0.2-0.05c1.232 0 1.833 0.166 1.8 0.5-0.033 0.333-0.417 0.5-1.15 0.5-0.899 0.033-1.366 0.05-1.399 0.05 0.732 0.1 1.199 0.3 1.399 0.6-0.133 0.2-0.566 0.351-1.3 0.45-0.066 0.367-0.217 0.65-0.45 0.85 0.2 0.167 0.783 0.417 1.75 0.75 0.767 0.268 1.267 0.634 1.5 1.101-0.333 0.033-0.833 0.434-1.5 1.2-0.7 0.8-1.083 1.399-1.149 1.8-0.367 0.3-0.634 0.5-0.801 0.6-0.3 0.167-0.616 0.217-0.949 0.15 0.133-0.767 0.25-1.316 0.35-1.65-1.2-0.399-1.917-0.733-2.15-1 0.7-0.066 1.75-0.083 3.15-0.05-0.1-0.167-0.367-0.417-0.8-0.75-0.333-0.267-0.517-0.583-0.55-0.95 0.1-0.033 0.199-0.033 0.3 0-0.233-0.066-0.467-0.233-0.7-0.5-0.267-0.333-0.45-0.533-0.55-0.6l-0.102 0.049c-0.467 0.333-0.883 0.467-1.25 0.4-0.232-0.033-0.6-0.2-1.1-0.5-0.434-0.267-0.8-0.384-1.1-0.351 0.033-0.1 0.149-0.183 0.35-0.25 0.133-0.066 0.184-0.2 0.15-0.399l0.3 0.05c-0.134-0.134-0.2-0.267-0.2-0.4l0.5-0.1c-0.066-0.333-0.05-0.533 0.05-0.601 0.033-0.033 0.217-0.083 0.55-0.149l-0.5-0.25c-0.033-0.2 0.084-0.316 0.351-0.351 0.106 0 0.224 9e-3 0.35 0.025-0.123-0.04-0.206-0.115-0.25-0.225 0.233-0.167 0.417-0.184 0.55-0.051 0.268 0.134 0.518 0.317 0.75 0.551 0.2 0.199 0.317 0.3 0.351 0.3l0.148-0.099-0.199-0.05c-0.067-0.2-0.134-0.316-0.2-0.35-0.267-0.134-0.45-0.233-0.55-0.3-0.167-0.101-0.217-0.317-0.15-0.65 0.066-0.566 0.267-0.8 0.6-0.7 0.066-0.133 0.099-0.234 0.099-0.3z"/>
		</g>
		<path d="m72.75 40.75c0.233 0.233 0.316 0.5 0.25 0.8-0.033 0.134-0.15 0.283-0.35 0.45-0.033 0.1-0.018 0.3 0.05 0.6l-0.65 0.2-0.3 0.3c0.033 0.034 0.033 0.101 0 0.2l-0.65 0.25c-0.033 0.134-0.083 0.217-0.149 0.25-0.067 0.033-0.317 0.05-0.75 0.05h-1.3c0.1-0.033 0.383-0.083 0.85-0.149 0.367-0.134 0.434-0.351 0.2-0.65 0.1-0.133 0.267-0.2 0.5-0.2v-0.351c0.533 0.1 0.816 0.15 0.85 0.15-0.066-0.233-0.116-0.417-0.149-0.551 0.066 0.034 0.183 0.034 0.35 0 0.033-0.199-0.083-0.433-0.35-0.699 0.1 0.033 0.232 0.017 0.399-0.051-0.233-0.066-0.433-0.199-0.6-0.399 0.167-0.033 0.417-0.066 0.75-0.101l-0.65-0.35h0.4c0.133-0.1 0.366-0.116 0.7-0.05 0.299 0.068 0.499 0.168 0.599 0.301z" clip-rule="evenodd" fill="#4F301A" fill-rule="evenodd"/>
		<path d="m63.6 41.3l0.2 0.05c-0.4 0.233-0.633 0.551-0.7 0.95-0.067 0.233 0 0.467 0.2 0.7 0.2 0.267 0.284 0.483 0.25 0.65-0.233 0.033-0.5 0-0.8-0.101-0.3-0.1-0.533-0.183-0.7-0.25l-0.6-0.05-0.35-0.2c-0.2-0.066-0.383-0.2-0.55-0.399-0.233-0.267-0.333-0.517-0.3-0.75 0.533 0.467 1.217 0.633 2.05 0.5-0.033-0.167 0.017-0.283 0.15-0.351 0.066-0.033 0.167-0.083 0.3-0.149 0.033-0.033 0.1-0.134 0.2-0.301 0.133-0.099 0.35-0.199 0.65-0.299z" clip-rule="evenodd" fill="#4F301A" fill-rule="evenodd"/>
		<path d="m66.45 42.55l-0.101-0.2c0.2-0.033 0.417 0.134 0.65 0.5 0.267 0.4 0.316 0.717 0.15 0.95-0.067 0.101-0.233 0.117-0.5 0.05-0.268-0.066-0.434-0.166-0.5-0.3-0.033-0.133 0.017-0.283 0.149-0.45 0.136-0.2 0.185-0.383 0.152-0.55z" clip-rule="evenodd" fill="#4F301A" fill-rule="evenodd"/>
		<path d="m66.8 42.8c0.167 0.033 0.283 0.134 0.351 0.3 0.066 0.2 0.017 0.351-0.15 0.45-0.2 0.134-0.333 0.05-0.4-0.25-0.068-0.3-1e-3 -0.467 0.199-0.5z" clip-rule="evenodd" fill="#4A2C1C" fill-rule="evenodd"/>
		<path d="m62.7 42.5l0.2-0.2c0.1-0.2 0.25-0.3 0.45-0.3-0.367 0.367-0.5 0.634-0.4 0.8 0.033 0.067 0.167 0.134 0.4 0.2 0.167 0.033 0.216 0.167 0.15 0.4-1.167 0.1-1.867-0.117-2.1-0.65l1.3-0.1v-0.15z" clip-rule="evenodd" fill="#4A2C1C" fill-rule="evenodd"/>
		<path d="m67.7 41.45l-0.2 0.05c0.1 0 0.316-0.017 0.65-0.05 0.3 0.033 0.449 0.167 0.449 0.399 0.033 0.134 0.018 0.233-0.05 0.301-0.1 0.066-0.183 0.133-0.25 0.199-0.133 0.167-0.267 0.268-0.399 0.301-0.4 0.066-0.65-0.117-0.75-0.551-0.033-0.199-0.018-0.35 0.05-0.449 0.1-0.133 0.267-0.2 0.5-0.2z" clip-rule="evenodd" fill="#704326" fill-rule="evenodd"/>
		<path d="m67.7 42.8v0.1l0.1 0.05c0.033 0.167 0 0.3-0.1 0.399-0.101 0.101-0.184 0.084-0.25-0.05-0.134-0.266-0.05-0.432 0.25-0.499z" clip-rule="evenodd" fill="#704326" fill-rule="evenodd"/>
		<path d="m67.5 41.55h0.05c0.4 0 0.617 0.067 0.65 0.2 0.1 0.167 0.05 0.35-0.15 0.55-0.066 0.033-0.217 0.017-0.45-0.05h-0.2c-0.033 0-0.067-0.066-0.101-0.2-0.066-0.133-0.083-0.267-0.05-0.399l0.251-0.101z" clip-rule="evenodd" fill="#875636" fill-rule="evenodd"/>
		<path d="m69.65 41c0.093 0.015 0.193 0.064 0.3 0.15 0.167 0.133 0.233 0.283 0.2 0.449-0.167 0.068-0.334-0.132-0.5-0.599z" clip-rule="evenodd" fill="#875636" fill-rule="evenodd"/>
		<path d="m73.8 41.1v0.15l0.2 0.05 0.15 0.25c0.066 0.067 0.232 0.15 0.5 0.25 0.232 0.134 0.199 0.25-0.101 0.351-0.2 0.033-0.35 0.066-0.45 0.1-0.166 0.033-0.3 0.1-0.399 0.2-0.067 0.133-0.134 0.25-0.2 0.35-0.2 0.101-0.333 0.2-0.4 0.3-0.067 0.066-0.1 0.166-0.1 0.299l-0.05 0.149c0 0.033-0.167 0.101-0.5 0.2-0.333 0-0.517 0.05-0.55 0.15l-0.05 0.201c-0.033 0.034-0.133 0.051-0.3 0.051h-1.25c-0.033 0-0.1 0.05-0.2 0.149-0.133 0.067-0.3 0.084-0.5 0.05-0.267-0.033-0.449-0.05-0.55-0.05l-2.1-0.1c-0.434 0-0.733-0.033-0.9-0.101l-0.2-0.074c0.237 0.065 0.588 0.04 1.051-0.075 0.1 0 0.25 0.05 0.449 0.149 0.301-0.1 0.467-0.149 0.5-0.149 0.867 0.066 1.467 0.05 1.801-0.05l0.649-0.35h0.15l0.6-0.2 0.5-0.5 0.101-0.199 0.3-0.351c0.066-0.1 0.083-0.267 0.05-0.5-0.033-0.2-0.05-0.35-0.05-0.45 0-0.166 0.066-0.25 0.2-0.25h0.05c-0.033-0.333 0.217-0.466 0.75-0.399 0.499 0.066 0.782 0.199 0.849 0.399z" clip-rule="evenodd" fill="#4A2C1C" fill-rule="evenodd"/>
		<path d="m62.6 42.95l0.05-0.05c0.1-0.033 0.184 0 0.25 0.1 0.034 0.1 0 0.167-0.1 0.2-0.1 0.066-0.2 0.05-0.3-0.05-0.066-0.1-0.033-0.167 0.1-0.2z" clip-rule="evenodd" fill="#3B2316" fill-rule="evenodd"/>
		<path d="m66.9 43.05v-0.05c0.066 0 0.1 0.083 0.1 0.25h-0.2c0-0.133 0.033-0.2 0.1-0.2z" clip-rule="evenodd" fill="#3B2316" fill-rule="evenodd"/>
		<path d="m70.9 40.5c0.033 0.066 0.1 0.134 0.199 0.2 0.067 0.066 0.117 0.149 0.15 0.25 0.033 0.133 0.033 0.333 0 0.6 0.533 0 0.833 0.033 0.9 0.101 0.033 0.033 0.05 0.183 0.05 0.449 0 0.2-0.017 0.334-0.05 0.4l-0.4 0.4c0 0.1-0.033 0.183-0.1 0.25-0.2 0.267-0.417 0.366-0.65 0.3h-0.2c0.033-0.066 0.033-0.134 0-0.2-0.033-0.233-0.066-0.366-0.1-0.4l-0.299-0.15c-0.134-0.167-0.233-0.283-0.301-0.351-0.1-0.1-0.217-0.116-0.35-0.05-0.133-0.3-0.3-0.467-0.5-0.5v0.15c-0.7-0.267-1.117-0.4-1.25-0.4-0.434 0.101-0.767 0.167-1 0.2l0.95-0.35c0.433-0.267 0.899-0.301 1.399-0.101 0.233 0.101 0.634 0.367 1.2 0.8l0.3-0.149c0-0.167-0.1-0.25-0.3-0.25 0.167-0.066 0.233-0.233 0.2-0.5s-0.167-0.4-0.4-0.4c0-0.166-0.083-0.25-0.25-0.25-0.166-0.033-0.3-0.017-0.399 0.05h-0.2c0.066-0.399 0.333-0.616 0.8-0.649 0.4-0.033 0.75 0.033 1.05 0.2-0.033 0.1-0.1 0.183-0.199 0.25-0.1 0.034-0.183 0.067-0.25 0.1z" clip-rule="evenodd" fill="#3B2316" fill-rule="evenodd"/>
		<path d="m65.75 43.95l-0.1 0.05c0.033 0.2-0.051 0.283-0.25 0.25-0.2-0.066-0.334-0.116-0.4-0.15-0.333-0.033-0.583-0.066-0.75-0.1-0.3-0.066-0.517-0.2-0.65-0.4 0.133 0.067 0.283 0.117 0.45 0.15h0.45c0.3 0 0.717 0.066 1.25 0.2z" clip-rule="evenodd" fill="#3B2316" fill-rule="evenodd"/>
		<path d="m69.15 20.85c0.3-0.467 0.566-0.833 0.8-1.1l0.149-0.1c0.101 0.034 0.117 0.233 0.051 0.6-0.033 0.3-0.25 1.017-0.65 2.15-0.434 1.4-0.767 3.017-1 4.85-0.233 1.733-0.3 3.3-0.2 4.7 0 0.4 0.15 1.85 0.45 4.35 0.066 0.867 0.217 1.65 0.45 2.351 0.233 0.666 0.35 1.149 0.35 1.449l0.05 0.551-0.1 0.1c-0.1 0.066-0.167 0.184-0.2 0.35-0.033 0.101-0.05 0.184-0.05 0.25l-1.35 0.049c-0.301 0.033-0.551 0.133-0.75 0.3l-0.15 0.2-0.8-0.4c-0.2-0.1-0.434-0.133-0.7-0.1l-0.35 0.1-0.2-0.4c-0.101-0.199-0.3-0.366-0.601-0.5l-0.399-0.2 0.5-1.801c0.233-0.732 0.5-2.033 0.8-3.899 0.4-2.367 0.717-4.184 0.95-5.45 0.3-1.566 0.633-2.933 1-4.1l0.5-1.3c0.366-1.033 0.85-2.033 1.45-3z" clip-rule="evenodd" fill="#809E39" fill-rule="evenodd"/>
		<path d="m69.95 19.75l0.149-0.1c0.101 0.034 0.117 0.233 0.051 0.6-0.033 0.3-0.25 1.017-0.65 2.15-0.434 1.4-0.767 3.017-1 4.85-0.233 1.733-0.3 3.3-0.2 4.7 0 0.4 0.15 1.85 0.45 4.35 0.066 0.867 0.217 1.65 0.45 2.351 0.233 0.666 0.35 1.149 0.35 1.449l0.05 0.551-0.1 0.1c-0.1 0.066-0.167 0.184-0.2 0.35-0.033 0.101-0.05 0.184-0.05 0.25l-1.35 0.049c-0.301 0.033-0.551 0.133-0.75 0.3l-0.15 0.2-0.8-0.4c-0.2-0.1-0.434-0.133-0.7-0.1l-0.35 0.1-0.2-0.4c-0.101-0.199-0.3-0.366-0.601-0.5l-0.399-0.2 0.3-1.101c0.167 0.101 0.267 0.233 0.3 0.4 0.067-0.101 0.184-0.601 0.351-1.5 0.033-0.101 0.232-0.816 0.6-2.15 0.066 0.733 0.066 1.834 0 3.3l0.25-0.5c0.066-0.232 0.184-0.316 0.35-0.25 0.167 0.534 0.367 0.634 0.601 0.301 0.167-0.301 0.25-0.634 0.25-1 0-0.067-0.017-0.384-0.05-0.95-0.033-0.333-0.018-0.617 0.05-0.851 0.2-0.5 0.267-1.116 0.2-1.85-0.067-0.833-0.101-1.467-0.101-1.9 0-0.6 0.117-1.55 0.351-2.85 0.232-1.367 0.35-2.333 0.35-2.9 0-0.5 0.1-1.05 0.3-1.65 0.3-0.667 0.5-1.2 0.601-1.6 0.199-0.733 0.25-1.233 0.149-1.5l-0.1-0.2c0.431-0.799 0.848-1.432 1.248-1.899z" clip-rule="evenodd" fill="#748F34" fill-rule="evenodd"/>
		<path d="m69.95 19.75l0.149-0.1c0.101 0.034 0.117 0.233 0.051 0.6-0.033 0.3-0.25 1.017-0.65 2.15-0.434 1.4-0.767 3.017-1 4.85-0.233 1.733-0.3 3.3-0.2 4.7 0 0.4 0.15 1.85 0.45 4.35 0.066 0.867 0.217 1.65 0.45 2.351 0.233 0.666 0.35 1.149 0.35 1.449l0.05 0.551-0.1 0.1c-0.1 0.066-0.167 0.184-0.2 0.35-0.033 0.101-0.05 0.184-0.05 0.25l-1.35 0.049c-0.301 0.033-0.551 0.133-0.75 0.3l-0.15 0.2-0.8-0.4c-0.2-0.1-0.434-0.133-0.7-0.1l-0.35 0.1-0.2-0.4c-0.101-0.199-0.3-0.366-0.601-0.5l-0.399-0.2v-0.05c0.133 0 0.316 0.018 0.55 0.051 0.066 0 0.184-0.067 0.35-0.2 0.101-0.134 0.2-0.2 0.301-0.2 0 0.767 0.217 1.1 0.649 1 0.067-0.533 0.233-0.934 0.5-1.2 0.2 0.5 0.317 0.834 0.351 1 0.066-0.3 0.166-0.517 0.3-0.649 0.033 0 0.2 0.149 0.5 0.449 0.033-0.133 0.116-0.283 0.25-0.449 0.1-0.101 0.233-0.233 0.399-0.4l0.1 0.448c0.133-1 0.167-1.75 0.1-2.25-0.167-0.333-0.3-0.617-0.4-0.85-0.2-0.399-0.184-0.633 0.05-0.699 0.033-0.733 0.017-1.267-0.05-1.601l-0.3-0.7c-0.066-0.267-0.083-0.833-0.05-1.7 0-0.9 0.05-1.45 0.15-1.65l0.2 0.3c0.1-0.4 0.149-0.95 0.149-1.65v-1.65c0.067-0.933 0.25-1.867 0.55-2.8 0.4-1 0.634-1.784 0.7-2.35 0.067-0.434 0.017-0.767-0.149-1-0.033-0.033-0.134-0.1-0.301-0.2 0.401-0.7 0.768-1.25 1.101-1.65z" clip-rule="evenodd" fill="#61782C" fill-rule="evenodd"/>
		<path d="m68.45 22.95c-0.033 0.367-0.184 0.816-0.45 1.35-0.267 0.6-0.434 1.05-0.5 1.35-0.066 0.233-0.05 0.883 0.05 1.95 0.033 0.933-0.066 1.533-0.3 1.8l-0.2-0.4c-0.233 0.533-0.467 1.367-0.7 2.5l-0.05-0.35c-0.2 1-0.3 2.484-0.3 4.45 0 0.167 0.033 0.434 0.1 0.801 0 0.333-0.033 0.6-0.1 0.8-0.233-0.934-0.35-1.65-0.35-2.15v-2.6l0.55-3.2c0.433-2.233 0.866-3.883 1.3-4.95v0.15c0.267-0.701 0.583-1.201 0.95-1.501z" clip-rule="evenodd" fill="#90B340" fill-rule="evenodd"/>
		<g clip-rule="evenodd" fill="#506324" fill-rule="evenodd">
			<path d="m68.75 36.3c0.066 0.867 0.217 1.65 0.45 2.351 0.233 0.666 0.35 1.149 0.35 1.449l0.05 0.551-0.1 0.1c-0.1 0.066-0.167 0.184-0.2 0.35-0.033 0.101-0.05 0.184-0.05 0.25l-1.35 0.049c-0.301 0.033-0.551 0.133-0.75 0.3l-0.15 0.2-0.8-0.4c-0.134-0.066-0.351-0.1-0.65-0.1l0.4-0.101c0.1 0.033 0.2 0.084 0.3 0.15 0.133 0.1 0.233 0.149 0.3 0.149 0.233 0 0.533-0.166 0.9-0.5l0.1 0.15 0.4-0.3c0.333 0.434 0.55 0.283 0.649-0.45v-1.5c-0.166-1.167-0.267-2.05-0.3-2.65l-0.299-2.198c-0.2-1.2-0.184-2.05 0.05-2.55l0.15 0.15c0-0.2 0.033-0.3 0.1-0.3 0 0.367 0.15 1.984 0.45 4.85z"/>
			<path d="m69.15 20.85l0.75-1.05 0.05-0.05 0.149-0.1c0.101 0.034 0.117 0.233 0.051 0.6l-0.2 0.7-0.2 0.55c-0.5 1.467-0.867 2.967-1.1 4.5-0.101-0.267-0.067-0.6 0.1-1 0.3-1.033 0.45-1.717 0.45-2.05v-0.55l-0.1-0.8c-0.066 0-0.166-0.033-0.3-0.1l0.35-0.65z"/>
		</g>
		<path d="m79.9 21.15c-0.233 0.467-0.584 0.9-1.051 1.3-0.866 0.8-1.816 1.066-2.85 0.8-0.8-0.2-1.583-0.667-2.35-1.4-0.733-0.667-1.533-1.083-2.4-1.25-0.767-0.167-1.367-0.184-1.8-0.05l-0.449 0.2c-0.066-0.367-0.083-0.783-0.05-1.25 0.1-0.967 0.45-1.7 1.05-2.2 0.8-0.667 1.733-0.966 2.8-0.9 1.067 0.067 1.967 0.517 2.7 1.35 0.934 1 1.583 1.617 1.95 1.85 0.566 0.367 1.183 0.433 1.85 0.2 0.4-0.167 0.634-0.466 0.7-0.9l0.15 0.65c0.034 0.533-0.05 1.067-0.25 1.6z" clip-rule="evenodd" fill="#546921" fill-rule="evenodd"/>
		<path d="m79.85 20c-0.232 0.434-0.566 0.833-1 1.2-0.866 0.767-1.816 1.017-2.85 0.75-0.8-0.2-1.55-0.65-2.25-1.35-0.7-0.667-1.467-1.083-2.3-1.25-0.8-0.167-1.45-0.167-1.95 0l-0.55 0.25c-0.101-0.367-0.134-0.783-0.101-1.25 0.033-0.9 0.334-1.583 0.9-2.05 0.833-0.667 1.8-0.966 2.9-0.9 1.1 0.067 2.033 0.483 2.8 1.25 0.533 0.534 1.149 1.184 1.85 1.95 0.567 0.467 1.167 0.583 1.8 0.35 0.4-0.167 0.634-0.434 0.7-0.8l0.2 0.5c0.101 0.4 0.051 0.85-0.149 1.35z" clip-rule="evenodd" fill="#A2BF56" fill-rule="evenodd"/>
		<path d="m79.9 20.85c-0.233 0.433-0.584 0.833-1.051 1.2-0.866 0.767-1.816 1.017-2.85 0.75-0.8-0.2-1.55-0.65-2.25-1.35-0.667-0.7-1.434-1.133-2.3-1.3-0.8-0.133-1.45-0.133-1.95 0l-0.5 0.3c-0.066-0.333-0.083-0.733-0.05-1.2 0.1-0.867 0.45-1.533 1.05-2 0.8-0.667 1.733-0.95 2.8-0.85 1.067 0.067 1.967 0.483 2.7 1.25 0.967 0.967 1.617 1.55 1.95 1.75 0.566 0.333 1.183 0.383 1.85 0.15 0.4-0.133 0.634-0.4 0.7-0.8l0.15 0.6c0.035 0.467-0.049 0.967-0.249 1.5z" clip-rule="evenodd" fill="#809E39" fill-rule="evenodd"/>
		<path d="m72.7 16.9c0.133 0 0.399-0.017 0.8-0.05 0.4 0.033 0.633 0.117 0.7 0.25-0.667 0-1.117 0.117-1.351 0.35 0.467 0.033 0.834 0.15 1.101 0.35l0.55 0.35c0.233 0.133 0.4 0.267 0.5 0.4 0.2 0.267 0.4 0.833 0.6 1.7 0.135 0.617 0.326 1.084 0.575 1.4-0.154-0.148-0.362-0.332-0.625-0.55-0.333-0.267-0.583-0.533-0.75-0.8-0.333-0.633-0.6-1.083-0.8-1.35-0.333-0.4-0.75-0.583-1.25-0.55 0.066 0.4-0.033 0.583-0.3 0.55-0.033 0.233 0.083 0.566 0.35 1 0.333 0.433 0.5 0.75 0.5 0.95-0.2-0.033-0.616-0.183-1.25-0.45-0.533-0.2-1.066-0.3-1.6-0.3-0.033 0-0.45 0.05-1.25 0.15l-0.25-0.05c-0.101-1.3 0.25-2.283 1.05-2.95 0.333-0.267 0.65-0.466 0.95-0.6l0.149 0.05-0.1 0.4c0.134-0.067 0.701-0.15 1.701-0.25z" clip-rule="evenodd" fill="#728C33" fill-rule="evenodd"/>
		<path d="m77.7 19.55c0.233 0.1 0.383 0.2 0.45 0.3 0.066 0.066 0.149 0.233 0.25 0.5 0.066 0.1 0.217 0.3 0.449 0.6 0.2 0.233 0.317 0.45 0.351 0.65-0.797 0-1.422-0.242-1.875-0.725 0.163 0.276 0.354 0.634 0.575 1.075-0.268-0.034-0.684-0.333-1.25-0.9-0.634-0.6-0.801-1-0.5-1.2-0.233-0.267-0.334-0.5-0.301-0.7 0.033 0.034 0.134 0.034 0.301 0-0.301-0.433-0.45-0.767-0.45-1l0.149 0.3c0.868 0.6 1.484 0.967 1.851 1.1z" clip-rule="evenodd" fill="#728C33" fill-rule="evenodd"/>
		<path d="m70.45 17.45c0.233-0.034 0.633-0.117 1.2-0.25 0.5-0.1 0.899-0.083 1.199 0.05-1.199 0-1.8 0.434-1.8 1.3 0 0.3 0.033 0.684 0.101 1.15-0.033 0.333-0.334 0.483-0.9 0.45h-0.1c-0.334-0.233-0.567-0.517-0.7-0.85-0.167-0.4-0.15-0.783 0.05-1.15l0.55-0.55c0.167-0.167 0.4-0.434 0.7-0.8l-0.3 0.65z" clip-rule="evenodd" fill="#62782C" fill-rule="evenodd"/>
		<path d="m76.55 19.5c0.134 0.1 0.367 0.283 0.7 0.55 0.167 0.067 0.434 0.1 0.8 0.1-0.267 0.133-0.6 0.133-1 0-0.399-0.133-0.667-0.333-0.8-0.6l-0.1 0.2c-0.167 0.033-0.25-0.017-0.25-0.15 0-0.1 0.05-0.2 0.149-0.3 0.101-0.066 0.351-0.1 0.75-0.1-0.032 0.167-0.115 0.267-0.249 0.3z" clip-rule="evenodd" fill="#62782C" fill-rule="evenodd"/>
		<path d="m73.375 17.8c0.264-0.012 0.556 0.055 0.875 0.2 0.467 0.2 0.7 0.45 0.7 0.75-0.2-0.033-0.517-0.217-0.95-0.55-0.23-0.189-0.439-0.322-0.625-0.4z" clip-rule="evenodd" fill="#62782C" fill-rule="evenodd"/>
		<path d="m71.45 18c0.797 9e-3 1.13 0.226 1 0.65-0.134 0-0.3-0.083-0.5-0.25-0.233-0.167-0.417-0.267-0.55-0.3l0.05-0.1z" clip-rule="evenodd" fill="#62782C" fill-rule="evenodd"/>
		<path d="m79.3 19.55c0.333-0.133 0.533-0.333 0.601-0.6 0 0.333-0.051 0.816-0.15 1.45-0.267 0.1-0.367-0.05-0.3-0.45-0.167 0.433-0.351 0.7-0.55 0.8-0.067-0.167-0.067-0.35 0-0.55l-0.45-0.05 0.05-0.1-0.25-0.15c-0.1-0.066-0.15-0.15-0.15-0.25 0.333 0.1 0.732 0.067 1.199-0.1z" clip-rule="evenodd" fill="#8FAD43" fill-rule="evenodd"/>
		<path d="m64.35 17.8l5.101 2.7c-0.833 0.6-1.983 0.833-3.45 0.7-0.767-0.1-1.8-0.434-3.1-1-1.333-0.6-2.267-0.934-2.8-1-0.7-0.067-1.6 0.117-2.7 0.55l-1.375 0.625c0.031-0.045 0.073-0.12 0.125-0.225 0.067-0.167 0.5-0.517 1.3-1.05 0.833-0.533 1.55-0.934 2.15-1.2 0.533-0.233 1.25-0.333 2.15-0.3 0.499 0.033 1.366 0.1 2.599 0.2z" clip-rule="evenodd" fill="#546921" fill-rule="evenodd"/>
		<path d="m62.5 14.35c1.333-0.133 2.417-0.1 3.25 0.1 0.767 0.167 1.434 0.45 2 0.85 0.267 0.2 0.65 0.434 1.15 0.7 0.467 0.4 0.85 1.067 1.149 2l0.15 1.15c-0.233 0.2-0.634 0.367-1.2 0.5-0.8 0.233-1.667 0.284-2.6 0.15-0.601-0.066-1.317-0.283-2.15-0.65-0.934-0.433-1.633-0.75-2.1-0.95-1-0.367-2.117-0.317-3.35 0.15-1.133 0.467-2.05 1.133-2.75 2 0.034-0.567 0.4-1.367 1.1-2.4 0.567-0.9 1.117-1.6 1.65-2.1 0.934-0.833 2.168-1.333 3.701-1.5z" clip-rule="evenodd" fill="#A2BF56" fill-rule="evenodd"/>
		<path d="m70.15 20.1c-0.233 0.2-0.634 0.367-1.2 0.5-0.8 0.233-1.65 0.3-2.55 0.2-0.634-0.066-1.367-0.283-2.2-0.65-0.934-0.433-1.634-0.75-2.1-0.95-1.067-0.434-2.184-0.55-3.35-0.35-1.2 0.233-2.133 0.75-2.8 1.55 0.133-0.433 0.533-1.05 1.2-1.85 0.6-0.7 1.15-1.267 1.65-1.7 0.934-0.9 2.15-1.4 3.65-1.5 1.333-0.133 2.417-0.117 3.25 0.05 0.767 0.167 1.45 0.467 2.05 0.9 0.233 0.167 0.6 0.384 1.1 0.65 0.5 0.4 0.884 1.083 1.15 2.05 0.1 0.4 0.15 0.767 0.15 1.1z" clip-rule="evenodd" fill="#809E39" fill-rule="evenodd"/>
			<path d="m68.65 17.7c-0.033-0.067-0.2-0.25-0.5-0.55-0.334-0.433-0.567-0.466-0.7-0.1l-0.05 0.5c-0.067 0.467-0.167 0.817-0.301 1.05-0.399 0.733-0.982 1.133-1.75 1.2 0.667-0.6 1.067-1.183 1.2-1.75 0.167-0.667 0.184-1.066 0.05-1.2-0.033-0.033-0.333-0.05-0.899-0.05-0.467 0-0.733 0.017-0.8 0.05-0.233 0.066-0.384 0.167-0.45 0.3 0 0.3-0.05 0.517-0.15 0.65-0.066 0.067-0.2 0.134-0.4 0.2-0.267 0.067-0.433 0.133-0.5 0.2 0.3-0.6 0.367-1.017 0.2-1.25-0.2-0.267-0.767-0.267-1.7 0-0.533 0.1-1.267 0.367-2.2 0.8-0.2 0.1-0.534 0.167-1 0.2-0.157 0.024-0.299 0.049-0.425 0.075 0.107-0.033 0.232-0.074 0.375-0.125l0.75-0.45c0.333-0.167 0.883-0.35 1.65-0.55 0.7-0.267 1.117-0.4 1.25-0.4 0.634-0.066 1.567-0.117 2.8-0.15 0.467 0 1.167 0.033 2.101 0.1l-0.3-0.2c-0.301-0.066-0.518-0.117-0.65-0.15l-1.05-0.4c-0.333-0.167-0.851-0.25-1.55-0.25-0.3 0.033-0.533 0.05-0.7 0.05-0.333 0-0.567-0.033-0.7-0.1l0.25-0.05c1.333-0.133 2.4-0.117 3.2 0.05 0.767 0.167 1.45 0.467 2.05 0.9 0.233 0.167 0.6 0.384 1.1 0.65 0.5 0.4 0.884 1.083 1.15 2.05 0.1 0.4 0.15 0.767 0.15 1.1-0.601 0.467-1.483 0.717-2.65 0.75l0.2-0.15c0.1-0.133 0.217-0.367 0.35-0.7 0.101-0.066 0.25-0.1 0.45-0.1 0.2 0.034 0.333 0 0.4-0.1 0.133-0.167 0.133-0.4 0-0.7-0.167-0.367-0.25-0.583-0.25-0.65h0.149c0.033-0.3-0.017-0.55-0.15-0.75z" clip-rule="evenodd" fill="#728C33" fill-rule="evenodd"/>
		<path d="m68.7 17.5c-0.101-0.2-0.167-0.35-0.2-0.45-0.066-0.1-0.2-0.167-0.4-0.2-0.566-0.1-0.899-0.05-1 0.15-0.1 0.2-0.199 0.567-0.3 1.1-0.066 0.167-0.167 0.4-0.3 0.7-0.1 0.267-0.25 0.467-0.45 0.6-0.467 0.333-0.8 0.483-1 0.45 0-0.033 0.15-0.3 0.45-0.8l0.65-1.2c0.399-0.533 0.55-0.867 0.449-1-0.033-0.067-0.199-0.1-0.5-0.1l-1.35-0.1c-0.566-0.1-1-0.167-1.3-0.2l3.25 0.1c0.1 0.034 0.267 0.05 0.5 0.05 0.267 0 0.417-0.017 0.45-0.05 0.066-0.1 0.066-0.183 0-0.25-0.101-0.066-0.167-0.116-0.2-0.15l0.3 0.15c0.233 0.167 0.6 0.384 1.1 0.65 0.5 0.4 0.884 1.083 1.15 2.05 0.1 0.4 0.15 0.767 0.15 1.1-0.268 0.267-0.9 0.5-1.9 0.7l0.05-0.1 0.5-0.4 0.5-0.2c0.134-0.133 0.2-0.333 0.2-0.6-0.066-0.3-0.117-0.533-0.15-0.7l-0.1-0.55c-0.232-0.3-0.416-0.55-0.549-0.75z" clip-rule="evenodd" fill="#62782C" fill-rule="evenodd"/>
		<path d="m63.95 17.1c0 0.8-0.3 1.267-0.9 1.4 0.367-0.2 0.55-0.55 0.55-1.05 0.033-0.233 0.05-0.383 0.05-0.45 0.034-0.1 0.117-0.05 0.25 0.15l0.05-0.05z" clip-rule="evenodd" fill="#62782C" fill-rule="evenodd"/>
		<path d="m65.05 15.5l0.101-0.05c1 0.167 1.3 0.367 0.899 0.6-0.133 0.067-0.383 0.017-0.75-0.15-0.1-0.033-0.2-0.1-0.3-0.2s-0.083-0.167 0.05-0.2z" clip-rule="evenodd" fill="#62782C" fill-rule="evenodd"/>
		<path d="m62.85 17h-0.05l0.2 0.1c0.033 0.4-0.1 0.717-0.4 0.95-0.267 0.2-0.467 0.317-0.6 0.35-0.233 0.067-0.583 0.067-1.05 0 0.066-0.066 0.216-0.133 0.45-0.2 0.1-0.067 0.184-0.184 0.25-0.35l0.2-0.45v-0.2c0.167-0.233 0.5-0.3 1-0.2z" clip-rule="evenodd" fill="#8FAD43" fill-rule="evenodd"/>
		<path d="m65.75 17.05h0.05c0.267-0.033 0.351 0.134 0.25 0.5-0.1 0.267-0.217 0.5-0.35 0.7-0.3 0.434-0.55 0.717-0.75 0.85-0.333 0.2-0.7 0.217-1.1 0.05 0.233-0.066 0.433-0.183 0.6-0.35 0.1-0.1 0.267-0.283 0.5-0.55 0.2-0.167 0.316-0.35 0.35-0.55v-0.2l0.45-0.45z" clip-rule="evenodd" fill="#8FAD43" fill-rule="evenodd"/>
		<path d="m68.1 17.5l0.101 0.2c0.3 0.3 0.25 0.783-0.15 1.45l-0.45 0.7c-0.232 0.233-0.732 0.3-1.5 0.2 0.067-0.2 0.301-0.35 0.7-0.45 0.2-0.133 0.317-0.25 0.351-0.35l0.05-0.35c0.366-0.3 0.583-0.617 0.649-0.95-0.033-0.133-0.033-0.233 0-0.3-1e-3 -0.133 0.083-0.183 0.249-0.15z" clip-rule="evenodd" fill="#8FAD43" fill-rule="evenodd"/>
		<path d="m68.4 19.35c0.199-0.1 0.333-0.133 0.399-0.1-0.033 0.367-0.2 0.533-0.5 0.5l0.101-0.4z" clip-rule="evenodd" fill="#8FAD43" fill-rule="evenodd"/>
		<path d="m62.6 18.2h0.05c0 0.167-0.05 0.316-0.15 0.45s-0.217 0.167-0.35 0.1c-0.167-0.066-0.133-0.167 0.1-0.3 0.163-0.102 0.28-0.185 0.35-0.25z" clip-rule="evenodd" fill="#8FAD43" fill-rule="evenodd"/>
		<path d="m60.25 17.7l-0.45 0.2h0.55c0.1 0.3-0.15 0.517-0.75 0.65-0.367 0.1-0.733 0.15-1.1 0.15 0-0.133 0.283-0.333 0.85-0.6 0.267-0.133 0.567-0.267 0.9-0.4z" clip-rule="evenodd" fill="#8FAD43" fill-rule="evenodd"/>
		<path d="m58.05 18.25l-0.25 0.2c0.1-0.067 0.233-0.067 0.4 0 0 0.167-0.15 0.333-0.45 0.5-0.267 0.167-0.483 0.233-0.65 0.2 0.1-0.233 0.417-0.533 0.95-0.9z" clip-rule="evenodd" fill="#8FAD43" fill-rule="evenodd"/>
		<path d="m63.65 16c-0.367-0.033-0.65-0.05-0.85-0.05-0.366-0.034-0.65 0-0.85 0.1 0.033 0.067 0.1 0.117 0.2 0.15s0.167 0.1 0.2 0.2c-1.1 0-1.767 0.034-2 0.1l0.4 0.35c-0.833-0.033-1.45 0.033-1.85 0.2 0.067 0.034 0.184 0.083 0.35 0.15-0.5 0.333-0.883 0.566-1.15 0.7 0 0.1-0.117 0.2-0.35 0.3-0.267 0.1-0.417 0.183-0.45 0.25l-0.15 0.4c-0.2 0.4-0.566 0.833-1.1 1.3 0.2-0.466 0.617-1.05 1.25-1.75 0.534-0.633 1.034-1.15 1.5-1.55 0.934-0.9 2.15-1.4 3.65-1.5l0.2-0.05 1.05 0.3c0.233 0.033 0.583 0.066 1.05 0.1-0.033 0.033-0.233 0.1-0.6 0.2 0.033 0.067 0.149 0.133 0.35 0.2l-0.85-0.1z" clip-rule="evenodd" fill="#A2BF56" fill-rule="evenodd"/>
		<path d="m73.55 41.85l-0.1 0.2c0.1 0.2 0.083 0.367-0.05 0.5-0.2 0.2-0.301 0.317-0.301 0.351v0.3c-0.033 0.066-0.133 0.1-0.3 0.1s-0.267 0.033-0.3 0.101c0 0.033-0.017 0.083-0.05 0.149 0 0.033-0.05 0.067-0.15 0.101l-0.35 0.05-0.05 0.1c-0.067 0.033-0.167 0.05-0.301 0.05h-0.3l-0.6 0.301c-0.101 0.033-0.351 0.05-0.75 0.05-0.601 0-1.033-0.033-1.3-0.101 0.467 0 0.833-0.033 1.1-0.1 0.167-0.033 0.417-0.066 0.75-0.1 0.2-0.101 0.316-0.15 0.35-0.15l0.4-0.05c0.267-0.101 0.5-0.25 0.7-0.45l0.35-0.4c0.167-0.1 0.267-0.199 0.3-0.3v-0.2c0-0.232 0.084-0.35 0.25-0.35l0.2-0.05c0.067-0.033 0.083-0.117 0.05-0.25l-0.05-0.05 0.05-0.301c0.033-0.033 0.117 0.018 0.25 0.15 0.169 0.166 0.235 0.282 0.202 0.349z" clip-rule="evenodd" fill="#3B2316" fill-rule="evenodd"/>
</svg>
