<?xml version="1.0" encoding="utf-8"?>
<!-- Generator: Adobe Illustrator 16.0.0, SVG Export Plug-In . SVG Version: 6.00 Build 0)  -->
<!DOCTYPE svg PUBLIC "-//W3C//DTD SVG 1.1//EN" "http://www.w3.org/Graphics/SVG/1.1/DTD/svg11.dtd">
<svg version="1.1" id="图层_1" xmlns="http://www.w3.org/2000/svg" xmlns:xlink="http://www.w3.org/1999/xlink" x="0px" y="0px"
	 width="1000px" height="1000px" viewBox="0 0 1000 1000" enable-background="new 0 0 1000 1000" xml:space="preserve">
<path fill="#D7DF23" d="M380.833,282.884c0-77.004-76.113-139.427-170-139.427S40.817,205.884,40.817,282.884
	c0,59.783,45.882,110.77,110.337,130.588l-18.785,68.219l82.195-59.419c92.166-1.633,166.266-63.399,166.266-139.383
	L380.833,282.884z"/>
<path fill="#F99BA7" d="M857.128,118.687H559.562c-11.045,0-20,8.955-20,20v238.851c0,11.045,8.955,20,20,20h79.715L695.5,450.5
	l-1.908-52.962h163.531c11.046,0,20-8.955,20-20V138.687c0.017-11.041-8.949-19.996-19.983-19.996L857.128,118.687z"/>
<polygon fill="#9FE0F4" points="12.545,524.2 403.3,594.25 380.833,804.367 196.866,832.017 86.267,914.967 141.567,822.801 
	12.545,765.667 "/>
<polygon fill="#FBB040" points="490.5,606.183 523.666,843.367 704.749,805.117 804.216,914.967 768.5,792.367 885.833,719.584 
	827.166,524.2 "/>
<text transform="matrix(1 0 0 1 574.5002 192.4998)"><tspan x="0" y="0" fill="#FFFFFF" font-family="'HappyZcool-2016'" font-size="36">你的背包里</tspan><tspan x="0" y="43.2" fill="#FFFFFF" font-family="'HappyZcool-2016'" font-size="36">什么也没有</tspan><tspan x="0" y="86.4" fill="#FFFFFF" font-family="'HappyZcool-2016'" font-size="36">快去商店Shopping </tspan><tspan x="0" y="129.6" fill="#FFFFFF" font-family="'HappyZcool-2016'" font-size="36">吧~</tspan></text>
</svg>
