<?xml version="1.0" encoding="UTF-8"?>
<!DOCTYPE svg  PUBLIC '-//W3C//DTD SVG 1.1//EN'  'http://www.w3.org/Graphics/SVG/1.1/DTD/svg11.dtd'>
<svg enable-background="new 0 0 600 600" version="1.1" viewBox="0 0 600 600" xml:space="preserve" xmlns="http://www.w3.org/2000/svg">
<path d="m277.7 167.33c0-46.202-45.668-83.656-102-83.656s-102.01 37.456-102.01 83.656c0 35.87 27.529 66.462 66.202 78.353l-11.271 40.931 49.317-35.651c55.3-0.98 99.76-38.04 99.76-83.63z" fill="#D7DF23"/>
<path d="m547.49 83.672h-178.54c-6.627 0-12 5.373-12 12v143.31c0 6.627 5.373 12 12 12h47.829l-4.666 42.577 37.255-42.577h98.119c6.627 0 12-5.373 12-12v-143.31c0.01-6.625-5.37-11.998-11.99-11.998z" fill="#F99BA7"/>
<polygon points="56.727 312.12 291.18 354.15 277.7 480.22 167.32 496.81 100.96 546.58 134.14 491.28 56.727 457" fill="#9FE0F4"/>
<polygon points="343.5 361.31 363.4 503.62 472.05 480.67 531.73 546.58 510.3 473.02 580.7 429.35 545.5 312.12" fill="#FBB040"/>
</svg>
