<?xml version="1.0" encoding="UTF-8"?>
<svg viewBox="0 0 744.09448819 1052.3622047" xmlns="http://www.w3.org/2000/svg" xmlns:xlink="http://www.w3.org/1999/xlink">
 <g transform="matrix(.89997 -.43596 .43596 .89997 -89.529 124.98)">
  <path d="m257.08 358.91c58.636-117.15 126.8-177.88 205.79-3.8614l-1.6489-3.4323" fill="none" stroke="#fff03e" stroke-width="9.6556"/>
  <path d="m252.06 355.38c89.722-26.154 157.36-32.841 214.75 4.6587l-82.972 41.928h-41.486z" fill="#ff0"/>
  <path d="m253.06 355.7c113.11 29.58 158.39 10.316 215.06-0.74457l-3.2183 216.78c-58.991 19.997-125.08 29.701-210.1-3.2868z" fill="#ff0"/>
  <path d="m314.05 438.21-137.28-73.011-4.2241 25.176 129.09 121.71c15.907-15.053 29.667-32.472 12.416-73.875z" fill="#ffd700"/>
  <path transform="matrix(1 0 0 .84183 61.771 9.3103)" d="m138.47 446.88c0 29.894-9.581 54.129-21.4 54.129s-21.4-24.234-21.4-54.129 9.581-54.129 21.4-54.129 21.4 24.234 21.4 54.129z" fill="#f0e68c"/>
  <path transform="matrix(.3125 0 0 .28 154.66 263.76)" d="m74.769 352.74c0 12.29-3.1881 22.253-7.1209 22.253s-7.1209-9.9629-7.1209-22.253 3.1881-22.253 7.1209-22.253 7.1209 9.9629 7.1209 22.253z" fill="#f5fffa"/>
  <path transform="matrix(.3125 0 0 .28 163.56 271.77)" d="m74.769 352.74c0 12.29-3.1881 22.253-7.1209 22.253s-7.1209-9.9629-7.1209-22.253 3.1881-22.253 7.1209-22.253 7.1209 9.9629 7.1209 22.253z" fill="#f5fffa"/>
  <path transform="matrix(.3125 0 0 .28 145.76 273.55)" d="m74.769 352.74c0 12.29-3.1881 22.253-7.1209 22.253s-7.1209-9.9629-7.1209-22.253 3.1881-22.253 7.1209-22.253 7.1209 9.9629 7.1209 22.253z" fill="#f5fffa"/>
  <path transform="matrix(.3125 0 0 .28 144.87 295.8)" d="m74.769 352.74c0 12.29-3.1881 22.253-7.1209 22.253s-7.1209-9.9629-7.1209-22.253 3.1881-22.253 7.1209-22.253 7.1209 9.9629 7.1209 22.253z" fill="#f5fffa"/>
  <path transform="matrix(.3125 0 0 .28 153.77 286.01)" d="m74.769 352.74c0 12.29-3.1881 22.253-7.1209 22.253s-7.1209-9.9629-7.1209-22.253 3.1881-22.253 7.1209-22.253 7.1209 9.9629 7.1209 22.253z" fill="#f5fffa"/>
  <path transform="matrix(.3125 0 0 .28 166.23 292.24)" d="m74.769 352.74c0 12.29-3.1881 22.253-7.1209 22.253s-7.1209-9.9629-7.1209-22.253 3.1881-22.253 7.1209-22.253 7.1209 9.9629 7.1209 22.253z" fill="#f5fffa"/>
  <path transform="matrix(.3125 0 0 .28 156.44 307.38)" d="m74.769 352.74c0 12.29-3.1881 22.253-7.1209 22.253s-7.1209-9.9629-7.1209-22.253 3.1881-22.253 7.1209-22.253 7.1209 9.9629 7.1209 22.253z" fill="#f5fffa"/>
  <path d="m399.47 376.37c17.725 59.598 15.764 129.58 1.3813 207.16 19.437-0.57573 37.207-5.3852 51.893-19.759-1.8669-68.883-1.5272-136.96 3.3609-203.91-15.89 7.2905-33.43 13.595-56.635 16.514z" fill="#f0e68c" opacity=".7004"/>
  <path d="m384.84 337.49c-9.1093 4.9518 41.202-10.407-121.95 17.167 50.013 10.957 101.39 13.377 129.64 12.321-13.202-10.587-15.361-16.777-7.6963-29.488z" fill="#ffd700" opacity=".754"/>
  <path d="m267.12 353.49c62.509 8.6505 125.02 15.104 187.53 6.5417-12.228-5.1582-19.023-5.3861-19.625-25.076l-10.903 15.264c-9.0896 7.2649-20.801-4.5526-27.257-15.264-0.0863 16.788-18.516 24.973-37.069 0-16.433 34.085-49.053 0.0192-49.063 0-3.4611 16.891-11.315 14.124-31.618 14.174z" fill="#789"/>
  <path d="m260.58 354.96c63.963 9.7172 126.47 13.329 187.53 3.6593-12.228-2.8854-19.023-3.0129-19.625-14.027l-10.903 8.5384c-9.0896 4.0638-20.801-2.5466-27.257-8.5384-0.0863 13.196-18.516 19.828-37.069 0-10.531 25.67-46.534 2.8284-49.063 0 6.5644 11.051-0.98992 9.5512-31.618 7.9285z" fill="#b0c4de" opacity=".8068"/>
 </g>
 <g transform="matrix(.03324 0 0 .03324 232.34 407.98)" fill="#b0c4de" fill-rule="evenodd">
  <path d="m371.74 374.51c-19.067 64.49-38.069 136.51-74.018 197.65-49.671 84.477-94.311 159.12-75.493 245.89 78.158 180.62 255.52 176.68 340.42 3.0916 32.271-116.96-53.097-200.54-117.5-288.39-37.123-50.636-50.64-111.73-73.401-158.23z"/>
  <path d="m372.79 365.17c-8.3876 14.342-10.122 37.524-15.838 61.166-18.259 75.52 79.803 186.47 89.83 287.37 6.9701 70.143-83.662 200.52-129.72 203.82-23.051 1.6521 26.548 35.602 81.674 33.91 44.012-1.3508 90.255-33.811 115.31-62.116 18.629-22.224 31.511-50.59 47.871-76.965 26.788-43.187-7.7279-96.998-12.82-125.96-8.0741-28.102-50.34-87.176-75.677-120.3-14.587-19.071-35.884-45.608-52.538-79.343-21.414-43.376-39.258-107.48-48.094-121.58z"/>
 </g>
 <g transform="matrix(.03324 0 0 .03324 215.98 397.91)" fill="#b0c4de" fill-rule="evenodd">
  <path d="m371.74 374.51c-19.067 64.49-38.069 136.51-74.018 197.65-49.671 84.477-94.311 159.12-75.493 245.89 78.158 180.62 255.52 176.68 340.42 3.0916 32.271-116.96-53.097-200.54-117.5-288.39-37.123-50.636-50.64-111.73-73.401-158.23z"/>
  <path d="m372.79 365.17c-8.3876 14.342-10.122 37.524-15.838 61.166-18.259 75.52 79.803 186.47 89.83 287.37 6.9701 70.143-83.662 200.52-129.72 203.82-23.051 1.6521 26.548 35.602 81.674 33.91 44.012-1.3508 90.255-33.811 115.31-62.116 18.629-22.224 31.511-50.59 47.871-76.965 26.788-43.187-7.7279-96.998-12.82-125.96-8.0741-28.102-50.34-87.176-75.677-120.3-14.587-19.071-35.884-45.608-52.538-79.343-21.414-43.376-39.258-107.48-48.094-121.58z"/>
 </g>
 <g transform="matrix(.03324 0 0 .03324 227.31 376.51)" fill="#b0c4de" fill-rule="evenodd">
  <path d="m371.74 374.51c-19.067 64.49-38.069 136.51-74.018 197.65-49.671 84.477-94.311 159.12-75.493 245.89 78.158 180.62 255.52 176.68 340.42 3.0916 32.271-116.96-53.097-200.54-117.5-288.39-37.123-50.636-50.64-111.73-73.401-158.23z"/>
  <path d="m372.79 365.17c-8.3876 14.342-10.122 37.524-15.838 61.166-18.259 75.52 79.803 186.47 89.83 287.37 6.9701 70.143-83.662 200.52-129.72 203.82-23.051 1.6521 26.548 35.602 81.674 33.91 44.012-1.3508 90.255-33.811 115.31-62.116 18.629-22.224 31.511-50.59 47.871-76.965 26.788-43.187-7.7279-96.998-12.82-125.96-8.0741-28.102-50.34-87.176-75.677-120.3-14.587-19.071-35.884-45.608-52.538-79.343-21.414-43.376-39.258-107.48-48.094-121.58z"/>
 </g>
 <g transform="matrix(.03324 0 0 .03324 214.72 444.49)" fill="#b0c4de" fill-rule="evenodd">
  <path d="m371.74 374.51c-19.067 64.49-38.069 136.51-74.018 197.65-49.671 84.477-94.311 159.12-75.493 245.89 78.158 180.62 255.52 176.68 340.42 3.0916 32.271-116.96-53.097-200.54-117.5-288.39-37.123-50.636-50.64-111.73-73.401-158.23z"/>
  <path d="m372.79 365.17c-8.3876 14.342-10.122 37.524-15.838 61.166-18.259 75.52 79.803 186.47 89.83 287.37 6.9701 70.143-83.662 200.52-129.72 203.82-23.051 1.6521 26.548 35.602 81.674 33.91 44.012-1.3508 90.255-33.811 115.31-62.116 18.629-22.224 31.511-50.59 47.871-76.965 26.788-43.187-7.7279-96.998-12.82-125.96-8.0741-28.102-50.34-87.176-75.677-120.3-14.587-19.071-35.884-45.608-52.538-79.343-21.414-43.376-39.258-107.48-48.094-121.58z"/>
 </g>
 <g transform="matrix(.03324 0 0 .03324 233.6 438.2)" fill="#b0c4de" fill-rule="evenodd">
  <path d="m371.74 374.51c-19.067 64.49-38.069 136.51-74.018 197.65-49.671 84.477-94.311 159.12-75.493 245.89 78.158 180.62 255.52 176.68 340.42 3.0916 32.271-116.96-53.097-200.54-117.5-288.39-37.123-50.636-50.64-111.73-73.401-158.23z"/>
  <path d="m372.79 365.17c-8.3876 14.342-10.122 37.524-15.838 61.166-18.259 75.52 79.803 186.47 89.83 287.37 6.9701 70.143-83.662 200.52-129.72 203.82-23.051 1.6521 26.548 35.602 81.674 33.91 44.012-1.3508 90.255-33.811 115.31-62.116 18.629-22.224 31.511-50.59 47.871-76.965 26.788-43.187-7.7279-96.998-12.82-125.96-8.0741-28.102-50.34-87.176-75.677-120.3-14.587-19.071-35.884-45.608-52.538-79.343-21.414-43.376-39.258-107.48-48.094-121.58z"/>
 </g>
 <g transform="matrix(.03324 0 0 .03324 212.2 420.57)" fill="#b0c4de" fill-rule="evenodd">
  <path d="m371.74 374.51c-19.067 64.49-38.069 136.51-74.018 197.65-49.671 84.477-94.311 159.12-75.493 245.89 78.158 180.62 255.52 176.68 340.42 3.0916 32.271-116.96-53.097-200.54-117.5-288.39-37.123-50.636-50.64-111.73-73.401-158.23z"/>
  <path d="m372.79 365.17c-8.3876 14.342-10.122 37.524-15.838 61.166-18.259 75.52 79.803 186.47 89.83 287.37 6.9701 70.143-83.662 200.52-129.72 203.82-23.051 1.6521 26.548 35.602 81.674 33.91 44.012-1.3508 90.255-33.811 115.31-62.116 18.629-22.224 31.511-50.59 47.871-76.965 26.788-43.187-7.7279-96.998-12.82-125.96-8.0741-28.102-50.34-87.176-75.677-120.3-14.587-19.071-35.884-45.608-52.538-79.343-21.414-43.376-39.258-107.48-48.094-121.58z"/>
 </g>
 <g transform="matrix(.03324 0 0 .03324 229.82 467.15)" fill="#b0c4de" fill-rule="evenodd">
  <path d="m371.74 374.51c-19.067 64.49-38.069 136.51-74.018 197.65-49.671 84.477-94.311 159.12-75.493 245.89 78.158 180.62 255.52 176.68 340.42 3.0916 32.271-116.96-53.097-200.54-117.5-288.39-37.123-50.636-50.64-111.73-73.401-158.23z"/>
  <path d="m372.79 365.17c-8.3876 14.342-10.122 37.524-15.838 61.166-18.259 75.52 79.803 186.47 89.83 287.37 6.9701 70.143-83.662 200.52-129.72 203.82-23.051 1.6521 26.548 35.602 81.674 33.91 44.012-1.3508 90.255-33.811 115.31-62.116 18.629-22.224 31.511-50.59 47.871-76.965 26.788-43.187-7.7279-96.998-12.82-125.96-8.0741-28.102-50.34-87.176-75.677-120.3-14.587-19.071-35.884-45.608-52.538-79.343-21.414-43.376-39.258-107.48-48.094-121.58z"/>
 </g>
 <g transform="matrix(.03324 0 0 .03324 213.46 486.03)" fill="#b0c4de" fill-rule="evenodd">
  <path d="m371.74 374.51c-19.067 64.49-38.069 136.51-74.018 197.65-49.671 84.477-94.311 159.12-75.493 245.89 78.158 180.62 255.52 176.68 340.42 3.0916 32.271-116.96-53.097-200.54-117.5-288.39-37.123-50.636-50.64-111.73-73.401-158.23z"/>
  <path d="m372.79 365.17c-8.3876 14.342-10.122 37.524-15.838 61.166-18.259 75.52 79.803 186.47 89.83 287.37 6.9701 70.143-83.662 200.52-129.72 203.82-23.051 1.6521 26.548 35.602 81.674 33.91 44.012-1.3508 90.255-33.811 115.31-62.116 18.629-22.224 31.511-50.59 47.871-76.965 26.788-43.187-7.7279-96.998-12.82-125.96-8.0741-28.102-50.34-87.176-75.677-120.3-14.587-19.071-35.884-45.608-52.538-79.343-21.414-43.376-39.258-107.48-48.094-121.58z"/>
 </g>
 <g transform="matrix(.03324 0 0 .03324 197.09 462.11)" fill="#b0c4de" fill-rule="evenodd">
  <path d="m371.74 374.51c-19.067 64.49-38.069 136.51-74.018 197.65-49.671 84.477-94.311 159.12-75.493 245.89 78.158 180.62 255.52 176.68 340.42 3.0916 32.271-116.96-53.097-200.54-117.5-288.39-37.123-50.636-50.64-111.73-73.401-158.23z"/>
  <path d="m372.79 365.17c-8.3876 14.342-10.122 37.524-15.838 61.166-18.259 75.52 79.803 186.47 89.83 287.37 6.9701 70.143-83.662 200.52-129.72 203.82-23.051 1.6521 26.548 35.602 81.674 33.91 44.012-1.3508 90.255-33.811 115.31-62.116 18.629-22.224 31.511-50.59 47.871-76.965 26.788-43.187-7.7279-96.998-12.82-125.96-8.0741-28.102-50.34-87.176-75.677-120.3-14.587-19.071-35.884-45.608-52.538-79.343-21.414-43.376-39.258-107.48-48.094-121.58z"/>
 </g>
 <g transform="matrix(.03324 0 0 .03324 214.72 508.69)" fill="#b0c4de" fill-rule="evenodd">
  <path d="m371.74 374.51c-19.067 64.49-38.069 136.51-74.018 197.65-49.671 84.477-94.311 159.12-75.493 245.89 78.158 180.62 255.52 176.68 340.42 3.0916 32.271-116.96-53.097-200.54-117.5-288.39-37.123-50.636-50.64-111.73-73.401-158.23z"/>
  <path d="m372.79 365.17c-8.3876 14.342-10.122 37.524-15.838 61.166-18.259 75.52 79.803 186.47 89.83 287.37 6.9701 70.143-83.662 200.52-129.72 203.82-23.051 1.6521 26.548 35.602 81.674 33.91 44.012-1.3508 90.255-33.811 115.31-62.116 18.629-22.224 31.511-50.59 47.871-76.965 26.788-43.187-7.7279-96.998-12.82-125.96-8.0741-28.102-50.34-87.176-75.677-120.3-14.587-19.071-35.884-45.608-52.538-79.343-21.414-43.376-39.258-107.48-48.094-121.58z"/>
 </g>
 <g transform="matrix(.03324 0 0 .03324 238.63 516.24)" fill="#b0c4de" fill-rule="evenodd">
  <path d="m371.74 374.51c-19.067 64.49-38.069 136.51-74.018 197.65-49.671 84.477-94.311 159.12-75.493 245.89 78.158 180.62 255.52 176.68 340.42 3.0916 32.271-116.96-53.097-200.54-117.5-288.39-37.123-50.636-50.64-111.73-73.401-158.23z"/>
  <path d="m372.79 365.17c-8.3876 14.342-10.122 37.524-15.838 61.166-18.259 75.52 79.803 186.47 89.83 287.37 6.9701 70.143-83.662 200.52-129.72 203.82-23.051 1.6521 26.548 35.602 81.674 33.91 44.012-1.3508 90.255-33.811 115.31-62.116 18.629-22.224 31.511-50.59 47.871-76.965 26.788-43.187-7.7279-96.998-12.82-125.96-8.0741-28.102-50.34-87.176-75.677-120.3-14.587-19.071-35.884-45.608-52.538-79.343-21.414-43.376-39.258-107.48-48.094-121.58z"/>
 </g>
 <g transform="matrix(-.25249 -.26303 .26303 -.25249 138.78 771)">
  <path transform="matrix(-.6925 .72142 -.72142 -.6925 743.53 508.36)" d="m249.37 425.11h16.084v624.25h-16.084z" fill="#9acd32"/>
  <g fill="#9acd32">
   <g transform="matrix(-.02042 .14423 .1607 .02275 -320.58 529.22)" fill="#9acd32">
    <path d="m-1551.7 1531.5c-83.469-108.03-522.86-176.9-745.55-156.13-329.77 30.836-427.73 172.13-417.19 302.72 14.092 173.13 150.63 217.79 313.27 204.39 273.63-22.495 613.85-464.69 849.47-350.98z" fill="#9acd32" fill-rule="evenodd" opacity=".9"/>
   </g>
  </g>
  <g fill="#9acd32">
   <g transform="matrix(.08335 -.0153 .01704 .09287 180.34 -201.23)" fill="#9acd32">
    <path d="m-1135.8 2575.7c-137.11-177.46-858.85-290.58-1224.6-256.46-541.68 50.651-702.59 282.74-685.27 497.24 23.147 284.38 247.42 357.74 514.57 335.72 449.46-36.95 1008.3-763.3 1395.3-576.51z" fill="#9acd32" fill-rule="evenodd" opacity=".9"/>
   </g>
  </g>
  <g transform="matrix(1.8075 2.0415e-8 -2.0415e-8 1.8075 -19.486 -818.67)" fill="#ff6347">
   <path transform="matrix(.79454 .48747 -.51076 .75832 38.586 322.91)" d="m355.93 328.94a57.838 77.414 0 1 1 -115.68 0 57.838 77.414 0 1 1 115.68 0z"/>
   <path d="m228.75 693.62a70.676 53.122 47.848 0 1 -84.494 64.669 70.676 53.122 47.848 1 1 84.494 -64.669z"/>
   <path transform="matrix(.37998 -.81061 .87324 .35273 -305.3 778.57)" d="m355.93 328.94a57.838 77.414 0 1 1 -115.68 0 57.838 77.414 0 1 1 115.68 0z"/>
   <path transform="matrix(.81538 0 0 .83908 -92.097 325.99)" d="m355.93 328.94a57.838 77.414 0 1 1 -115.68 0 57.838 77.414 0 1 1 115.68 0z"/>
   <path transform="matrix(.49336 .75586 -.75428 .49438 308.92 267.3)" d="m355.93 328.94a57.838 77.414 0 1 1 -115.68 0 57.838 77.414 0 1 1 115.68 0z"/>
  </g>
  <path transform="matrix(-.6925 .72142 -.72142 -.6925 1103.1 82.437)" d="m880.24 397.8c0 32.582-26.413 58.994-58.994 58.994s-58.994-26.413-58.994-58.994 26.413-58.994 58.994-58.994 58.994 26.413 58.994 58.994z" fill="#ff7f50"/>
  <g transform="matrix(1.8075 2.0415e-8 -2.0415e-8 1.8075 -19.486 -818.67)" fill="#ff6347">
   <path transform="matrix(.79454 .48747 -.51076 .75832 38.586 322.91)" d="m355.93 328.94a57.838 77.414 0 1 1 -115.68 0 57.838 77.414 0 1 1 115.68 0z"/>
   <path d="m228.75 693.62a70.676 53.122 47.848 0 1 -84.494 64.669 70.676 53.122 47.848 1 1 84.494 -64.669z"/>
   <path transform="matrix(.37998 -.81061 .87324 .35273 -305.3 778.57)" d="m355.93 328.94a57.838 77.414 0 1 1 -115.68 0 57.838 77.414 0 1 1 115.68 0z"/>
   <path transform="matrix(.81538 0 0 .83908 -92.097 325.99)" d="m355.93 328.94a57.838 77.414 0 1 1 -115.68 0 57.838 77.414 0 1 1 115.68 0z"/>
   <path transform="matrix(.49336 .75586 -.75428 .49438 308.92 267.3)" d="m355.93 328.94a57.838 77.414 0 1 1 -115.68 0 57.838 77.414 0 1 1 115.68 0z"/>
  </g>
  <g fill="#fff">
   <path transform="matrix(.84739 .5199 -.54473 .80876 130.51 26.611)" d="m355.93 328.94a57.838 77.414 0 1 1 -115.68 0 57.838 77.414 0 1 1 115.68 0z"/>
   <path transform="matrix(.77902 -.59624 .61856 .75091 -135.87 378.36)" d="m355.93 328.94a57.838 77.414 0 1 1 -115.68 0 57.838 77.414 0 1 1 115.68 0z"/>
   <path transform="matrix(.40526 -.86453 .93132 .3762 -236.25 512.58)" d="m355.93 328.94a57.838 77.414 0 1 1 -115.68 0 57.838 77.414 0 1 1 115.68 0z"/>
   <path transform="matrix(.86962 0 0 .89489 -8.8669 29.898)" d="m355.93 328.94a57.838 77.414 0 1 1 -115.68 0 57.838 77.414 0 1 1 115.68 0z"/>
   <path transform="matrix(.52617 .80613 -.80446 .52727 418.83 -32.698)" d="m355.93 328.94a57.838 77.414 0 1 1 -115.68 0 57.838 77.414 0 1 1 115.68 0z"/>
  </g>
  <path d="m291.44 399.97a44.67 44.67 0 0 1 -89.34 0 44.67 44.67 0 1 1 89.34 0z" fill="#f0e060"/>
 </g>
 <g transform="matrix(.03324 0 0 .03324 219.05 551.85)" fill="#b0c4de" fill-rule="evenodd">
  <path d="m371.74 374.51c-19.067 64.49-38.069 136.51-74.018 197.65-49.671 84.477-94.311 159.12-75.493 245.89 78.158 180.62 255.52 176.68 340.42 3.0916 32.271-116.96-53.097-200.54-117.5-288.39-37.123-50.636-50.64-111.73-73.401-158.23z"/>
  <path d="m372.79 365.17c-8.3876 14.342-10.122 37.524-15.838 61.166-18.259 75.52 79.803 186.47 89.83 287.37 6.9701 70.143-83.662 200.52-129.72 203.82-23.051 1.6521 26.548 35.602 81.674 33.91 44.012-1.3508 90.255-33.811 115.31-62.116 18.629-22.224 31.511-50.59 47.871-76.965 26.788-43.187-7.7279-96.998-12.82-125.96-8.0741-28.102-50.34-87.176-75.677-120.3-14.587-19.071-35.884-45.608-52.538-79.343-21.414-43.376-39.258-107.48-48.094-121.58z"/>
 </g>
</svg>
