<?xml version='1.0' encoding='utf-8'?>
<svg xmlns:xlink="http://www.w3.org/1999/xlink" xmlns="http://www.w3.org/2000/svg" width="297mm" height="210mm" viewBox="0 0 297 210" version="1.1" id="svg8"> <defs id="defs2"> <linearGradient id="linearGradient1404"> <stop style="stop-color:#f59e67;stop-opacity:1" offset="0" id="stop1402"/> <stop id="stop1400" offset="0.5161615" style="stop-color:#f9c6a6;stop-opacity:1"/> <stop style="stop-color:#f28a49;stop-opacity:1" offset="1" id="stop1398"/> </linearGradient> <linearGradient id="linearGradient1396"> <stop style="stop-color:#f28a49;stop-opacity:1" offset="0" id="stop1390"/> <stop id="stop1392" offset="0.4838385" style="stop-color:#f9c6a6;stop-opacity:1"/> <stop style="stop-color:#f59e67;stop-opacity:1" offset="1" id="stop1394"/> </linearGradient> <linearGradient id="linearGradient1318"> <stop id="stop1316" offset="0" style="stop-color:#e8a5b5;stop-opacity:1"/> <stop style="stop-color:#f3d0d8;stop-opacity:1" offset="0.4838385" id="stop1314"/> <stop id="stop1312" offset="1" style="stop-color:#e394a7;stop-opacity:1"/> </linearGradient> <linearGradient id="linearGradient1310"> <stop id="stop1304" offset="0" style="stop-color:#e394a7;stop-opacity:1"/> <stop style="stop-color:#f3d0d8;stop-opacity:1" offset="0.5161615" id="stop1306"/> <stop id="stop1308" offset="1" style="stop-color:#e8a5b5;stop-opacity:1"/> </linearGradient> <linearGradient id="linearGradient1289"> <stop style="stop-color:#a5aad9;stop-opacity:1" offset="0" id="stop1287"/> <stop id="stop1285" offset="0.4838385" style="stop-color:#d2d4ec;stop-opacity:1"/> <stop style="stop-color:#8d93cf;stop-opacity:1" offset="1" id="stop1283"/> </linearGradient> <linearGradient id="linearGradient1281"> <stop style="stop-color:#8d93cf;stop-opacity:1" offset="0" id="stop1275"/> <stop id="stop1277" offset="0.5161615" style="stop-color:#d2d4ec;stop-opacity:1"/> <stop style="stop-color:#a5aad9;stop-opacity:1" offset="1" id="stop1279"/> </linearGradient> <linearGradient id="linearGradient1260"> <stop id="stop1258" offset="0" style="stop-color:#e8d3a9;stop-opacity:1"/> <stop style="stop-color:#f0e3c8;stop-opacity:1" offset="0.4838385" id="stop1256"/> <stop id="stop1254" offset="1" style="stop-color:#dec083;stop-opacity:1"/> </linearGradient> <linearGradient id="linearGradient1252"> <stop id="stop1246" offset="0" style="stop-color:#dec083;stop-opacity:1"/> <stop style="stop-color:#f0e3c8;stop-opacity:1" offset="0.5161615" id="stop1248"/> <stop id="stop1250" offset="1" style="stop-color:#e8d3a9;stop-opacity:1"/> </linearGradient> <linearGradient id="linearGradient1224"> <stop style="stop-color:#a4b5b1;stop-opacity:1" offset="0" id="stop1222"/> <stop id="stop1228" offset="0.5807305" style="stop-color:#bdcac7;stop-opacity:1"/> <stop style="stop-color:#849b95;stop-opacity:1;" offset="1" id="stop1220"/> </linearGradient> <linearGradient id="linearGradient1212"> <stop style="stop-color:#849b95;stop-opacity:1;" offset="0" id="stop1208"/> <stop id="stop1230" offset="0.5161615" style="stop-color:#afbebb;stop-opacity:1"/> <stop style="stop-color:#a4b5b1;stop-opacity:1" offset="1" id="stop1210"/> </linearGradient> <linearGradient id="linearGradient1104"> <stop style="stop-color:#b6554c;stop-opacity:1" offset="0" id="stop1096"/> <stop id="stop1098" offset="0.56683522" style="stop-color:#d2938d;stop-opacity:1"/> <stop id="stop1100" offset="0.79728961" style="stop-color:#e9ccc8;stop-opacity:1"/> <stop style="stop-color:#803a35;stop-opacity:1" offset="1" id="stop1102"/> </linearGradient> <linearGradient id="linearGradient1094"> <stop id="stop1090" offset="0" style="stop-color:#c57770;stop-opacity:1"/> <stop id="stop1092" offset="1" style="stop-color:#ab4035;stop-opacity:1"/> </linearGradient> <linearGradient id="linearGradient1088"> <stop id="stop1084" offset="0" style="stop-color:#b6554b;stop-opacity:1"/> <stop id="stop1086" offset="1" style="stop-color:#a6453c;stop-opacity:1"/> </linearGradient> <linearGradient id="linearGradient1001"> <stop style="stop-color:#bd655c;stop-opacity:1" offset="0" id="stop997"/> <stop style="stop-color:#a13a30;stop-opacity:1" offset="1" id="stop999"/> </linearGradient> <linearGradient id="linearGradient993"> <stop style="stop-color:#b6554c;stop-opacity:1;" offset="0" id="stop989"/> <stop style="stop-color:#9e4835;stop-opacity:1" offset="1" id="stop991"/> </linearGradient> <linearGradient id="linearGradient919"> <stop id="stop911" offset="0" style="stop-color:#b6554c;stop-opacity:1"/> <stop style="stop-color:#d2938d;stop-opacity:1" offset="0.6243698" id="stop913"/> <stop style="stop-color:#dbada7;stop-opacity:1" offset="0.79728961" id="stop915"/> <stop id="stop917" offset="1" style="stop-color:#803a35;stop-opacity:1"/> </linearGradient> <radialGradient xlink:href="#linearGradient919" id="radialGradient891" cx="70.829071" cy="204.9221" fx="70.829071" fy="204.9221" r="5.9445977" gradientTransform="matrix(0.53486059,0,0,0.53695808,91.584055,85.115117)" gradientUnits="userSpaceOnUse"/> <radialGradient xlink:href="#linearGradient1104" id="radialGradient937" gradientUnits="userSpaceOnUse" gradientTransform="matrix(0.53486059,0,0,0.53695808,122.46425,81.806029)" cx="70.829071" cy="204.9221" fx="70.829071" fy="204.9221" r="5.9445977"/> <linearGradient xlink:href="#linearGradient993" id="linearGradient995" x1="69.809708" y1="139.91759" x2="121.49298" y2="183.69122" gradientUnits="userSpaceOnUse" gradientTransform="matrix(1.1863903,0,0,1.1863903,32.944225,43.574067)"/> <linearGradient xlink:href="#linearGradient1001" id="linearGradient1040" x1="56.417076" y1="153.39122" x2="67.361839" y2="154.00798" gradientUnits="userSpaceOnUse" gradientTransform="matrix(1.1863903,0,0,1.1863903,32.944225,43.574067)"/> <linearGradient xlink:href="#linearGradient1094" id="linearGradient1060" x1="51.429577" y1="156.14915" x2="60.671539" y2="156.76595" gradientUnits="userSpaceOnUse" gradientTransform="matrix(1.1863903,0,0,1.1863903,32.944225,43.574067)"/> <linearGradient xlink:href="#linearGradient1088" id="linearGradient1082" x1="59.777142" y1="188.6591" x2="61.107296" y2="180.3217" gradientUnits="userSpaceOnUse" gradientTransform="matrix(1.1863903,0,0,1.1863903,32.944225,43.574067)"/> <linearGradient xlink:href="#linearGradient1212" id="linearGradient1214" x1="-19.189428" y1="193.20265" x2="17.662996" y2="211.95595" gradientUnits="userSpaceOnUse"/> <linearGradient xlink:href="#linearGradient1224" id="linearGradient1218" gradientUnits="userSpaceOnUse" x1="-20.512344" y1="188.70474" x2="17.662996" y2="211.95595" gradientTransform="rotate(180,-21.252006,188.5454)"/> <linearGradient xlink:href="#linearGradient1260" id="linearGradient1242" gradientUnits="userSpaceOnUse" gradientTransform="rotate(180,-21.252006,188.5454)" x1="-20.512344" y1="188.70474" x2="17.662996" y2="211.95595"/> <linearGradient xlink:href="#linearGradient1252" id="linearGradient1244" gradientUnits="userSpaceOnUse" x1="-19.189428" y1="193.20265" x2="17.662996" y2="211.95595"/> <linearGradient xlink:href="#linearGradient1289" id="linearGradient1271" gradientUnits="userSpaceOnUse" gradientTransform="rotate(180,-21.252006,188.5454)" x1="-20.512344" y1="188.70474" x2="17.662996" y2="211.95595"/> <linearGradient xlink:href="#linearGradient1281" id="linearGradient1273" gradientUnits="userSpaceOnUse" x1="-19.189428" y1="193.20265" x2="17.662996" y2="211.95595"/> <linearGradient xlink:href="#linearGradient1318" id="linearGradient1300" gradientUnits="userSpaceOnUse" gradientTransform="rotate(180,-21.252006,188.5454)" x1="-20.512344" y1="188.70474" x2="17.662996" y2="211.95595"/> <linearGradient xlink:href="#linearGradient1310" id="linearGradient1302" gradientUnits="userSpaceOnUse" x1="-19.189428" y1="193.20265" x2="17.662996" y2="211.95595"/> <linearGradient xlink:href="#linearGradient1396" id="linearGradient1376" gradientUnits="userSpaceOnUse" gradientTransform="rotate(180,-21.252006,188.5454)" x1="-20.512344" y1="188.70474" x2="17.662996" y2="211.95595"/> <linearGradient xlink:href="#linearGradient1404" id="linearGradient1378" gradientUnits="userSpaceOnUse" x1="-19.189428" y1="193.20265" x2="17.662996" y2="211.95595"/> <linearGradient xlink:href="#linearGradient1318" id="linearGradient1386" gradientUnits="userSpaceOnUse" gradientTransform="rotate(180,-21.252006,188.5454)" x1="-20.512344" y1="188.70474" x2="17.662996" y2="211.95595"/> <linearGradient xlink:href="#linearGradient1310" id="linearGradient1388" gradientUnits="userSpaceOnUse" x1="-19.189428" y1="193.20265" x2="17.662996" y2="211.95595"/> </defs> <metadata id="metadata5"> </metadata> <g id="layer1" transform="translate(0,-87)"> <path style="color:#000000;clip-rule:nonzero;display:inline;overflow:visible;visibility:visible;opacity:1;isolation:auto;mix-blend-mode:normal;color-interpolation:sRGB;color-interpolation-filters:linearRGB;solid-color:#000000;solid-opacity:1;vector-effect:none;fill:#93433c;fill-opacity:1;fill-rule:nonzero;stroke:none;stroke-width:0.5;stroke-linecap:round;stroke-linejoin:round;stroke-miterlimit:4;stroke-dasharray:none;stroke-opacity:1;color-rendering:auto;image-rendering:auto;shape-rendering:auto;text-rendering:auto;enable-background:accumulate" d="m 100.53508,185.79636 73.0612,-3.60437 -0.15476,1.34172 1.62144,0.74086 -0.21221,13.88625 -74.867907,0.5174 z" id="rect872"/> <path style="color:#000000;clip-rule:nonzero;display:inline;overflow:visible;visibility:visible;opacity:1;isolation:auto;mix-blend-mode:normal;color-interpolation:sRGB;color-interpolation-filters:linearRGB;solid-color:#000000;solid-opacity:1;vector-effect:none;fill:url(#linearGradient995);fill-opacity:1;fill-rule:nonzero;stroke:none;stroke-width:1.5;stroke-linecap:round;stroke-linejoin:round;stroke-miterlimit:4;stroke-dasharray:none;stroke-opacity:1;color-rendering:auto;image-rendering:auto;shape-rendering:auto;text-rendering:auto;enable-background:accumulate" d="m 175.17363,184.29956 -61.00311,2.67183 -5.53799,1.6498 -3.10711,70.13929 10.28265,7.47166 c 1.10979,0 61.90188,-4.25787 61.90188,-4.25787 z" id="rect815"/> <path style="color:#000000;clip-rule:nonzero;display:inline;overflow:visible;visibility:visible;opacity:1;isolation:auto;mix-blend-mode:normal;color-interpolation:sRGB;color-interpolation-filters:linearRGB;solid-color:#000000;solid-opacity:1;vector-effect:none;fill:url(#radialGradient891);fill-opacity:1;fill-rule:nonzero;stroke:none;stroke-width:0.5;stroke-linecap:round;stroke-linejoin:round;stroke-miterlimit:4;stroke-dasharray:none;stroke-opacity:1;color-rendering:auto;image-rendering:auto;shape-rendering:auto;text-rendering:auto;enable-background:accumulate" d="m 129.46787,191.95766 a 3.1919943,3.1919943 0 0 0 -3.19214,3.19213 3.1919943,3.1919943 0 0 0 3.19214,3.19185 3.1919943,3.1919943 0 0 0 3.19186,-3.19185 3.1919943,3.1919943 0 0 0 -3.19186,-3.19213 z m 0,1.42624 a 1.7657842,1.7657842 0 0 1 1.76561,1.76589 1.7657842,1.7657842 0 0 1 -1.76561,1.76561 1.7657842,1.7657842 0 0 1 -1.76588,-1.76561 1.7657842,1.7657842 0 0 1 1.76588,-1.76589 z" id="path875"/> <path id="path933" d="m 160.34807,188.64858 a 3.1919943,3.1919943 0 0 0 -3.19214,3.19212 3.1919943,3.1919943 0 0 0 3.19214,3.19185 3.1919943,3.1919943 0 0 0 3.19185,-3.19185 3.1919943,3.1919943 0 0 0 -3.19185,-3.19212 z m 0,1.42623 a 1.7657842,1.7657842 0 0 1 1.76561,1.76589 1.7657842,1.7657842 0 0 1 -1.76561,1.76561 1.7657842,1.7657842 0 0 1 -1.7659,-1.76561 1.7657842,1.7657842 0 0 1 1.7659,-1.76589 z" style="color:#000000;clip-rule:nonzero;display:inline;overflow:visible;visibility:visible;opacity:1;isolation:auto;mix-blend-mode:normal;color-interpolation:sRGB;color-interpolation-filters:linearRGB;solid-color:#000000;solid-opacity:1;vector-effect:none;fill:url(#radialGradient937);fill-opacity:1;fill-rule:nonzero;stroke:none;stroke-width:0.5;stroke-linecap:round;stroke-linejoin:round;stroke-miterlimit:4;stroke-dasharray:none;stroke-opacity:1;color-rendering:auto;image-rendering:auto;shape-rendering:auto;text-rendering:auto;enable-background:accumulate"/> <path style="color:#000000;clip-rule:nonzero;display:inline;overflow:visible;visibility:visible;opacity:1;isolation:auto;mix-blend-mode:normal;color-interpolation:sRGB;color-interpolation-filters:linearRGB;solid-color:#000000;solid-opacity:1;vector-effect:none;fill:#90856f;fill-opacity:1;fill-rule:nonzero;stroke:none;stroke-width:0.5;stroke-linecap:round;stroke-linejoin:round;stroke-miterlimit:4;stroke-dasharray:none;stroke-opacity:1;color-rendering:auto;image-rendering:auto;shape-rendering:auto;text-rendering:auto;enable-background:accumulate" d="m 160.34802,189.93872 c -1.05036,-1e-4 -1.90188,0.85142 -1.90178,1.90178 9.3e-4,0.92122 0.66187,1.70934 1.56888,1.87052 0.22617,5.09422 3.66706,19.93536 1.77229,26.09005 -1.98551,6.44937 -7.88348,12.16927 -12.33693,13.59023 -4.82956,1.54097 -11.74161,-5.28695 -13.65181,-8.68042 -3.23143,-6.02411 -5.27264,-21.92058 -5.56473,-27.82346 0.68905,-0.30334 1.13427,-0.98463 1.13543,-1.73749 9e-5,-1.05037 -0.85142,-1.90187 -1.90179,-1.90178 -1.05012,2.4e-4 -1.90126,0.85165 -1.90116,1.90178 9.3e-4,0.88873 0.61721,1.65832 1.48427,1.85336 0.31068,6.14338 2.38807,22.08826 5.70328,28.26856 2.88147,4.46225 10.18487,11.0395 15.11832,9.22913 5.0026,-1.83575 11.01552,-7.73964 13.05054,-14.34984 1.95652,-6.35525 -1.47596,-21.33372 -1.72875,-26.60872 0.64635,-0.32101 1.05527,-0.98024 1.05572,-1.70192 1e-4,-1.05036 -0.85141,-1.90188 -1.90178,-1.90178 z" id="path883"/> <path style="fill:url(#linearGradient1040);fill-opacity:1;fill-rule:evenodd;stroke:none;stroke-width:0.26458332px;stroke-linecap:butt;stroke-linejoin:miter;stroke-opacity:1" d="m 114.17052,186.97139 -5.53799,1.6498 -8.21975,-0.96131 -5.316536,73.76629 10.429176,-2.66569 10.28265,7.47166 z" id="path1032"/> <path style="fill:url(#linearGradient1060);fill-opacity:1;fill-rule:evenodd;stroke:none;stroke-width:0.26458332px;stroke-linecap:butt;stroke-linejoin:miter;stroke-opacity:1" d="m 100.44748,186.75161 -5.351236,74.67456 c 6.505216,2.53233 13.320626,4.34093 20.711826,4.80597 l -10.28265,-7.47166 3.10711,-70.13929 z" id="path1052"/> <path style="fill:url(#linearGradient1082);fill-opacity:1;fill-rule:evenodd;stroke:none;stroke-width:0.26458332px;stroke-linecap:butt;stroke-linejoin:miter;stroke-opacity:1" d="m 95.096244,261.42617 9.573916,-5.80708 11.13791,10.61304 c -6.90394,-0.13095 -13.80788,-2.26093 -20.711826,-4.80596 z" id="path1074"/> <g id="g1234" transform="matrix(0.66813977,0.40411938,-0.4260931,0.68215309,186.3932,28.580151)" style="stroke-width:1.26192033"> <path style="color:#000000;clip-rule:nonzero;display:inline;overflow:visible;visibility:visible;opacity:1;isolation:auto;mix-blend-mode:normal;color-interpolation:sRGB;color-interpolation-filters:linearRGB;solid-color:#000000;solid-opacity:1;vector-effect:none;fill:url(#linearGradient1218);fill-opacity:1;fill-rule:nonzero;stroke:none;stroke-width:1.26192033;stroke-linecap:round;stroke-linejoin:round;stroke-miterlimit:4;stroke-dasharray:none;stroke-opacity:1;color-rendering:auto;image-rendering:auto;shape-rendering:auto;text-rendering:auto;enable-background:accumulate" d="m -47.973258,179.52211 c 10.830769,4.33296 19.465435,5.8203 28.461091,13.44167 -0.162933,-6.55264 -4.341906,-12.89663 -8.904178,-14.87501 -13.58058,-5.88907 -23.133353,-4.79367 -29.678127,-16.0713 l -4.591398,6.35724 c 8.263624,7.46514 9.462277,9.04694 14.712612,11.1474 z" id="path1216"/> <path id="path1204" d="m 5.4692464,197.56869 c -10.8307695,-4.33296 -16.7738634,-1.79777 -25.7695194,-9.41914 0.04152,1.66979 0.203365,3.35173 0.788106,4.81423 1.709905,4.27663 5.600827,7.46656 9.353361,9.21876 9.96366384,4.65242 19.2044923,1.61316 25.749266,12.89079 l 4.591398,-6.35724 c -8.263624,-7.46514 -9.462277,-9.04694 -14.7126116,-11.1474 z" style="color:#000000;clip-rule:nonzero;display:inline;overflow:visible;visibility:visible;opacity:1;isolation:auto;mix-blend-mode:normal;color-interpolation:sRGB;color-interpolation-filters:linearRGB;solid-color:#000000;solid-opacity:1;vector-effect:none;fill:url(#linearGradient1214);fill-opacity:1;fill-rule:nonzero;stroke:none;stroke-width:1.26192033;stroke-linecap:round;stroke-linejoin:round;stroke-miterlimit:4;stroke-dasharray:none;stroke-opacity:1;color-rendering:auto;image-rendering:auto;shape-rendering:auto;text-rendering:auto;enable-background:accumulate"/> </g> <g style="stroke-width:1.10457432" transform="matrix(0.73568793,0.54782142,-0.55666386,0.69956711,247.42232,23.04221)" id="g1240"> <path id="path1236" d="m -47.973258,179.52211 c 10.830769,4.33296 19.465435,5.8203 28.461091,13.44167 -0.162933,-6.55264 -4.341906,-12.89663 -8.904178,-14.87501 -13.58058,-5.88907 -23.133353,-4.79367 -29.678127,-16.0713 l -4.591398,6.35724 c 8.263624,7.46514 9.462277,9.04694 14.712612,11.1474 z" style="color:#000000;clip-rule:nonzero;display:inline;overflow:visible;visibility:visible;opacity:1;isolation:auto;mix-blend-mode:normal;color-interpolation:sRGB;color-interpolation-filters:linearRGB;solid-color:#000000;solid-opacity:1;vector-effect:none;fill:url(#linearGradient1242);fill-opacity:1;fill-rule:nonzero;stroke:none;stroke-width:1.10457432;stroke-linecap:round;stroke-linejoin:round;stroke-miterlimit:4;stroke-dasharray:none;stroke-opacity:1;color-rendering:auto;image-rendering:auto;shape-rendering:auto;text-rendering:auto;enable-background:accumulate"/> <path style="color:#000000;clip-rule:nonzero;display:inline;overflow:visible;visibility:visible;opacity:1;isolation:auto;mix-blend-mode:normal;color-interpolation:sRGB;color-interpolation-filters:linearRGB;solid-color:#000000;solid-opacity:1;vector-effect:none;fill:url(#linearGradient1244);fill-opacity:1;fill-rule:nonzero;stroke:none;stroke-width:1.10457432;stroke-linecap:round;stroke-linejoin:round;stroke-miterlimit:4;stroke-dasharray:none;stroke-opacity:1;color-rendering:auto;image-rendering:auto;shape-rendering:auto;text-rendering:auto;enable-background:accumulate" d="m 5.4692464,197.56869 c -10.8307695,-4.33296 -16.7738634,-1.79777 -25.7695194,-9.41914 0.04152,1.66979 0.203365,3.35173 0.788106,4.81423 1.709905,4.27663 5.600827,7.46656 9.353361,9.21876 9.96366384,4.65242 19.2044923,1.61316 25.749266,12.89079 l 4.591398,-6.35724 c -8.263624,-7.46514 -9.462277,-9.04694 -14.7126116,-11.1474 z" id="path1238"/> </g> <g id="g1269" transform="matrix(-0.68571731,-0.57437026,0.72140916,-0.54595318,-5.24013,235.9139)" style="stroke-width:1.12599659"> <path style="color:#000000;clip-rule:nonzero;display:inline;overflow:visible;visibility:visible;opacity:1;isolation:auto;mix-blend-mode:normal;color-interpolation:sRGB;color-interpolation-filters:linearRGB;solid-color:#000000;solid-opacity:1;vector-effect:none;fill:url(#linearGradient1271);fill-opacity:1;fill-rule:nonzero;stroke:none;stroke-width:1.12599659;stroke-linecap:round;stroke-linejoin:round;stroke-miterlimit:4;stroke-dasharray:none;stroke-opacity:1;color-rendering:auto;image-rendering:auto;shape-rendering:auto;text-rendering:auto;enable-background:accumulate" d="m -47.973258,179.52211 c 10.830769,4.33296 19.465435,5.8203 28.461091,13.44167 -0.162933,-6.55264 -4.341906,-12.89663 -8.904178,-14.87501 -13.58058,-5.88907 -23.133353,-4.79367 -29.678127,-16.0713 l -4.591398,6.35724 c 8.263624,7.46514 9.462277,9.04694 14.712612,11.1474 z" id="path1265"/> <path id="path1267" d="m 5.4692464,197.56869 c -10.8307695,-4.33296 -16.7738634,-1.79777 -25.7695194,-9.41914 0.04152,1.66979 0.203365,3.35173 0.788106,4.81423 1.709905,4.27663 5.600827,7.46656 9.353361,9.21876 9.96366384,4.65242 19.2044923,1.61316 25.749266,12.89079 l 4.591398,-6.35724 c -8.263624,-7.46514 -9.462277,-9.04694 -14.7126116,-11.1474 z" style="color:#000000;clip-rule:nonzero;display:inline;overflow:visible;visibility:visible;opacity:1;isolation:auto;mix-blend-mode:normal;color-interpolation:sRGB;color-interpolation-filters:linearRGB;solid-color:#000000;solid-opacity:1;vector-effect:none;fill:url(#linearGradient1273);fill-opacity:1;fill-rule:nonzero;stroke:none;stroke-width:1.12599659;stroke-linecap:round;stroke-linejoin:round;stroke-miterlimit:4;stroke-dasharray:none;stroke-opacity:1;color-rendering:auto;image-rendering:auto;shape-rendering:auto;text-rendering:auto;enable-background:accumulate"/> </g> <g style="stroke-width:1.29592061" transform="matrix(0.28133822,0.56933218,-0.74082041,0.61731481,315.80642,39.635447)" id="g1298"> <path id="path1294" d="m -47.973258,179.52211 c 10.830769,4.33296 19.465435,5.8203 28.461091,13.44167 -0.162933,-6.55264 -4.341906,-12.89663 -8.904178,-14.87501 -13.58058,-5.88907 -23.133353,-4.79367 -29.678127,-16.0713 l -4.591398,6.35724 c 8.263624,7.46514 9.462277,9.04694 14.712612,11.1474 z" style="color:#000000;clip-rule:nonzero;display:inline;overflow:visible;visibility:visible;opacity:1;isolation:auto;mix-blend-mode:normal;color-interpolation:sRGB;color-interpolation-filters:linearRGB;solid-color:#000000;solid-opacity:1;vector-effect:none;fill:url(#linearGradient1300);fill-opacity:1;fill-rule:nonzero;stroke:none;stroke-width:1.29592061;stroke-linecap:round;stroke-linejoin:round;stroke-miterlimit:4;stroke-dasharray:none;stroke-opacity:1;color-rendering:auto;image-rendering:auto;shape-rendering:auto;text-rendering:auto;enable-background:accumulate"/> <path style="color:#000000;clip-rule:nonzero;display:inline;overflow:visible;visibility:visible;opacity:1;isolation:auto;mix-blend-mode:normal;color-interpolation:sRGB;color-interpolation-filters:linearRGB;solid-color:#000000;solid-opacity:1;vector-effect:none;fill:url(#linearGradient1302);fill-opacity:1;fill-rule:nonzero;stroke:none;stroke-width:1.29592061;stroke-linecap:round;stroke-linejoin:round;stroke-miterlimit:4;stroke-dasharray:none;stroke-opacity:1;color-rendering:auto;image-rendering:auto;shape-rendering:auto;text-rendering:auto;enable-background:accumulate" d="m 5.4692464,197.56869 c -10.8307695,-4.33296 -16.7738634,-1.79777 -25.7695194,-9.41914 0.04152,1.66979 0.203365,3.35173 0.788106,4.81423 1.709905,4.27663 5.600827,7.46656 9.353361,9.21876 9.96366384,4.65242 19.2044923,1.61316 25.749266,12.89079 l 4.591398,-6.35724 c -8.263624,-7.46514 -9.462277,-9.04694 -14.7126116,-11.1474 z" id="path1296"/> </g> <path style="color:#000000;clip-rule:nonzero;display:inline;overflow:visible;visibility:visible;opacity:1;isolation:auto;mix-blend-mode:normal;color-interpolation:sRGB;color-interpolation-filters:linearRGB;solid-color:#000000;solid-opacity:1;vector-effect:none;fill:#e8a5b5;fill-opacity:1;fill-rule:nonzero;stroke:none;stroke-width:1;stroke-linecap:round;stroke-linejoin:round;stroke-miterlimit:4;stroke-dasharray:none;stroke-opacity:1;color-rendering:auto;image-rendering:auto;shape-rendering:auto;text-rendering:auto;enable-background:accumulate" d="m 116.73107,168.06742 c 3.34941,-2.16087 7.08367,-3.93756 11.14294,-5.12201 l 4.15079,14.4662 c -2.43147,0.67793 -4.84706,1.85918 -7.18689,3.33571 z" id="rect1323"/> <path style="color:#000000;clip-rule:nonzero;display:inline;overflow:visible;visibility:visible;opacity:1;isolation:auto;mix-blend-mode:normal;color-interpolation:sRGB;color-interpolation-filters:linearRGB;solid-color:#000000;solid-opacity:1;vector-effect:none;fill:#f7e3b2;fill-opacity:1;fill-rule:nonzero;stroke:none;stroke-width:1;stroke-linecap:round;stroke-linejoin:round;stroke-miterlimit:4;stroke-dasharray:none;stroke-opacity:1;color-rendering:auto;image-rendering:auto;shape-rendering:auto;text-rendering:auto;enable-background:accumulate" d="m 184.00858,116.29967 c 2.86083,0.0214 5.21581,0.0997 6.2234,-0.78121 0.715,-0.22505 1.44467,-1.35085 2.21961,-2.7168 l 13.30561,6.44839 c -1.55658,3.44491 -4.28594,6.70603 -8.21865,9.12279 -5.23085,2.66513 -10.41319,3.21502 -14.70548,2.66587 z" id="rect1325"/> <path style="color:#000000;clip-rule:nonzero;display:inline;overflow:visible;visibility:visible;opacity:1;isolation:auto;mix-blend-mode:normal;color-interpolation:sRGB;color-interpolation-filters:linearRGB;solid-color:#000000;solid-opacity:1;vector-effect:none;fill:#9dc9ac;fill-opacity:1;fill-rule:nonzero;stroke:none;stroke-width:1;stroke-linecap:round;stroke-linejoin:round;stroke-miterlimit:4;stroke-dasharray:none;stroke-opacity:1;color-rendering:auto;image-rendering:auto;shape-rendering:auto;text-rendering:auto;enable-background:accumulate" d="m 176.74805,148.32738 c 0.75932,-1.66751 1.85154,-2.95137 3.13959,-3.80414 0,0 0,0 0,0 1.36296,-0.8948 2.66767,-1.43881 3.81594,-1.73051 v 0 c 2.75701,-0.74441 5.28697,-0.95237 7.46907,-1.09034 l 0.70497,9.25012 c -2.22294,0.19773 -4.1407,0.29632 -5.63249,0.76223 v 0 c -0.57564,0.1994 -0.96811,0.31242 -1.07923,0.43749 v 0 c -0.0123,0.047 -0.0145,-0.0107 0.13066,-0.22145 z" id="rect1327"/> <rect transform="rotate(-24.769476)" y="220.17874" x="115.03513" height="15.066106" width="13.451879" id="rect1329" style="color:#000000;clip-rule:nonzero;display:inline;overflow:visible;visibility:visible;opacity:1;isolation:auto;mix-blend-mode:normal;color-interpolation:sRGB;color-interpolation-filters:linearRGB;solid-color:#000000;solid-opacity:1;vector-effect:none;fill:#e3967d;fill-opacity:1;fill-rule:nonzero;stroke:none;stroke-width:0.99999994;stroke-linecap:round;stroke-linejoin:round;stroke-miterlimit:4;stroke-dasharray:none;stroke-opacity:1;color-rendering:auto;image-rendering:auto;shape-rendering:auto;text-rendering:auto;enable-background:accumulate"/> <rect style="color:#000000;clip-rule:nonzero;display:inline;overflow:visible;visibility:visible;opacity:1;isolation:auto;mix-blend-mode:normal;color-interpolation:sRGB;color-interpolation-filters:linearRGB;solid-color:#000000;solid-opacity:1;vector-effect:none;fill:#fcd036;fill-opacity:1;fill-rule:nonzero;stroke:none;stroke-width:0.99999994;stroke-linecap:round;stroke-linejoin:round;stroke-miterlimit:4;stroke-dasharray:none;stroke-opacity:1;color-rendering:auto;image-rendering:auto;shape-rendering:auto;text-rendering:auto;enable-background:accumulate" id="rect1331" width="13.079294" height="14.64881" x="101.50661" y="254.70471" transform="rotate(-24.769476)"/> <path style="color:#000000;clip-rule:nonzero;display:inline;overflow:visible;visibility:visible;opacity:1;isolation:auto;mix-blend-mode:normal;color-interpolation:sRGB;color-interpolation-filters:linearRGB;solid-color:#000000;solid-opacity:1;vector-effect:none;fill:#f2d680;fill-opacity:1;fill-rule:nonzero;stroke:none;stroke-width:1;stroke-linecap:round;stroke-linejoin:round;stroke-miterlimit:4;stroke-dasharray:none;stroke-opacity:1;color-rendering:auto;image-rendering:auto;shape-rendering:auto;text-rendering:auto;enable-background:accumulate" d="m 97.312824,151.24831 c 5.165626,3.33259 10.924766,6.07269 17.185176,7.89941 l 6.40154,-22.31045 c -3.74994,-1.04553 -7.47536,-2.86731 -11.08398,-5.14449 z" id="path1344"/> <path style="color:#000000;clip-rule:nonzero;display:inline;overflow:visible;visibility:visible;opacity:1;isolation:auto;mix-blend-mode:normal;color-interpolation:sRGB;color-interpolation-filters:linearRGB;solid-color:#000000;solid-opacity:1;vector-effect:none;fill:#bbdec6;fill-opacity:1;fill-rule:nonzero;stroke:none;stroke-width:1;stroke-linecap:round;stroke-linejoin:round;stroke-miterlimit:4;stroke-dasharray:none;stroke-opacity:1;color-rendering:auto;image-rendering:auto;shape-rendering:auto;text-rendering:auto;enable-background:accumulate" d="m 76.074387,180.76839 c 2.616222,0.0242 4.769856,0.11295 5.691299,-0.88557 0.653868,-0.25511 1.321157,-1.53131 2.029839,-3.07972 l 12.167994,7.30981 c -1.423491,3.90511 -3.919493,7.60188 -7.515957,10.34149 -4.78362,3.02117 -9.522885,3.64452 -13.448183,3.022 z" id="path1348"/> <path style="color:#000000;clip-rule:nonzero;display:inline;overflow:visible;visibility:visible;opacity:1;isolation:auto;mix-blend-mode:normal;color-interpolation:sRGB;color-interpolation-filters:linearRGB;solid-color:#000000;solid-opacity:1;vector-effect:none;fill:#c6d6b8;fill-opacity:1;fill-rule:nonzero;stroke:none;stroke-width:1;stroke-linecap:round;stroke-linejoin:round;stroke-miterlimit:4;stroke-dasharray:none;stroke-opacity:1;color-rendering:auto;image-rendering:auto;shape-rendering:auto;text-rendering:auto;enable-background:accumulate" d="m 204.3797,175.12628 c -1.02652,-2.25426 -2.50306,-3.98991 -4.24435,-5.14273 0,0 0,0 0,0 -1.84256,-1.20967 -3.60638,-1.94513 -5.1587,-2.33946 h -1e-5 c -3.72713,-1.00634 -7.14733,-1.28748 -10.09727,-1.474 l -0.95303,12.50504 c 3.00514,0.26731 5.59773,0.40059 7.61445,1.03045 v 0 c 0.77819,0.26957 1.30876,0.42236 1.45898,0.59144 v 0 c 0.0166,0.0635 0.0196,-0.0149 -0.17663,-0.29938 z" id="path1352"/> <path style="color:#000000;clip-rule:nonzero;display:inline;overflow:visible;visibility:visible;opacity:1;isolation:auto;mix-blend-mode:normal;color-interpolation:sRGB;color-interpolation-filters:linearRGB;solid-color:#000000;solid-opacity:1;vector-effect:none;fill:#bac9a9;fill-opacity:1;fill-rule:nonzero;stroke:none;stroke-width:1;stroke-linecap:round;stroke-linejoin:round;stroke-miterlimit:4;stroke-dasharray:none;stroke-opacity:1;color-rendering:auto;image-rendering:auto;shape-rendering:auto;text-rendering:auto;enable-background:accumulate" d="m 157.55083,134.37218 c 1.45752,-0.38465 2.40534,-0.71524 2.69274,-0.52765 0.10238,-0.12338 1.16432,0.34663 3.21776,0.92389 l 5.03191,-20.49126 c -1.65569,-0.60108 -4.31939,-1.40832 -8.02309,-1.93561 -4.95964,-0.36923 -9.16055,0.32874 -12.45204,1.62977 z" id="rect1356"/> <g id="g1374" transform="matrix(-0.62086251,0.13349186,-0.4173001,-0.8693406,283.57796,386.14146)" style="stroke-width:1.29592061"> <path style="color:#000000;clip-rule:nonzero;display:inline;overflow:visible;visibility:visible;opacity:1;isolation:auto;mix-blend-mode:normal;color-interpolation:sRGB;color-interpolation-filters:linearRGB;solid-color:#000000;solid-opacity:1;vector-effect:none;fill:url(#linearGradient1376);fill-opacity:1;fill-rule:nonzero;stroke:none;stroke-width:1.29592061;stroke-linecap:round;stroke-linejoin:round;stroke-miterlimit:4;stroke-dasharray:none;stroke-opacity:1;color-rendering:auto;image-rendering:auto;shape-rendering:auto;text-rendering:auto;enable-background:accumulate" d="m -47.973258,179.52211 c 10.830769,4.33296 19.465435,5.8203 28.461091,13.44167 -0.162933,-6.55264 -4.341906,-12.89663 -8.904178,-14.87501 -13.58058,-5.88907 -23.133353,-4.79367 -29.678127,-16.0713 l -4.591398,6.35724 c 8.263624,7.46514 9.462277,9.04694 14.712612,11.1474 z" id="path1370"/> <path id="path1372" d="m 5.4692464,197.56869 c -10.8307695,-4.33296 -16.7738634,-1.79777 -25.7695194,-9.41914 0.04152,1.66979 0.203365,3.35173 0.788106,4.81423 1.709905,4.27663 5.600827,7.46656 9.353361,9.21876 9.96366384,4.65242 19.2044923,1.61316 25.749266,12.89079 l 4.591398,-6.35724 c -8.263624,-7.46514 -9.462277,-9.04694 -14.7126116,-11.1474 z" style="color:#000000;clip-rule:nonzero;display:inline;overflow:visible;visibility:visible;opacity:1;isolation:auto;mix-blend-mode:normal;color-interpolation:sRGB;color-interpolation-filters:linearRGB;solid-color:#000000;solid-opacity:1;vector-effect:none;fill:url(#linearGradient1378);fill-opacity:1;fill-rule:nonzero;stroke:none;stroke-width:1.29592061;stroke-linecap:round;stroke-linejoin:round;stroke-miterlimit:4;stroke-dasharray:none;stroke-opacity:1;color-rendering:auto;image-rendering:auto;shape-rendering:auto;text-rendering:auto;enable-background:accumulate"/> </g> <g style="stroke-width:1.25907755" transform="matrix(-0.32733587,0.61527185,-0.79960273,-0.42412636,209.63273,315.10067)" id="g1384"> <path id="path1380" d="m -47.973258,179.52211 c 10.830769,4.33296 19.465435,5.8203 28.461091,13.44167 -0.162933,-6.55264 -4.341906,-12.89663 -8.904178,-14.87501 -13.58058,-5.88907 -23.133353,-4.79367 -29.678127,-16.0713 l -4.591398,6.35724 c 8.263624,7.46514 9.462277,9.04694 14.712612,11.1474 z" style="color:#000000;clip-rule:nonzero;display:inline;overflow:visible;visibility:visible;opacity:1;isolation:auto;mix-blend-mode:normal;color-interpolation:sRGB;color-interpolation-filters:linearRGB;solid-color:#000000;solid-opacity:1;vector-effect:none;fill:url(#linearGradient1386);fill-opacity:1;fill-rule:nonzero;stroke:none;stroke-width:1.25907755;stroke-linecap:round;stroke-linejoin:round;stroke-miterlimit:4;stroke-dasharray:none;stroke-opacity:1;color-rendering:auto;image-rendering:auto;shape-rendering:auto;text-rendering:auto;enable-background:accumulate"/> <path style="color:#000000;clip-rule:nonzero;display:inline;overflow:visible;visibility:visible;opacity:1;isolation:auto;mix-blend-mode:normal;color-interpolation:sRGB;color-interpolation-filters:linearRGB;solid-color:#000000;solid-opacity:1;vector-effect:none;fill:url(#linearGradient1388);fill-opacity:1;fill-rule:nonzero;stroke:none;stroke-width:1.25907755;stroke-linecap:round;stroke-linejoin:round;stroke-miterlimit:4;stroke-dasharray:none;stroke-opacity:1;color-rendering:auto;image-rendering:auto;shape-rendering:auto;text-rendering:auto;enable-background:accumulate" d="m 5.4692464,197.56869 c -10.8307695,-4.33296 -16.7738634,-1.79777 -25.7695194,-9.41914 0.04152,1.66979 0.203365,3.35173 0.788106,4.81423 1.709905,4.27663 5.600827,7.46656 9.353361,9.21876 9.96366384,4.65242 19.2044923,1.61316 25.749266,12.89079 l 4.591398,-6.35724 c -8.263624,-7.46514 -9.462277,-9.04694 -14.7126116,-11.1474 z" id="path1382"/> </g> <rect style="color:#000000;clip-rule:nonzero;display:inline;overflow:visible;visibility:visible;opacity:1;isolation:auto;mix-blend-mode:normal;color-interpolation:sRGB;color-interpolation-filters:linearRGB;solid-color:#000000;solid-opacity:1;vector-effect:none;fill:#f28a49;fill-opacity:1;fill-rule:nonzero;stroke:none;stroke-width:1.00001812;stroke-linecap:round;stroke-linejoin:round;stroke-miterlimit:4;stroke-dasharray:none;stroke-opacity:1;color-rendering:auto;image-rendering:auto;shape-rendering:auto;text-rendering:auto;enable-background:accumulate" id="rect1409" width="11.665713" height="13.160682" x="-36.138638" y="250.58958" transform="matrix(0.90620518,-0.42283823,0.415119,0.90976712,0,0)"/> <rect transform="matrix(0.88764457,-0.46052918,0.37964364,0.9251328,0,0)" y="301.88791" x="88.237236" height="17.190123" width="14.226659" id="rect1411" style="color:#000000;clip-rule:nonzero;display:inline;overflow:visible;visibility:visible;opacity:1;isolation:auto;mix-blend-mode:normal;color-interpolation:sRGB;color-interpolation-filters:linearRGB;solid-color:#000000;solid-opacity:1;vector-effect:none;fill:#e3967d;fill-opacity:1;fill-rule:nonzero;stroke:none;stroke-width:1.00199294;stroke-linecap:round;stroke-linejoin:round;stroke-miterlimit:4;stroke-dasharray:none;stroke-opacity:1;color-rendering:auto;image-rendering:auto;shape-rendering:auto;text-rendering:auto;enable-background:accumulate"/> <rect style="color:#000000;clip-rule:nonzero;display:inline;overflow:visible;visibility:visible;opacity:1;isolation:auto;mix-blend-mode:normal;color-interpolation:sRGB;color-interpolation-filters:linearRGB;solid-color:#000000;solid-opacity:1;vector-effect:none;fill:#9dbfa4;fill-opacity:1;fill-rule:nonzero;stroke:none;stroke-width:1.00199294;stroke-linecap:round;stroke-linejoin:round;stroke-miterlimit:4;stroke-dasharray:none;stroke-opacity:1;color-rendering:auto;image-rendering:auto;shape-rendering:auto;text-rendering:auto;enable-background:accumulate" id="rect1415" width="10.249151" height="12.384086" x="6.8041325" y="175.22388" transform="matrix(0.88764457,-0.46052918,0.37964364,0.9251328,0,0)"/> <path style="color:#000000;clip-rule:nonzero;display:inline;overflow:visible;visibility:visible;opacity:1;isolation:auto;mix-blend-mode:normal;color-interpolation:sRGB;color-interpolation-filters:linearRGB;solid-color:#000000;solid-opacity:1;vector-effect:none;fill:#f8a13f;fill-opacity:1;fill-rule:nonzero;stroke:none;stroke-width:1;stroke-linecap:round;stroke-linejoin:round;stroke-miterlimit:4;stroke-dasharray:none;stroke-opacity:1;color-rendering:auto;image-rendering:auto;shape-rendering:auto;text-rendering:auto;enable-background:accumulate" d="m 213.16567,124.66374 -4.75196,13.66087 a 3.559459,2.5886972 3.2064541 0 0 -2.89185,-1.31901 3.559459,2.5886972 3.2064541 0 0 -3.69869,2.38576 3.559459,2.5886972 3.2064541 0 0 3.40904,2.78363 3.559459,2.5886972 3.2064541 0 0 3.68967,-2.31118 l 6.2e-4,2.1e-4 3.64843,-10.7441 c 0.74628,1.25901 1.61758,3.6112 1.13858,5.23367 -0.60747,2.05763 -2.75331,3.39937 -3.11732,4.88355 2.16355,-1.62495 4.6143,-3.27632 5.40047,-5.79762 0.40894,-1.31167 -0.19871,-2.76352 -0.59725,-4.0784 -0.50276,-1.65874 -2.22981,-4.69739 -2.22981,-4.6974 z" id="path1417"/> <path id="path1431" d="m 63.861724,169.01769 4.652261,13.69514 a 2.5886972,3.559459 55.263394 0 0 -3.091594,0.73793 2.5886972,3.559459 55.263394 0 0 -1.44992,4.15571 2.5886972,3.559459 55.263394 0 0 4.400034,0.0991 2.5886972,3.559459 55.263394 0 0 1.48866,-4.09134 l 6.25e-4,-2.1e-4 -3.729084,-10.71638 c 1.362666,0.53401 3.496105,1.85326 4.115977,3.4273 0.786127,1.99622 -0.08112,4.37377 0.544399,5.76805 0.707085,-2.61179 1.624408,-5.42101 0.694103,-7.89276 -0.484017,-1.28586 -1.855931,-2.05719 -2.978718,-2.84908 -1.416414,-0.99899 -4.646806,-2.33341 -4.646809,-2.33342 z" style="color:#000000;clip-rule:nonzero;display:inline;overflow:visible;visibility:visible;opacity:1;isolation:auto;mix-blend-mode:normal;color-interpolation:sRGB;color-interpolation-filters:linearRGB;solid-color:#000000;solid-opacity:1;vector-effect:none;fill:#ba3c3d;fill-opacity:1;fill-rule:nonzero;stroke:none;stroke-width:1;stroke-linecap:round;stroke-linejoin:round;stroke-miterlimit:4;stroke-dasharray:none;stroke-opacity:1;color-rendering:auto;image-rendering:auto;shape-rendering:auto;text-rendering:auto;enable-background:accumulate"/> <path id="path1433" d="m 69.037848,142.52814 c -2.564384,-1.65441 -5.423418,-3.01468 -8.531286,-3.92153 l -3.177939,11.07565 c 1.861588,0.51904 3.711019,1.42343 5.502445,2.5539 z" style="color:#000000;clip-rule:nonzero;display:inline;overflow:visible;visibility:visible;opacity:1;isolation:auto;mix-blend-mode:normal;color-interpolation:sRGB;color-interpolation-filters:linearRGB;solid-color:#000000;solid-opacity:1;vector-effect:none;fill:#7e5686;fill-opacity:1;fill-rule:nonzero;stroke:none;stroke-width:1;stroke-linecap:round;stroke-linejoin:round;stroke-miterlimit:4;stroke-dasharray:none;stroke-opacity:1;color-rendering:auto;image-rendering:auto;shape-rendering:auto;text-rendering:auto;enable-background:accumulate"/> <path id="path1435" d="m 77.306664,225.51294 c 0.75932,1.66751 1.85154,2.95137 3.13959,3.80414 0,0 0,0 0,0 1.36296,0.8948 2.66767,1.43881 3.81594,1.73051 v 0 c 2.75701,0.74441 5.28697,0.95237 7.46907,1.09034 l 0.70497,-9.25012 c -2.22294,-0.19773 -4.1407,-0.29632 -5.63249,-0.76223 v 0 c -0.57564,-0.1994 -0.96811,-0.31242 -1.07923,-0.43749 v 0 c -0.0123,-0.047 -0.0145,0.0107 0.13066,0.22145 z" style="color:#000000;clip-rule:nonzero;display:inline;overflow:visible;visibility:visible;opacity:1;isolation:auto;mix-blend-mode:normal;color-interpolation:sRGB;color-interpolation-filters:linearRGB;solid-color:#000000;solid-opacity:1;vector-effect:none;fill:#a5aad9;fill-opacity:1;fill-rule:nonzero;stroke:none;stroke-width:1;stroke-linecap:round;stroke-linejoin:round;stroke-miterlimit:4;stroke-dasharray:none;stroke-opacity:1;color-rendering:auto;image-rendering:auto;shape-rendering:auto;text-rendering:auto;enable-background:accumulate"/> </g> </svg>