<?xml version="1.0" encoding="utf-8"?>
<!-- Generator: Adobe Illustrator 16.0.0, SVG Export Plug-In . SVG Version: 6.00 Build 0)  -->
<!DOCTYPE svg PUBLIC "-//W3C//DTD SVG 1.1//EN" "http://www.w3.org/Graphics/SVG/1.1/DTD/svg11.dtd">
<svg version="1.1" xmlns="http://www.w3.org/2000/svg" xmlns:xlink="http://www.w3.org/1999/xlink" x="0px" y="0px" width="700px"
	 height="700px" viewBox="0 0 700 700" enable-background="new 0 0 700 700" xml:space="preserve">
<g id="背景">
	
		<linearGradient id="SVGID_1_" gradientUnits="userSpaceOnUse" x1="0.8845" y1="699.5623" x2="0.8261" y2="700.0265" gradientTransform="matrix(504.269 0 0 -232.1615 -101.401 163026.5469)">
		<stop  offset="0" style="stop-color:#D3D7CF"/>
		<stop  offset="1" style="stop-color:#D3D7CF;stop-opacity:0"/>
	</linearGradient>
	<path fill="url(#SVGID_1_)" d="M385.637,467.914c0,0-234.998,5.028-183.388,29.962c40.46,19.546,104.74,28.033,63.146,38.32
		c0,0-403.074,139.521,41.217,161.254c348.841,22.576,401.075-109.664,91.125-162.284
		C401.518,513.82,517.979,465.983,385.637,467.914L385.637,467.914z"/>
	
		<linearGradient id="SVGID_2_" gradientUnits="userSpaceOnUse" x1="0.6902" y1="700.0505" x2="1.0554" y2="699.5305" gradientTransform="matrix(504.269 0 0 -682.6803 -101.401 478152.2813)">
		<stop  offset="0" style="stop-color:#94DCFF"/>
		<stop  offset="1" style="stop-color:#7FBDFF"/>
	</linearGradient>
	<path fill="url(#SVGID_2_)" stroke="#C17D11" stroke-width="2.632" d="M385.637,5.46c0,0-234.998,14.786-183.388,88.101
		c40.46,57.475,104.74,82.429,63.146,112.681c0,0-403.074,410.274,41.217,474.148c348.841,66.384,401.075-322.46,91.125-477.206
		c3.781-62.768,120.242-203.427-12.1-197.756V5.46z"/>
	
		<linearGradient id="SVGID_3_" gradientUnits="userSpaceOnUse" x1="0.5686" y1="699.7537" x2="0.5686" y2="699.3725" gradientTransform="matrix(122.3192 0 0 -345.0647 118.0779 241932.5938)">
		<stop  offset="0" style="stop-color:#7FCEFF"/>
		<stop  offset="1" style="stop-color:#94D4FF;stop-opacity:0"/>
	</linearGradient>
	<path fill="url(#SVGID_3_)" d="M248.702,285.209c-61.022,1.268-213.37,267.552-47,345.065
		C146.874,520.618,217.43,332.434,248.702,285.209L248.702,285.209z"/>
	
		<linearGradient id="SVGID_4_" gradientUnits="userSpaceOnUse" x1="1.1008" y1="699.491" x2="0.3656" y2="700.3448" gradientTransform="matrix(174.984 0 0 -403.3155 382.4482 282670.7188)">
		<stop  offset="0" style="stop-color:#6ABEFF"/>
		<stop  offset="1" style="stop-color:#A9E3FF;stop-opacity:0.02"/>
	</linearGradient>
	<path fill="url(#SVGID_4_)" d="M419.69,218.728c-1.028,2.398-1.926,4.671-2.646,6.948
		c139.582,123.227,170.372,284.787,123.738,396.361c94.757-100.292,60.186-294.424-121.092-403.315V218.728z"/>
	
		<linearGradient id="SVGID_5_" gradientUnits="userSpaceOnUse" x1="0.2458" y1="699.49" x2="0.6885" y2="699.4613" gradientTransform="matrix(112.4288 0 0 -130.363 193.224 91286.0625)">
		<stop  offset="0" style="stop-color:#BFEEFF"/>
		<stop  offset="1" style="stop-color:#A9DAFF;stop-opacity:0"/>
	</linearGradient>
	<path fill="url(#SVGID_5_)" d="M240.702,37.196c-6.079,1.094-24.653,11.822-29.634,15.25c-7.182,5.771-15.796,13.48-14.365,23.703
		c1.943,11.147,10.212,19.672,17.142,28.112c15.349,17.134,31.376,33.695,48.19,49.394c4.479,4.073,9.242,8.458,15.529,8.911
		c3.852,5.211,10.89,3.695,16.611,3.56c4.611-0.878,12.768,1.629,14.799,1.42c-30.68-42.005-100.822-96.89-68.274-130.351
		L240.702,37.196z"/>
	
		<linearGradient id="SVGID_6_" gradientUnits="userSpaceOnUse" x1="1.3752" y1="699.698" x2="-0.0481" y2="699.4772" gradientTransform="matrix(99.03 0 0 -156.972 351.1624 109900.5078)">
		<stop  offset="0" style="stop-color:#A9E3FF"/>
		<stop  offset="1" style="stop-color:#7FCEFF;stop-opacity:0"/>
	</linearGradient>
	<path fill="url(#SVGID_6_)" d="M421.307,12.065c-24.511,52.29-49.023,104.579-73.531,156.869c6.788,0.933,12.284-4.85,19.769-3.228
		c6.442-0.368,13.446,0.733,19.38-2.303c4.421-5.615,12.691-1.898,17.582-6.704c8.427-8.194,12.125-19.806,16.928-30.251
		c9.046-22.366,19.083-44.6,24.122-68.303c2.181-11.783,2.105-25.25-5.147-35.356C435.698,17.018,428.411,13.742,421.307,12.065
		L421.307,12.065z"/>
	
		<linearGradient id="SVGID_7_" gradientUnits="userSpaceOnUse" x1="1.0486" y1="698.9421" x2="0.5547" y2="699.2048" gradientTransform="matrix(175.0842 0 0 -76.592 197.3104 53587.9727)">
		<stop  offset="0" style="stop-color:#7FB6FF"/>
		<stop  offset="1" style="stop-color:#A9DCFF"/>
	</linearGradient>
	<path fill="url(#SVGID_7_)" stroke="#C17D11" stroke-width="2.62" d="M407.12,6.782c-15.207-0.233-30.615-2.729-45.646,0.748
		c-50.362,5.354-91.8,8.126-129.099,44.205c-6.347,41.631,78.064,30.881,100.818,24.014c21.433-9.428,65.395-20.564,60.274-51.782
		c-25.868-18.031-82.096,4.958-109.471,12.161"/>
	
		<radialGradient id="SVGID_8_" cx="138.9856" cy="367.9304" r="16.5" gradientTransform="matrix(2.0397 0 0 -2.5342 70.0883 1943.0359)" gradientUnits="userSpaceOnUse">
		<stop  offset="0" style="stop-color:#FFFFC0"/>
		<stop  offset="1" style="stop-color:#FFFFC0;stop-opacity:0"/>
	</radialGradient>
	<path fill="url(#SVGID_8_)" d="M345.052,585.445c-1.319,1.319-28.368-22.644-30.13-22.027c-1.761,0.616-7.968,36.217-9.822,36.008
		s0.018-36.298-1.563-37.29c-1.58-0.993-33.283,16.351-34.276,14.771c-0.992-1.58,28.389-22.619,28.18-24.473
		c-0.208-1.854-33.534-15.828-32.918-17.589c0.616-1.762,35.383,8.093,36.703,6.773c1.319-1.32-8.534-36.088-6.773-36.704
		c1.762-0.616,15.734,32.71,17.589,32.919s22.893-29.173,24.473-28.18s-15.764,32.696-14.771,34.276
		c0.992,1.58,37.081-0.291,37.29,1.563s-35.391,8.062-36.008,9.823C322.408,557.077,346.372,584.127,345.052,585.445
		L345.052,585.445z"/>
	<g>
		
			<path opacity="0.301" fill="#2E3436" stroke="#2E3436" stroke-width="1.538" stroke-linejoin="round" enable-background="new    " d="
			M405.057,170.284c-1.056,0.61-1.919,1.505-2.263,2.64l-1.005,3.268l-10.057-1.382c-2.027-0.263-4.35,1.069-5.279,2.891
			l-17.346,33.813c-0.929,1.821-0.016,3.509,2.011,3.771l11.941,1.634c2.028,0.263,4.477-1.069,5.405-2.891l4.525-8.799l-1.131,3.52
			c-0.583,1.926,0.628,3.52,2.64,3.52h9.175c2.012,0,4.068-1.594,4.651-3.52l1.257-4.022c-3.673-1.955-7.407-3.895-11.188-5.782
			C398.897,190.609,401.428,180.839,405.057,170.284L405.057,170.284z M278.106,174.054c3.723,9.573,1.057,18.452-11.941,27.905
			c0,0-5.58,5.729-13.827,14.832h11.438c1.924,0,3.983-1.291,4.902-3.017l-2.514,4.902c-0.986,1.926-0.028,3.52,2.137,3.52h20.111
			c2.164,0,4.671-1.594,5.656-3.52l18.352-35.823c0.986-1.926,0.028-3.52-2.137-3.52h-20.111c-2.163,0-4.67,1.594-5.656,3.52
			l-15.335,30.041l14.204-35.446c0.776-1.925-0.312-3.394-2.389-3.394L278.106,174.054L278.106,174.054z M358.048,180.466
			c-2.163,0-4.796,1.469-5.782,3.394l-18.352,35.823c-0.985,1.926-0.028,3.52,2.137,3.52h20.112c2.163,0,4.67-1.594,5.655-3.52
			l18.353-35.823c0.985-1.925,0.028-3.394-2.137-3.394H358.048L358.048,180.466z M321.094,182.728c-2.206,0-4.833,1.594-5.908,3.52
			l-19.986,35.823c-1.075,1.926-0.194,3.394,2.012,3.394h22.5c2.205,0,4.831-1.468,5.907-3.394l19.986-35.823
			c1.075-1.926,0.194-3.52-2.012-3.52H321.094z"/>
		<g>
			
				<linearGradient id="SVGID_9_" gradientUnits="userSpaceOnUse" x1="0.3962" y1="698.3552" x2="0.2205" y2="698.0767" gradientTransform="matrix(27.85 0 21.9147 -42.7937 -14960.7529 30077.1816)">
				<stop  offset="0" style="stop-color:#BABDB6"/>
				<stop  offset="1" style="stop-color:#888A85"/>
			</linearGradient>
			<path fill="url(#SVGID_9_)" stroke="#888A85" stroke-width="1.63" stroke-linejoin="round" d="M355.4,170.602h20.041
				c2.156,0,3.107,1.556,2.124,3.476L359.21,209.92c-0.983,1.92-3.528,3.476-5.685,3.476h-20.04c-2.157,0-3.108-1.556-2.125-3.476
				l18.354-35.842C350.698,172.158,353.243,170.602,355.4,170.602z"/>
			
				<linearGradient id="SVGID_10_" gradientUnits="userSpaceOnUse" x1="0.553" y1="698.3552" x2="0.3926" y2="698.03" gradientTransform="matrix(30.3788 0 23.9054 -42.7957 -16393.4824 30080.875)">
				<stop  offset="0" style="stop-color:#BABDB6"/>
				<stop  offset="1" style="stop-color:#888A85"/>
			</linearGradient>
			<path fill="url(#SVGID_10_)" stroke="#888A85" stroke-width="1.646" stroke-linejoin="round" d="M318.555,172.914h22.417
				c2.198,0,3.111,1.557,2.039,3.476l-20.022,35.845c-1.072,1.92-3.724,3.476-5.922,3.476H294.65c-2.198,0-3.111-1.556-2.039-3.476
				l20.021-35.845C313.704,174.47,316.357,172.914,318.555,172.914z"/>
			
				<linearGradient id="SVGID_11_" gradientUnits="userSpaceOnUse" x1="-0.0076" y1="698.6785" x2="-1.6127" y2="698.1057" gradientTransform="matrix(16.4584 0 12.9512 -42.795 -8626.4609 30067.1816)">
				<stop  offset="0" style="stop-color:#BABDB6"/>
				<stop  offset="1" style="stop-color:#888A85"/>
			</linearGradient>
			<path fill="url(#SVGID_11_)" stroke="#888A85" stroke-width="1.572" stroke-linejoin="round" d="M404.829,159.669h9.196
				c2.005,0,3.16,1.557,2.579,3.476l-10.848,35.845c-0.581,1.919-2.678,3.476-4.683,3.476h-9.196c-2.006,0-3.16-1.557-2.579-3.476
				l10.848-35.845C400.727,161.225,402.823,159.669,404.829,159.669z"/>
			
				<linearGradient id="SVGID_12_" gradientUnits="userSpaceOnUse" x1="0.1716" y1="698.2097" x2="0.2433" y2="697.618" gradientTransform="matrix(19.2604 2.4913 20.6447 -40.4792 -14032.8242 28448.5879)">
				<stop  offset="0" style="stop-color:#BABDB6"/>
				<stop  offset="1" style="stop-color:#888A85"/>
			</linearGradient>
			<path fill="url(#SVGID_12_)" stroke="#888A85" stroke-width="1.585" stroke-linejoin="round" d="M389.172,165.033l11.94,1.544
				c2.021,0.262,2.91,1.945,1.983,3.762l-17.291,33.903c-0.926,1.816-3.315,3.076-5.337,2.814l-11.94-1.545
				c-2.021-0.261-2.909-1.945-1.983-3.761l17.292-33.903C384.762,166.031,387.152,164.771,389.172,165.033z"/>
			
				<linearGradient id="SVGID_13_" gradientUnits="userSpaceOnUse" x1="0.3958" y1="698.3552" x2="0.2453" y2="697.9824" gradientTransform="matrix(27.85 0 21.9147 -42.7937 -15028.5342 30076.1191)">
				<stop  offset="0" style="stop-color:#BABDB6"/>
				<stop  offset="1" style="stop-color:#888A85"/>
			</linearGradient>
			<path fill="url(#SVGID_13_)" stroke="#888A85" stroke-width="1.63" stroke-linejoin="round" d="M287.626,169.539h20.04
				c2.156,0,3.107,1.556,2.125,3.476l-18.355,35.843c-0.982,1.919-3.527,3.476-5.685,3.476h-20.04c-2.156,0-3.107-1.557-2.125-3.476
				l18.355-35.843C282.924,171.094,285.469,169.539,287.626,169.539z"/>
			
				<linearGradient id="SVGID_14_" gradientUnits="userSpaceOnUse" x1="-0.116" y1="698.3533" x2="-0.6478" y2="697.7809" gradientTransform="matrix(21.9497 0 17.2717 -42.7938 -11796.7412 30070.8301)">
				<stop  offset="0" style="stop-color:#BABDB6"/>
				<stop  offset="1" style="stop-color:#888A85"/>
			</linearGradient>
			<path fill="url(#SVGID_14_)" stroke="#888A85" stroke-width="1.597" stroke-linejoin="round" d="M263.937,164.212h14.454
				c2.07,0,3.12,1.556,2.346,3.476l-14.467,35.842c-0.774,1.92-3.081,3.476-5.15,3.476h-14.454c-2.069,0-3.12-1.556-2.345-3.476
				l14.466-35.842C259.561,165.767,261.867,164.212,263.937,164.212z"/>
		</g>
		
			<path opacity="0.365" fill="#2E3436" stroke="#2E3436" stroke-width="1.538" stroke-linejoin="round" enable-background="new    " d="
			M411.991,223.668c-0.173,1.521,0.744,3.25,2.115,3.922l25.534,12.582c1.375,0.675,2.599,0.031,2.771-1.484l1.058-8.962
			c0.173-1.521-0.769-3.371-2.144-4.043l-10.731-5.181l2.176,0.567c1.448,0.414,2.566-0.446,2.542-1.95L411.991,223.668
			L411.991,223.668z M420.808,233.752c-0.466,0.294-0.684,0.877-0.671,1.686l0.217,14.987c0.024,1.616,1.234,3.467,2.687,4.183
			l26.97,13.306c1.452,0.716,2.646,0.036,2.623-1.58l-0.218-14.987c-0.023-1.617-1.234-3.472-2.687-4.188l-26.998-13.427
			C422.007,233.374,421.275,233.458,420.808,233.752L420.808,233.752z M427.389,259.981c-0.467,0.285-0.684,0.86-0.672,1.686
			l0.213,16.785c0.024,1.648,1.287,3.651,2.739,4.432l26.985,14.589c1.452,0.78,2.643,0.064,2.619-1.584l-0.214-16.785
			c-0.023-1.649-1.282-3.648-2.734-4.433l-26.986-14.585C428.612,259.691,427.856,259.699,427.389,259.981L427.389,259.981z
			 M424.131,285.856c-0.934-0.02-1.553,0.651-1.533,1.866l0.246,15.108c0.023,1.616,1.23,3.471,2.683,4.187l26.97,13.306
			c1.451,0.712,2.622-0.088,2.594-1.705l-0.217-14.987c-0.024-1.621-1.231-3.471-2.683-4.187l-26.974-13.307
			C424.855,285.961,424.441,285.86,424.131,285.856L424.131,285.856z"/>
		<g transform="matrix(.14367 -.7341 .7341 .14367 -51.284 325.63)">
			
				<linearGradient id="SVGID_15_" gradientUnits="userSpaceOnUse" x1="-480.5279" y1="158.7974" x2="-480.7036" y2="158.5188" gradientTransform="matrix(-12.0863 31.4149 23.5931 -6.1482 -9300.7344 16667.2773)">
				<stop  offset="0" style="stop-color:#BABDB6"/>
				<stop  offset="1" style="stop-color:#888A85"/>
			</linearGradient>
			<path fill="url(#SVGID_15_)" stroke="#888A85" stroke-width="2.179" stroke-linejoin="round" d="M254.547,573.887l20.04,0.001
				c2.156,0,3.109,1.556,2.125,3.475l-18.355,35.842c-0.983,1.919-3.527,3.476-5.684,3.475l-20.041,0
				c-2.156,0-3.107-1.556-2.125-3.475l18.355-35.842C249.844,575.444,252.391,573.888,254.547,573.887z"/>
			
				<linearGradient id="SVGID_16_" gradientUnits="userSpaceOnUse" x1="-480.4462" y1="159.2151" x2="-480.6066" y2="158.8894" gradientTransform="matrix(-13.1845 31.4163 25.7356 -6.1485 -10215.6826 16676.3086)">
				<stop  offset="0" style="stop-color:#BABDB6"/>
				<stop  offset="1" style="stop-color:#888A85"/>
			</linearGradient>
			<path fill="url(#SVGID_16_)" stroke="#888A85" stroke-width="2.2" stroke-linejoin="round" d="M216.93,582.179l22.417,0
				c2.199-0.001,3.112,1.557,2.04,3.476l-20.023,35.844c-1.072,1.919-3.723,3.476-5.922,3.475l-22.417,0
				c-2.199,0.001-3.113-1.555-2.04-3.475l20.023-35.846C212.08,583.735,214.731,582.18,216.93,582.179z"/>
			
				<linearGradient id="SVGID_17_" gradientUnits="userSpaceOnUse" x1="-481.3954" y1="156.6219" x2="-482.9979" y2="156.05" gradientTransform="matrix(-7.1429 31.4158 13.9428 -6.1484 -5295.9756 16645.6934)">
				<stop  offset="0" style="stop-color:#BABDB6"/>
				<stop  offset="1" style="stop-color:#888A85"/>
			</linearGradient>
			<path fill="url(#SVGID_17_)" stroke="#888A85" stroke-width="2.101" stroke-linejoin="round" d="M309.028,551.806l9.196,0
				c2.005,0,3.159,1.557,2.579,3.476l-10.847,35.844c-0.581,1.919-2.677,3.476-4.683,3.476l-9.196,0
				c-2.005,0-3.161-1.556-2.579-3.476l10.847-35.844C304.925,553.363,307.022,551.806,309.028,551.806z"/>
			
				<linearGradient id="SVGID_18_" gradientUnits="userSpaceOnUse" x1="-480.53" y1="156.503" x2="-480.4584" y2="155.9113" gradientTransform="matrix(-12.3881 30.0737 17.1051 -3.9868 -8343.7412 15659.4932)">
				<stop  offset="0" style="stop-color:#BABDB6"/>
				<stop  offset="1" style="stop-color:#888A85"/>
			</linearGradient>
			<path fill="url(#SVGID_18_)" stroke="#888A85" stroke-width="2.119" stroke-linejoin="round" d="M290.453,563.222l11.941,1.545
				c2.021,0.262,2.909,1.945,1.983,3.761l-17.291,33.903c-0.926,1.816-3.314,3.076-5.336,2.815l-11.941-1.545
				c-2.021-0.262-2.909-1.945-1.984-3.761l17.293-33.904C286.043,564.221,288.431,562.96,290.453,563.222z"/>
			
				<linearGradient id="SVGID_19_" gradientUnits="userSpaceOnUse" x1="-480.5263" y1="158.7991" x2="-480.677" y2="158.4259" gradientTransform="matrix(-12.0863 31.4149 23.5931 -6.1482 -9370.7793 16669.5762)">
				<stop  offset="0" style="stop-color:#BABDB6"/>
				<stop  offset="1" style="stop-color:#888A85"/>
			</linearGradient>
			<path fill="url(#SVGID_19_)" stroke="#888A85" stroke-width="2.179" stroke-linejoin="round" d="M184.511,576.179l20.04,0.001
				c2.158-0.001,3.109,1.556,2.126,3.475l-18.355,35.842c-0.984,1.919-3.529,3.476-5.685,3.475l-20.041,0
				c-2.156,0-3.107-1.556-2.125-3.475l18.355-35.842C179.81,577.735,182.355,576.179,184.511,576.179z"/>
		</g>
	</g>
</g>
<g id="去商店按钮">
	
		<linearGradient id="SVGID_20_" gradientUnits="userSpaceOnUse" x1="107.51" y1="496.8289" x2="107.64" y2="472.4089" gradientTransform="matrix(2.8346 0 0 -2.8346 51.4819 1915.2296)">
		<stop  offset="0" style="stop-color:#FF9955"/>
		<stop  offset="1" style="stop-color:#D45500"/>
	</linearGradient>
	<path fill="url(#SVGID_20_)" d="M287.302,505.708c-19.884,0-35.892,16.009-35.892,35.893s16.008,35.892,35.892,35.892h138.215
		c19.885,0,35.893-16.008,35.893-35.892c0-19.885-16.009-35.893-35.893-35.893H287.302L287.302,505.708z M290.704,509.121H422.11
		c17.994,0,32.481,14.485,32.481,32.479c0,17.995-14.487,32.481-32.481,32.481H290.704c-17.993,0-32.479-14.486-32.479-32.481
		C258.224,523.606,272.71,509.121,290.704,509.121z"/>
	
		<linearGradient id="SVGID_21_" gradientUnits="userSpaceOnUse" x1="107.5022" y1="473.3904" x2="107.6422" y2="496.0904" gradientTransform="matrix(2.8346 0 0 -2.8346 51.4817 1915.2689)">
		<stop  offset="0" style="stop-color:#FF7F2A"/>
		<stop  offset="1" style="stop-color:#FF6600"/>
	</linearGradient>
	<path fill="url(#SVGID_21_)" d="M290.704,509.12h131.414c17.938,0,32.479,14.541,32.479,32.479v0.003
		c0,17.938-14.542,32.479-32.479,32.479H290.704c-17.938,0-32.479-14.541-32.479-32.479v-0.003
		C258.224,523.661,272.765,509.12,290.704,509.12z"/>
	<text transform="matrix(1 0 0 1 284.4109 558.5681)" fill="#F7F0CD" font-family="'HappyZcool-2016'" font-size="48">去商店</text>
</g>
<g id="背包空文字">
	<text transform="matrix(1 0 0 1 223.5964 401.5886)"><tspan x="0" y="0" fill="#232323" font-family="'HappyZcool-2016'" font-size="48">您的背包里</tspan><tspan x="0" y="57.6" fill="#232323" font-family="'HappyZcool-2016'" font-size="48">什么也没有！</tspan></text>
</g>
</svg>
