<?xml version="1.0" encoding="utf-8"?>
<!-- Generator: Adobe Illustrator 16.0.0, SVG Export Plug-In . SVG Version: 6.00 Build 0)  -->
<!DOCTYPE svg PUBLIC "-//W3C//DTD SVG 1.1//EN" "http://www.w3.org/Graphics/SVG/1.1/DTD/svg11.dtd">
<svg version="1.1" id="图层_1" xmlns="http://www.w3.org/2000/svg" xmlns:xlink="http://www.w3.org/1999/xlink" x="0px" y="0px"
	 width="700px" height="700px" viewBox="0 0 700 700" enable-background="new 0 0 700 700" xml:space="preserve">
<g id="背景">
	
		<linearGradient id="SVGID_1_" gradientUnits="userSpaceOnUse" x1="1.303" y1="1.1423" x2="1.2654" y2="0.8436" gradientTransform="matrix(504.269 0 0 232.1615 -300.6617 327.0826)">
		<stop  offset="0" style="stop-color:#D3D7CF"/>
		<stop  offset="1" style="stop-color:#D3D7CF;stop-opacity:0"/>
	</linearGradient>
	<path fill="url(#SVGID_1_)" d="M395.637,499.014c0,0-234.998,3.164-183.388,18.848c40.46,12.296,104.739,17.634,63.146,24.105
		c0,0-403.074,87.766,41.217,101.435c348.841,14.202,401.075-68.982,91.125-102.084
		C411.518,527.892,527.979,497.801,395.637,499.014L395.637,499.014z"/>
	
		<linearGradient id="SVGID_2_" gradientUnits="userSpaceOnUse" x1="1.177" y1="0.7415" x2="1.4471" y2="1.126" gradientTransform="matrix(504.269 0 0 682.6803 -300.6617 -135.2885)">
		<stop  offset="0" style="stop-color:#94DCFF"/>
		<stop  offset="1" style="stop-color:#7FBDFF"/>
	</linearGradient>
	<path fill="url(#SVGID_2_)" stroke="#C17D11" stroke-width="2.632" d="M421.637,222.386c0,0-234.998,9.301-183.388,55.421
		c40.46,36.152,102.739,51.85,61.146,70.88c0,0-427.074,243.805,17.217,283.984c348.841,41.758,425.075-188.565,115.125-285.907
		c3.781-39.484,122.242-127.966-10.1-124.397V222.386z"/>
	
		<linearGradient id="SVGID_3_" gradientUnits="userSpaceOnUse" x1="0.8386" y1="1.0544" x2="0.8386" y2="1.2784" gradientTransform="matrix(122.3192 0 0 345.0647 109.7788 144.4042)">
		<stop  offset="0" style="stop-color:#7FCEFF"/>
		<stop  offset="1" style="stop-color:#94D4FF;stop-opacity:0"/>
	</linearGradient>
	<path fill="url(#SVGID_3_)" d="M282.702,398.361c-61.022,0.797-237.37,154.026-71,202.785
		C156.874,532.167,251.43,428.068,282.702,398.361L282.702,398.361z"/>
	
		<linearGradient id="SVGID_4_" gradientUnits="userSpaceOnUse" x1="1.345" y1="1.2092" x2="0.8124" y2="0.5908" gradientTransform="matrix(174.984 0 0 403.3155 347.8178 78.0032)">
		<stop  offset="0" style="stop-color:#6ABEFF"/>
		<stop  offset="1" style="stop-color:#A9E3FF;stop-opacity:0.02"/>
	</linearGradient>
	<path fill="url(#SVGID_4_)" d="M453.69,356.543c-1.028,1.507-1.926,2.938-2.646,4.369
		c139.581,77.516,146.372,164.869,99.737,235.054c94.757-63.089,84.187-170.931-97.092-239.429V356.543L453.69,356.543z"/>
	
		<linearGradient id="SVGID_5_" gradientUnits="userSpaceOnUse" x1="0.5935" y1="2.9407" x2="1.0213" y2="2.9684" gradientTransform="matrix(112.4288 0 0 130.363 189.865 -103.5748)">
		<stop  offset="0" style="stop-color:#BFEEFF"/>
		<stop  offset="1" style="stop-color:#A9DAFF;stop-opacity:0"/>
	</linearGradient>
	<path fill="url(#SVGID_5_)" d="M276.702,242.349c-6.079,0.688-24.653,7.437-29.635,9.594c-7.182,3.63-15.796,8.479-14.364,14.909
		c1.942,7.014,10.212,12.375,17.142,17.686c15.349,10.777,31.376,21.194,48.19,31.07c4.479,2.563,9.241,5.32,15.528,5.605
		c3.853,3.277,8.891,2.324,14.611,2.239c4.61-0.552,12.768,1.024,14.799,0.892c-30.68-26.423-98.822-60.947-66.274-81.996
		L276.702,242.349z"/>
	
		<linearGradient id="SVGID_6_" gradientUnits="userSpaceOnUse" x1="1.679" y1="2.4417" x2="0.29" y2="2.6571" gradientTransform="matrix(99.03 0 0 156.972 354.524 -128.7699)">
		<stop  offset="0" style="stop-color:#A9E3FF"/>
		<stop  offset="1" style="stop-color:#7FCEFF;stop-opacity:0"/>
	</linearGradient>
	<path fill="url(#SVGID_6_)" d="M457.307,226.541c-24.511,32.893-51.023,65.784-75.531,98.677c6.788,0.588,12.284-3.051,19.77-2.03
		c6.441-0.232,15.445,0.461,21.38-1.449c4.421-3.532,12.69-1.194,17.582-4.216c8.427-5.156,12.125-12.459,16.928-19.031
		c9.046-14.069,19.083-28.054,24.122-42.964c2.181-7.412,2.104-15.884-5.147-22.241C471.698,229.657,464.41,227.596,457.307,226.541
		L457.307,226.541z"/>
	
		<linearGradient id="SVGID_7_" gradientUnits="userSpaceOnUse" x1="1.4387" y1="5.1208" x2="0.9442" y2="4.8578" gradientTransform="matrix(175.0842 0 0 76.592 162.5711 -135.1053)">
		<stop  offset="0" style="stop-color:#7FB6FF"/>
		<stop  offset="1" style="stop-color:#A9DCFF"/>
	</linearGradient>
	<path fill="url(#SVGID_7_)" stroke="#C17D11" stroke-width="2.62" d="M443.119,223.218c-15.207-0.147-30.614-1.717-45.646,0.47
		c-50.362,3.369-91.8,5.112-129.099,27.808c-6.348,26.187,78.063,19.425,100.817,15.105c21.434-5.93,65.396-12.935,60.274-32.573
		c-25.868-11.342-82.097,3.118-109.471,7.649"/>
	
		<radialGradient id="SVGID_8_" cx="118.4529" cy="295.6897" r="16.5004" gradientTransform="matrix(2.0397 0 0 1.5941 121.9677 369.0484)" gradientUnits="userSpaceOnUse">
		<stop  offset="0" style="stop-color:#FFFFC0"/>
		<stop  offset="1" style="stop-color:#FFFFC0;stop-opacity:0"/>
	</radialGradient>
	<path fill="url(#SVGID_8_)" d="M355.052,572.946c-1.319,0.831-28.368-14.243-30.13-13.854c-1.762,0.387-7.969,22.782-9.822,22.651
		c-1.854-0.133,0.018-22.834-1.563-23.458c-1.579-0.624-33.282,10.284-34.275,9.291c-0.992-0.993,28.389-14.229,28.18-15.394
		c-0.208-1.167-33.533-9.958-32.918-11.065c0.616-1.107,35.383,5.091,36.703,4.261c1.319-0.83-8.534-22.701-6.772-23.089
		c1.762-0.386,15.733,20.577,17.588,20.709c1.855,0.132,22.894-18.352,24.474-17.728c1.58,0.625-15.765,20.566-14.771,21.562
		c0.992,0.993,37.081-0.182,37.29,0.983c0.209,1.166-35.391,5.071-36.008,6.178C332.407,555.102,356.371,572.119,355.052,572.946
		L355.052,572.946z"/>
	<g>
		
			<path opacity="0.301" fill="#2E3436" stroke="#2E3436" stroke-width="1.538" stroke-linejoin="round" enable-background="new    " d="
			M439.057,326.068c-1.056,0.384-1.919,0.947-2.263,1.66l-1.006,2.057l-10.057-0.87c-2.027-0.165-4.35,0.672-5.279,1.819
			l-17.346,21.27c-0.929,1.145-0.016,2.207,2.011,2.371l11.941,1.029c2.028,0.165,4.477-0.673,5.405-1.818l4.524-5.536l-1.131,2.215
			c-0.583,1.21,0.628,2.214,2.64,2.214h9.176c2.012,0,4.067-1.004,4.65-2.214l1.257-2.531c-3.673-1.229-7.406-2.45-11.188-3.637
			C432.897,338.854,435.428,332.708,439.057,326.068L439.057,326.068z M312.106,328.44c3.724,6.021,1.058,11.606-11.94,17.553
			c0,0-5.58,3.603-13.827,9.33h11.438c1.925,0,3.983-0.813,4.902-1.897l-2.514,3.084c-0.986,1.21-0.028,2.213,2.137,2.213h20.111
			c2.164,0,4.671-1.003,5.655-2.213l18.353-22.535c0.985-1.211,0.027-2.214-2.138-2.214h-20.11c-2.163,0-4.67,1.002-5.656,2.214
			l-15.335,18.897l14.204-22.298c0.776-1.21-0.313-2.134-2.389-2.134H312.106L312.106,328.44z M392.048,332.473
			c-2.163,0-4.796,0.925-5.782,2.135l-18.353,22.535c-0.984,1.21-0.027,2.213,2.138,2.213h20.111c2.163,0,4.67-1.003,5.655-2.213
			l18.354-22.535c0.984-1.21,0.027-2.135-2.138-2.135H392.048L392.048,332.473z M355.094,333.896c-2.206,0-4.833,1.002-5.908,2.214
			L329.2,358.643c-1.075,1.212-0.194,2.136,2.012,2.136h22.5c2.204,0,4.831-0.924,5.906-2.136l19.986-22.533
			c1.075-1.212,0.194-2.214-2.012-2.214H355.094z"/>
		<g>
			
				<linearGradient id="SVGID_9_" gradientUnits="userSpaceOnUse" x1="4.2263" y1="7.2405" x2="4.0708" y2="7.487" gradientTransform="matrix(27.85 0 -21.9147 42.7937 429.4586 29.8174)">
				<stop  offset="0" style="stop-color:#BABDB6"/>
				<stop  offset="1" style="stop-color:#888A85"/>
			</linearGradient>
			<path fill="url(#SVGID_9_)" stroke="#888A85" stroke-width="1.63" stroke-linejoin="round" d="M389.4,326.268h20.041
				c2.156,0,3.107,0.979,2.124,2.186l-18.354,22.548c-0.983,1.207-3.528,2.186-5.686,2.186h-20.04c-2.157,0-3.107-0.979-2.125-2.186
				l18.354-22.548C384.698,327.247,387.242,326.268,389.4,326.268z"/>
			
				<linearGradient id="SVGID_10_" gradientUnits="userSpaceOnUse" x1="4.428" y1="7.2224" x2="4.2923" y2="7.4974" gradientTransform="matrix(30.3788 0 -23.9054 42.7957 389.9468 32.0852)">
				<stop  offset="0" style="stop-color:#BABDB6"/>
				<stop  offset="1" style="stop-color:#888A85"/>
			</linearGradient>
			<path fill="url(#SVGID_10_)" stroke="#888A85" stroke-width="1.646" stroke-linejoin="round" d="M352.555,327.721h22.417
				c2.198,0,3.11,0.981,2.039,2.188l-20.022,22.548c-1.072,1.209-3.724,2.186-5.922,2.186H328.65c-2.197,0-3.11-0.977-2.039-2.186
				l20.021-22.548C347.703,328.701,350.357,327.721,352.555,327.721z"/>
			
				<linearGradient id="SVGID_11_" gradientUnits="userSpaceOnUse" x1="3.6711" y1="6.9475" x2="1.7474" y2="7.634" gradientTransform="matrix(16.4584 0 -12.9512 42.795 490.5176 18.8953)">
				<stop  offset="0" style="stop-color:#BABDB6"/>
				<stop  offset="1" style="stop-color:#888A85"/>
			</linearGradient>
			<path fill="url(#SVGID_11_)" stroke="#888A85" stroke-width="1.572" stroke-linejoin="round" d="M440.828,319.391h9.196
				c2.005,0,3.16,0.978,2.579,2.186l-12.848,22.549c-0.581,1.207-2.679,2.186-4.684,2.186h-9.195c-2.007,0-3.16-0.979-2.579-2.186
				l12.848-22.549C436.727,320.369,438.823,319.391,440.828,319.391z"/>
			
				<linearGradient id="SVGID_12_" gradientUnits="userSpaceOnUse" x1="5.2253" y1="7.4529" x2="5.27" y2="7.8217" gradientTransform="matrix(19.2604 2.4913 -20.6447 40.4792 472.0482 21.2665)">
				<stop  offset="0" style="stop-color:#BABDB6"/>
				<stop  offset="1" style="stop-color:#888A85"/>
			</linearGradient>
			<path fill="url(#SVGID_12_)" stroke="#888A85" stroke-width="1.585" stroke-linejoin="round" d="M423.172,322.765l11.939,0.972
				c2.021,0.163,2.91,1.223,1.983,2.366l-17.291,21.326c-0.926,1.143-3.315,1.935-5.337,1.771l-11.94-0.972
				c-2.021-0.164-2.909-1.225-1.982-2.366l17.292-21.326C418.762,323.392,421.152,322.6,423.172,322.765z"/>
			
				<linearGradient id="SVGID_13_" gradientUnits="userSpaceOnUse" x1="4.2351" y1="7.2502" x2="4.1122" y2="7.5546" gradientTransform="matrix(27.85 0 -21.9147 42.7937 361.6773 28.7549)">
				<stop  offset="0" style="stop-color:#BABDB6"/>
				<stop  offset="1" style="stop-color:#888A85"/>
			</linearGradient>
			<path fill="url(#SVGID_13_)" stroke="#888A85" stroke-width="1.63" stroke-linejoin="round" d="M321.626,325.6h20.04
				c2.155,0,3.106,0.979,2.125,2.186l-18.355,22.548c-0.981,1.206-3.526,2.186-5.685,2.186h-20.04c-2.156,0-3.107-0.979-2.125-2.186
				l18.354-22.548C316.924,326.578,319.469,325.6,321.626,325.6z"/>
			
				<linearGradient id="SVGID_14_" gradientUnits="userSpaceOnUse" x1="3.5876" y1="7.2917" x2="3.0728" y2="7.8458" gradientTransform="matrix(21.9497 0 -17.2717 42.7938 343.9998 23.3769)">
				<stop  offset="0" style="stop-color:#BABDB6"/>
				<stop  offset="1" style="stop-color:#888A85"/>
			</linearGradient>
			<path fill="url(#SVGID_14_)" stroke="#888A85" stroke-width="1.597" stroke-linejoin="round" d="M299.937,322.248h14.454
				c2.07,0,1.12,0.981,0.346,2.188l-14.467,22.546c-0.773,1.207-3.081,2.187-5.149,2.187h-14.454c-2.069,0-3.12-0.98-2.346-2.187
				l14.467-22.546C293.561,323.227,297.867,322.248,299.937,322.248z"/>
		</g>
		
			<path opacity="0.365" fill="#2E3436" stroke="#2E3436" stroke-width="1.538" stroke-linejoin="round" enable-background="new    " d="
			M445.99,359.648c-0.173,0.957,0.744,2.045,2.115,2.468l25.534,7.913c1.375,0.426,2.599,0.021,2.771-0.933l1.059-5.637
			c0.173-0.957-0.77-2.12-2.145-2.544l-10.73-3.258l2.176,0.355c1.448,0.262,2.566-0.28,2.542-1.227L445.99,359.648L445.99,359.648z
			 M454.808,365.992c-0.466,0.185-0.685,0.553-0.671,1.061l0.217,9.428c0.024,1.017,1.234,2.182,2.688,2.631l26.97,8.37
			c1.452,0.449,2.646,0.022,2.623-0.994l-0.218-9.428c-0.023-1.017-1.234-2.184-2.688-2.634l-26.998-8.446
			C456.007,365.755,455.275,365.806,454.808,365.992L454.808,365.992z M461.389,382.491c-0.467,0.181-0.685,0.542-0.672,1.062
			l0.213,10.558c0.023,1.037,1.287,2.298,2.739,2.787l26.984,9.18c1.452,0.489,2.644,0.038,2.619-0.997l-0.214-10.559
			c-0.023-1.038-1.282-2.297-2.734-2.79l-26.985-9.175C462.612,382.308,461.856,382.314,461.389,382.491L461.389,382.491z
			 M458.131,398.768c-0.935-0.015-1.554,0.407-1.533,1.173l0.246,9.503c0.022,1.018,1.229,2.185,2.683,2.635l26.97,8.371
			c1.451,0.447,2.622-0.058,2.595-1.073l-0.218-9.427c-0.023-1.021-1.23-2.186-2.683-2.635l-26.974-8.371
			C458.855,398.834,458.441,398.77,458.131,398.768L458.131,398.768z"/>
		<g transform="matrix(.14367 -.7341 .7341 .14367 -51.284 325.63)">
			
				<linearGradient id="SVGID_15_" gradientUnits="userSpaceOnUse" x1="-410.288" y1="-505.8412" x2="-410.4635" y2="-505.563" gradientTransform="matrix(15.5833 -1.508476e-005 -12.2622 23.945 275.4228 12787.0342)">
				<stop  offset="0" style="stop-color:#BABDB6"/>
				<stop  offset="1" style="stop-color:#888A85"/>
			</linearGradient>
			<path fill="url(#SVGID_15_)" stroke="#888A85" stroke-width="2.179" stroke-linejoin="round" d="M83.683,653.642l12.88,1.402
				c1.386,0.15,2.107,1.752,1.608,3.575l-9.29,34.068c-0.497,1.824-2.025,3.182-3.41,3.03l-12.883-1.4
				c-1.385-0.151-2.104-1.753-1.607-3.577l9.291-34.068C80.77,654.848,82.298,653.492,83.683,653.642z"/>
			
				<linearGradient id="SVGID_16_" gradientUnits="userSpaceOnUse" x1="-407.5197" y1="-505.9567" x2="-407.6783" y2="-505.6345" gradientTransform="matrix(16.9983 -3.400351e-005 -13.3762 23.9461 220.5297 12795.8857)">
				<stop  offset="0" style="stop-color:#BABDB6"/>
				<stop  offset="1" style="stop-color:#888A85"/>
			</linearGradient>
			<path fill="url(#SVGID_16_)" stroke="#888A85" stroke-width="2.2" stroke-linejoin="round" d="M60.087,659.19l14.408,1.568
				c1.412,0.152,2.107,1.753,1.553,3.571l-10.364,33.954c-0.553,1.816-2.148,3.168-3.563,3.013l-14.407-1.568
				c-1.415-0.153-2.111-1.751-1.556-3.571l10.364-33.955C57.077,660.386,58.673,659.037,60.087,659.19z"/>
			
				<linearGradient id="SVGID_17_" gradientUnits="userSpaceOnUse" x1="-429.1406" y1="-505.3782" x2="-430.8026" y2="-504.7851" gradientTransform="matrix(9.2092 -3.229133e-005 -7.2468 23.9457 406.5908 12765.3398)">
				<stop  offset="0" style="stop-color:#BABDB6"/>
				<stop  offset="1" style="stop-color:#888A85"/>
			</linearGradient>
			<path fill="url(#SVGID_17_)" stroke="#888A85" stroke-width="2.101" stroke-linejoin="round" d="M117.154,635.672l5.913,0.643
				c1.288,0.14,2.138,1.757,1.899,3.608l-4.465,34.595c-0.238,1.852-1.478,3.241-2.767,3.101l-5.911-0.643
				c-1.288-0.14-2.141-1.755-1.901-3.608l4.465-34.595C114.627,636.921,115.865,635.532,117.154,635.672z"/>
			
				<linearGradient id="SVGID_18_" gradientUnits="userSpaceOnUse" x1="-420.2349" y1="-503.6272" x2="-420.1891" y2="-503.249" gradientTransform="matrix(10.7771 1.394 -11.5516 22.6499 -1184.0958 12658.9473)">
				<stop  offset="0" style="stop-color:#BABDB6"/>
				<stop  offset="1" style="stop-color:#888A85"/>
			</linearGradient>
			<path fill="url(#SVGID_18_)" stroke="#888A85" stroke-width="2.119" stroke-linejoin="round" d="M106.013,645.634l7.783,2.358
				c1.318,0.399,2.007,2.121,1.539,3.848l-8.743,32.231c-0.468,1.727-1.917,2.802-3.233,2.403l-7.783-2.359
				c-1.318-0.401-2.006-2.122-1.54-3.849l8.745-32.231C103.249,646.31,104.697,645.234,106.013,645.634z"/>
			
				<linearGradient id="SVGID_19_" gradientUnits="userSpaceOnUse" x1="-408.8316" y1="-506.0465" x2="-408.9809" y2="-505.6767" gradientTransform="matrix(15.5833 -1.508476e-005 -12.2622 23.945 205.3784 12789.334)">
				<stop  offset="0" style="stop-color:#BABDB6"/>
				<stop  offset="1" style="stop-color:#888A85"/>
			</linearGradient>
			<path fill="url(#SVGID_19_)" stroke="#888A85" stroke-width="2.179" stroke-linejoin="round" d="M38.828,651.005l12.881,1.402
				c1.386,0.15,2.106,1.752,1.607,3.577l-9.289,34.068c-0.497,1.823-2.026,3.181-3.41,3.029l-12.883-1.4
				c-1.385-0.151-2.106-1.752-1.608-3.576l9.291-34.067C35.916,652.211,37.445,650.854,38.828,651.005z"/>
		</g>
	</g>
</g>
<g id="去商店按钮" display="none">
	
		<linearGradient id="SVGID_20_" gradientUnits="userSpaceOnUse" x1="96.0559" y1="242.6155" x2="96.1859" y2="267.0355" gradientTransform="matrix(2.8346 0 0 2.8346 102.9644 -140.8081)">
		<stop  offset="0" style="stop-color:#FF9955"/>
		<stop  offset="1" style="stop-color:#D45500"/>
	</linearGradient>
	<path display="inline" fill="url(#SVGID_20_)" d="M306.319,545.702c-19.884,0-35.892,16.009-35.892,35.893
		s16.008,35.892,35.892,35.892h138.215c19.885,0,35.893-16.008,35.893-35.892c0-19.885-16.009-35.893-35.893-35.893H306.319
		L306.319,545.702z M309.721,549.114h131.405c17.994,0,32.481,14.485,32.481,32.479c0,17.995-14.487,32.48-32.481,32.48H309.721
		c-17.993,0-32.479-14.485-32.479-32.48C277.24,563.599,291.727,549.114,309.721,549.114z"/>
	
		<linearGradient id="SVGID_21_" gradientUnits="userSpaceOnUse" x1="96.0515" y1="266.0544" x2="96.1915" y2="243.3545" gradientTransform="matrix(2.8346 0 0 2.8346 102.9644 -140.769)">
		<stop  offset="0" style="stop-color:#FF7F2A"/>
		<stop  offset="1" style="stop-color:#FF6600"/>
	</linearGradient>
	<path display="inline" fill="url(#SVGID_21_)" d="M309.721,549.113h131.413c17.938,0,32.479,14.541,32.479,32.479v0.003
		c0,17.938-14.542,32.479-32.479,32.479H309.721c-17.938,0-32.479-14.541-32.479-32.479v-0.003
		C277.24,563.654,291.781,549.113,309.721,549.113z"/>
	
		<text transform="matrix(1 0 0 1 303.427 598.5613)" display="inline" fill="#F7F0CD" font-family="'HappyZcool-2016'" font-size="48">去商店</text>
</g>
<g id="背包空文字" display="none">
	
		<text transform="matrix(1 0 0 1 239.5959 465.5222)" display="inline" fill="#232323" font-family="'HappyZcool-2016'" font-size="48">您的背包里</text>
	
		<text transform="matrix(1 0 0 1 239.5959 523.1228)" display="inline" fill="#232323" font-family="'HappyZcool-2016'" font-size="48">什么也没有！</text>
</g>
</svg>
