<?xml version="1.0" encoding="UTF-8"?>
<!DOCTYPE svg  PUBLIC '-//W3C//DTD SVG 1.1//EN'  'http://www.w3.org/Graphics/SVG/1.1/DTD/svg11.dtd'>
<svg enable-background="new 0 0 800 800" version="1.1" viewBox="0 0 800 800" xml:space="preserve" xmlns="http://www.w3.org/2000/svg">
	<rect y="-2" width="800" height="800" fill="#fff"/>
				<path d="m492.53 244.2c-0.897 2.009-2.794 3.129-4.216 2.49-1.422-0.64-1.856-2.809-0.966-4.82 0 0 28.57-64.531 8.089-108.12-9.465-20.143-40.938-35.679-74.838-36.94-35.226-1.304-63.768 12.719-78.308 38.492-13.388 23.73-9.549 93.037-9.549 93.037 0.122 2.197-1.052 4.067-2.609 4.157s-2.93-1.634-3.051-3.831c0 0-3.927-70.984 10.271-96.15 15.619-27.685 46.052-42.757 83.456-41.372 35.899 1.336 69.442 18.24 79.758 40.194 6.258 13.317 11.917 37.293 3.341 75.882-5.08 22.9-11.37 36.98-11.37 36.98z" fill="#58595B"/>
	<polygon points="205 196.3 192 613.53 528.84 716.16 548.58 228" fill="#EF4136"/>
	<polygon points="528.84 716.16 630 659 630 208 574 216 548.58 228" fill="#E83A0C"/>
	<polygon points="548.58 228 574 216 574 626 528.84 716.16" fill="#F95753"/>
	<polygon points="528.84 716.16 574 626 630 659" fill="#F98585"/>
	<polygon points="548.58 228 574 216 630 208 274 186 259 191 205 196.3" fill="#939598"/>
		<circle cx="284.6" cy="240.19" r="14.191" fill="#EAEEEF"/>
		<circle cx="284.6" cy="240.19" r="9.689" fill="#939598"/>
		<circle cx="443.78" cy="254.38" r="14.191" fill="#EAEEEF"/>
		<circle cx="443.78" cy="254.38" r="9.689" fill="#939598"/>
				<path d="m446.99 253.89c-0.897 2.009-2.794 3.129-4.216 2.489s-1.856-2.809-0.966-4.82c0 0 28.57-64.531 8.089-108.12-9.465-20.143-40.939-35.679-74.838-36.94-35.213-1.309-63.768 12.719-78.308 38.492-13.383 23.723-9.549 93.038-9.549 93.038 0.121 2.197-1.053 4.067-2.609 4.157-1.557 0.09-2.93-1.634-3.051-3.831 0 0-3.927-70.984 10.271-96.15 15.619-27.684 46.038-42.76 83.456-41.372 35.899 1.336 69.442 18.24 79.758 40.194 6.258 13.317 11.917 37.292 3.341 75.882-5.08 22.9-11.37 36.98-11.37 36.98z" fill="#6D6E71"/>
</svg>
